<svg width="314" height="465" viewBox="0 0 314 465" fill="none" xmlns="http://www.w3.org/2000/svg">
<g opacity="0.1" filter="url(#filter0_f_100:3391)">
<ellipse cx="158.008" cy="439.904" rx="76.9282" ry="14.2021" fill="black"/>
</g>
<path d="M232.164 370.765C271.906 370.765 289.995 282.765 289.995 249.398C289.995 223.391 272.05 207.629 248.458 207.629C225.013 207.629 205.98 217.711 205.743 230.196C205.743 263.143 199.944 370.765 232.164 370.765Z" fill="white" stroke="black" stroke-width="11.8351"/>
<path d="M87.007 370.765C47.2645 370.765 29.1756 282.765 29.1756 249.398C29.1756 223.391 47.1209 207.629 70.7129 207.629C94.1578 207.629 113.191 217.711 113.428 230.196C113.428 263.143 119.227 370.765 87.007 370.765Z" fill="white" stroke="black" stroke-width="11.8351"/>
<mask id="path-4-inside-1_100:3391" fill="white">
<path fill-rule="evenodd" clip-rule="evenodd" d="M268.062 239.292C268.706 232.914 261.539 229.063 256.024 232.331C227.198 249.415 193.551 259.221 157.613 259.221C122.011 259.221 88.6571 249.597 60.0108 232.808C54.4847 229.569 47.3418 233.446 48.0071 239.816C52.9142 286.804 78.5121 326.136 113.59 344.444C123.381 349.555 130.231 358.587 137.108 367.656C142.669 374.989 148.248 382.345 155.414 387.672C156.247 388.291 157.115 388.619 158.007 388.619C158.9 388.619 159.768 388.291 160.601 387.672C167.767 382.345 173.346 374.988 178.907 367.656C185.785 358.587 192.635 349.555 202.425 344.444C237.633 326.068 263.291 286.512 268.062 239.292Z"/>
</mask>
<path fill-rule="evenodd" clip-rule="evenodd" d="M268.062 239.292C268.706 232.914 261.539 229.063 256.024 232.331C227.198 249.415 193.551 259.221 157.613 259.221C122.011 259.221 88.6571 249.597 60.0108 232.808C54.4847 229.569 47.3418 233.446 48.0071 239.816C52.9142 286.804 78.5121 326.136 113.59 344.444C123.381 349.555 130.231 358.587 137.108 367.656C142.669 374.989 148.248 382.345 155.414 387.672C156.247 388.291 157.115 388.619 158.007 388.619C158.9 388.619 159.768 388.291 160.601 387.672C167.767 382.345 173.346 374.988 178.907 367.656C185.785 358.587 192.635 349.555 202.425 344.444C237.633 326.068 263.291 286.512 268.062 239.292Z" fill="#FFDF6F"/>
<path d="M113.59 344.444L119.066 333.952L119.066 333.952L113.59 344.444ZM137.108 367.656L127.678 374.808L137.108 367.656ZM155.414 387.672L162.475 378.174L162.474 378.174L155.414 387.672ZM160.601 387.672L167.662 397.17L167.662 397.17L160.601 387.672ZM178.907 367.656L169.477 360.505H169.477L178.907 367.656ZM202.425 344.444L196.949 333.953L202.425 344.444ZM268.062 239.292L256.287 238.103L268.062 239.292ZM249.991 222.15C222.94 238.18 191.37 247.386 157.613 247.386V271.056C195.732 271.056 231.456 260.649 262.058 242.513L249.991 222.15ZM157.613 247.386C124.172 247.386 92.8759 238.351 65.9951 222.597L54.0265 243.018C84.4383 260.842 119.851 271.056 157.613 271.056V247.386ZM36.236 241.045C41.4935 291.389 69.0197 334.531 108.114 354.936L119.066 333.952C88.0045 317.74 64.3349 282.22 59.7782 238.587L36.236 241.045ZM108.114 354.936C115.142 358.605 120.464 365.294 127.678 374.808L146.538 360.505C139.998 351.88 131.62 340.505 119.066 333.952L108.114 354.936ZM127.678 374.808C133.035 381.871 139.598 390.662 148.353 397.17L162.474 378.174C156.897 374.028 152.303 368.106 146.538 360.505L127.678 374.808ZM148.353 397.17C150.764 398.962 154.049 400.454 158.007 400.454V376.784C160.182 376.784 161.73 377.62 162.475 378.174L148.353 397.17ZM158.007 400.454C161.966 400.454 165.251 398.963 167.662 397.17L153.541 378.174C154.285 377.62 155.833 376.784 158.007 376.784V400.454ZM167.662 397.17C176.417 390.662 182.98 381.871 188.337 374.807L169.477 360.505C163.713 368.106 159.118 374.028 153.541 378.174L167.662 397.17ZM188.337 374.807C195.552 365.294 200.874 358.605 207.901 354.936L196.949 333.953C184.396 340.505 176.018 351.88 169.477 360.505L188.337 374.807ZM207.901 354.936C247.14 334.456 274.726 291.07 279.837 240.482L256.287 238.103C251.856 281.954 228.127 317.68 196.949 333.953L207.901 354.936ZM65.9951 222.597C59.4006 218.732 51.7173 219.077 45.8379 222.42C39.801 225.852 35.3645 232.7 36.236 241.045L59.7782 238.587C59.8611 239.38 59.7017 240.357 59.2036 241.266C58.736 242.119 58.1051 242.674 57.5365 242.997C56.4437 243.618 55.0949 243.644 54.0265 243.018L65.9951 222.597ZM262.058 242.513C260.992 243.144 259.642 243.124 258.547 242.507C257.977 242.186 257.343 241.634 256.872 240.782C256.37 239.874 256.207 238.896 256.287 238.103L279.837 240.482C280.681 232.126 276.214 225.29 270.159 221.881C264.263 218.561 256.572 218.25 249.991 222.15L262.058 242.513Z" fill="black" mask="url(#path-4-inside-1_100:3391)"/>
<ellipse cx="158.402" cy="237.919" rx="104.149" ry="34.7163" fill="black" stroke="black" stroke-width="11.8351"/>
<path d="M74.7673 296.305C74.7673 296.305 126.138 313.663 159.191 313.663C192.244 313.663 243.615 296.305 243.615 296.305" stroke="black" stroke-width="11.8351" stroke-linecap="round"/>
<circle r="23.55" transform="matrix(-1 0 0 1 60.4451 89.4649)" fill="black"/>
<path d="M56.52 85.9325L100.48 129.892" stroke="black" stroke-width="11.775"/>
<circle cx="252.77" cy="89.465" r="23.55" fill="black"/>
<path d="M257.087 85.9325L213.127 129.892" stroke="black" stroke-width="11.775"/>
<path fill-rule="evenodd" clip-rule="evenodd" d="M67.1298 229.995C54.4372 223.952 47.0502 210.383 49.5246 196.545C60.145 137.152 104.405 92.605 157.393 92.605C210.509 92.605 254.855 137.368 265.337 196.977C267.775 210.84 260.328 224.403 247.592 230.396C220.34 243.221 189.9 250.39 157.785 250.39C125.337 250.39 94.5985 243.071 67.1298 229.995Z" fill="#FFDF6F"/>
<path d="M265.337 196.977L271.136 195.957L265.337 196.977ZM247.592 230.396L250.099 235.723L247.592 230.396ZM67.1298 229.995L64.5992 235.311L67.1298 229.995ZM55.3202 197.581C65.5824 140.191 108.002 98.4925 157.393 98.4925V86.7175C100.808 86.7175 54.7077 134.112 43.7291 195.509L55.3202 197.581ZM157.393 98.4925C206.902 98.4925 249.409 140.395 259.539 197.996L271.136 195.957C260.3 134.34 214.115 86.7175 157.393 86.7175V98.4925ZM245.085 225.069C218.601 237.533 189.015 244.502 157.785 244.502V256.277C190.784 256.277 222.079 248.91 250.099 235.723L245.085 225.069ZM157.785 244.502C126.231 244.502 96.3554 237.387 69.6605 224.679L64.5992 235.311C92.8416 248.756 124.443 256.277 157.785 256.277V244.502ZM259.539 197.996C261.493 209.111 255.542 220.148 245.085 225.069L250.099 235.723C265.114 228.657 274.057 212.569 271.136 195.957L259.539 197.996ZM43.7291 195.509C40.764 212.09 49.6355 228.187 64.5992 235.311L69.6605 224.679C59.2388 219.718 53.3364 208.675 55.3202 197.581L43.7291 195.509Z" fill="black"/>
<path fill-rule="evenodd" clip-rule="evenodd" d="M89.7771 215.229C79.5602 211.068 73.4996 200.197 77.0399 189.749C87.9577 157.527 119.806 134.21 157.393 134.21C194.981 134.21 226.829 157.527 237.747 189.749C241.287 200.197 235.226 211.068 225.009 215.229C204.142 223.727 181.315 228.41 157.393 228.41C133.472 228.41 110.644 223.727 89.7771 215.229Z" fill="black"/>
<ellipse cx="184.475" cy="184.45" rx="19.625" ry="15.7" fill="white"/>
<ellipse cx="128.294" cy="184.459" rx="19.625" ry="15.7" fill="white"/>
<defs>
<filter id="filter0_f_100:3391" x="71.0793" y="415.702" width="173.856" height="48.4043" filterUnits="userSpaceOnUse" color-interpolation-filters="sRGB">
<feFlood flood-opacity="0" result="BackgroundImageFix"/>
<feBlend mode="normal" in="SourceGraphic" in2="BackgroundImageFix" result="shape"/>
<feGaussianBlur stdDeviation="5" result="effect1_foregroundBlur_100:3391"/>
</filter>
</defs>
</svg>
