<svg width="128" height="128" viewBox="0 0 128 128" fill="none" xmlns="http://www.w3.org/2000/svg">
<circle r="10.683" transform="matrix(-1 0 0 1 30.567 38.683)" fill="black"/>
<path d="M28.7869 37.082L48.7285 57.0236" stroke="black" stroke-width="6.46477"/>
<circle cx="96.4447" cy="38.683" r="10.683" fill="black"/>
<path d="M98.4025 37.082L78.4609 57.0236" stroke="black" stroke-width="6.46477"/>
<path fill-rule="evenodd" clip-rule="evenodd" d="M24.8832 92.658C17.8408 89.4999 13.7474 81.9983 15.344 74.4471C20.8141 48.5759 40.4617 29.4258 63.861 29.4258C87.3181 29.4258 107.005 48.6706 112.418 74.6388C113.995 82.2044 109.869 89.7024 102.803 92.8328C90.9516 98.0835 77.836 101 64.0391 101C50.0899 101 36.8371 98.0187 24.8832 92.658Z" fill="#FFDF6F"/>
<path fill-rule="evenodd" clip-rule="evenodd" d="M24.8832 92.658C17.8408 89.4999 13.7474 81.9983 15.344 74.4471C20.8141 48.5759 40.4617 29.4258 63.861 29.4258C87.3181 29.4258 107.005 48.6706 112.418 74.6388C113.995 82.2044 109.869 89.7024 102.803 92.8328C90.9516 98.0835 77.836 101 64.0391 101C50.0899 101 36.8371 98.0187 24.8832 92.658Z" fill="black" fill-opacity="0.5" style="mix-blend-mode:saturation"/>
<path d="M112.418 74.6388L109.254 75.2985L112.418 74.6388ZM102.803 92.8328L101.494 89.8775L102.803 92.8328ZM15.344 74.4471L12.1815 73.7785L15.344 74.4471ZM24.8832 92.658L23.5606 95.6074L24.8832 92.658ZM18.5064 75.1158C23.7493 50.3193 42.3807 32.6582 63.861 32.6582V26.1934C38.5426 26.1934 17.8789 46.8326 12.1815 73.7785L18.5064 75.1158ZM63.861 32.6582C85.394 32.6582 104.065 50.4073 109.254 75.2985L115.583 73.9792C109.945 46.9339 89.2422 26.1934 63.861 26.1934V32.6582ZM101.494 89.8775C90.0466 94.949 77.3764 97.7679 64.0391 97.7679V104.233C78.2956 104.233 91.8565 101.218 104.112 95.7882L101.494 89.8775ZM64.0391 97.7679C50.5547 97.7679 37.7519 94.8864 26.2059 89.7086L23.5606 95.6074C35.9223 101.151 49.6252 104.233 64.0391 104.233V97.7679ZM109.254 75.2985C110.501 81.2809 107.254 87.3256 101.494 89.8775L104.112 95.7882C112.484 92.0792 117.49 83.1278 115.583 73.9792L109.254 75.2985ZM12.1815 73.7785C10.2508 82.9099 15.217 91.8657 23.5606 95.6074L26.2059 89.7086C20.4647 87.134 17.244 81.0867 18.5064 75.1158L12.1815 73.7785Z" fill="black"/>
<path fill-rule="evenodd" clip-rule="evenodd" d="M34.8054 85.6901C29.148 83.5267 25.783 77.4967 28.0105 71.8642C33.4545 58.0981 47.4529 48.3008 63.8629 48.3008C80.2723 48.3008 94.2702 58.0973 99.7147 71.8627C101.942 77.4951 98.5777 83.5252 92.9204 85.6889C83.8958 89.1404 74.0994 91.0312 63.8613 91.0312C53.6245 91.0312 43.8291 89.1408 34.8054 85.6901Z" fill="black"/>
<path d="M83.2674 72.6914H69.0234" stroke="white" stroke-width="4.30985" stroke-linecap="round"/>
<path d="M58.3436 72.6914H44.0996" stroke="white" stroke-width="4.30985" stroke-linecap="round"/>
</svg>
