<svg width="58" height="58" viewBox="0 0 58 58" fill="none" xmlns="http://www.w3.org/2000/svg">
<circle cx="29" cy="29" r="29" fill="white" fill-opacity="0.1"/>
<path d="M24.2002 17C22.8747 17 21.8002 18.0745 21.8002 19.4C21.8002 20.7255 22.8747 21.8 24.2002 21.8L37.6061 21.8L34.5031 24.9029C33.5659 25.8402 33.5659 27.3598 34.5031 28.2971C35.4404 29.2343 36.96 29.2343 37.8972 28.2971L45.0973 21.0971C45.5473 20.647 45.8002 20.0365 45.8002 19.4C45.8002 18.7635 45.5473 18.153 45.0973 17.7029L37.8973 10.5029C36.96 9.56569 35.4404 9.56569 34.5031 10.5029C33.5659 11.4402 33.5659 12.9598 34.5031 13.8971L37.6061 17L24.2002 17Z" fill="#F8C455"/>
<path d="M33.8002 41C35.1257 41 36.2002 39.9255 36.2002 38.6C36.2002 37.2745 35.1257 36.2 33.8002 36.2L20.3943 36.2L23.4973 33.0971C24.4345 32.1598 24.4345 30.6402 23.4973 29.7029C22.56 28.7657 21.0404 28.7657 20.1031 29.7029L12.9031 36.9029C12.4531 37.353 12.2002 37.9635 12.2002 38.6C12.2002 39.2365 12.4531 39.847 12.9031 40.2971L20.1031 47.4971C21.0404 48.4343 22.56 48.4343 23.4972 47.4971C24.4345 46.5598 24.4345 45.0402 23.4972 44.1029L20.3943 41L33.8002 41Z" fill="#F8C455"/>
</svg>
