<svg width="57" height="95" viewBox="0 0 57 95" fill="none" xmlns="http://www.w3.org/2000/svg">
<path d="M0.0171226 92.8703C-0.0545243 93.137 0.103586 93.4112 0.370272 93.4829L4.71617 94.6504C4.98285 94.7221 5.25713 94.564 5.32877 94.2973C5.40042 94.0306 5.24231 93.7563 4.97563 93.6847L1.11261 92.6469L2.15043 88.7838C2.22208 88.5171 2.06397 88.2429 1.79728 88.1712C1.5306 88.0996 1.25632 88.2577 1.18468 88.5244L0.0171226 92.8703ZM0.749714 93.4332C2.0986 92.6556 3.42029 91.8726 4.71508 91.0848L4.19527 90.2305C2.90729 91.0142 1.5924 91.7931 0.250286 92.5668L0.749714 93.4332ZM12.3856 86.1525C14.9912 84.3809 17.4699 82.5908 19.8247 80.7877L19.2168 79.9937C16.8772 81.7851 14.4138 83.5642 11.8233 85.3256L12.3856 86.1525ZM26.9086 75.0085C29.2961 72.9297 31.5272 70.8414 33.6067 68.7518L32.8978 68.0464C30.8356 70.1186 28.622 72.1907 26.2519 74.2543L26.9086 75.0085ZM39.7912 62.02C41.8484 59.5832 43.7052 57.1563 45.3688 54.7521L44.5465 54.1831C42.9018 56.56 41.0646 58.9615 39.0271 61.3749L39.7912 62.02ZM50.1602 46.9318C51.6881 44.0696 52.9391 41.2621 53.9266 38.5331L52.9862 38.1928C52.016 40.8742 50.7848 43.6381 49.278 46.4609L50.1602 46.9318ZM56.2792 29.6412C56.8102 26.376 56.9246 23.2849 56.6491 20.4209L55.6537 20.5167C55.9202 23.2866 55.8109 26.2912 55.2922 29.4807L56.2792 29.6412ZM54.1831 11.5061C52.743 8.63812 50.7303 6.2377 48.2062 4.41764L47.6213 5.22876C50.0083 6.94999 51.9179 9.22345 53.2895 11.9549L54.1831 11.5061ZM39.6447 0.893796C38.1743 0.63373 36.6242 0.5 35 0.5V1.5C36.5693 1.5 38.0609 1.62921 39.4706 1.87851L39.6447 0.893796Z" fill="black"/>
</svg>
