<svg width="103" height="209" viewBox="0 0 103 209" fill="none" xmlns="http://www.w3.org/2000/svg">
<path opacity="0.5" d="M57.4792 161.305C53.8196 169.208 58.8269 172.08 65.0072 175.624C71.1876 179.168 78.2145 177.681 79.8583 174.133C81.0541 171.556 78.5106 163.358 72.3303 159.814C66.1499 156.271 61.1426 153.398 57.4792 161.305Z" fill="#9D9D9C"/>
<path d="M51.3222 190.365C51.3222 200.658 61.5835 209 74.2441 209C86.9047 209 97.166 200.658 97.166 190.365C97.166 180.071 86.9047 171.73 74.2441 171.73C61.5835 171.73 51.3222 180.071 51.3222 190.365Z" fill="#FED40B"/>
<path d="M77.5952 208.801C80.8183 208.417 83.8249 207.488 86.4671 206.132C90.3279 194.622 89.5307 182.221 88.7259 175.92C86.7481 174.606 84.5007 173.558 82.0559 172.84C82.5418 181.579 78.8594 202.098 77.5952 208.801Z" fill="#1E1201"/>
<path d="M74.2432 171.73C71.6048 171.73 69.0727 172.093 66.7114 172.76C62.6342 180.274 61.632 198.419 61.389 205.798C64.1147 207.302 67.2581 208.341 70.6481 208.772C69.8395 194.36 73.7383 177.436 75.1885 171.746C74.8734 171.738 74.5583 171.73 74.2432 171.73Z" fill="#1E1201"/>
<path d="M55.8428 201.482C54.9659 191.885 56.5755 183.011 57.665 177.495C53.7359 180.84 51.3215 185.372 51.3215 190.365C51.3215 194.529 53.0032 198.377 55.8428 201.482Z" fill="#1E1201"/>
<path d="M90.4119 185.288C90.4119 186.559 91.3382 187.59 92.4808 187.59C93.6235 187.59 94.5498 186.559 94.5498 185.288C94.5498 184.016 93.6235 182.986 92.4808 182.986C91.3382 182.986 90.4119 184.016 90.4119 185.288Z" fill="#F6F6F6"/>
<path d="M91.5473 185.288C91.5473 185.862 91.9649 186.327 92.4812 186.327C92.9974 186.327 93.415 185.862 93.415 185.288C93.415 184.713 92.9974 184.249 92.4812 184.249C91.9649 184.249 91.5473 184.713 91.5473 185.288Z" fill="#1E1201"/>
<path opacity="0.3" d="M90.5902 191.598C90.5902 192.278 91.4747 192.831 92.568 192.831C93.6614 192.831 94.5459 192.278 94.5459 191.598C94.5459 190.918 93.6614 190.365 92.568 190.365C91.4747 190.365 90.5902 190.914 90.5902 191.598Z" fill="#F186BB"/>
<path d="M100.077 172.815C100.077 173.698 100.719 174.412 101.512 174.412C102.306 174.412 102.947 173.698 102.947 172.815C102.947 171.932 102.306 171.219 101.512 171.219C100.719 171.219 100.077 171.932 100.077 172.815Z" fill="#1E1201"/>
<path d="M98.3117 169.766C98.3117 170.648 98.9532 171.362 99.7466 171.362C100.54 171.362 101.182 170.648 101.182 169.766C101.182 168.883 100.54 168.169 99.7466 168.169C98.9532 168.169 98.3117 168.883 98.3117 169.766Z" fill="#1E1201"/>
<path d="M100.612 172.815C95.8062 172.477 93.0577 175.024 92.3668 180.456" stroke="#1D1D1B" stroke-dasharray="22 22"/>
<path d="M98.7256 169.554C94.1966 169.875 91.6228 172.574 91.0002 177.651" stroke="#1D1D1B" stroke-dasharray="22 22"/>
<path opacity="0.5" d="M53.9492 169.956C52.0662 178.597 57.5443 180.076 64.2978 181.896C71.0552 183.717 77.5696 180.43 78.4162 176.553C79.0312 173.736 74.8211 166.433 68.0637 164.613C61.3064 162.792 55.8321 161.314 53.9492 169.956Z" fill="#9D9D9C"/>
<path d="M92.3673 196.46C93.0013 197.14 93.9769 197.571 95.2942 197.744C95.6624 197.047 95.9813 196.329 96.2471 195.594C95.3094 196.156 94.0035 196.62 92.3673 196.46Z" fill="#1E1201"/>
<path d="M37.0777 -7C24.1666 15.7449 5.55345 44.9142 11.5668 74.1342C14.2166 87.0166 19.4554 98.2307 30.8404 102.987C38.4102 106.15 54.4229 106.277 49.0436 92.0218C45.9193 83.7432 32.2071 82.3156 26.1445 84.9385C14.2052 90.1042 7.27317 108.414 3.8793 121.052C-2.93502 146.458 8.5601 183.825 41.8497 180.97" stroke="#1E1201" stroke-width="3" stroke-linecap="round" stroke-dasharray="21 21"/>
</svg>
