<svg width="104" height="202" viewBox="0 0 104 202" fill="none" xmlns="http://www.w3.org/2000/svg">
<path d="M37.0777 -7C24.1666 15.7449 5.55345 44.9142 11.5668 74.1342C14.2166 87.0166 19.4554 98.2307 30.8404 102.987C38.4102 106.15 54.4229 106.277 49.0436 92.0218C45.9193 83.7432 32.2071 82.3156 26.1445 84.9385C14.2052 90.1042 7.27317 108.414 3.8793 121.052C-2.93502 146.458 8.5601 183.825 41.8497 180.97" stroke="#1E1201" stroke-width="3" stroke-linecap="round" stroke-dasharray="21 21"/>
<path d="M77.2821 176.669C87.039 179.359 94.4323 169.873 95.5517 165.812C96.4242 162.647 92.5473 159.514 86.7554 157.917C80.9996 156.331 75.9886 156.27 75.5117 157.773C74.4062 161.783 69.3719 174.488 77.2821 176.669Z" fill="white" stroke="black" stroke-width="2"/>
<path d="M49.6849 169.062C39.9279 166.372 38.4393 154.438 39.5588 150.377C40.4313 147.212 45.3657 146.508 51.1577 148.105C56.9135 149.691 61.2481 152.206 60.8872 153.742C59.782 157.752 57.595 171.242 49.6849 169.062Z" fill="white" stroke="black" stroke-width="2"/>
<mask id="path-4-inside-1_5963_31835" fill="white">
<path fill-rule="evenodd" clip-rule="evenodd" d="M82.6816 168.507C83.9421 166.264 81.6219 163.964 79.0788 164.354C74.748 165.019 70.2088 164.802 65.7096 163.562C61.2615 162.336 57.292 160.231 53.9377 157.487C51.948 155.859 48.7836 156.658 48.7252 159.228C48.5844 165.415 50.7665 171.119 54.6075 174.889C55.6978 175.96 56.2285 177.646 56.7488 179.299C57.444 181.507 58.1206 183.657 60.0886 184.199C62.0567 184.742 63.7391 183.242 65.4678 181.702C66.7616 180.549 68.0812 179.373 69.5659 179.013C74.819 177.737 79.634 173.93 82.6816 168.507Z"/>
</mask>
<path fill-rule="evenodd" clip-rule="evenodd" d="M82.6816 168.507C83.9421 166.264 81.6219 163.964 79.0788 164.354C74.748 165.019 70.2088 164.802 65.7096 163.562C61.2615 162.336 57.292 160.231 53.9377 157.487C51.948 155.859 48.7836 156.658 48.7252 159.228C48.5844 165.415 50.7665 171.119 54.6075 174.889C55.6978 175.96 56.2285 177.646 56.7488 179.299C57.444 181.507 58.1206 183.657 60.0886 184.199C62.0567 184.742 63.7391 183.242 65.4678 181.702C66.7616 180.549 68.0812 179.373 69.5659 179.013C74.819 177.737 79.634 173.93 82.6816 168.507Z" fill="#FFDF6F"/>
<path d="M54.6075 174.889L56.0085 173.462L56.0085 173.462L54.6075 174.889ZM56.7488 179.299L58.6565 178.698L58.6565 178.698L56.7488 179.299ZM65.4678 181.702L66.7984 183.195L65.4678 181.702ZM69.5659 179.013L69.094 177.069L69.094 177.069L69.5659 179.013ZM78.7753 162.378C74.7178 163.001 70.4633 162.798 66.2412 161.634L65.1781 165.49C69.9543 166.807 74.7782 167.038 79.3823 166.331L78.7753 162.378ZM66.2412 161.634C62.0668 160.483 58.3467 158.51 55.2041 155.939L52.6714 159.035C56.2374 161.952 60.4561 164.188 65.1781 165.49L66.2412 161.634ZM46.7257 159.182C46.574 165.848 48.9206 172.109 53.2064 176.317L56.0085 173.462C52.6123 170.128 50.5947 164.983 50.7246 159.273L46.7257 159.182ZM53.2064 176.317C53.8685 176.966 54.276 178.104 54.8411 179.899L58.6565 178.698C58.1809 177.187 57.527 174.953 56.0085 173.462L53.2064 176.317ZM54.8411 179.899C55.1718 180.95 55.5751 182.26 56.2036 183.364C56.8659 184.526 57.8937 185.669 59.5571 186.127L60.6201 182.271C60.3156 182.187 60.021 181.984 59.6792 181.384C59.3036 180.724 59.021 179.856 58.6565 178.698L54.8411 179.899ZM59.5571 186.127C61.2206 186.586 62.6887 186.131 63.853 185.472C64.9581 184.847 65.976 183.928 66.7984 183.195L64.1372 180.209C63.2309 181.016 62.5433 181.617 61.8829 181.991C61.2819 182.331 60.9247 182.355 60.6201 182.271L59.5571 186.127ZM66.7984 183.195C68.2033 181.943 69.1362 181.175 70.0378 180.956L69.094 177.069C67.0263 177.571 65.3198 179.155 64.1372 180.209L66.7984 183.195ZM70.0378 180.956C75.8991 179.533 81.1426 175.328 84.4252 169.487L80.9381 167.527C78.1254 172.532 73.7389 175.941 69.094 177.069L70.0378 180.956ZM55.2041 155.939C53.691 154.701 51.7095 154.359 50.027 154.869C48.2686 155.402 46.7772 156.918 46.7257 159.182L50.7246 159.273C50.7295 159.059 50.7897 158.961 50.8327 158.909C50.8866 158.843 50.9942 158.756 51.1874 158.697C51.5992 158.572 52.1948 158.645 52.6714 159.035L55.2041 155.939ZM79.3823 166.331C79.9916 166.238 80.5419 166.478 80.8331 166.796C80.9698 166.945 81.0181 167.074 81.0309 167.159C81.0411 167.226 81.0431 167.341 80.9381 167.527L84.4252 169.487C85.5357 167.511 85.0232 165.445 83.78 164.091C82.5905 162.795 80.7091 162.081 78.7753 162.378L79.3823 166.331Z" fill="black" mask="url(#path-4-inside-1_5963_31835)"/>
<ellipse cx="66.7713" cy="160.202" rx="17.2476" ry="5.73849" transform="rotate(15.4116 66.7713 160.202)" fill="black" stroke="black" stroke-width="2"/>
<path d="M50.8545 165.825C50.8545 165.825 58.2934 170.852 63.5703 172.307C68.8471 173.761 77.811 173.256 77.811 173.256" stroke="black" stroke-width="2" stroke-linecap="round"/>
<ellipse rx="3.9" ry="3.89273" transform="matrix(-0.964042 -0.265751 -0.265751 0.964042 57.8288 133.789)" fill="black"/>
<path d="M57.3578 133.053L62.4449 141.993" stroke="black" stroke-width="2"/>
<ellipse cx="88.5339" cy="142.253" rx="3.9" ry="3.89273" transform="rotate(15.4116 88.5339 142.253)" fill="black"/>
<path d="M89.3786 141.88L80.4293 146.951" stroke="black" stroke-width="2"/>
<path fill-rule="evenodd" clip-rule="evenodd" d="M57.0435 159.663C52.2511 156.671 50.718 150.251 54.211 145.811C58.9946 139.73 66.2694 136.654 73.1693 138.556C80.0884 140.464 84.7663 146.863 85.7406 154.564C86.4507 160.177 81.8209 164.894 76.1647 164.981C72.9116 165.032 69.5964 164.626 66.3008 163.717C62.9501 162.793 59.848 161.413 57.0435 159.663Z" fill="#FFDF6F"/>
<path d="M76.1647 164.981L76.1493 163.982L76.1647 164.981ZM57.0435 159.663L56.514 160.511L57.0435 159.663ZM54.9969 146.429C59.5909 140.59 66.4767 137.749 72.9035 139.52L73.435 137.592C66.062 135.56 58.3982 138.871 53.425 145.193L54.9969 146.429ZM72.9035 139.52C79.3481 141.297 83.8127 147.293 84.7485 154.69L86.7327 154.439C85.7198 146.433 80.8286 139.63 73.435 137.592L72.9035 139.52ZM76.1493 163.982C72.9902 164.03 69.7697 163.636 66.5666 162.753L66.0351 164.681C69.4231 165.615 72.833 166.033 76.1801 165.981L76.1493 163.982ZM66.5666 162.753C63.3098 161.855 60.2965 160.514 57.573 158.814L56.514 160.511C59.3995 162.312 62.5903 163.732 66.0351 164.681L66.5666 162.753ZM84.7485 154.69C85.3742 159.635 81.2888 163.903 76.1493 163.982L76.1801 165.981C82.3529 165.886 87.5272 160.718 86.7327 154.439L84.7485 154.69ZM53.425 145.193C49.5167 150.161 51.2839 157.246 56.514 160.511L57.573 158.814C53.2182 156.096 51.9192 150.342 54.9969 146.429L53.425 145.193Z" fill="black"/>
<path fill-rule="evenodd" clip-rule="evenodd" d="M60.5779 157.484C56.7074 155.323 55.489 150.06 59.0392 147.405C62.3629 144.919 66.8822 143.957 71.342 145.186C75.8017 146.416 79.1896 149.558 80.7701 153.395C82.4583 157.495 78.7157 161.389 74.2842 161.263C71.9401 161.196 69.5661 160.848 67.204 160.197C64.8419 159.546 62.6253 158.628 60.5779 157.484Z" fill="black"/>
<ellipse cx="73.4581" cy="154.384" rx="3.25" ry="2.59516" transform="rotate(15.4116 73.4581 154.384)" fill="white"/>
<ellipse cx="64.4884" cy="151.913" rx="3.25" ry="2.59516" transform="rotate(15.4116 64.4884 151.913)" fill="white"/>
</svg>
