<svg width="105" height="140" viewBox="0 0 105 140" fill="none" xmlns="http://www.w3.org/2000/svg">
<path opacity="0.5" d="M35.5466 3.55076C38.4095 9.10436 34.4929 11.1235 29.6616 13.6129C24.8302 16.1024 19.336 15.0589 18.0521 12.5665C17.1186 10.7558 19.1073 4.9938 23.9372 2.50431C28.7685 0.0148181 32.6851 -2.00428 35.5466 3.55076Z" fill="#9D9D9C"/>
<path d="M40.3615 23.9704C40.3615 31.203 32.3387 37.0663 22.4415 37.0663C12.5443 37.0663 4.52148 31.203 4.52148 23.9704C4.52148 16.7378 12.5443 10.8745 22.4415 10.8745C32.3387 10.8745 40.3615 16.7378 40.3615 23.9704Z" fill="#F8C455"/>
<path d="M19.8201 36.9259C17.2988 36.6552 14.9497 36.0025 12.8843 35.0487C9.8665 26.9607 10.4903 18.2475 11.1185 13.8199C12.6628 12.898 14.4229 12.1612 16.3334 11.6547C15.9527 17.7959 18.833 32.2147 19.8187 36.9245L19.8201 36.9259Z" fill="#1E1201"/>
<path d="M22.4418 10.8745C24.5043 10.8745 26.4843 11.1293 28.3282 11.5982C31.5139 16.8782 32.2999 29.6268 32.4909 34.8127C30.3604 35.8693 27.9027 36.5988 25.2511 36.9042C25.8851 26.7783 22.834 14.8838 21.7021 10.8861C21.9468 10.8789 22.1943 10.8745 22.4418 10.8745Z" fill="#1E1201"/>
<path d="M36.8256 31.7819C37.5102 25.0386 36.2539 18.8033 35.4014 14.9272C38.4742 17.2777 40.3615 20.4634 40.3615 23.9719C40.3615 26.8985 39.0473 29.6022 36.8256 31.7834V31.7819Z" fill="#1E1201"/>
<path d="M9.79888 20.4041C9.79888 21.2971 9.07519 22.0208 8.18215 22.0208C7.28912 22.0208 6.56543 21.2971 6.56543 20.4041C6.56543 19.511 7.28912 18.7874 8.18215 18.7874C9.07519 18.7874 9.79888 19.511 9.79888 20.4041Z" fill="#F6F6F6"/>
<path d="M8.91303 20.4041C8.91303 20.8079 8.58592 21.135 8.1821 21.135C7.77828 21.135 7.45117 20.8079 7.45117 20.4041C7.45117 20.0002 7.77828 19.6731 8.1821 19.6731C8.58592 19.6731 8.91303 20.0002 8.91303 20.4041Z" fill="#1E1201"/>
<path opacity="0.3" d="M9.65993 24.8359C9.65993 25.3136 8.96663 25.7015 8.11268 25.7015C7.25872 25.7015 6.56543 25.3136 6.56543 24.8359C6.56543 24.3583 7.25872 23.9704 8.11268 23.9704C8.96663 23.9704 9.65993 24.3583 9.65993 24.8359Z" fill="#F186BB"/>
<path d="M2.24344 11.6402C2.24344 12.2596 1.7412 12.7619 1.12172 12.7619C0.502241 12.7619 0 12.2596 0 11.6402C0 11.0207 0.502241 10.5184 1.12172 10.5184C1.7412 10.5184 2.24344 11.0207 2.24344 11.6402Z" fill="#1E1201"/>
<path d="M3.6243 9.4966C3.6243 10.1161 3.12206 10.6183 2.50258 10.6183C1.8831 10.6183 1.38086 10.1161 1.38086 9.4966C1.38086 8.87712 1.8831 8.37488 2.50258 8.37488C3.12206 8.37488 3.6243 8.87712 3.6243 9.4966Z" fill="#1E1201"/>
<path d="M1.82617 11.6402C5.58357 11.4028 7.73293 13.1932 8.2728 17.0085" stroke="#1D1D1B"/>
<path d="M3.2998 9.34753C6.84154 9.57333 8.8534 11.4694 9.33827 15.0386" stroke="#1D1D1B"/>
<path opacity="0.5" d="M38.3058 9.62975C39.7778 15.7015 35.4965 16.7407 30.2135 18.0202C24.932 19.3011 19.8373 16.9911 19.1773 14.2657C18.6967 12.2857 21.9866 7.15473 27.2696 5.87525C32.551 4.59432 36.8338 3.55655 38.3058 9.62975Z" fill="#9D9D9C"/>
<path d="M8.27344 28.2532C7.77843 28.7323 7.01566 29.0319 5.98368 29.1549C5.6942 28.6657 5.44526 28.162 5.23828 27.6438C5.97066 28.0375 6.99106 28.3661 8.27344 28.2532Z" fill="#1E1201"/>
<path d="M43.8613 25.344C62.0882 22.3435 79.9083 32.9499 88.2336 49.0983C93.4963 59.3038 94.2316 77.399 84.1086 85.3248C76.6995 91.1259 63.1433 88.9027 58.0167 81.0073C53.1607 73.5301 57.8228 64.7243 66.4274 63.3203C77.0266 61.5921 90.8491 65.9704 96.546 75.238C104.082 87.4959 103.858 101.789 101.673 115.53C100.478 123.032 97.5215 130.114 96.6516 137.606" stroke="#1E1201" stroke-width="3" stroke-linecap="round" stroke-dasharray="20 20"/>
</svg>
