<svg width="121" height="187" viewBox="0 0 121 187" fill="none" xmlns="http://www.w3.org/2000/svg">
<path d="M59.8613 72.3439C78.0882 69.3435 95.9083 79.9499 104.234 96.0983C109.496 106.304 110.232 124.399 100.109 132.325C92.6995 138.126 79.1433 135.903 74.0167 128.007C69.1607 120.53 73.8228 111.724 82.4274 110.32C93.0266 108.592 106.849 112.97 112.546 122.238C120.082 134.496 119.858 148.789 117.673 162.53C116.478 170.032 113.521 177.114 112.652 184.606" stroke="#1E1201" stroke-width="3" stroke-linecap="round" stroke-dasharray="20 20"/>
<path d="M59.2051 58.3198C68.6036 54.5647 68.7595 42.5391 67.1966 38.6274C65.9784 35.5786 60.9964 35.4264 55.4173 37.6555C49.8729 39.8707 45.844 42.8509 46.3729 44.3369C47.916 48.1994 51.5856 61.3642 59.2051 58.3198Z" fill="white" stroke="black" stroke-width="2"/>
<path d="M32.6212 68.9407C23.2227 72.6958 14.8231 64.0885 13.2602 60.1768C12.042 57.1279 15.5476 53.5846 21.1267 51.3555C26.671 49.1403 31.6444 48.5238 32.2851 49.965C33.8284 53.8275 40.2407 65.8964 32.6212 68.9407Z" fill="white" stroke="black" stroke-width="2"/>
<mask id="path-4-inside-1_5963_31834" fill="white">
<path fill-rule="evenodd" clip-rule="evenodd" d="M58.5735 48.554C58.2218 46.0053 54.9831 45.5753 53.1932 47.4235C50.145 50.5711 46.3976 53.1418 42.0638 54.8733C37.779 56.5853 33.3445 57.3078 29.0138 57.1495C26.4448 57.0555 24.4067 59.6044 25.9135 61.6871C29.5417 66.7016 34.7274 69.926 40.0664 70.608C41.582 70.8015 43.0239 71.8239 44.4375 72.8262C46.3264 74.1654 48.1647 75.4687 50.0604 74.7113C51.9562 73.9539 52.3902 71.7426 52.8362 69.4705C53.17 67.7701 53.5104 66.0356 54.4753 64.851C57.8891 60.6596 59.4238 54.7164 58.5735 48.554Z"/>
</mask>
<path fill-rule="evenodd" clip-rule="evenodd" d="M58.5735 48.554C58.2218 46.0053 54.9831 45.5753 53.1932 47.4235C50.145 50.5711 46.3976 53.1418 42.0638 54.8733C37.779 56.5853 33.3445 57.3078 29.0138 57.1495C26.4448 57.0555 24.4067 59.6044 25.9135 61.6871C29.5417 66.7016 34.7274 69.926 40.0664 70.608C41.582 70.8015 43.0239 71.8239 44.4375 72.8262C46.3264 74.1654 48.1647 75.4687 50.0604 74.7113C51.9562 73.9539 52.3902 71.7426 52.8362 69.4705C53.17 67.7701 53.5104 66.0356 54.4753 64.851C57.8891 60.6596 59.4238 54.7164 58.5735 48.554Z" fill="#FFDF6F"/>
<path d="M40.0664 70.608L40.3199 68.6241L40.0664 70.608ZM44.4375 72.8262L45.5943 71.1946L44.4375 72.8262ZM52.8362 69.4705L54.7987 69.8557L52.8362 69.4705ZM54.4753 64.851L52.9246 63.5879L52.9246 63.5879L54.4753 64.851ZM51.7565 46.0322C48.9007 48.9811 45.3888 51.3911 41.3217 53.0161L42.8058 56.7306C47.4065 54.8924 51.3894 52.1611 54.6299 48.8149L51.7565 46.0322ZM41.3217 53.0161C37.3007 54.6226 33.1442 55.2991 29.0868 55.1508L28.9407 59.1481C33.5447 59.3165 38.2573 58.5479 42.8058 56.7306L41.3217 53.0161ZM24.2932 62.8595C28.2014 68.2611 33.8558 71.8309 39.813 72.5918L40.3199 68.6241C35.5991 68.0211 30.8819 65.1421 27.5339 60.5147L24.2932 62.8595ZM39.813 72.5918C40.7334 72.7094 41.7457 73.3693 43.2807 74.4577L45.5943 71.1946C44.3021 70.2785 42.4305 68.8937 40.3199 68.6241L39.813 72.5918ZM43.2807 74.4577C44.1793 75.0948 45.2928 75.8951 46.4604 76.3941C47.6906 76.9198 49.2001 77.2088 50.8025 76.5685L49.3184 72.854C49.025 72.9713 48.6674 72.9873 48.0323 72.7159C47.3346 72.4177 46.5846 71.8967 45.5943 71.1946L43.2807 74.4577ZM50.8025 76.5685C52.4048 75.9283 53.2996 74.6788 53.8288 73.4501C54.3311 72.2839 54.5866 70.9366 54.7987 69.8557L50.8736 69.0853C50.6398 70.2765 50.4553 71.1708 50.1551 71.8677C49.8819 72.502 49.6117 72.7368 49.3184 72.854L50.8025 76.5685ZM54.7987 69.8557C55.1612 68.0092 55.4401 66.8334 56.026 66.114L52.9246 63.5879C51.5808 65.2377 51.1787 67.531 50.8736 69.0853L54.7987 69.8557ZM56.026 66.114C59.8351 61.4374 61.4706 54.9182 60.5547 48.2806L56.5923 48.8274C57.377 54.5146 55.9431 59.8819 52.9246 63.5879L56.026 66.114ZM29.0868 55.1508C27.1333 55.0794 25.3481 56.0047 24.3161 57.428C23.2375 58.9155 22.9656 61.0246 24.2932 62.8595L27.5339 60.5147C27.4084 60.3414 27.3972 60.2268 27.3997 60.159C27.4027 60.074 27.4359 59.9395 27.5544 59.7761C27.807 59.4277 28.3253 59.1256 28.9407 59.1481L29.0868 55.1508ZM54.6299 48.8149C55.0587 48.3721 55.6426 48.2312 56.0664 48.3079C56.2652 48.3439 56.3822 48.4181 56.4432 48.4774C56.4918 48.5246 56.563 48.6151 56.5923 48.8274L60.5547 48.2806C60.2449 46.0352 58.5882 44.6995 56.779 44.3719C55.048 44.0585 53.1175 44.6267 51.7565 46.0322L54.6299 48.8149Z" fill="black" mask="url(#path-4-inside-1_5963_31834)"/>
<ellipse cx="40.8781" cy="51.5549" rx="17.2476" ry="5.73849" transform="rotate(-21.7788 40.8781 51.5549)" fill="black" stroke="black" stroke-width="2"/>
<path d="M31.5977 65.6559C31.5977 65.6559 40.5623 65.164 45.6453 63.1331C50.7283 61.1022 57.5638 55.2814 57.5638 55.2814" stroke="black" stroke-width="2" stroke-linecap="round"/>
<g clip-path="url(#clip0_5963_31834)">
<ellipse rx="3.9" ry="3.89273" transform="matrix(-0.928623 0.371024 0.371024 0.928623 17.7885 35.9192)" fill="black"/>
<path d="M16.9681 35.6181L26.4245 39.6648" stroke="black" stroke-width="2"/>
<ellipse cx="47.3648" cy="24.1021" rx="3.9" ry="3.89273" transform="rotate(-21.7788 47.3648 24.1021)" fill="black"/>
<path d="M47.8121 23.2946L43.7478 32.7434" stroke="black" stroke-width="2"/>
<path fill-rule="evenodd" clip-rule="evenodd" d="M32.8024 57.0056C27.1763 57.5192 22.0746 53.332 22.1733 47.6833C22.3083 39.9476 26.2443 33.0998 32.8907 30.4442C39.5556 27.7813 47.1503 30.0515 52.5818 35.5979C56.5398 39.6395 55.7033 46.1964 51.2501 49.6847C48.6888 51.691 45.8024 53.3715 42.6279 54.6398C39.4002 55.9294 36.0948 56.705 32.8024 57.0056Z" fill="#FFDF6F"/>
<path d="M51.2501 49.6847L50.6334 48.8975L51.2501 49.6847ZM32.8024 57.0056L32.8933 58.0015L32.8024 57.0056ZM23.1731 47.7008C23.3028 40.2717 27.0711 33.8463 33.2618 31.3729L32.5197 29.5156C25.4176 32.3532 21.3138 39.6235 21.1734 47.6659L23.1731 47.7008ZM33.2618 31.3729C39.4696 28.8926 46.6507 30.9706 51.8674 36.2975L53.2963 34.8982C47.6498 29.1324 39.6417 26.6701 32.5197 29.5156L33.2618 31.3729ZM50.6334 48.8975C48.1461 50.8458 45.3423 52.4785 42.2569 53.7112L42.9989 55.5685C46.2625 54.2645 49.2315 52.5362 51.8667 50.472L50.6334 48.8975ZM42.2569 53.7112C39.1198 54.9646 35.9088 55.7179 32.7115 56.0097L32.8933 58.0015C36.2808 57.6922 39.6807 56.8942 42.9989 55.5685L42.2569 53.7112ZM51.8674 36.2975C55.3548 39.8587 54.6799 45.7278 50.6334 48.8975L51.8667 50.472C56.7268 46.6651 57.7247 39.4202 53.2963 34.8982L51.8674 36.2975ZM21.1734 47.6659C21.0631 53.9861 26.7535 58.562 32.8933 58.0015L32.7115 56.0097C27.5991 56.4765 23.0862 52.6778 23.1731 47.7008L21.1734 47.6659Z" fill="black"/>
<path fill-rule="evenodd" clip-rule="evenodd" d="M34.3011 53.1343C29.911 53.7517 25.7596 50.296 26.9827 46.0348C28.1279 42.0455 31.1464 38.547 35.4423 36.8306C39.7382 35.1142 44.3364 35.5695 47.9152 37.6714C51.738 39.9165 51.1108 45.2815 47.5039 47.8592C45.5959 49.2227 43.4948 50.3811 41.2195 51.2902C38.9442 52.1993 36.6233 52.8077 34.3011 53.1343Z" fill="black"/>
<ellipse cx="42.6879" cy="42.8784" rx="3.25" ry="2.59516" transform="rotate(-21.7788 42.6879 42.8784)" fill="white"/>
<ellipse cx="34.0483" cy="46.3318" rx="3.25" ry="2.59515" transform="rotate(-21.7788 34.0483 46.3318)" fill="white"/>
</g>
<defs>
<clipPath id="clip0_5963_31834">
<rect width="52" height="51.9031" fill="white" transform="translate(0.193359 19.4075) rotate(-21.7788)"/>
</clipPath>
</defs>
</svg>
