<svg width="160" height="107" viewBox="0 0 160 107" fill="none" xmlns="http://www.w3.org/2000/svg">
<path opacity="0.5" d="M149.313 5.94173C153.653 12.8109 148.848 15.8362 142.922 19.5666C136.995 23.297 129.798 22.534 127.852 19.4511C126.437 17.2115 128.319 9.55641 134.244 5.8262C140.171 2.09583 144.975 -0.929485 149.313 5.94173Z" fill="#9D9D9C"/>
<path d="M157.827 31.7956C158.678 41.1391 149.038 49.5681 136.292 50.622C123.547 51.676 112.525 44.9557 111.673 35.6122C110.821 26.2687 120.462 17.8397 133.207 16.7858C145.953 15.7318 156.975 22.4521 157.827 31.7956Z" fill="#F8C455"/>
<path d="M132.828 50.7153C129.568 50.6337 126.484 50.0405 123.728 49.0283C118.918 38.9057 118.698 27.5888 118.984 21.8052C120.854 20.4506 123.021 19.3124 125.409 18.4553C125.639 26.4254 131.013 44.737 132.826 50.7136L132.828 50.7153Z" fill="#1E1201"/>
<path d="M133.262 16.7897C135.905 16.5704 138.472 16.6889 140.89 17.0985C145.591 23.5776 148.09 39.9555 148.942 46.6315C146.336 48.2223 143.272 49.4254 139.909 50.1016C139.536 36.9593 134.234 21.9249 132.316 16.8832C132.628 16.8479 132.945 16.816 133.262 16.7897Z" fill="#1E1201"/>
<path d="M154.251 42.2454C154.339 33.466 152.005 25.5485 150.463 20.6344C154.666 23.3431 157.452 27.256 157.861 31.786C158.202 35.5647 156.838 39.1951 154.251 42.2473L154.251 42.2454Z" fill="#1E1201"/>
<path d="M118.013 30.4583C118.118 31.6118 117.273 32.6235 116.124 32.7186C114.975 32.8137 113.958 31.956 113.853 30.8026C113.748 29.6492 114.594 28.6374 115.743 28.5423C116.892 28.4473 117.908 29.3049 118.013 30.4583Z" fill="#F6F6F6"/>
<path d="M116.874 30.5512C116.922 31.0728 116.539 31.5301 116.02 31.5731C115.5 31.6161 115.041 31.2285 114.993 30.7069C114.946 30.1853 115.328 29.728 115.848 29.685C116.367 29.642 116.827 30.0297 116.874 30.5512Z" fill="#1E1201"/>
<path opacity="0.3" d="M118.338 36.1914C118.395 36.8085 117.547 37.3836 116.447 37.4745C115.346 37.5655 114.407 37.1381 114.351 36.5209C114.295 35.9037 115.142 35.3286 116.243 35.2377C117.343 35.1468 118.282 35.5742 118.338 36.1914Z" fill="#F186BB"/>
<path d="M107.27 19.9526C107.343 20.7526 106.756 21.4548 105.959 21.5207C105.162 21.5867 104.457 20.9915 104.384 20.1914C104.311 19.3913 104.898 18.6892 105.695 18.6233C106.492 18.5573 107.197 19.1525 107.27 19.9526Z" fill="#1E1201"/>
<path d="M108.811 17.0389C108.884 17.8391 108.297 18.5412 107.5 18.6072C106.703 18.6731 105.998 18.0779 105.925 17.2778C105.852 16.4777 106.439 15.7755 107.236 15.7095C108.033 15.6436 108.738 16.2388 108.811 17.0389Z" fill="#1E1201"/>
<path d="M106.737 19.9927C111.546 19.286 114.523 21.3699 115.668 26.2408" stroke="#1D1D1B"/>
<path d="M108.381 16.876C112.965 16.7905 115.777 19.0253 116.821 23.5839" stroke="#1D1D1B"/>
<path opacity="0.5" d="M153.573 13.494C156.184 21.1815 150.793 22.98 144.139 25.1956C137.488 27.4129 130.654 24.9711 129.483 21.5203C128.631 19.0135 132.264 12.0343 138.917 9.81876C145.568 7.60147 150.962 5.80467 153.573 13.494Z" fill="#9D9D9C"/>
<path d="M116.934 40.7515C116.352 41.4234 115.404 41.8918 114.089 42.1607C113.658 41.5593 113.278 40.9348 112.95 40.2872C113.94 40.718 115.294 41.034 116.934 40.7515Z" fill="#1E1201"/>
<path opacity="0.5" d="M6.64874 63.1781C3.62238 70.6616 8.91292 72.8452 15.4389 75.5374C21.965 78.2295 28.923 76.2863 30.2798 72.9279C31.2667 70.488 28.0138 63.261 21.4896 60.5687C14.9636 57.8766 9.67306 55.6929 6.64874 63.1781Z" fill="#9D9D9C"/>
<path d="M2.81598 90.0565C3.68133 99.3991 14.7281 106.104 27.4902 105.031C40.2524 103.959 49.8961 95.516 49.0307 86.1734C48.1654 76.8309 37.1186 70.1262 24.3565 71.1985C11.5943 72.2708 1.95063 80.7139 2.81598 90.0565Z" fill="#F8C455"/>
<path d="M30.9015 104.55C34.1019 103.928 37.0362 102.831 39.571 101.377C42.4794 90.6085 40.6446 79.4266 39.3133 73.7782C37.2238 72.7548 34.8798 71.9939 32.3701 71.5464C33.5876 79.434 31.6074 98.3609 30.9031 104.548L30.9015 104.55Z" fill="#1E1201"/>
<path d="M24.3205 71.2104C21.6741 71.4334 19.1639 71.9764 16.8537 72.7813C13.394 79.9428 13.9015 96.4874 14.2731 103.204C17.1324 104.337 20.3725 105.013 23.8111 105.121C21.7936 92.1161 24.294 76.4291 25.2709 71.1453C24.9562 71.1624 24.6381 71.1836 24.3205 71.2104Z" fill="#1E1201"/>
<path d="M8.24087 99.7681C6.56499 91.1363 7.43438 82.9507 8.06641 77.8545C4.41085 81.221 2.372 85.5376 2.78789 90.0671C3.13481 93.8454 5.13794 97.194 8.24105 99.77L8.24087 99.7681Z" fill="#1E1201"/>
<path d="M41.8694 82.133C41.9762 83.2864 42.995 84.1426 44.1455 84.0459C45.296 83.9491 46.1418 82.9361 46.0351 81.7828C45.9283 80.6295 44.9095 79.7732 43.759 79.87C42.6085 79.9667 41.7627 80.9797 41.8694 82.133Z" fill="#F6F6F6"/>
<path d="M43.0107 82.0378C43.059 82.5593 43.5195 82.9463 44.0397 82.9026C44.56 82.8588 44.9423 82.4009 44.894 81.8794C44.8457 81.3579 44.3852 80.9709 43.865 81.0146C43.3447 81.0583 42.9624 81.5162 43.0107 82.0378Z" fill="#1E1201"/>
<path opacity="0.3" d="M42.5541 87.834C42.6113 88.4511 43.5523 88.8772 44.6541 88.7847C45.756 88.6922 46.6041 88.1159 46.547 87.4987C46.4898 86.8816 45.5488 86.4555 44.4469 86.548C43.3451 86.6405 42.4969 87.2169 42.5541 87.834Z" fill="#F186BB"/>
<path d="M50.6297 69.9943C50.7037 70.7943 51.4108 71.3885 52.2088 71.3214C53.0069 71.2543 53.5939 70.5513 53.5198 69.7513C53.4458 68.9512 52.7387 68.357 51.9407 68.4241C51.1426 68.4912 50.5556 69.1943 50.6297 69.9943Z" fill="#1E1201"/>
<path d="M48.5984 67.3817C48.6725 68.1817 49.3795 68.7759 50.1776 68.7088C50.9756 68.6417 51.5626 67.9387 51.4886 67.1386C51.4145 66.3386 50.7075 65.7443 49.9094 65.8115C49.1114 65.8786 48.5244 66.5816 48.5984 67.3817Z" fill="#1E1201"/>
<path d="M51.1373 69.9525C46.2655 70.0529 43.7091 72.5983 43.4696 77.5847" stroke="#1D1D1B"/>
<path d="M48.9688 67.1522C44.4321 67.8275 42.0664 70.4943 41.8684 75.1565" stroke="#1D1D1B"/>
<path opacity="0.5" d="M3.78701 71.3247C2.61521 79.3276 8.26097 80.2062 15.2272 81.2867C22.1917 82.3691 28.4857 78.8331 29.0107 75.2409C29.3935 72.6311 24.5368 66.3594 17.5706 65.2789C10.6061 64.1964 4.95863 63.3199 3.78701 71.3247Z" fill="#9D9D9C"/>
<path d="M44.7387 92.0971C45.4349 92.6625 46.4552 92.9671 47.8019 93.0142C48.1169 92.3507 48.3779 91.6728 48.583 90.9808C47.6849 91.5689 46.4073 92.104 44.7387 92.0971Z" fill="#1E1201"/>
</svg>
