<svg width="58" height="58" viewBox="0 0 58 58" fill="none" xmlns="http://www.w3.org/2000/svg">
<circle cx="29" cy="29" r="29" fill="white" fill-opacity="0.1"/>
<path fill-rule="evenodd" clip-rule="evenodd" d="M32.1217 7.51103C33.1208 7.82596 33.8002 8.75247 33.8002 9.8V21.8L43.4002 21.8C44.2951 21.8 45.1157 22.2979 45.529 23.0917C45.9422 23.8854 45.8796 24.8432 45.3664 25.5763L28.5664 49.5763C27.9656 50.4345 26.8777 50.8039 25.8787 50.489C24.8796 50.174 24.2002 49.2475 24.2002 48.2L24.2002 36.2H14.6002C13.7053 36.2 12.8847 35.7021 12.4715 34.9083C12.0582 34.1146 12.1209 33.1568 12.634 32.4237L29.434 8.42369C30.0348 7.56552 31.1227 7.1961 32.1217 7.51103Z" fill="#F8C455"/>
</svg>
