<svg width="159" height="46" viewBox="0 0 159 46" fill="none" xmlns="http://www.w3.org/2000/svg">
<path d="M0.75 23C0.75 10.2975 11.0475 0 23.75 0H135.75C148.453 0 158.75 10.2975 158.75 23C158.75 35.7025 148.453 46 135.75 46H23.75C11.0475 46 0.75 35.7025 0.75 23Z" fill="white"/>
<path d="M25.9782 15.76H27.7602L32.4762 27.874L30.4782 28.162L29.2722 24.922H24.4662L23.2962 28H21.2982L25.9782 15.76ZM28.6602 23.284L26.8242 18.514L25.0422 23.284H28.6602ZM40.3714 28L39.9214 27.28C39.5494 27.592 39.1474 27.832 38.7154 28C38.2954 28.156 37.8934 28.234 37.5094 28.234C36.6094 28.234 35.8294 28.042 35.1694 27.658C34.5214 27.274 34.0234 26.74 33.6754 26.056C33.3274 25.36 33.1534 24.544 33.1534 23.608C33.1534 22.696 33.3274 21.898 33.6754 21.214C34.0354 20.53 34.5454 19.996 35.2054 19.612C35.8654 19.228 36.6454 19.036 37.5454 19.036C37.8214 19.036 38.1214 19.09 38.4454 19.198C38.7814 19.294 39.1114 19.432 39.4354 19.612V15.49L41.4694 15.31V28H40.3714ZM35.2234 23.59C35.2234 24.442 35.4214 25.138 35.8174 25.678C36.2254 26.218 36.8014 26.488 37.5454 26.488C37.9174 26.488 38.2474 26.428 38.5354 26.308C38.8354 26.188 39.1354 26.008 39.4354 25.768V21.466C39.1354 21.214 38.8354 21.034 38.5354 20.926C38.2354 20.818 37.9054 20.764 37.5454 20.764C36.8134 20.764 36.2434 21.034 35.8354 21.574C35.4274 22.114 35.2234 22.786 35.2234 23.59ZM50.4085 28L49.9585 27.28C49.5865 27.592 49.1845 27.832 48.7525 28C48.3325 28.156 47.9305 28.234 47.5465 28.234C46.6465 28.234 45.8665 28.042 45.2065 27.658C44.5585 27.274 44.0605 26.74 43.7125 26.056C43.3645 25.36 43.1905 24.544 43.1905 23.608C43.1905 22.696 43.3645 21.898 43.7125 21.214C44.0725 20.53 44.5825 19.996 45.2425 19.612C45.9025 19.228 46.6825 19.036 47.5825 19.036C47.8585 19.036 48.1585 19.09 48.4825 19.198C48.8185 19.294 49.1485 19.432 49.4725 19.612V15.49L51.5065 15.31V28H50.4085ZM45.2605 23.59C45.2605 24.442 45.4585 25.138 45.8545 25.678C46.2625 26.218 46.8385 26.488 47.5825 26.488C47.9545 26.488 48.2845 26.428 48.5725 26.308C48.8725 26.188 49.1725 26.008 49.4725 25.768V21.466C49.1725 21.214 48.8725 21.034 48.5725 20.926C48.2725 20.818 47.9425 20.764 47.5825 20.764C46.8505 20.764 46.2805 21.034 45.8725 21.574C45.4645 22.114 45.2605 22.786 45.2605 23.59ZM61.8593 19.342L62.4713 20.89H60.2753V25.048C60.2753 25.504 60.3773 25.876 60.5813 26.164C60.7853 26.452 61.1033 26.596 61.5353 26.596C61.6793 26.596 61.8293 26.578 61.9853 26.542C62.1413 26.494 62.2913 26.44 62.4353 26.38L62.9933 27.874C62.8253 27.994 62.5793 28.096 62.2553 28.18C61.9433 28.276 61.6493 28.324 61.3733 28.324C60.4133 28.324 59.6513 28.072 59.0873 27.568C58.5353 27.064 58.2593 26.338 58.2593 25.39V20.89H57.0533V19.342H58.2593V17.2L60.2753 16.804V19.342H61.8593ZM68.2917 28.234C67.3797 28.234 66.5877 28.042 65.9157 27.658C65.2437 27.274 64.7217 26.74 64.3497 26.056C63.9897 25.36 63.8097 24.55 63.8097 23.626C63.8097 22.714 63.9957 21.916 64.3677 21.232C64.7397 20.536 65.2617 19.996 65.9337 19.612C66.6057 19.228 67.4037 19.036 68.3277 19.036C69.2397 19.036 70.0317 19.228 70.7037 19.612C71.3757 19.996 71.8977 20.53 72.2697 21.214C72.6417 21.898 72.8277 22.702 72.8277 23.626C72.8277 24.538 72.6417 25.342 72.2697 26.038C71.8977 26.722 71.3697 27.262 70.6857 27.658C70.0137 28.042 69.2157 28.234 68.2917 28.234ZM68.2917 26.488C69.0357 26.488 69.6297 26.218 70.0737 25.678C70.5177 25.126 70.7397 24.448 70.7397 23.644C70.7397 22.804 70.5237 22.114 70.0917 21.574C69.6597 21.034 69.0717 20.764 68.3277 20.764C67.5837 20.764 66.9897 21.04 66.5457 21.592C66.1017 22.144 65.8797 22.822 65.8797 23.626C65.8797 24.466 66.0957 25.156 66.5277 25.696C66.9597 26.224 67.5477 26.488 68.2917 26.488ZM87.1053 16.264L86.4933 17.722C86.1693 17.626 85.8813 17.542 85.6293 17.47C85.3773 17.386 85.1133 17.326 84.8373 17.29C84.5733 17.242 84.2553 17.218 83.8833 17.218C83.1873 17.218 82.5573 17.416 81.9933 17.812C81.4413 18.196 81.0033 18.742 80.6793 19.45C80.3553 20.146 80.1933 20.974 80.1933 21.934C80.1933 22.762 80.3313 23.53 80.6073 24.238C80.8833 24.934 81.2853 25.492 81.8133 25.912C82.3413 26.332 82.9833 26.542 83.7393 26.542C84.2913 26.542 84.7893 26.488 85.2333 26.38C85.6773 26.272 86.0733 26.14 86.4213 25.984L87.1953 27.496C86.9073 27.652 86.5653 27.784 86.1693 27.892C85.7733 28 85.3713 28.084 84.9633 28.144C84.5553 28.216 84.1773 28.252 83.8293 28.252C82.5693 28.252 81.5133 27.97 80.6613 27.406C79.8093 26.83 79.1673 26.068 78.7353 25.12C78.3033 24.16 78.0873 23.104 78.0873 21.952C78.0873 20.704 78.3213 19.6 78.7893 18.64C79.2693 17.668 79.9473 16.906 80.8233 16.354C81.7113 15.79 82.7493 15.508 83.9373 15.508C84.1773 15.508 84.4833 15.538 84.8553 15.598C85.2273 15.646 85.6113 15.724 86.0073 15.832C86.4153 15.94 86.7813 16.084 87.1053 16.264ZM90.7332 28H88.7172V15.49L90.7332 15.292V20.08C91.2012 19.744 91.6992 19.48 92.2272 19.288C92.7672 19.084 93.2772 18.982 93.7572 18.982C94.4892 18.982 95.0652 19.132 95.4852 19.432C95.9052 19.72 96.2052 20.122 96.3852 20.638C96.5652 21.154 96.6552 21.736 96.6552 22.384V28H94.6392V22.51C94.6392 21.946 94.5312 21.502 94.3152 21.178C94.0992 20.854 93.7512 20.692 93.2712 20.692C92.8272 20.692 92.3832 20.818 91.9392 21.07C91.4952 21.322 91.0932 21.598 90.7332 21.898V28ZM100.696 28H98.6797V19.27H99.7597L100.426 20.71C100.654 20.506 100.936 20.296 101.272 20.08C101.62 19.852 101.98 19.66 102.352 19.504C102.724 19.348 103.066 19.27 103.378 19.27L103.792 20.89C103.36 20.89 102.85 21.046 102.262 21.358C101.686 21.658 101.164 22.018 100.696 22.438V28ZM108.95 28.234C108.038 28.234 107.246 28.042 106.574 27.658C105.902 27.274 105.38 26.74 105.008 26.056C104.648 25.36 104.468 24.55 104.468 23.626C104.468 22.714 104.654 21.916 105.026 21.232C105.398 20.536 105.92 19.996 106.592 19.612C107.264 19.228 108.062 19.036 108.986 19.036C109.898 19.036 110.69 19.228 111.362 19.612C112.034 19.996 112.556 20.53 112.928 21.214C113.3 21.898 113.486 22.702 113.486 23.626C113.486 24.538 113.3 25.342 112.928 26.038C112.556 26.722 112.028 27.262 111.344 27.658C110.672 28.042 109.874 28.234 108.95 28.234ZM108.95 26.488C109.694 26.488 110.288 26.218 110.732 25.678C111.176 25.126 111.398 24.448 111.398 23.644C111.398 22.804 111.182 22.114 110.75 21.574C110.318 21.034 109.73 20.764 108.986 20.764C108.242 20.764 107.648 21.04 107.204 21.592C106.76 22.144 106.538 22.822 106.538 23.626C106.538 24.466 106.754 25.156 107.186 25.696C107.618 26.224 108.206 26.488 108.95 26.488ZM117.026 28H115.01V19.27H116.36L116.72 20.314C117.212 19.918 117.746 19.6 118.322 19.36C118.898 19.108 119.432 18.982 119.924 18.982C120.536 18.982 121.034 19.102 121.418 19.342C121.814 19.57 122.114 19.888 122.318 20.296C122.81 19.9 123.338 19.582 123.902 19.342C124.478 19.102 125.012 18.982 125.504 18.982C126.488 18.982 127.196 19.276 127.628 19.864C128.06 20.452 128.276 21.232 128.276 22.204V28H126.242V22.51C126.242 21.946 126.152 21.502 125.972 21.178C125.792 20.854 125.474 20.692 125.018 20.692C124.622 20.692 124.22 20.812 123.812 21.052C123.416 21.292 123.038 21.556 122.678 21.844C122.69 21.952 122.696 22.072 122.696 22.204V28H120.662V22.51C120.662 21.946 120.572 21.502 120.392 21.178C120.212 20.854 119.894 20.692 119.438 20.692C119.03 20.692 118.616 20.818 118.196 21.07C117.776 21.322 117.386 21.598 117.026 21.898V28ZM137.9 24.166H131.852C131.936 24.862 132.188 25.426 132.608 25.858C133.04 26.29 133.718 26.506 134.642 26.506C135.158 26.506 135.608 26.434 135.992 26.29C136.376 26.146 136.784 25.96 137.216 25.732L137.828 27.208C137.408 27.496 136.934 27.736 136.406 27.928C135.89 28.12 135.29 28.216 134.606 28.216C132.986 28.216 131.768 27.802 130.952 26.974C130.136 26.134 129.728 25.018 129.728 23.626C129.728 22.714 129.896 21.916 130.232 21.232C130.58 20.536 131.072 19.996 131.708 19.612C132.344 19.228 133.106 19.036 133.994 19.036C134.906 19.036 135.65 19.252 136.226 19.684C136.802 20.116 137.222 20.692 137.486 21.412C137.762 22.12 137.9 22.894 137.9 23.734V24.166ZM131.888 22.816H135.956C135.848 22.156 135.626 21.652 135.29 21.304C134.966 20.944 134.516 20.764 133.94 20.764C133.364 20.764 132.896 20.944 132.536 21.304C132.188 21.664 131.972 22.168 131.888 22.816Z" fill="black"/>
<path d="M23.75 3H135.75V-3H23.75V3ZM135.75 43H23.75V49H135.75V43ZM23.75 43C12.7043 43 3.75 34.0457 3.75 23H-2.25C-2.25 37.3594 9.3906 49 23.75 49V43ZM155.75 23C155.75 34.0457 146.796 43 135.75 43V49C150.109 49 161.75 37.3594 161.75 23H155.75ZM135.75 3C146.796 3 155.75 11.9543 155.75 23H161.75C161.75 8.6406 150.109 -3 135.75 -3V3ZM23.75 -3C9.3906 -3 -2.25 8.6406 -2.25 23H3.75C3.75 11.9543 12.7043 3 23.75 3V-3Z" fill="#333333"/>
</svg>
