<svg width="343" height="267" viewBox="0 0 343 267" fill="none" xmlns="http://www.w3.org/2000/svg">
<g filter="url(#filter0_i_4537_23109)">
<path d="M0 1.28947C0 0.577039 0.577039 0 1.28947 0H341.711C342.423 0 343 0.577039 343 1.28947V265.632C343 266.344 342.423 266.921 341.711 266.921H1.28947C0.577039 266.921 0 266.344 0 265.632V1.28947Z" fill="white"/>
</g>
<path d="M21.5322 56.7166V55.8681L25.2962 54.0719L25.6211 54.7489L22.3265 56.2924L25.6211 57.8359L25.2962 58.5128L21.5322 56.7166ZM26.85 59.3162V58.233H27.888V59.3162H26.85ZM26.9132 57.3846V53.088H27.8339V57.3846H26.9132ZM29.3561 59.3162V53.088H31.7661C33.3309 53.088 34.113 53.8701 34.113 55.4349V56.9694C34.113 58.5341 33.3309 59.3162 31.7661 59.3162H29.3561ZM30.2768 58.4858H31.8203C32.7352 58.4858 33.1923 58.0287 33.1923 57.1138V55.2905C33.1923 54.3756 32.7352 53.9185 31.8203 53.9185H30.2768V58.4858ZM35.4186 57.89V54.5142C35.4186 53.5632 35.8912 53.088 36.8357 53.088H38.9298C39.8808 53.088 40.356 53.5632 40.356 54.5142V57.89C40.356 58.841 39.8808 59.3162 38.9298 59.3162H36.8357C35.8912 59.3162 35.4186 58.841 35.4186 57.89ZM36.3393 57.9713C36.3393 58.3143 36.5082 58.4858 36.8447 58.4858H38.9208C39.2638 58.4858 39.4353 58.3143 39.4353 57.9713V54.433C39.4353 54.09 39.2638 53.9185 38.9208 53.9185H36.8447C36.5082 53.9185 36.3393 54.09 36.3393 54.433V57.9713ZM41.7563 57.89V54.5142C41.7563 53.5632 42.2289 53.088 43.1735 53.088H45.6828L46.1431 53.4491V53.9185H43.1825C42.8459 53.9185 42.677 54.09 42.677 54.433V57.9713C42.677 58.3143 42.8459 58.4858 43.1825 58.4858H46.1431V58.9551L45.6828 59.3162H43.1735C42.2289 59.3162 41.7563 58.841 41.7563 57.89ZM46.8136 53.9185V53.088H51.7781V53.9185H49.7562V59.3162H48.8355V53.9185H46.8136ZM52.163 53.2776L52.2804 53.088H53.0657L54.6543 56.0848L56.2519 53.088H57.0372L57.1456 53.2776L55.1146 57.0416V59.3162H54.1939V57.0416L52.163 53.2776ZM58.1191 59.3162V53.088H61.0888C62.0391 53.088 62.5149 53.5632 62.5149 54.5142V55.6966C62.5149 56.6412 62.0391 57.1138 61.0888 57.1138H59.0398V59.3162H58.1191ZM59.0398 56.2834H61.0797C61.4227 56.2834 61.5942 56.1119 61.5942 55.7689V54.433C61.5942 54.09 61.4227 53.9185 61.0797 53.9185H59.0398V56.2834ZM63.8218 59.3162V53.088H67.9378V53.9185H64.7425V55.6515H67.667V56.4819H64.7425V58.4858H67.9378V59.3162H63.8218ZM71.2595 59.3162V52.6367H72.135V54.6045H73.8139C74.7404 54.6045 75.204 55.0648 75.204 55.9855V59.3162H74.3194V55.8952C74.3194 55.5464 74.1447 55.3717 73.7959 55.3717H72.135V59.3162H71.2595ZM76.5302 57.9261V53.088H77.4058V54.6045H79.0756V55.3717H77.4058V58.0164C77.4058 58.3716 77.5831 58.549 77.9383 58.549H79.1659V59.0093L78.7507 59.3162H77.9112C76.9905 59.3162 76.5302 58.8526 76.5302 57.9261ZM80.1975 59.3162V54.6045H85.5501C86.4772 54.6045 86.9401 55.0648 86.9401 55.9855V59.3162H86.0555V55.8952C86.0555 55.5464 85.8815 55.3717 85.532 55.3717H84.0066V59.3162H83.122V55.3717H81.073V59.3162H80.1975ZM88.2715 57.8991V52.6367H89.1471V57.9893C89.1471 58.3865 89.3515 58.5999 89.7609 58.6302V59.3974C88.768 59.3974 88.2715 58.8978 88.2715 57.8991ZM90.6396 57.8359L93.9342 56.2924L90.6396 54.7489L90.9646 54.0719L94.7285 55.8681V56.7166L90.9646 58.5128L90.6396 57.8359ZM21.5322 86.3745V85.526L25.2962 83.7298L25.6211 84.4068L22.3265 85.9503L25.6211 87.4938L25.2962 88.1707L21.5322 86.3745ZM26.85 88.9741V87.8909H27.888V88.9741H26.85ZM26.9132 87.0425V82.7459H27.8339V87.0425H26.9132ZM28.9228 86.6002V85.842H31.5044V86.6002H28.9228ZM32.2284 86.6002V85.842H34.8099V86.6002H32.2284ZM38.1355 88.9741V82.7459H41.0149C41.9659 82.7459 42.441 83.2211 42.441 84.1721V84.7678C42.441 84.9722 42.3811 85.1469 42.2605 85.2913L41.9446 85.6705L42.3237 85.9864C42.5223 86.1488 42.6216 86.3893 42.6216 86.7085V87.5479C42.6216 88.4989 42.1464 88.9741 41.1954 88.9741H38.1355ZM39.0562 88.1437H41.1864C41.5294 88.1437 41.7009 87.9722 41.7009 87.6292V86.6543C41.7009 86.3113 41.5294 86.1398 41.1864 86.1398H39.0562V88.1437ZM39.0562 85.3094H41.0059C41.3489 85.3094 41.5204 85.1379 41.5204 84.7949V84.0908C41.5204 83.7478 41.3489 83.5764 41.0059 83.5764H39.0562V85.3094ZM43.971 88.9741V82.7459H48.087V83.5764H44.8917V85.3094H47.8162V86.1398H44.8917V88.1437H48.087V88.9741H43.971ZM49.2404 87.5479V84.1721C49.2404 83.2211 49.7124 82.7459 50.6576 82.7459H53.3474L53.8168 83.107V83.5764H50.6666C50.3294 83.5764 50.1611 83.7478 50.1611 84.0908V87.6292C50.1611 87.9722 50.3294 88.1437 50.6666 88.1437H53.0766V86.1398H51.6414V85.3094H53.9973V88.9741H50.6576C49.7124 88.9741 49.2404 88.4989 49.2404 87.5479ZM55.3951 88.9741V82.7459H56.3158V88.9741H55.3951ZM57.8986 88.9741V82.7459H58.9095L61.9424 87.5118V82.7459H62.8631V88.9741H61.8521L58.8193 84.2082V88.9741H57.8986ZM66.6077 88.9741V82.7459H67.5284V85.3094H70.4439V82.7459H71.3646V88.9741H70.4439V86.1398H67.5284V88.9741H66.6077ZM72.9455 88.9741V82.7459H77.0615V83.5764H73.8662V85.3094H76.7907V86.1398H73.8662V88.1437H77.0615V88.9741H72.9455ZM77.6817 88.7845L79.6675 82.7459H81.1388L83.1156 88.7845L82.9982 88.9741H82.231L81.7616 87.4938H79.0447L78.5753 88.9741H77.8081L77.6817 88.7845ZM79.3064 86.6633H81.4998L80.4979 83.5764H80.3084L79.3064 86.6633ZM84.0872 88.9741V82.7459H86.4972C88.062 82.7459 88.844 83.528 88.844 85.0928V86.6272C88.844 88.192 88.062 88.9741 86.4972 88.9741H84.0872ZM85.0079 88.1437H86.5514C87.4662 88.1437 87.9234 87.6865 87.9234 86.7717V84.9483C87.9234 84.0335 87.4662 83.5764 86.5514 83.5764H85.0079V88.1437ZM91.9749 86.6002V85.842H94.5564V86.6002H91.9749ZM95.2805 86.6002V85.842H97.862V86.6002H95.2805ZM98.7756 87.4938L102.07 85.9503L98.7756 84.4068L99.1005 83.7298L102.864 85.526V86.3745L99.1005 88.1707L98.7756 87.4938ZM23.7011 198.559V197.71L27.4651 195.914L27.79 196.591L24.4954 198.134L27.79 199.678L27.4651 200.355L23.7011 198.559ZM29.0183 201.158V200.075H30.0563V201.158H29.0183ZM29.0814 199.227V194.93H30.0021V199.227H29.0814ZM31.0917 198.784V198.026H33.6733V198.784H31.0917ZM34.3973 198.784V198.026H36.9788V198.784H34.3973ZM40.3044 201.158V194.93H44.4204V195.761H41.2251V197.494H44.1496V198.324H41.2251V200.328H44.4204V201.158H40.3044ZM45.6634 201.158V194.93H46.6744L49.7072 199.696V194.93H50.6279V201.158H49.617L46.5841 196.392V201.158H45.6634ZM52.2043 201.158V194.93H54.6143C56.1784 194.93 56.9612 195.712 56.9612 197.277V198.811C56.9612 200.376 56.1784 201.158 54.6143 201.158H52.2043ZM53.125 200.328H54.6685C55.5827 200.328 56.0405 199.871 56.0405 198.956V197.133C56.0405 196.218 55.5827 195.761 54.6685 195.761H53.125V200.328ZM60.5253 201.158V194.93H61.4459V197.494H64.3615V194.93H65.2821V201.158H64.3615V198.324H61.4459V201.158H60.5253ZM66.863 201.158V194.93H70.979V195.761H67.7837V197.494H70.7082V198.324H67.7837V200.328H70.979V201.158H66.863ZM71.5999 200.969L73.5857 194.93H75.057L77.0338 200.969L76.9164 201.158H76.1492L75.6798 199.678H72.9629L72.4935 201.158H71.7263L71.5999 200.969ZM73.2246 198.848H75.418L74.4161 195.761H74.2266L73.2246 198.848ZM78.0047 201.158V194.93H80.4148C81.9795 194.93 82.7616 195.712 82.7616 197.277V198.811C82.7616 200.376 81.9795 201.158 80.4148 201.158H78.0047ZM78.9254 200.328H80.4689C81.3838 200.328 81.8409 199.871 81.8409 198.956V197.133C81.8409 196.218 81.3838 195.761 80.4689 195.761H78.9254V200.328ZM85.8931 198.784V198.026H88.4746V198.784H85.8931ZM89.1986 198.784V198.026H91.7802V198.784H89.1986ZM92.6938 199.678L95.9884 198.134L92.6938 196.591L93.0187 195.914L96.7827 197.71V198.559L93.0187 200.355L92.6938 199.678Z" fill="#898A8D"/>
<path d="M21.5322 71.5447V70.6963L25.2962 68.9L25.6211 69.577L22.3265 71.1205L25.6211 72.664L25.2962 73.341L21.5322 71.5447ZM66.3995 72.4925V71.7343H70.4794V72.4925H66.3995ZM66.3995 70.5067V69.7485H70.4794V70.5067H66.3995ZM71.6631 69.7756V67.4648H72.4664V69.7756H71.6631ZM73.342 69.7756V67.4648H74.1453V69.7756H73.342ZM85.8725 69.7756V67.4648H86.6758V69.7756H85.8725ZM87.5513 69.7756V67.4648H88.3547V69.7756H87.5513ZM112.739 72.4925V71.7343H116.819V72.4925H112.739ZM112.739 70.5067V69.7485H116.819V70.5067H112.739ZM118.002 69.7756V67.4648H118.806V69.7756H118.002ZM119.681 69.7756V67.4648H120.484V69.7756H119.681ZM142.419 69.7756V67.4648H143.222V69.7756H142.419ZM144.098 69.7756V67.4648H144.901V69.7756H144.098ZM146.058 72.664L149.353 71.1205L146.058 69.577L146.383 68.9L150.147 70.6963V71.5447L146.383 73.341L146.058 72.664ZM30.2065 101.203V100.354L33.9705 98.5579L34.2954 99.2349L31.0008 100.778L34.2954 102.322L33.9705 102.999L30.2065 101.203ZM56.0856 102.322L59.3802 100.778L56.0856 99.2349L56.4106 98.5579L60.1745 100.354V101.203L56.4106 102.999L56.0856 102.322ZM38.8802 116.032V115.183L42.6441 113.387L42.9691 114.064L39.6745 115.607L42.9691 117.151L42.6441 117.828L38.8802 116.032ZM61.3041 117.151L64.5987 115.607L61.3041 114.064L61.6291 113.387L65.393 115.183V116.032L61.6291 117.828L61.3041 117.151ZM66.1435 112.593L66.2608 112.403H67.0461L68.6348 115.4L70.2324 112.403H71.0177L71.126 112.593L69.0951 116.357V118.631H68.1744V116.357L66.1435 112.593ZM72.0087 117.205V113.829C72.0087 112.878 72.4813 112.403 73.4258 112.403H75.5199C76.4709 112.403 76.9461 112.878 76.9461 113.829V117.205C76.9461 118.156 76.4709 118.631 75.5199 118.631H73.4258C72.4813 118.631 72.0087 118.156 72.0087 117.205ZM72.9294 117.286C72.9294 117.629 73.0983 117.801 73.4348 117.801H75.5109C75.8539 117.801 76.0254 117.629 76.0254 117.286V113.748C76.0254 113.405 75.8539 113.233 75.5109 113.233H73.4348C73.0983 113.233 72.9294 113.405 72.9294 113.748V117.286ZM78.3825 117.205V112.403H79.3032V117.286C79.3032 117.629 79.4721 117.801 79.8087 117.801H81.7042C82.0472 117.801 82.2187 117.629 82.2187 117.286V112.403H83.1394V117.205C83.1394 118.156 82.6642 118.631 81.7132 118.631H79.7997C78.8551 118.631 78.3825 118.156 78.3825 117.205ZM84.6687 118.631V112.403H87.6384C88.5894 112.403 89.0645 112.878 89.0645 113.829V114.831C89.0645 115.602 88.746 116.059 88.1078 116.203L89.2451 118.424L89.1277 118.631H88.3424L87.1329 116.248H85.5894V118.631H84.6687ZM85.5894 115.418H87.6294C87.9724 115.418 88.1439 115.246 88.1439 114.903V113.748C88.1439 113.405 87.9724 113.233 87.6294 113.233H85.5894V115.418ZM90.0271 119.678H94.5403V120.436H90.0271V119.678ZM95.6963 118.631V112.403H98.5757C99.526 112.403 100.002 112.878 100.002 113.829V114.425C100.002 114.629 99.9413 114.804 99.8213 114.948L99.5054 115.328L99.8845 115.643C100.083 115.806 100.182 116.046 100.182 116.366V117.205C100.182 118.156 99.7066 118.631 98.7562 118.631H95.6963ZM96.617 117.801H98.7472C99.0902 117.801 99.2617 117.629 99.2617 117.286V116.311C99.2617 115.968 99.0902 115.797 98.7472 115.797H96.617V117.801ZM96.617 114.966H98.5667C98.9097 114.966 99.0812 114.795 99.0812 114.452V113.748C99.0812 113.405 98.9097 113.233 98.5667 113.233H96.617V114.966ZM101.532 118.631V112.403H102.452V117.801H105.377V118.631H101.532ZM106.298 117.205V113.829C106.298 112.878 106.77 112.403 107.715 112.403H109.81C110.76 112.403 111.236 112.878 111.236 113.829V117.205C111.236 118.156 110.76 118.631 109.81 118.631H107.715C106.77 118.631 106.298 118.156 106.298 117.205ZM107.219 117.286C107.219 117.629 107.387 117.801 107.725 117.801H109.801C110.144 117.801 110.315 117.629 110.315 117.286V113.748C110.315 113.405 110.144 113.233 109.801 113.233H107.725C107.387 113.233 107.219 113.405 107.219 113.748V117.286ZM112.636 117.205V113.829C112.636 112.878 113.109 112.403 114.053 112.403H116.743L117.212 112.764V113.233H114.062C113.725 113.233 113.557 113.405 113.557 113.748V117.286C113.557 117.629 113.725 117.801 114.062 117.801H116.472V115.797H115.037V114.966H117.393V118.631H114.053C113.109 118.631 112.636 118.156 112.636 117.205ZM118.574 116.032V115.183L122.338 113.387L122.663 114.064L119.368 115.607L122.663 117.151L122.338 117.828L118.574 116.032ZM144.648 117.151L147.943 115.607L144.648 114.064L144.973 113.387L148.737 115.183V116.032L144.973 117.828L144.648 117.151ZM38.8802 130.861V130.012L42.6441 128.216L42.9691 128.893L39.6745 130.436L42.9691 131.98L42.6441 132.657L38.8802 130.861ZM101.059 131.808V131.05H105.139V131.808H101.059ZM101.059 129.823V129.064H105.139V129.823H101.059ZM106.323 129.091V126.781H107.126V129.091H106.323ZM108.002 129.091V126.781H108.805V129.091H108.002ZM252.374 129.091V126.781H253.178V129.091H252.374ZM254.053 129.091V126.781H254.857V129.091H254.053ZM45.0503 143.414V142.655H49.1302V143.414H45.0503ZM45.0503 141.428V140.67H49.1302V141.428H45.0503ZM50.3133 140.697V138.386H51.1166V140.697H50.3133ZM51.9922 140.697V138.386H52.7955V140.697H51.9922ZM91.1258 140.697V138.386H91.9291V140.697H91.1258ZM92.8046 140.697V138.386H93.608V140.697H92.8046ZM93.9452 145.264L96.4816 138.368L97.2308 138.639L94.6944 145.535L93.9452 145.264ZM97.9645 143.585L101.259 142.042L97.9645 140.498L98.2894 139.821L102.053 141.617V142.466L98.2894 144.262L97.9645 143.585ZM38.8802 157.295V156.446L42.6441 154.65L42.9691 155.327L39.6745 156.87L42.9691 158.414L42.6441 159.091L38.8802 157.295ZM104.462 158.242V157.484H108.541V158.242H104.462ZM104.462 156.257V155.499H108.541V156.257H104.462ZM109.725 155.526V153.215H110.528V155.526H109.725ZM111.404 155.526V153.215H112.207V155.526H111.404ZM152.115 155.526V153.215H152.919V155.526H152.115ZM153.794 155.526V153.215H154.598V155.526H153.794ZM190.89 158.242V157.484H194.97V158.242H190.89ZM190.89 156.257V155.499H194.97V156.257H190.89ZM196.154 155.526V153.215H196.957V155.526H196.154ZM197.833 155.526V153.215H198.636V155.526H197.833ZM78.133 167.131V164.82H78.9364V167.131H78.133ZM79.8119 167.131V164.82H80.6153V167.131H79.8119ZM83.5701 171.698L86.1065 164.802L86.8557 165.073L84.3193 171.969L83.5701 171.698ZM87.59 170.019L90.8846 168.476L87.59 166.932L87.915 166.255L91.679 168.052V168.9L87.915 170.696L87.59 170.019ZM30.2065 183.729V182.88L33.9705 181.084L34.2954 181.761L31.0008 183.305L34.2954 184.848L33.9705 185.525L30.2065 183.729ZM59.7348 184.848L63.0294 183.305L59.7348 181.761L60.0598 181.084L63.8237 182.88V183.729L60.0598 185.525L59.7348 184.848Z" fill="black"/>
<path d="M26.8772 74.1443V67.4648H27.7528V69.4326H29.4316C30.3588 69.4326 30.8217 69.8929 30.8217 70.8136V74.1443H29.9371V70.7233C29.9371 70.3745 29.763 70.1998 29.4136 70.1998H27.7528V74.1443H26.8772ZM32.1479 72.7543V67.9162H33.0235V69.4326H34.6933V70.1998H33.0235V72.8445C33.0235 73.1998 33.2008 73.3771 33.556 73.3771H34.7836V73.8374L34.3684 74.1443H33.5289C32.6083 74.1443 32.1479 73.6807 32.1479 72.7543ZM35.8152 74.1443V69.4326H41.1678C42.0949 69.4326 42.5578 69.8929 42.5578 70.8136V74.1443H41.6733V70.7233C41.6733 70.3745 41.4992 70.1998 41.1497 70.1998H39.6243V74.1443H38.7397V70.1998H36.6907V74.1443H35.8152ZM43.8892 72.7272V67.4648H44.7648V72.8175C44.7648 73.2146 44.9692 73.428 45.3786 73.4583V74.2256C44.3857 74.2256 43.8892 73.7259 43.8892 72.7272ZM35.5508 103.802V97.1227H36.4264V99.0905H38.1053C39.0324 99.0905 39.4953 99.5508 39.4953 100.472V103.802H38.6108V100.381C38.6108 100.032 38.4367 99.8577 38.0872 99.8577H36.4264V103.802H35.5508ZM40.7855 102.412V100.472C40.7855 99.5508 41.2458 99.0905 42.1665 99.0905H43.3399C44.2664 99.0905 44.73 99.5508 44.73 100.472V101.807H41.661V102.502C41.661 102.858 41.8383 103.035 42.1936 103.035H44.5494V103.495L44.1342 103.802H42.1665C41.2458 103.802 40.7855 103.339 40.7855 102.412ZM41.661 101.067H43.8454V100.381C43.8454 100.032 43.6707 99.8577 43.3219 99.8577H42.1936C41.8383 99.8577 41.661 100.032 41.661 100.381V101.067ZM47.1954 103.802C46.269 103.802 45.8054 103.339 45.8054 102.412C45.8054 101.486 46.269 101.022 47.1954 101.022H48.7209V100.381C48.7209 100.032 48.5468 99.8577 48.1974 99.8577H46.2657V99.3974L46.6809 99.0905H48.2154C49.1425 99.0905 49.6055 99.5508 49.6055 100.472V103.802H47.1954ZM46.6809 102.502C46.6809 102.858 46.8589 103.035 47.2135 103.035H48.7209V101.762H47.2135C46.8589 101.762 46.6809 101.937 46.6809 102.286V102.502ZM50.8956 102.412V100.472C50.8956 99.5508 51.3559 99.0905 52.2766 99.0905H53.9555V97.1227H54.8401V103.802H52.2766C51.3559 103.802 50.8956 103.339 50.8956 102.412ZM51.7711 102.502C51.7711 102.858 51.9491 103.035 52.3037 103.035H53.9555V99.8577H52.3037C51.9491 99.8577 51.7711 100.032 51.7711 100.381V102.502ZM44.1884 117.241V112.403H45.0639V113.919H46.7338V114.687H45.0639V117.331C45.0639 117.687 45.2419 117.864 45.5965 117.864H46.8241V118.324L46.4089 118.631H45.5694C44.6487 118.631 44.1884 118.168 44.1884 117.241ZM47.8382 113.089V112.141H48.7499V113.089H47.8382ZM47.8563 118.631V113.919H48.7318V118.631H47.8563ZM50.1032 117.241V112.403H50.9788V113.919H52.6486V114.687H50.9788V117.331C50.9788 117.687 51.1567 117.864 51.5113 117.864H52.7389V118.324L52.3237 118.631H51.4842C50.5635 118.631 50.1032 118.168 50.1032 117.241ZM53.735 117.214V111.952H54.6106V117.304C54.6106 117.701 54.8149 117.915 55.2243 117.945V118.712C54.2315 118.712 53.735 118.213 53.735 117.214ZM56.185 117.241V115.3C56.185 114.38 56.6453 113.919 57.566 113.919H58.7395C59.6659 113.919 60.1295 114.38 60.1295 115.3V116.636H57.0606V117.331C57.0606 117.687 57.2379 117.864 57.5931 117.864H59.949V118.324L59.5338 118.631H57.566C56.6453 118.631 56.185 118.168 56.185 117.241ZM57.0606 115.896H59.2449V115.21C59.2449 114.861 59.0702 114.687 58.7214 114.687H57.5931C57.2379 114.687 57.0606 114.861 57.0606 115.21V115.896ZM123.396 118.83L125.932 111.934L126.681 112.204L124.145 119.101L123.396 118.83ZM127.532 117.241V112.403H128.408V113.919H130.078V114.687H128.408V117.331C128.408 117.687 128.585 117.864 128.94 117.864H130.168V118.324L129.753 118.631H128.913C127.993 118.631 127.532 118.168 127.532 117.241ZM131.182 113.089V112.141H132.094V113.089H131.182ZM131.2 118.631V113.919H132.076V118.631H131.2ZM133.447 117.241V112.403H134.323V113.919H135.992V114.687H134.323V117.331C134.323 117.687 134.5 117.864 134.855 117.864H136.083V118.324L135.668 118.631H134.828C133.907 118.631 133.447 118.168 133.447 117.241ZM137.079 117.214V111.952H137.954V117.304C137.954 117.701 138.159 117.915 138.568 117.945V118.712C137.575 118.712 137.079 118.213 137.079 117.214ZM139.528 117.241V115.3C139.528 114.38 139.989 113.919 140.909 113.919H142.083C143.009 113.919 143.473 114.38 143.473 115.3V116.636H140.404V117.331C140.404 117.687 140.581 117.864 140.936 117.864H143.292V118.324L142.877 118.631H140.909C139.989 118.631 139.528 118.168 139.528 117.241ZM140.404 115.896H142.588V115.21C142.588 114.861 142.413 114.687 142.065 114.687H140.936C140.581 114.687 140.404 114.861 140.404 115.21V115.896ZM44.2245 133.46V128.748H49.5771C50.5042 128.748 50.9671 129.209 50.9671 130.129V133.46H50.0826V130.039C50.0826 129.69 49.9085 129.516 49.559 129.516H48.0336V133.46H47.149V129.516H45.1V133.46H44.2245ZM52.2624 132.07V130.129C52.2624 129.209 52.7228 128.748 53.6434 128.748H54.8169C55.7434 128.748 56.2069 129.209 56.2069 130.129V131.465H53.138V132.16C53.138 132.516 53.3153 132.693 53.6705 132.693H56.0264V133.153L55.6112 133.46H53.6434C52.7228 133.46 52.2624 132.997 52.2624 132.07ZM53.138 130.725H55.3223V130.039C55.3223 129.69 55.1476 129.516 54.7988 129.516H53.6705C53.3153 129.516 53.138 129.69 53.138 130.039V130.725ZM57.499 132.07V127.232H58.3745V128.748H60.0444V129.516H58.3745V132.16C58.3745 132.516 58.5518 132.693 58.9071 132.693H60.1347V133.153L59.7195 133.46H58.88C57.9593 133.46 57.499 132.997 57.499 132.07ZM62.3042 133.46C61.3771 133.46 60.9142 132.997 60.9142 132.07C60.9142 131.144 61.3771 130.68 62.3042 130.68H63.8297V130.039C63.8297 129.69 63.6549 129.516 63.3061 129.516H61.3745V129.055L61.7897 128.748H63.3242C64.2507 128.748 64.7142 129.209 64.7142 130.129V133.46H62.3042ZM61.7897 132.16C61.7897 132.516 61.967 132.693 62.3222 132.693H63.8297V131.42H62.3222C61.967 131.42 61.7897 131.595 61.7897 131.944V132.16ZM44.2245 159.894V155.183H49.5771C50.5042 155.183 50.9671 155.643 50.9671 156.564V159.894H50.0826V156.473C50.0826 156.125 49.9085 155.95 49.559 155.95H48.0336V159.894H47.149V155.95H45.1V159.894H44.2245ZM52.2624 158.504V156.564C52.2624 155.643 52.7228 155.183 53.6434 155.183H54.8169C55.7434 155.183 56.2069 155.643 56.2069 156.564V157.9H53.138V158.595C53.138 158.95 53.3153 159.127 53.6705 159.127H56.0264V159.587L55.6112 159.894H53.6434C52.7228 159.894 52.2624 159.431 52.2624 158.504ZM53.138 157.159H55.3223V156.473C55.3223 156.125 55.1476 155.95 54.7988 155.95H53.6705C53.3153 155.95 53.138 156.125 53.138 156.473V157.159ZM57.499 158.504V153.666H58.3745V155.183H60.0444V155.95H58.3745V158.595C58.3745 158.95 58.5518 159.127 58.9071 159.127H60.1347V159.587L59.7195 159.894H58.88C57.9593 159.894 57.499 159.431 57.499 158.504ZM62.3042 159.894C61.3771 159.894 60.9142 159.431 60.9142 158.504C60.9142 157.578 61.3771 157.114 62.3042 157.114H63.8297V156.473C63.8297 156.125 63.6549 155.95 63.3061 155.95H61.3745V155.489L61.7897 155.183H63.3242C64.2507 155.183 64.7142 155.643 64.7142 156.564V159.894H62.3042ZM61.7897 158.595C61.7897 158.95 61.967 159.127 62.3222 159.127H63.8297V157.854H62.3222C61.967 157.854 61.7897 158.029 61.7897 158.378V158.595ZM39.2001 186.329V179.649H40.0756V181.617H41.7545C42.6816 181.617 43.1446 182.077 43.1446 182.998V186.329H42.26V182.908C42.26 182.559 42.0859 182.384 41.7364 182.384H40.0756V186.329H39.2001ZM44.4347 184.938V182.998C44.4347 182.077 44.895 181.617 45.8157 181.617H46.9891C47.9156 181.617 48.3792 182.077 48.3792 182.998V184.334H45.3102V185.029C45.3102 185.384 45.4875 185.561 45.8428 185.561H48.1986V186.022L47.7834 186.329H45.8157C44.895 186.329 44.4347 185.865 44.4347 184.938ZM45.3102 183.594H47.4946V182.908C47.4946 182.559 47.3199 182.384 46.9711 182.384H45.8428C45.4875 182.384 45.3102 182.559 45.3102 182.908V183.594ZM50.8446 186.329C49.9182 186.329 49.4546 185.865 49.4546 184.938C49.4546 184.012 49.9182 183.548 50.8446 183.548H52.3701V182.908C52.3701 182.559 52.196 182.384 51.8466 182.384H49.9149V181.924L50.3301 181.617H51.8646C52.7917 181.617 53.2547 182.077 53.2547 182.998V186.329H50.8446ZM50.3301 185.029C50.3301 185.384 50.5081 185.561 50.8627 185.561H52.3701V184.289H50.8627C50.5081 184.289 50.3301 184.463 50.3301 184.812V185.029ZM54.5454 184.938V182.998C54.5454 182.077 55.0058 181.617 55.9265 181.617H57.6054V179.649H58.4899V186.329H55.9265C55.0058 186.329 54.5454 185.865 54.5454 184.938ZM55.421 185.029C55.421 185.384 55.5983 185.561 55.9535 185.561H57.6054V182.384H55.9535C55.5983 182.384 55.421 182.559 55.421 182.908V185.029Z" fill="#5F23EB"/>
<path d="M35.0273 186.527L37.5637 179.631L38.3129 179.902L35.7765 186.798L35.0273 186.527Z" fill="#7854F7"/>
<path d="M48.543 72.7272V67.4648H49.4185V72.8175C49.4185 73.2146 49.6235 73.428 50.0323 73.4583V74.2256C49.0394 74.2256 48.543 73.7259 48.543 72.7272ZM52.2025 74.1443C51.276 74.1443 50.8124 73.6807 50.8124 72.7543C50.8124 71.8278 51.276 71.3642 52.2025 71.3642H53.7279V70.7233C53.7279 70.3745 53.5532 70.1998 53.2044 70.1998H51.2728V69.7395L51.688 69.4326H53.2225C54.149 69.4326 54.6125 69.8929 54.6125 70.8136V74.1443H52.2025ZM51.688 72.8445C51.688 73.1998 51.8653 73.3771 52.2205 73.3771H53.7279V72.1044H52.2205C51.8653 72.1044 51.688 72.2791 51.688 72.6279V72.8445ZM55.9748 74.1443V69.4326H58.5293C59.4558 69.4326 59.9194 69.8929 59.9194 70.8136V74.1443H59.0348V70.7233C59.0348 70.3745 58.86 70.1998 58.5112 70.1998H56.8504V74.1443H55.9748ZM61.1914 72.7543V70.8136C61.1914 69.8929 61.6543 69.4326 62.5815 69.4326H65.1449V74.5595C65.1449 75.486 64.6814 75.9496 63.7549 75.9496H61.9857L61.5705 75.6427V75.1823H63.7368C64.0856 75.1823 64.2604 75.005 64.2604 74.6498V74.1443H62.5815C61.6543 74.1443 61.1914 73.6807 61.1914 72.7543ZM62.076 72.8445C62.076 73.1998 62.2501 73.3771 62.5995 73.3771H64.2604V70.1998H62.5995C62.2501 70.1998 62.076 70.3745 62.076 70.7233V72.8445Z" fill="#A26112"/>
<path d="M75.3834 72.7542V70.8135C75.3834 69.8928 75.8438 69.4325 76.7644 69.4325H77.9379C78.8643 69.4325 79.3279 69.8928 79.3279 70.8135V72.1494H76.259V72.8444C76.259 73.1997 76.4363 73.377 76.7915 73.377H79.1474V73.8373L78.7322 74.1442H76.7644C75.8438 74.1442 75.3834 73.6806 75.3834 72.7542ZM76.259 71.4092H78.4433V70.7232C78.4433 70.3744 78.2686 70.1997 77.9198 70.1997H76.7915C76.4363 70.1997 76.259 70.3744 76.259 70.7232V71.4092ZM80.6561 74.1442V69.4325H83.2105C84.1376 69.4325 84.6006 69.8928 84.6006 70.8135V74.1442H83.716V70.7232C83.716 70.3744 83.5419 70.1997 83.1925 70.1997H81.5316V74.1442H80.6561ZM121.795 74.1442V69.4325H124.349C125.276 69.4325 125.739 69.8928 125.739 70.8135V74.1442H124.855V70.7232C124.855 70.3744 124.68 70.1997 124.331 70.1997H122.67V74.1442H121.795ZM127.029 72.7542V70.8135C127.029 69.8928 127.489 69.4325 128.41 69.4325H129.673C130.601 69.4325 131.064 69.8928 131.064 70.8135V72.7542C131.064 73.6806 130.601 74.1442 129.673 74.1442H128.41C127.489 74.1442 127.029 73.6806 127.029 72.7542ZM127.904 72.8444C127.904 73.1997 128.082 73.377 128.437 73.377H129.655C130.005 73.377 130.179 73.1997 130.179 72.8444V70.7232C130.179 70.3744 130.005 70.1997 129.655 70.1997H128.437C128.082 70.1997 127.904 70.3744 127.904 70.7232V72.8444ZM132.047 71.7703V71.0121H134.629V71.7703H132.047ZM134.911 75.2635C135.434 75.2396 135.696 74.9746 135.696 74.4692V69.4325H136.572V74.3699C136.572 75.4769 136.018 76.0307 134.911 76.0307V75.2635ZM135.678 68.6021V67.6543H136.59V68.6021H135.678ZM137.798 73.8373V73.377H139.874C140.229 73.377 140.407 73.1965 140.407 72.8354C140.407 72.4685 140.254 72.2577 139.947 72.2036L138.9 72.0321C138.165 71.9115 137.798 71.5027 137.798 70.8045C137.798 69.8896 138.261 69.4325 139.188 69.4325H140.651L141.066 69.7394V70.1997H139.207C138.851 70.1997 138.674 70.3802 138.674 70.7413C138.674 71.0662 138.827 71.2526 139.134 71.3009L140.19 71.4814C140.918 71.602 141.283 72.0321 141.283 72.7722C141.283 73.6871 140.822 74.1442 139.902 74.1442H138.214L137.798 73.8373ZM110.079 132.043V126.781H110.955V132.133C110.955 132.53 111.159 132.744 111.569 132.774V133.541C110.576 133.541 110.079 133.042 110.079 132.043ZM112.601 133.46V128.748H115.155C116.082 128.748 116.545 129.209 116.545 130.129V133.46H115.661V130.039C115.661 129.69 115.487 129.515 115.137 129.515H113.476V133.46H112.601ZM117.872 132.07V128.748H118.747V132.16C118.747 132.515 118.924 132.693 119.28 132.693H120.931V128.748H121.816V133.46H119.253C118.332 133.46 117.872 132.996 117.872 132.07ZM123.178 133.46V129.308C123.389 128.935 123.788 128.748 124.378 128.748H125.308L125.723 129.055V129.515H124.469C124.276 129.515 124.138 129.564 124.053 129.66V133.46H123.178ZM126.625 132.043V126.781H127.5V132.133C127.5 132.53 127.704 132.744 128.114 132.774V133.541C127.121 133.541 126.625 133.042 126.625 132.043ZM129.146 135.265V128.748H131.701C132.628 128.748 133.091 129.209 133.091 130.129V132.07C133.091 132.996 132.628 133.46 131.701 133.46H130.022V135.265H129.146ZM130.022 132.693H131.682C132.032 132.693 132.206 132.515 132.206 132.16V130.039C132.206 129.69 132.032 129.515 131.682 129.515H130.022V132.693ZM134.39 133.46V132.377H135.428V133.46H134.39ZM134.39 129.831V128.748H135.428V129.831H134.39ZM136.274 128.893L136.373 128.748H137.131L138.422 132.693H138.575L139.866 128.748H140.624L140.715 128.893L138.575 135.265H137.817L137.727 135.121L138.314 133.46H137.817L136.274 128.893ZM141.53 132.07V130.129C141.53 129.209 141.99 128.748 142.911 128.748H144.174C145.101 128.748 145.564 129.209 145.564 130.129V132.07C145.564 132.996 145.101 133.46 144.174 133.46H142.911C141.99 133.46 141.53 132.996 141.53 132.07ZM142.405 132.16C142.405 132.515 142.582 132.693 142.938 132.693H144.156C144.505 132.693 144.68 132.515 144.68 132.16V130.039C144.68 129.69 144.505 129.515 144.156 129.515H142.938C142.582 129.515 142.405 129.69 142.405 130.039V132.16ZM146.854 132.07V128.748H147.73V132.16C147.73 132.515 147.907 132.693 148.263 132.693H149.914V128.748H150.799V133.46H148.235C147.315 133.46 146.854 132.996 146.854 132.07ZM152.287 133.37V128.586C152.287 127.683 152.736 127.232 153.632 127.232H157.946V132.918H155.654C154.733 132.918 154.273 132.455 154.273 131.528V130.427C154.273 129.501 154.733 129.037 155.654 129.037H157.143V127.927H153.641C153.274 127.927 153.09 128.113 153.09 128.487V133.469C153.09 133.842 153.274 134.029 153.641 134.029H157.766V134.417L157.351 134.724H153.632C152.736 134.724 152.287 134.272 152.287 133.37ZM155.148 131.619C155.148 131.974 155.326 132.151 155.681 132.151H157.062V129.804H155.681C155.326 129.804 155.148 129.982 155.148 130.337V131.619ZM159.398 132.043V126.781H160.273V132.133C160.273 132.53 160.478 132.744 160.887 132.774V133.541C159.894 133.541 159.398 133.042 159.398 132.043ZM161.901 127.918V126.97H162.813V127.918H161.901ZM161.919 133.46V128.748H162.795V133.46H161.919ZM164.112 132.07V130.129C164.112 129.209 164.576 128.748 165.502 128.748H168.066V133.875C168.066 134.802 167.603 135.265 166.676 135.265H164.906L164.491 134.958V134.498H166.658C167.007 134.498 167.181 134.321 167.181 133.965V133.46H165.502C164.576 133.46 164.112 132.996 164.112 132.07ZM164.997 132.16C164.997 132.515 165.171 132.693 165.52 132.693H167.181V129.515H165.52C165.171 129.515 164.997 129.69 164.997 130.039V132.16ZM169.456 133.46V126.781H170.332V128.748H172.011C172.937 128.748 173.401 129.209 173.401 130.129V133.46H172.516V130.039C172.516 129.69 172.342 129.515 171.993 129.515H170.332V133.46H169.456ZM174.726 132.07V127.232H175.602V128.748H177.272V129.515H175.602V132.16C175.602 132.515 175.78 132.693 176.134 132.693H177.362V133.153L176.947 133.46H176.107C175.187 133.46 174.726 132.996 174.726 132.07ZM178.394 133.46V128.748H180.949C181.875 128.748 182.339 129.209 182.339 130.129V133.46H181.454V130.039C181.454 129.69 181.28 129.515 180.931 129.515H179.27V133.46H178.394ZM183.683 127.918V126.97H184.595V127.918H183.683ZM183.701 133.46V128.748H184.577V133.46H183.701ZM185.984 133.46V128.748H188.539C189.465 128.748 189.929 129.209 189.929 130.129V133.46H189.044V130.039C189.044 129.69 188.869 129.515 188.521 129.515H186.86V133.46H185.984ZM191.2 132.07V130.129C191.2 129.209 191.664 128.748 192.59 128.748H195.154V133.875C195.154 134.802 194.69 135.265 193.764 135.265H191.994L191.579 134.958V134.498H193.745C194.094 134.498 194.269 134.321 194.269 133.965V133.46H192.59C191.664 133.46 191.2 132.996 191.2 132.07ZM192.085 132.16C192.085 132.515 192.259 132.693 192.608 132.693H194.269V129.515H192.608C192.259 129.515 192.085 129.69 192.085 130.039V132.16ZM196.517 133.46V132.377H197.555V133.46H196.517ZM200.07 133.46C199.143 133.46 198.68 132.996 198.68 132.07C198.68 131.143 199.143 130.68 200.07 130.68H201.596V130.039C201.596 129.69 201.421 129.515 201.072 129.515H199.141V129.055L199.556 128.748H201.09C202.017 128.748 202.48 129.209 202.48 130.129V133.46H200.07ZM199.556 132.16C199.556 132.515 199.733 132.693 200.088 132.693H201.596V131.42H200.088C199.733 131.42 199.556 131.595 199.556 131.944V132.16ZM203.77 132.07V130.129C203.77 129.209 204.231 128.748 205.152 128.748H206.83V126.781H207.715V133.46H205.152C204.231 133.46 203.77 132.996 203.77 132.07ZM204.646 132.16C204.646 132.515 204.823 132.693 205.179 132.693H206.83V129.515H205.179C204.823 129.515 204.646 129.69 204.646 130.039V132.16ZM209.042 132.07V130.129C209.042 129.209 209.502 128.748 210.423 128.748H212.102V126.781H212.986V133.46H210.423C209.502 133.46 209.042 132.996 209.042 132.07ZM209.917 132.16C209.917 132.515 210.095 132.693 210.45 132.693H212.102V129.515H210.45C210.095 129.515 209.917 129.69 209.917 130.039V132.16ZM214.349 133.46V129.308C214.56 128.935 214.96 128.748 215.549 128.748H216.479L216.894 129.055V129.515H215.639C215.447 129.515 215.309 129.564 215.224 129.66V133.46H214.349ZM217.759 132.07V130.129C217.759 129.209 218.22 128.748 219.14 128.748H220.314C221.24 128.748 221.704 129.209 221.704 130.129V131.465H218.635V132.16C218.635 132.515 218.812 132.693 219.167 132.693H221.523V133.153L221.108 133.46H219.14C218.22 133.46 217.759 132.996 217.759 132.07ZM218.635 130.725H220.819V130.039C220.819 129.69 220.645 129.515 220.296 129.515H219.167C218.812 129.515 218.635 129.69 218.635 130.039V130.725ZM222.851 133.153V132.693H224.928C225.283 132.693 225.46 132.512 225.46 132.151C225.46 131.784 225.307 131.573 225 131.519L223.953 131.348C223.219 131.227 222.851 130.819 222.851 130.12C222.851 129.205 223.315 128.748 224.242 128.748H225.704L226.119 129.055V129.515H224.26C223.905 129.515 223.727 129.696 223.727 130.057C223.727 130.382 223.88 130.568 224.187 130.617L225.243 130.797C225.972 130.918 226.336 131.348 226.336 132.088C226.336 133.003 225.875 133.46 224.955 133.46H223.267L222.851 133.153ZM227.383 133.153V132.693H229.459C229.813 132.693 229.991 132.512 229.991 132.151C229.991 131.784 229.838 131.573 229.531 131.519L228.484 131.348C227.75 131.227 227.383 130.819 227.383 130.12C227.383 129.205 227.846 128.748 228.773 128.748H230.235L230.65 129.055V129.515H228.791C228.436 129.515 228.258 129.696 228.258 130.057C228.258 130.382 228.412 130.568 228.719 130.617L229.775 130.797C230.503 130.918 230.867 131.348 230.867 132.088C230.867 133.003 230.407 133.46 229.486 133.46H227.798L227.383 133.153ZM232.067 133.46V132.377H233.105V133.46H232.067ZM234.41 132.07V130.129C234.41 129.209 234.871 128.748 235.791 128.748H237.533L237.949 129.055V129.515H235.818C235.464 129.515 235.286 129.69 235.286 130.039V132.16C235.286 132.515 235.464 132.693 235.818 132.693H237.949V133.153L237.533 133.46H235.791C234.871 133.46 234.41 132.996 234.41 132.07ZM238.994 132.07V130.129C238.994 129.209 239.455 128.748 240.375 128.748H241.639C242.566 128.748 243.029 129.209 243.029 130.129V132.07C243.029 132.996 242.566 133.46 241.639 133.46H240.375C239.455 133.46 238.994 132.996 238.994 132.07ZM239.87 132.16C239.87 132.515 240.047 132.693 240.402 132.693H241.621C241.97 132.693 242.145 132.515 242.145 132.16V130.039C242.145 129.69 241.97 129.515 241.621 129.515H240.402C240.047 129.515 239.87 129.69 239.87 130.039V132.16ZM244.355 133.46V128.748H249.708C250.634 128.748 251.098 129.209 251.098 130.129V133.46H250.213V130.039C250.213 129.69 250.039 129.515 249.69 129.515H248.164V133.46H247.28V129.515H245.231V133.46H244.355ZM54.0703 143.648V138.386H54.9459V143.738C54.9459 144.136 55.1503 144.349 55.5597 144.379V145.147C54.5668 145.147 54.0703 144.647 54.0703 143.648ZM56.5738 139.523V138.575H57.4855V139.523H56.5738ZM56.5919 145.065V140.354H57.4675V145.065H56.5919ZM58.7847 143.675V141.735C58.7847 140.814 59.2482 140.354 60.1747 140.354H62.7382V145.48C62.7382 146.407 62.2746 146.871 61.3481 146.871H59.579L59.1638 146.564V146.103H61.3301C61.6789 146.103 61.8536 145.926 61.8536 145.571V145.065H60.1747C59.2482 145.065 58.7847 144.602 58.7847 143.675ZM59.6692 143.765C59.6692 144.121 59.844 144.298 60.1928 144.298H61.8536V141.121H60.1928C59.844 141.121 59.6692 141.295 59.6692 141.644V143.765ZM64.1289 145.065V138.386H65.0044V140.354H66.6833C67.6098 140.354 68.0734 140.814 68.0734 141.735V145.065H67.1888V141.644C67.1888 141.295 67.0141 141.121 66.6653 141.121H65.0044V145.065H64.1289ZM69.399 143.675V138.837H70.2745V140.354H71.9444V141.121H70.2745V143.765C70.2745 144.121 70.4518 144.298 70.8071 144.298H72.0346V144.758L71.6194 145.065H70.78C69.8593 145.065 69.399 144.602 69.399 143.675ZM73.0669 145.065V140.354H75.6213C76.5478 140.354 77.0114 140.814 77.0114 141.735V145.065H76.1268V141.644C76.1268 141.295 75.9521 141.121 75.6033 141.121H73.9424V145.065H73.0669ZM78.355 139.523V138.575H79.2667V139.523H78.355ZM78.373 145.065V140.354H79.2486V145.065H78.373ZM80.6561 145.065V140.354H83.2105C84.1376 140.354 84.6006 140.814 84.6006 141.735V145.065H83.716V141.644C83.716 141.295 83.5419 141.121 83.1925 141.121H81.5316V145.065H80.6561ZM85.8726 143.675V141.735C85.8726 140.814 86.3356 140.354 87.2627 140.354H89.8261V145.48C89.8261 146.407 89.3626 146.871 88.4361 146.871H86.6669L86.2517 146.564V146.103H88.4181C88.7669 146.103 88.9416 145.926 88.9416 145.571V145.065H87.2627C86.3356 145.065 85.8726 144.602 85.8726 143.675ZM86.7572 143.765C86.7572 144.121 86.9313 144.298 87.2807 144.298H88.9416V141.121H87.2807C86.9313 141.121 86.7572 141.295 86.7572 141.644V143.765ZM113.445 158.504V156.564C113.445 155.643 113.906 155.182 114.826 155.182H116.09C117.017 155.182 117.48 155.643 117.48 156.564V158.504C117.48 159.431 117.017 159.894 116.09 159.894H114.826C113.906 159.894 113.445 159.431 113.445 158.504ZM114.321 158.594C114.321 158.95 114.498 159.127 114.854 159.127H116.072C116.421 159.127 116.596 158.95 116.596 158.594V156.473C116.596 156.124 116.421 155.95 116.072 155.95H114.854C114.498 155.95 114.321 156.124 114.321 156.473V158.594ZM118.716 158.504V156.564C118.716 155.643 119.18 155.182 120.106 155.182H122.67V160.309C122.67 161.236 122.207 161.699 121.28 161.699H119.51L119.095 161.393V160.932H121.262C121.611 160.932 121.785 160.755 121.785 160.4V159.894H120.106C119.18 159.894 118.716 159.431 118.716 158.504ZM119.601 158.594C119.601 158.95 119.775 159.127 120.124 159.127H121.785V155.95H120.124C119.775 155.95 119.601 156.124 119.601 156.473V158.594ZM124.033 159.894V158.811H125.071V159.894H124.033ZM124.033 156.266V155.182H125.071V156.266H124.033ZM126.431 154.352V153.404H127.343V154.352H126.431ZM126.449 159.894V155.182H127.325V159.894H126.449ZM128.732 159.894V155.182H134.085C135.011 155.182 135.475 155.643 135.475 156.564V159.894H134.59V156.473C134.59 156.124 134.416 155.95 134.067 155.95H132.541V159.894H131.657V155.95H129.608V159.894H128.732ZM137.979 159.894C137.052 159.894 136.589 159.431 136.589 158.504C136.589 157.578 137.052 157.114 137.979 157.114H139.504V156.473C139.504 156.124 139.33 155.95 138.981 155.95H137.049V155.489L137.464 155.182H138.999C139.925 155.182 140.389 155.643 140.389 156.564V159.894H137.979ZM137.464 158.594C137.464 158.95 137.642 159.127 137.997 159.127H139.504V157.854H137.997C137.642 157.854 137.464 158.029 137.464 158.378V158.594ZM141.661 158.504V156.564C141.661 155.643 142.125 155.182 143.051 155.182H145.615V160.309C145.615 161.236 145.151 161.699 144.225 161.699H142.455L142.04 161.393V160.932H144.206C144.555 160.932 144.73 160.755 144.73 160.4V159.894H143.051C142.125 159.894 141.661 159.431 141.661 158.504ZM142.546 158.594C142.546 158.95 142.72 159.127 143.069 159.127H144.73V155.95H143.069C142.72 155.95 142.546 156.124 142.546 156.473V158.594ZM146.933 158.504V156.564C146.933 155.643 147.393 155.182 148.314 155.182H149.488C150.414 155.182 150.878 155.643 150.878 156.564V157.899H147.809V158.594C147.809 158.95 147.986 159.127 148.341 159.127H150.697V159.587L150.282 159.894H148.314C147.393 159.894 146.933 159.431 146.933 158.504ZM147.809 157.159H149.993V156.473C149.993 156.124 149.818 155.95 149.469 155.95H148.341C147.986 155.95 147.809 156.124 147.809 156.473V157.159ZM199.947 159.894V153.215H200.822V155.182H202.501C203.428 155.182 203.891 155.643 203.891 156.564V159.894H203.006V156.473C203.006 156.124 202.832 155.95 202.483 155.95H200.822V159.894H199.947ZM205.217 158.504V153.666H206.092V155.182H207.762V155.95H206.092V158.594C206.092 158.95 206.27 159.127 206.625 159.127H207.852V159.587L207.437 159.894H206.598C205.677 159.894 205.217 159.431 205.217 158.504ZM208.848 158.504V153.666H209.724V155.182H211.394V155.95H209.724V158.594C209.724 158.95 209.901 159.127 210.257 159.127H211.484V159.587L211.069 159.894H210.229C209.309 159.894 208.848 159.431 208.848 158.504ZM212.516 161.699V155.182H215.071C215.997 155.182 216.461 155.643 216.461 156.564V158.504C216.461 159.431 215.997 159.894 215.071 159.894H213.392V161.699H212.516ZM213.392 159.127H215.053C215.402 159.127 215.576 158.95 215.576 158.594V156.473C215.576 156.124 215.402 155.95 215.053 155.95H213.392V159.127ZM217.607 159.587V159.127H219.683C220.038 159.127 220.216 158.946 220.216 158.585C220.216 158.219 220.062 158.008 219.755 157.954L218.708 157.782C217.974 157.661 217.607 157.253 217.607 156.554C217.607 155.64 218.07 155.182 218.997 155.182H220.46L220.875 155.489V155.95H219.015C218.66 155.95 218.483 156.13 218.483 156.491C218.483 156.816 218.636 157.003 218.943 157.051L219.999 157.231C220.727 157.352 221.091 157.782 221.091 158.522C221.091 159.437 220.631 159.894 219.71 159.894H218.022L217.607 159.587ZM222.291 159.894V158.811H223.329V159.894H222.291ZM222.291 156.266V155.182H223.329V156.266H222.291ZM224.184 160.093L226.72 153.197L227.469 153.467L224.933 160.364L224.184 160.093ZM227.295 160.093L229.831 153.197L230.581 153.467L228.044 160.364L227.295 160.093ZM230.971 155.327L231.08 155.182H231.82L232.695 159.127H232.813L233.86 155.182H234.916L235.963 159.127H236.08L236.956 155.182H237.696L237.795 155.327L236.739 159.894H235.376L234.383 156.121L233.399 159.894H232.036L230.971 155.327ZM238.217 155.327L238.326 155.182H239.066L239.942 159.127H240.059L241.106 155.182H242.162L243.209 159.127H243.326L244.202 155.182H244.942L245.041 155.327L243.985 159.894H242.622L241.629 156.121L240.646 159.894H239.283L238.217 155.327ZM245.463 155.327L245.571 155.182H246.312L247.187 159.127H247.304L248.351 155.182H249.408L250.455 159.127H250.572L251.447 155.182H252.188L252.287 155.327L251.231 159.894H249.868L248.875 156.121L247.891 159.894H246.528L245.463 155.327ZM253.178 159.894V158.811H254.216V159.894H253.178ZM254.885 155.327L254.985 155.182H255.743L257.033 159.127H257.187L258.478 155.182H259.236L259.326 155.327L257.187 161.699H256.429L256.338 161.555L256.925 159.894H256.429L254.885 155.327ZM260.14 158.504V156.564C260.14 155.643 260.601 155.182 261.521 155.182H262.785C263.712 155.182 264.175 155.643 264.175 156.564V158.504C264.175 159.431 263.712 159.894 262.785 159.894H261.521C260.601 159.894 260.14 159.431 260.14 158.504ZM261.016 158.594C261.016 158.95 261.194 159.127 261.549 159.127H262.767C263.117 159.127 263.291 158.95 263.291 158.594V156.473C263.291 156.124 263.117 155.95 262.767 155.95H261.549C261.194 155.95 261.016 156.124 261.016 156.473V158.594ZM265.466 158.504V155.182H266.342V158.594C266.342 158.95 266.519 159.127 266.874 159.127H268.526V155.182H269.411V159.894H266.847C265.926 159.894 265.466 159.431 265.466 158.504ZM270.772 159.894V155.742C270.983 155.369 271.383 155.182 271.973 155.182H272.902L273.318 155.489V155.95H272.063C271.87 155.95 271.732 155.998 271.648 156.094V159.894H270.772ZM273.69 159.894V158.811H274.728V159.894H273.69ZM276.106 159.894V153.215H276.982V155.182H278.661C279.587 155.182 280.051 155.643 280.051 156.564V158.504C280.051 159.431 279.587 159.894 278.661 159.894H276.106ZM276.982 159.127H278.642C278.991 159.127 279.166 158.95 279.166 158.594V156.473C279.166 156.124 278.991 155.95 278.642 155.95H276.982V159.127ZM281.341 158.477V153.215H282.217V158.567C282.217 158.964 282.421 159.178 282.831 159.208V159.975C281.838 159.975 281.341 159.476 281.341 158.477ZM283.791 158.504V156.564C283.791 155.643 284.251 155.182 285.172 155.182H286.435C287.362 155.182 287.825 155.643 287.825 156.564V158.504C287.825 159.431 287.362 159.894 286.435 159.894H285.172C284.251 159.894 283.791 159.431 283.791 158.504ZM284.666 158.594C284.666 158.95 284.844 159.127 285.199 159.127H286.417C286.766 159.127 286.941 158.95 286.941 158.594V156.473C286.941 156.124 286.766 155.95 286.417 155.95H285.199C284.844 155.95 284.666 156.124 284.666 156.473V158.594ZM289.061 158.504V156.564C289.061 155.643 289.525 155.182 290.451 155.182H293.015V160.309C293.015 161.236 292.552 161.699 291.625 161.699H289.856L289.441 161.393V160.932H291.607C291.956 160.932 292.13 160.755 292.13 160.4V159.894H290.451C289.525 159.894 289.061 159.431 289.061 158.504ZM289.946 158.594C289.946 158.95 290.121 159.127 290.47 159.127H292.13V155.95H290.47C290.121 155.95 289.946 156.124 289.946 156.473V158.594ZM293.882 160.093L296.419 153.197L297.168 153.467L294.631 160.364L293.882 160.093ZM21.1262 165.461L21.2436 165.271H22.0289L23.6175 168.268L25.2151 165.271H26.0004L26.1087 165.461L24.0778 169.225V171.499H23.1571V169.225L21.1262 165.461ZM26.992 170.073V166.697C26.992 165.746 27.4646 165.271 28.4092 165.271H30.5033C31.4543 165.271 31.9294 165.746 31.9294 166.697V170.073C31.9294 171.024 31.4543 171.499 30.5033 171.499H28.4092C27.4646 171.499 26.992 171.024 26.992 170.073ZM27.9127 170.155C27.9127 170.498 28.081 170.669 28.4182 170.669H30.4942C30.8372 170.669 31.0087 170.498 31.0087 170.155V166.616C31.0087 166.273 30.8372 166.102 30.4942 166.102H28.4182C28.081 166.102 27.9127 166.273 27.9127 166.616V170.155ZM33.3659 170.073V165.271H34.2866V170.155C34.2866 170.498 34.4549 170.669 34.7921 170.669H36.6876C37.0306 170.669 37.2021 170.498 37.2021 170.155V165.271H38.1228V170.073C38.1228 171.024 37.6476 171.499 36.6966 171.499H34.783C33.8385 171.499 33.3659 171.024 33.3659 170.073ZM39.6521 171.499V165.271H42.6217C43.5727 165.271 44.0479 165.746 44.0479 166.697V167.699C44.0479 168.47 43.7288 168.927 43.0911 169.071L44.2284 171.292L44.1111 171.499H43.3258L42.1163 169.117H40.5728V171.499H39.6521ZM40.5728 168.286H42.6127C42.9557 168.286 43.1272 168.115 43.1272 167.772V166.616C43.1272 166.273 42.9557 166.102 42.6127 166.102H40.5728V168.286ZM45.0099 172.547H49.523V173.305H45.0099V172.547ZM50.6797 171.499V165.271H51.6004V171.499H50.6797ZM53.1825 171.499V165.271H54.3469L56.3508 169.55L58.3636 165.271H59.528V171.499H58.6074V166.752L56.7931 170.624H55.9175L54.1032 166.752V171.499H53.1825ZM60.4842 171.31L62.47 165.271H63.9413L65.918 171.31L65.8007 171.499H65.0334L64.5641 170.019H61.8472L61.3778 171.499H60.6105L60.4842 171.31ZM62.1089 169.189H64.3023L63.3004 166.102H63.1108L62.1089 169.189ZM66.7994 170.073V166.697C66.7994 165.746 67.272 165.271 68.2165 165.271H70.9064L71.3757 165.632V166.102H68.2255C67.8883 166.102 67.7201 166.273 67.7201 166.616V170.155C67.7201 170.498 67.8883 170.669 68.2255 170.669H70.6356V168.665H69.2004V167.835H71.5562V171.499H68.2165C67.272 171.499 66.7994 171.024 66.7994 170.073ZM72.954 171.499V165.271H77.07V166.102H73.8747V167.835H76.7992V168.665H73.8747V170.669H77.07V171.499H72.954Z" fill="#3C6ECF"/>
<path d="M91.7609 72.7543V70.8136C91.7609 69.8929 92.2213 69.4326 93.142 69.4326H94.884L95.2992 69.7395V70.1998H93.169C92.8144 70.1998 92.6365 70.3745 92.6365 70.7233V72.8445C92.6365 73.1998 92.8144 73.3771 93.169 73.3771H95.2992V73.8374L94.884 74.1443H93.142C92.2213 74.1443 91.7609 73.6807 91.7609 72.7543ZM96.3811 72.7272V67.4648H97.2567V72.8175C97.2567 73.2146 97.4611 73.428 97.8705 73.4583V74.2256C96.8776 74.2256 96.3811 73.7259 96.3811 72.7272ZM100.04 74.1443C99.1135 74.1443 98.6499 73.6807 98.6499 72.7543C98.6499 71.8278 99.1135 71.3642 100.04 71.3642H101.565V70.7233C101.565 70.3745 101.391 70.1998 101.042 70.1998H99.1103V69.7395L99.5255 69.4326H101.06C101.986 69.4326 102.45 69.8929 102.45 70.8136V74.1443H100.04ZM99.5255 72.8445C99.5255 73.1998 99.7028 73.3771 100.058 73.3771H101.565V72.1044H100.058C99.7028 72.1044 99.5255 72.2791 99.5255 72.6279V72.8445ZM103.632 73.8374V73.3771H105.708C106.063 73.3771 106.24 73.1966 106.24 72.8355C106.24 72.4686 106.087 72.2578 105.78 72.2037L104.733 72.0322C103.999 71.9116 103.632 71.5028 103.632 70.8046C103.632 69.8897 104.095 69.4326 105.022 69.4326H106.484L106.899 69.7395V70.1998H105.04C104.685 70.1998 104.507 70.3803 104.507 70.7414C104.507 71.0663 104.661 71.2527 104.968 71.301L106.024 71.4816C106.752 71.6021 107.116 72.0322 107.116 72.7723C107.116 73.6872 106.656 74.1443 105.735 74.1443H104.047L103.632 73.8374ZM108.163 73.8374V73.3771H110.239C110.594 73.3771 110.772 73.1966 110.772 72.8355C110.772 72.4686 110.618 72.2578 110.311 72.2037L109.264 72.0322C108.53 71.9116 108.163 71.5028 108.163 70.8046C108.163 69.8897 108.626 69.4326 109.553 69.4326H111.015L111.431 69.7395V70.1998H109.571C109.216 70.1998 109.039 70.3803 109.039 70.7414C109.039 71.0663 109.192 71.2527 109.499 71.301L110.555 71.4816C111.283 71.6021 111.647 72.0322 111.647 72.7723C111.647 73.6872 111.187 74.1443 110.266 74.1443H108.578L108.163 73.8374ZM68.1726 132.07V130.129C68.1726 129.209 68.6329 128.748 69.5536 128.748H71.2957L71.7109 129.055V129.516H69.5807C69.2261 129.516 69.0481 129.69 69.0481 130.039V132.16C69.0481 132.516 69.2261 132.693 69.5807 132.693H71.7109V133.153L71.2957 133.46H69.5536C68.6329 133.46 68.1726 132.997 68.1726 132.07ZM72.7567 132.07V130.129C72.7567 129.209 73.217 128.748 74.1377 128.748H75.4014C76.3279 128.748 76.7914 129.209 76.7914 130.129V132.07C76.7914 132.997 76.3279 133.46 75.4014 133.46H74.1377C73.217 133.46 72.7567 132.997 72.7567 132.07ZM73.6322 132.16C73.6322 132.516 73.8095 132.693 74.1648 132.693H75.3833C75.7321 132.693 75.9068 132.516 75.9068 132.16V130.039C75.9068 129.69 75.7321 129.516 75.3833 129.516H74.1648C73.8095 129.516 73.6322 129.69 73.6322 130.039V132.16ZM78.1176 133.46V128.748H80.6721C81.5986 128.748 82.0621 129.209 82.0621 130.129V133.46H81.1776V130.039C81.1776 129.69 81.0028 129.516 80.654 129.516H78.9932V133.46H78.1176ZM83.3877 132.07V127.232H84.2633V128.748H85.9331V129.516H84.2633V132.16C84.2633 132.516 84.4412 132.693 84.7958 132.693H86.0234V133.153L85.6082 133.46H84.7688C83.8481 133.46 83.3877 132.997 83.3877 132.07ZM86.9834 132.07V130.129C86.9834 129.209 87.4438 128.748 88.3644 128.748H89.5379C90.4644 128.748 90.9279 129.209 90.9279 130.129V131.465H87.859V132.16C87.859 132.516 88.0363 132.693 88.3915 132.693H90.7474V133.153L90.3322 133.46H88.3644C87.4438 133.46 86.9834 132.997 86.9834 132.07ZM87.859 130.725H90.0433V130.039C90.0433 129.69 89.8686 129.516 89.5198 129.516H88.3915C88.0363 129.516 87.859 129.69 87.859 130.039V130.725ZM92.2567 133.46V128.748H94.8112C95.7377 128.748 96.2012 129.209 96.2012 130.129V133.46H95.3167V130.039C95.3167 129.69 95.1419 129.516 94.7931 129.516H93.1323V133.46H92.2567ZM97.5268 132.07V127.232H98.4024V128.748H100.072V129.516H98.4024V132.16C98.4024 132.516 98.5797 132.693 98.9349 132.693H100.162V133.153L99.7473 133.46H98.9078C97.9871 133.46 97.5268 132.997 97.5268 132.07ZM21.6587 145.065V140.354H24.2131C25.1403 140.354 25.6032 140.814 25.6032 141.735V145.065H24.7186V141.644C24.7186 141.296 24.5445 141.121 24.1951 141.121H22.5342V145.065H21.6587ZM28.1028 145.065C27.1763 145.065 26.7128 144.602 26.7128 143.675C26.7128 142.749 27.1763 142.285 28.1028 142.285H29.6283V141.644C29.6283 141.296 29.4536 141.121 29.1048 141.121H27.1731V140.661L27.5883 140.354H29.1228C30.0493 140.354 30.5129 140.814 30.5129 141.735V145.065H28.1028ZM27.5883 143.766C27.5883 144.121 27.7656 144.298 28.1209 144.298H29.6283V143.025H28.1209C27.7656 143.025 27.5883 143.2 27.5883 143.549V143.766ZM31.8752 145.065V140.354H37.2278C38.1549 140.354 38.6178 140.814 38.6178 141.735V145.065H37.7333V141.644C37.7333 141.296 37.5592 141.121 37.2097 141.121H35.6843V145.065H34.7997V141.121H32.7507V145.065H31.8752ZM39.9125 143.675V141.735C39.9125 140.814 40.3728 140.354 41.2935 140.354H42.4669C43.3941 140.354 43.857 140.814 43.857 141.735V143.071H40.788V143.766C40.788 144.121 40.966 144.298 41.3206 144.298H43.6765V144.758L43.2612 145.065H41.2935C40.3728 145.065 39.9125 144.602 39.9125 143.675ZM40.788 142.33H42.9724V141.644C42.9724 141.296 42.7983 141.121 42.4489 141.121H41.3206C40.966 141.121 40.788 141.296 40.788 141.644V142.33ZM68.2448 161.7V155.183H70.7992C71.7264 155.183 72.1893 155.643 72.1893 156.564V158.504C72.1893 159.431 71.7264 159.894 70.7992 159.894H69.1203V161.7H68.2448ZM69.1203 159.127H70.7812C71.1306 159.127 71.3047 158.95 71.3047 158.595V156.473C71.3047 156.125 71.1306 155.95 70.7812 155.95H69.1203V159.127ZM73.4801 159.894V155.742C73.6909 155.369 74.0906 155.183 74.6806 155.183H75.6103L76.0255 155.489V155.95H74.7708C74.578 155.95 74.4401 155.998 74.3556 156.094V159.894H73.4801ZM76.8907 158.504V156.564C76.8907 155.643 77.3511 155.183 78.2717 155.183H79.5354C80.4619 155.183 80.9255 155.643 80.9255 156.564V158.504C80.9255 159.431 80.4619 159.894 79.5354 159.894H78.2717C77.3511 159.894 76.8907 159.431 76.8907 158.504ZM77.7663 158.595C77.7663 158.95 77.9436 159.127 78.2988 159.127H79.5174C79.8662 159.127 80.0409 158.95 80.0409 158.595V156.473C80.0409 156.125 79.8662 155.95 79.5174 155.95H78.2988C77.9436 155.95 77.7663 156.125 77.7663 156.473V158.595ZM82.2517 161.7V155.183H84.8061C85.7326 155.183 86.1962 155.643 86.1962 156.564V158.504C86.1962 159.431 85.7326 159.894 84.8061 159.894H83.1273V161.7H82.2517ZM83.1273 159.127H84.7881C85.1369 159.127 85.3116 158.95 85.3116 158.595V156.473C85.3116 156.125 85.1369 155.95 84.7881 155.95H83.1273V159.127ZM87.4509 158.504V156.564C87.4509 155.643 87.9112 155.183 88.8319 155.183H90.0053C90.9318 155.183 91.3954 155.643 91.3954 156.564V157.9H88.3264V158.595C88.3264 158.95 88.5037 159.127 88.859 159.127H91.2148V159.587L90.7996 159.894H88.8319C87.9112 159.894 87.4509 159.431 87.4509 158.504ZM88.3264 157.159H90.5108V156.473C90.5108 156.125 90.3361 155.95 89.9873 155.95H88.859C88.5037 155.95 88.3264 156.125 88.3264 156.473V157.159ZM92.6874 159.894V155.742C92.8982 155.369 93.298 155.183 93.8879 155.183H94.8176L95.2328 155.489V155.95H93.9782C93.7854 155.95 93.6474 155.998 93.563 156.094V159.894H92.6874ZM96.1342 158.504V153.666H97.0097V155.183H98.6796V155.95H97.0097V158.595C97.0097 158.95 97.187 159.127 97.5423 159.127H98.7699V159.587L98.3546 159.894H97.5152C96.5945 159.894 96.1342 159.431 96.1342 158.504ZM99.2695 155.327L99.3688 155.183H100.127L101.418 159.127H101.571L102.862 155.183H103.62L103.71 155.327L101.571 161.7H100.813L100.723 161.555L101.309 159.894H100.813L99.2695 155.327ZM158.004 158.504V156.564C158.004 155.643 158.464 155.183 159.385 155.183H161.127L161.542 155.489V155.95H159.412C159.057 155.95 158.879 156.125 158.879 156.473V158.595C158.879 158.95 159.057 159.127 159.412 159.127H161.542V159.587L161.127 159.894H159.385C158.464 159.894 158.004 159.431 158.004 158.504ZM162.588 158.504V156.564C162.588 155.643 163.048 155.183 163.969 155.183H165.233C166.159 155.183 166.623 155.643 166.623 156.564V158.504C166.623 159.431 166.159 159.894 165.233 159.894H163.969C163.048 159.894 162.588 159.431 162.588 158.504ZM163.463 158.595C163.463 158.95 163.641 159.127 163.996 159.127H165.215C165.563 159.127 165.738 158.95 165.738 158.595V156.473C165.738 156.125 165.563 155.95 165.215 155.95H163.996C163.641 155.95 163.463 156.125 163.463 156.473V158.595ZM167.949 159.894V155.183H170.503C171.43 155.183 171.893 155.643 171.893 156.564V159.894H171.009V156.473C171.009 156.125 170.834 155.95 170.485 155.95H168.824V159.894H167.949ZM173.219 158.504V153.666H174.094V155.183H175.764V155.95H174.094V158.595C174.094 158.95 174.272 159.127 174.627 159.127H175.855V159.587L175.439 159.894H174.6C173.679 159.894 173.219 159.431 173.219 158.504ZM176.815 158.504V156.564C176.815 155.643 177.275 155.183 178.196 155.183H179.369C180.296 155.183 180.759 155.643 180.759 156.564V157.9H177.69V158.595C177.69 158.95 177.868 159.127 178.223 159.127H180.579V159.587L180.163 159.894H178.196C177.275 159.894 176.815 159.431 176.815 158.504ZM177.69 157.159H179.875V156.473C179.875 156.125 179.7 155.95 179.351 155.95H178.223C177.868 155.95 177.69 156.125 177.69 156.473V157.159ZM182.088 159.894V155.183H184.642C185.569 155.183 186.032 155.643 186.032 156.564V159.894H185.148V156.473C185.148 156.125 184.973 155.95 184.624 155.95H182.963V159.894H182.088ZM187.358 158.504V153.666H188.234V155.183H189.903V155.95H188.234V158.595C188.234 158.95 188.411 159.127 188.766 159.127H189.994V159.587L189.578 159.894H188.739C187.818 159.894 187.358 159.431 187.358 158.504Z" fill="#A16112"/>
<g filter="url(#filter1_i_4537_23109)">
<path d="M343 0H0V16.7632H343V0Z" fill="white"/>
<path d="M10.2837 8.38244C10.2837 7.33201 9.43214 6.48047 8.38171 6.48047C7.33128 6.48047 6.47974 7.33201 6.47974 8.38244C6.47974 9.43287 7.33128 10.2844 8.38171 10.2844C9.43214 10.2844 10.2837 9.43287 10.2837 8.38244Z" fill="#EE6A5F" stroke="#C7493E" stroke-width="0.1"/>
<path d="M23.1782 8.38244C23.1782 7.33201 22.3267 6.48047 21.2762 6.48047C20.2258 6.48047 19.3743 7.33201 19.3743 8.38244C19.3743 9.43287 20.2258 10.2844 21.2762 10.2844C22.3267 10.2844 23.1782 9.43287 23.1782 8.38244Z" fill="#5FC454" stroke="#3AA531" stroke-width="0.1"/>
<path d="M16.7309 8.38244C16.7309 7.33201 15.8794 6.48047 14.829 6.48047C13.7785 6.48047 12.927 7.33201 12.927 8.38244C12.927 9.43287 13.7785 10.2844 14.829 10.2844C15.8794 10.2844 16.7309 9.43287 16.7309 8.38244Z" fill="#F4BE50" stroke="#DFAB41" stroke-width="0.1"/>
<path d="M38.6842 5.80273H33.5263C33.1703 5.80273 32.8816 6.09139 32.8816 6.44747V9.847C32.8816 10.2031 33.1703 10.4917 33.5263 10.4917H38.6842C39.0403 10.4917 39.329 10.2031 39.329 9.847V6.44747C39.329 6.09139 39.0403 5.80273 38.6842 5.80273Z" fill="white" stroke="#737373" stroke-width="0.6"/>
<path d="M34.9331 10.1988V6.0957" stroke="#737373" stroke-width="0.6" stroke-linecap="square"/>
<path d="M33.4675 6.97461H34.1123" stroke="#737373" stroke-width="0.3" stroke-linecap="round"/>
<path d="M33.4675 7.68359H34.1123" stroke="#737373" stroke-width="0.3" stroke-linecap="round"/>
<path d="M33.4675 8.39258H34.1123" stroke="#737373" stroke-width="0.3" stroke-linecap="round"/>
<path d="M51.3436 5.80273L49 8.14635L51.3436 10.49" stroke="#737373" stroke-width="0.6" stroke-linecap="round" stroke-linejoin="round"/>
<path d="M60.3699 5.80273L62.7135 8.14635L60.3699 10.49" stroke="#737373" stroke-opacity="0.5" stroke-width="0.6" stroke-linecap="round" stroke-linejoin="round"/>
<path d="M262.408 3.86914H73.4999C72.7878 3.86914 72.2104 4.44646 72.2104 5.15861V11.606C72.2104 12.3181 72.7878 12.8955 73.4999 12.8955H262.408C263.12 12.8955 263.697 12.3181 263.697 11.606V5.15861C263.697 4.44646 263.12 3.86914 262.408 3.86914Z" fill="#F2F2F2"/>
<path d="M79.3027 8.38148C79.3027 7.31324 78.4368 6.44727 77.3685 6.44727C76.3003 6.44727 75.4343 7.31324 75.4343 8.38148C75.4343 9.44971 76.3003 10.3157 77.3685 10.3157C78.4368 10.3157 79.3027 9.44971 79.3027 8.38148Z" fill="#F2F2F2" stroke="#737373" stroke-width="0.4"/>
<path d="M76.4524 8.35547H78.2847" stroke="#737373" stroke-width="0.4" stroke-linecap="round"/>
<path d="M77.3684 7.46289V9.29523" stroke="#737373" stroke-width="0.4" stroke-linecap="round"/>
<path d="M294.013 8.37277C294.013 6.76676 292.711 5.46484 291.105 5.46484C289.499 5.46484 288.197 6.76676 288.197 8.37277V8.39024C288.197 9.99625 289.499 11.2982 291.105 11.2982C292.711 11.2982 294.013 9.99625 294.013 8.39024V8.37277Z" fill="white" stroke="#737373" stroke-width="0.6"/>
<path d="M291.313 6.80043C291.313 6.70694 291.232 6.63086 291.132 6.63086C291.032 6.63086 290.95 6.70694 290.95 6.80043H291.313ZM291.004 9.77459C291.074 9.841 291.189 9.841 291.26 9.77459L292.414 8.69208C292.485 8.62567 292.485 8.518 292.414 8.45159C292.343 8.38518 292.228 8.38518 292.157 8.45159L291.132 9.41354L290.106 8.45159C290.036 8.38518 289.921 8.38518 289.85 8.45159C289.779 8.518 289.779 8.62567 289.85 8.69208L291.004 9.77459ZM290.95 6.80043V9.65403H291.313V6.80043H290.95Z" fill="#737373"/>
<path d="M306.4 7.38477H304.271C303.591 7.38477 303.04 7.93584 303.04 8.61563V10.3754C303.04 11.0552 303.591 11.6063 304.271 11.6063H306.4C307.08 11.6063 307.631 11.0552 307.631 10.3754V8.61563C307.631 7.93584 307.08 7.38477 306.4 7.38477Z" fill="white" stroke="#737373" stroke-width="0.6"/>
<path d="M305.692 9.72284V9.52942V6.21612L306.255 6.74416C306.403 6.88407 306.64 6.88407 306.789 6.74416C306.945 6.59781 306.945 6.35538 306.789 6.20903L305.692 5.17938V5.14392H305.654L305.575 5.06977L305.505 5.14392L305.575 5.06977C305.426 4.92987 305.189 4.92987 305.04 5.06977L304.961 5.14392H304.923V5.17938L303.826 6.20903C303.67 6.35538 303.67 6.59781 303.826 6.74416C303.975 6.88407 304.211 6.88407 304.36 6.74416L304.923 6.21612V9.52942V9.72284V9.91627H304.979C305.048 10.0259 305.174 10.0949 305.307 10.0949C305.441 10.0949 305.567 10.0259 305.636 9.91627H305.692V9.72284Z" fill="#737373" stroke="white" stroke-width="0.6"/>
<path d="M316.657 8.32031H321.249" stroke="#737373" stroke-width="0.6" stroke-linecap="round"/>
<path d="M318.953 6.07812V10.6835" stroke="#737373" stroke-width="0.6" stroke-linecap="round"/>
<path d="M333.695 5.3125H331.565C330.853 5.3125 330.275 5.88982 330.275 6.60197V8.74637C330.275 9.45853 330.853 10.0358 331.565 10.0358H333.695C334.407 10.0358 334.985 9.45853 334.985 8.74637V6.60197C334.985 5.88982 334.407 5.3125 333.695 5.3125Z" fill="white" stroke="#737373" stroke-width="0.6"/>
<path d="M335.343 6.72852H333.213C332.501 6.72852 331.923 7.30583 331.923 8.01799V10.1624C331.923 10.8745 332.501 11.4519 333.213 11.4519H335.343C336.055 11.4519 336.633 10.8745 336.633 10.1624V8.01799C336.633 7.30583 336.055 6.72852 335.343 6.72852Z" fill="white" stroke="#737373" stroke-width="0.6"/>
<path d="M271.965 7.42824C271.603 7.42824 271.309 7.13431 271.309 6.77174C271.309 6.40916 271.603 6.11523 271.965 6.11523C272.328 6.11523 272.622 6.40916 272.622 6.77174C272.622 7.13431 272.328 7.42824 271.965 7.42824Z" fill="black"/>
<path d="M271.856 6.67188L273.082 7.89687" stroke="black" stroke-width="0.8146"/>
<path d="M276.016 7.42824C276.378 7.42824 276.672 7.13431 276.672 6.77174C276.672 6.40916 276.378 6.11523 276.016 6.11523C275.653 6.11523 275.359 6.40916 275.359 6.77174C275.359 7.13431 275.653 7.42824 276.016 7.42824Z" fill="black"/>
<path d="M276.136 6.67188L274.91 7.89687" stroke="black" stroke-width="0.8146"/>
<path fill-rule="evenodd" clip-rule="evenodd" d="M271.844 10.1837C271.261 9.95096 270.922 9.33265 271.088 8.72789C271.49 7.26111 272.647 6.20117 274.013 6.20117C275.381 6.20117 276.541 7.26627 276.94 8.7395C277.104 9.34555 276.762 9.96321 276.178 10.1934C275.511 10.4558 274.784 10.5996 274.023 10.5996C273.253 10.5996 272.517 10.4519 271.844 10.1837Z" fill="#FFDF6F"/>
<g style="mix-blend-mode:saturation">
<path fill-rule="evenodd" clip-rule="evenodd" d="M271.844 10.1837C271.261 9.95096 270.922 9.33265 271.088 8.72789C271.49 7.26111 272.647 6.20117 274.013 6.20117C275.381 6.20117 276.541 7.26627 276.94 8.7395C277.104 9.34555 276.762 9.96321 276.178 10.1934C275.511 10.4558 274.784 10.5996 274.023 10.5996C273.253 10.5996 272.517 10.4519 271.844 10.1837Z" fill="black" fill-opacity="0.5"/>
</g>
<path d="M271.274 8.77889C271.659 7.37401 272.756 6.39466 274.013 6.39466V6.00781C272.539 6.00781 271.32 7.14835 270.901 8.67702L271.274 8.77889ZM274.013 6.39466C275.272 6.39466 276.37 7.37852 276.753 8.78985L277.127 8.68863C276.711 7.15416 275.49 6.00781 274.013 6.00781V6.39466ZM276.107 10.0136C275.462 10.2669 274.759 10.4062 274.023 10.4062V10.793C274.808 10.793 275.559 10.6448 276.249 10.3733L276.107 10.0136ZM274.023 10.4062C273.278 10.4062 272.567 10.2637 271.915 10.0039L271.772 10.363C272.468 10.6409 273.228 10.793 274.023 10.793V10.4062ZM276.753 8.78985C276.889 9.29275 276.608 9.81627 276.107 10.0136L276.249 10.3733C276.917 10.1103 277.319 9.39784 277.127 8.68863L276.753 8.78985ZM270.901 8.67702C270.708 9.3843 271.105 10.0974 271.772 10.363L271.915 10.0039C271.416 9.80531 271.137 9.28114 271.274 8.77889L270.901 8.67702Z" fill="black"/>
<path fill-rule="evenodd" clip-rule="evenodd" d="M272.412 9.72622C271.946 9.56891 271.668 9.06795 271.889 8.62888C272.269 7.87905 273.077 7.36133 274.013 7.36133C274.948 7.36133 275.756 7.87905 276.136 8.62888C276.357 9.06795 276.079 9.56891 275.613 9.72622C275.111 9.89514 274.572 9.98734 274.013 9.98734C273.453 9.98734 272.915 9.89514 272.412 9.72622Z" fill="black"/>
<path d="M275.303 8.38086H274.335" stroke="white" stroke-width="0.2" stroke-linecap="round"/>
<path d="M273.691 8.38086H272.724" stroke="white" stroke-width="0.2" stroke-linecap="round"/>
<path d="M147.86 7.67188H146.355C145.999 7.67188 145.71 7.96053 145.71 8.31661V9.51057C145.71 9.86665 145.999 10.1553 146.355 10.1553H147.86C148.216 10.1553 148.504 9.86665 148.504 9.51057V8.31661C148.504 7.96053 148.216 7.67188 147.86 7.67188Z" fill="#9E9E9E"/>
<path d="M148 7.05129C148 6.55805 147.6 6.1582 147.107 6.1582C146.614 6.1582 146.214 6.55805 146.214 7.05129V8.293C146.214 8.78623 146.614 9.18608 147.107 9.18608C147.6 9.18608 148 8.78623 148 8.293V7.05129Z" stroke="#9E9E9E" stroke-width="0.6"/>
<path d="M151.295 9.67103L150.57 7.20943H151.065L151.548 9.01726H151.572L152.056 7.20943H152.551L153.032 9.00889H153.056L153.535 7.20943H154.03L153.308 9.67103H152.819L152.319 7.89349H152.282L151.782 9.67103H151.295ZM154.974 9.67103L154.25 7.20943H154.745L155.227 9.01726H155.251L155.735 7.20943H156.23L156.711 9.00889H156.735L157.214 7.20943H157.71L156.987 9.67103H156.498L155.998 7.89349H155.961L155.461 9.67103H154.974ZM158.653 9.67103L157.928 7.20943H158.424L158.906 9.01726H158.93L159.414 7.20943H159.91L160.39 9.00889H160.415L160.894 7.20943H161.389L160.666 9.67103H160.177L159.677 7.89349H159.64L159.14 9.67103H158.653ZM161.779 9.70133C161.692 9.70133 161.616 9.67038 161.553 9.60849C161.49 9.54531 161.458 9.46987 161.458 9.3809C161.458 9.29322 161.49 9.21842 161.553 9.15653C161.616 9.09334 161.692 9.06175 161.779 9.06175C161.867 9.06175 161.942 9.09334 162.005 9.15653C162.068 9.21842 162.1 9.29322 162.1 9.3809C162.1 9.43957 162.084 9.49372 162.055 9.54272C162.026 9.59108 161.988 9.62912 161.939 9.65813C161.891 9.68714 161.838 9.70133 161.779 9.70133ZM163.413 9.72584C163.257 9.72584 163.116 9.69682 162.99 9.63879C162.863 9.58012 162.764 9.49501 162.69 9.38412C162.617 9.27322 162.581 9.13655 162.581 8.97536C162.581 8.83674 162.608 8.72198 162.661 8.63236C162.714 8.54274 162.787 8.47182 162.877 8.4196C162.968 8.36673 163.07 8.3274 163.182 8.30096C163.294 8.27388 163.409 8.2539 163.525 8.23971C163.672 8.22295 163.792 8.20877 163.884 8.19845C163.976 8.1862 164.042 8.1675 164.084 8.14236C164.126 8.11657 164.147 8.07466 164.147 8.01728V8.00568C164.147 7.86577 164.107 7.75745 164.028 7.68072C163.95 7.60335 163.834 7.56531 163.679 7.56531C163.518 7.56531 163.39 7.60078 163.297 7.67234C163.206 7.74326 163.142 7.82128 163.106 7.90832L162.656 7.8058C162.71 7.65622 162.788 7.53501 162.89 7.44346C162.994 7.35062 163.113 7.28292 163.248 7.24166C163.382 7.19846 163.524 7.17719 163.672 7.17719C163.77 7.17719 163.875 7.18879 163.985 7.21265C164.096 7.23521 164.2 7.27647 164.296 7.33772C164.393 7.39833 164.473 7.48537 164.534 7.59884C164.596 7.71103 164.628 7.85674 164.628 8.03598V9.67103H164.16V9.33447H164.14C164.11 9.39637 164.063 9.45762 164.001 9.51694C163.939 9.5769 163.859 9.62654 163.762 9.66651C163.665 9.70584 163.549 9.72584 163.413 9.72584ZM163.517 9.34093C163.649 9.34093 163.763 9.31449 163.857 9.26226C163.952 9.21004 164.024 9.1417 164.073 9.05724C164.123 8.97149 164.148 8.88058 164.148 8.78323V8.46601C164.131 8.48278 164.098 8.4989 164.049 8.51373C164.001 8.52791 163.946 8.54016 163.884 8.55047C163.822 8.56014 163.761 8.56917 163.703 8.5782C163.644 8.58529 163.595 8.59174 163.556 8.59755C163.462 8.60915 163.378 8.62849 163.3 8.65621C163.225 8.68458 163.164 8.72456 163.118 8.77678C163.073 8.82772 163.05 8.8967 163.05 8.98181C163.05 9.10044 163.094 9.19005 163.182 9.2513C163.269 9.31127 163.381 9.34093 163.517 9.34093ZM165.7 6.38867V9.67103H165.22V6.38867H165.7ZM166.338 9.67103V6.38867H166.817V7.60851H166.846C166.874 7.55693 166.914 7.49762 166.966 7.43056C167.019 7.36287 167.091 7.3042 167.184 7.25392C167.277 7.20298 167.4 7.17719 167.553 7.17719C167.752 7.17719 167.929 7.22747 168.085 7.32805C168.241 7.42863 168.364 7.57306 168.452 7.76196C168.541 7.95152 168.587 8.17911 168.587 8.44474C168.587 8.71102 168.542 8.93926 168.454 9.12945C168.365 9.31836 168.243 9.46407 168.088 9.56658C167.933 9.66845 167.756 9.71938 167.558 9.71938C167.408 9.71938 167.286 9.69424 167.191 9.64395C167.097 9.59366 167.023 9.53499 166.97 9.4673C166.916 9.40024 166.875 9.34028 166.846 9.28806H166.806V9.67103H166.338ZM166.808 8.44023C166.808 8.61302 166.833 8.76517 166.883 8.89541C166.933 9.02565 167.006 9.12752 167.101 9.20166C167.196 9.27387 167.313 9.31062 167.45 9.31062C167.594 9.31062 167.713 9.27259 167.809 9.19651C167.905 9.11978 167.978 9.01534 168.027 8.88381C168.077 8.75293 168.102 8.60464 168.102 8.44023C168.102 8.27776 168.078 8.13204 168.029 8.00245C167.981 7.8735 167.908 7.77164 167.811 7.69685C167.715 7.62141 167.594 7.58402 167.45 7.58402C167.311 7.58402 167.194 7.62012 167.098 7.69168C167.002 7.76325 166.93 7.86319 166.881 7.99149C166.832 8.1198 166.808 8.26937 166.808 8.44023ZM169.298 10.5943C169.227 10.5943 169.162 10.5885 169.103 10.5762C169.044 10.5659 169.001 10.5543 168.972 10.5414L169.087 10.1488C169.175 10.172 169.253 10.1823 169.321 10.1791C169.389 10.1759 169.45 10.1501 169.502 10.1024C169.556 10.054 169.603 9.97534 169.643 9.86638L169.703 9.70327L168.802 7.20943H169.315L169.938 9.11978H169.964L170.587 7.20943H171.102L170.087 9.99984C170.04 10.1275 169.981 10.2365 169.908 10.3248C169.835 10.4144 169.748 10.4821 169.648 10.5266C169.548 10.5717 169.431 10.5943 169.298 10.5943ZM172.656 7.20943V7.59369H171.311V7.20943H172.656ZM171.672 6.61949H172.151V8.94828C172.151 9.04112 172.165 9.1114 172.193 9.15846C172.22 9.20424 172.256 9.23583 172.3 9.25259C172.345 9.26871 172.394 9.27645 172.446 9.27645C172.485 9.27645 172.518 9.27388 172.547 9.26872C172.576 9.26356 172.598 9.25904 172.614 9.25582L172.701 9.65169C172.673 9.66265 172.634 9.67297 172.582 9.68393C172.531 9.69553 172.467 9.70198 172.39 9.70327C172.264 9.7052 172.146 9.68264 172.037 9.63557C171.928 9.58851 171.84 9.51629 171.773 9.41764C171.706 9.31964 171.672 9.19586 171.672 9.04757V6.61949ZM173.673 8.20941V9.67103H173.194V6.38867H173.666V7.6098H173.697C173.755 7.47763 173.843 7.37254 173.962 7.29453C174.08 7.21651 174.235 7.17719 174.427 7.17719C174.595 7.17719 174.743 7.21201 174.869 7.28164C174.996 7.35063 175.094 7.45442 175.164 7.5924C175.234 7.72908 175.269 7.89994 175.269 8.10496V9.67103H174.79V8.16299C174.79 7.98246 174.744 7.84255 174.651 7.74326C174.558 7.64268 174.429 7.5924 174.263 7.5924C174.149 7.5924 174.048 7.61625 173.959 7.66461C173.87 7.71232 173.8 7.78324 173.748 7.87608C173.698 7.96764 173.673 8.07918 173.673 8.20941ZM176.925 9.72067C176.682 9.72067 176.473 9.66909 176.298 9.56529C176.124 9.46084 175.989 9.31384 175.894 9.12429C175.8 8.93409 175.753 8.71166 175.753 8.45634C175.753 8.20425 175.8 7.98182 175.894 7.78969C175.989 7.59691 176.122 7.44733 176.292 7.33901C176.463 7.23134 176.663 7.17719 176.891 7.17719C177.03 7.17719 177.165 7.2004 177.295 7.24617C177.425 7.29195 177.542 7.36416 177.646 7.4628C177.75 7.5608 177.831 7.68847 177.891 7.84578C177.951 8.00181 177.981 8.19135 177.981 8.41443V8.58465H176.024V8.22553H177.511C177.511 8.09916 177.486 7.98763 177.434 7.89027C177.383 7.79227 177.311 7.7149 177.218 7.65816C177.126 7.60143 177.018 7.57306 176.894 7.57306C176.759 7.57306 176.642 7.60593 176.541 7.67234C176.442 7.73746 176.365 7.82322 176.311 7.92895C176.258 8.0334 176.231 8.14751 176.231 8.27001V8.55047C176.231 8.71553 176.26 8.85544 176.317 8.97085C176.376 9.08625 176.458 9.17394 176.563 9.23519C176.667 9.29515 176.79 9.3248 176.929 9.3248C177.02 9.3248 177.103 9.31191 177.178 9.28612C177.253 9.25969 177.318 9.22035 177.372 9.16749C177.427 9.11526 177.468 9.0508 177.497 8.97407L177.95 9.0553C177.914 9.18941 177.849 9.30611 177.755 9.40668C177.662 9.50597 177.545 9.58334 177.404 9.63879C177.264 9.69359 177.104 9.72067 176.925 9.72067ZM178.506 9.67103V6.38867H178.985V7.60851H179.014C179.042 7.55693 179.082 7.49762 179.134 7.43056C179.187 7.36287 179.259 7.3042 179.352 7.25392C179.445 7.20298 179.568 7.17719 179.721 7.17719C179.919 7.17719 180.097 7.22747 180.252 7.32805C180.409 7.42863 180.531 7.57306 180.62 7.76196C180.71 7.95152 180.755 8.17911 180.755 8.44474C180.755 8.71102 180.71 8.93926 180.621 9.12945C180.533 9.31836 180.411 9.46407 180.256 9.56658C180.101 9.66845 179.924 9.71938 179.726 9.71938C179.576 9.71938 179.454 9.69424 179.358 9.64395C179.265 9.59366 179.191 9.53499 179.137 9.4673C179.084 9.40024 179.043 9.34028 179.014 9.28806H178.974V9.67103H178.506ZM178.975 8.44023C178.975 8.61302 179 8.76517 179.051 8.89541C179.101 9.02565 179.174 9.12752 179.269 9.20166C179.364 9.27387 179.48 9.31062 179.618 9.31062C179.761 9.31062 179.881 9.27259 179.977 9.19651C180.073 9.11978 180.146 9.01534 180.195 8.88381C180.245 8.75293 180.271 8.60464 180.271 8.44023C180.271 8.27776 180.246 8.13204 180.196 8.00245C180.149 7.8735 180.076 7.77164 179.978 7.69685C179.882 7.62141 179.762 7.58402 179.618 7.58402C179.479 7.58402 179.361 7.62012 179.265 7.69168C179.171 7.76325 179.098 7.86319 179.049 7.99149C179 8.1198 178.975 8.26937 178.975 8.44023ZM182.309 9.72067C182.066 9.72067 181.857 9.66909 181.682 9.56529C181.508 9.46084 181.373 9.31384 181.278 9.12429C181.184 8.93409 181.137 8.71166 181.137 8.45634C181.137 8.20425 181.184 7.98182 181.278 7.78969C181.373 7.59691 181.505 7.44733 181.675 7.33901C181.846 7.23134 182.046 7.17719 182.275 7.17719C182.414 7.17719 182.548 7.2004 182.679 7.24617C182.809 7.29195 182.926 7.36416 183.029 7.4628C183.133 7.5608 183.215 7.68847 183.275 7.84578C183.334 8.00181 183.365 8.19135 183.365 8.41443V8.58465H181.408V8.22553H182.895C182.895 8.09916 182.869 7.98763 182.818 7.89027C182.767 7.79227 182.695 7.7149 182.602 7.65816C182.51 7.60143 182.402 7.57306 182.278 7.57306C182.143 7.57306 182.026 7.60593 181.926 7.67234C181.826 7.73746 181.749 7.82322 181.695 7.92895C181.641 8.0334 181.614 8.14751 181.614 8.27001V8.55047C181.614 8.71553 181.643 8.85544 181.701 8.97085C181.76 9.08625 181.842 9.17394 181.946 9.23519C182.051 9.29515 182.173 9.3248 182.313 9.3248C182.404 9.3248 182.486 9.31191 182.561 9.28612C182.636 9.25969 182.701 9.22035 182.755 9.16749C182.81 9.11526 182.851 9.0508 182.88 8.97407L183.334 9.0553C183.298 9.18941 183.232 9.30611 183.138 9.40668C183.045 9.50597 182.929 9.58334 182.788 9.63879C182.648 9.69359 182.488 9.72067 182.309 9.72067ZM184.912 9.72067C184.67 9.72067 184.461 9.66909 184.285 9.56529C184.111 9.46084 183.976 9.31384 183.882 9.12429C183.788 8.93409 183.74 8.71166 183.74 8.45634C183.74 8.20425 183.788 7.98182 183.882 7.78969C183.976 7.59691 184.109 7.44733 184.279 7.33901C184.45 7.23134 184.65 7.17719 184.878 7.17719C185.017 7.17719 185.152 7.2004 185.282 7.24617C185.413 7.29195 185.53 7.36416 185.633 7.4628C185.737 7.5608 185.818 7.68847 185.878 7.84578C185.938 8.00181 185.968 8.19135 185.968 8.41443V8.58465H184.011V8.22553H185.499C185.499 8.09916 185.473 7.98763 185.422 7.89027C185.37 7.79227 185.298 7.7149 185.205 7.65816C185.114 7.60143 185.005 7.57306 184.882 7.57306C184.747 7.57306 184.63 7.60593 184.529 7.67234C184.43 7.73746 184.353 7.82322 184.298 7.92895C184.245 8.0334 184.218 8.14751 184.218 8.27001V8.55047C184.218 8.71553 184.247 8.85544 184.305 8.97085C184.363 9.08625 184.445 9.17394 184.55 9.23519C184.655 9.29515 184.777 9.3248 184.917 9.3248C185.007 9.3248 185.091 9.31191 185.165 9.28612C185.24 9.25969 185.305 9.22035 185.359 9.16749C185.414 9.11526 185.455 9.0508 185.485 8.97407L185.938 9.0553C185.902 9.18941 185.837 9.30611 185.742 9.40668C185.65 9.50597 185.532 9.58334 185.391 9.63879C185.251 9.69359 185.092 9.72067 184.912 9.72067ZM186.771 9.70133C186.683 9.70133 186.608 9.67038 186.544 9.60849C186.481 9.54531 186.45 9.46987 186.45 9.3809C186.45 9.29322 186.481 9.21842 186.544 9.15653C186.608 9.09334 186.683 9.06175 186.771 9.06175C186.858 9.06175 186.933 9.09334 186.996 9.15653C187.06 9.21842 187.091 9.29322 187.091 9.3809C187.091 9.43957 187.076 9.49372 187.046 9.54272C187.017 9.59108 186.979 9.62912 186.931 9.65813C186.883 9.68714 186.829 9.70133 186.771 9.70133ZM188.725 9.72067C188.486 9.72067 188.281 9.66652 188.109 9.55885C187.938 9.44989 187.807 9.29966 187.715 9.10817C187.623 8.91733 187.577 8.69812 187.577 8.45119C187.577 8.20168 187.624 7.98053 187.719 7.78969C187.812 7.59691 187.945 7.44733 188.116 7.33901C188.287 7.23134 188.488 7.17719 188.72 7.17719C188.907 7.17719 189.074 7.21201 189.22 7.28164C189.366 7.34998 189.484 7.44604 189.574 7.56983C189.665 7.69362 189.719 7.83868 189.736 8.00438H189.27C189.244 7.88897 189.185 7.78968 189.093 7.70587C189.003 7.6227 188.881 7.58144 188.728 7.58144C188.594 7.58144 188.477 7.61626 188.377 7.68718C188.278 7.75616 188.2 7.85545 188.145 7.98504C188.089 8.11334 188.062 8.26486 188.062 8.44023C188.062 8.61947 188.089 8.77484 188.143 8.90508C188.198 9.03532 188.274 9.13654 188.374 9.20811C188.474 9.27967 188.592 9.31513 188.728 9.31513C188.819 9.31513 188.901 9.29837 188.974 9.26549C189.049 9.23132 189.112 9.18297 189.162 9.11978C189.214 9.0566 189.249 8.98052 189.27 8.89219H189.736C189.719 9.05144 189.667 9.19328 189.581 9.31836C189.494 9.44344 189.378 9.54143 189.233 9.61364C189.089 9.68521 188.919 9.72067 188.725 9.72067ZM191.24 9.72067C191.009 9.72067 190.808 9.6678 190.636 9.56206C190.464 9.45633 190.33 9.30804 190.236 9.11784C190.14 8.92765 190.093 8.70586 190.093 8.45119C190.093 8.19587 190.14 7.97279 190.236 7.78131C190.33 7.59046 190.464 7.44153 190.636 7.3358C190.808 7.23006 191.009 7.17719 191.24 7.17719C191.471 7.17719 191.673 7.23006 191.844 7.3358C192.016 7.44153 192.15 7.59046 192.245 7.78131C192.34 7.97279 192.388 8.19587 192.388 8.45119C192.388 8.70586 192.34 8.92765 192.245 9.11784C192.15 9.30804 192.016 9.45633 191.844 9.56206C191.673 9.6678 191.471 9.72067 191.24 9.72067ZM191.242 9.31836C191.392 9.31836 191.515 9.27903 191.614 9.19972C191.712 9.12107 191.785 9.01534 191.832 8.88381C191.88 8.75293 191.904 8.60786 191.904 8.4499C191.904 8.29258 191.88 8.14816 191.832 8.01728C191.785 7.88446 191.712 7.77808 191.614 7.69814C191.515 7.61819 191.392 7.57821 191.242 7.57821C191.091 7.57821 190.966 7.61819 190.867 7.69814C190.769 7.77808 190.695 7.88446 190.648 8.01728C190.6 8.14816 190.577 8.29258 190.577 8.4499C190.577 8.60786 190.6 8.75293 190.648 8.88381C190.695 9.01534 190.769 9.12107 190.867 9.19972C190.966 9.27903 191.091 9.31836 191.242 9.31836ZM192.878 9.67103V7.20943H193.337V7.6098H193.368C193.419 7.47441 193.503 7.36868 193.62 7.2926C193.736 7.21587 193.876 7.17719 194.038 7.17719C194.203 7.17719 194.341 7.21587 194.452 7.2926C194.564 7.36932 194.646 7.47505 194.7 7.6098H194.726C194.784 7.47828 194.878 7.37383 195.006 7.29582C195.134 7.21651 195.287 7.17719 195.464 7.17719C195.687 7.17719 195.87 7.24746 196.011 7.38737C196.153 7.52727 196.224 7.73811 196.224 8.0205V9.67103H195.745V8.06499C195.745 7.89865 195.699 7.77744 195.609 7.70265C195.518 7.62786 195.41 7.59046 195.283 7.59046C195.127 7.59046 195.006 7.63881 194.92 7.73488C194.833 7.8303 194.789 7.95216 194.789 8.10174V9.67103H194.312V8.03469C194.312 7.90123 194.27 7.79356 194.187 7.71232C194.103 7.63109 193.995 7.59046 193.862 7.59046C193.771 7.59046 193.687 7.61496 193.61 7.66267C193.534 7.70974 193.473 7.7755 193.426 7.85996C193.38 7.94442 193.357 8.04242 193.357 8.15332V9.67103H192.878Z" fill="#4C4C4C"/>
</g>
<defs>
<filter id="filter0_i_4537_23109" x="0" y="0" width="343" height="270.922" filterUnits="userSpaceOnUse" color-interpolation-filters="sRGB">
<feFlood flood-opacity="0" result="BackgroundImageFix"/>
<feBlend mode="normal" in="SourceGraphic" in2="BackgroundImageFix" result="shape"/>
<feColorMatrix in="SourceAlpha" type="matrix" values="0 0 0 0 0 0 0 0 0 0 0 0 0 0 0 0 0 0 127 0" result="hardAlpha"/>
<feOffset dy="4"/>
<feGaussianBlur stdDeviation="62"/>
<feComposite in2="hardAlpha" operator="arithmetic" k2="-1" k3="1"/>
<feColorMatrix type="matrix" values="0 0 0 0 0.768627 0 0 0 0 0.768627 0 0 0 0 0.768627 0 0 0 0.25 0"/>
<feBlend mode="normal" in2="shape" result="effect1_innerShadow_4537_23109"/>
</filter>
<filter id="filter1_i_4537_23109" x="0" y="0" width="343" height="20.7637" filterUnits="userSpaceOnUse" color-interpolation-filters="sRGB">
<feFlood flood-opacity="0" result="BackgroundImageFix"/>
<feBlend mode="normal" in="SourceGraphic" in2="BackgroundImageFix" result="shape"/>
<feColorMatrix in="SourceAlpha" type="matrix" values="0 0 0 0 0 0 0 0 0 0 0 0 0 0 0 0 0 0 127 0" result="hardAlpha"/>
<feOffset dy="4"/>
<feGaussianBlur stdDeviation="5.5"/>
<feComposite in2="hardAlpha" operator="arithmetic" k2="-1" k3="1"/>
<feColorMatrix type="matrix" values="0 0 0 0 0.898039 0 0 0 0 0.898039 0 0 0 0 0.898039 0 0 0 0.25 0"/>
<feBlend mode="normal" in2="shape" result="effect1_innerShadow_4537_23109"/>
</filter>
</defs>
</svg>
