<svg width="760" height="662" viewBox="0 0 760 662" fill="none" xmlns="http://www.w3.org/2000/svg">
<g filter="url(#filter0_d_3616_20181)">
<path d="M124 122C124 120.895 124.895 120 126 120H654C655.105 120 656 120.895 656 122V532C656 533.105 655.105 534 654 534H126C124.895 534 124 533.105 124 532V122Z" fill="white"/>
</g>
<path d="M157.397 207.968V206.652L163.235 203.866L163.739 204.916L158.629 207.31L163.739 209.704L163.235 210.754L157.397 207.968ZM165.645 212V210.32H167.255V212H165.645ZM165.743 209.004V202.34H167.171V209.004H165.743ZM169.532 212V202.34H173.27C175.697 202.34 176.91 203.553 176.91 205.98V208.36C176.91 210.787 175.697 212 173.27 212H169.532ZM170.96 210.712H173.354C174.773 210.712 175.482 210.003 175.482 208.584V205.756C175.482 204.337 174.773 203.628 173.354 203.628H170.96V210.712ZM178.935 209.788V204.552C178.935 203.077 179.668 202.34 181.133 202.34H184.381C185.856 202.34 186.593 203.077 186.593 204.552V209.788C186.593 211.263 185.856 212 184.381 212H181.133C179.668 212 178.935 211.263 178.935 209.788ZM180.363 209.914C180.363 210.446 180.625 210.712 181.147 210.712H184.367C184.899 210.712 185.165 210.446 185.165 209.914V204.426C185.165 203.894 184.899 203.628 184.367 203.628H181.147C180.625 203.628 180.363 203.894 180.363 204.426V209.914ZM188.765 209.788V204.552C188.765 203.077 189.498 202.34 190.963 202.34H194.855L195.569 202.9V203.628H190.977C190.455 203.628 190.193 203.894 190.193 204.426V209.914C190.193 210.446 190.455 210.712 190.977 210.712H195.569V211.44L194.855 212H190.963C189.498 212 188.765 211.263 188.765 209.788ZM196.609 203.628V202.34H204.309V203.628H201.173V212H199.745V203.628H196.609ZM204.906 202.634L205.088 202.34H206.306L208.77 206.988L211.248 202.34H212.466L212.634 202.634L209.484 208.472V212H208.056V208.472L204.906 202.634ZM214.144 212V202.34H218.75C220.224 202.34 220.962 203.077 220.962 204.552V206.386C220.962 207.851 220.224 208.584 218.75 208.584H215.572V212H214.144ZM215.572 207.296H218.736C219.268 207.296 219.534 207.03 219.534 206.498V204.426C219.534 203.894 219.268 203.628 218.736 203.628H215.572V207.296ZM222.989 212V202.34H229.373V203.628H224.417V206.316H228.953V207.604H224.417V210.712H229.373V212H222.989ZM234.525 212V201.64H235.883V204.692H238.487C239.924 204.692 240.643 205.406 240.643 206.834V212H239.271V206.694C239.271 206.153 239 205.882 238.459 205.882H235.883V212H234.525ZM242.7 209.844V202.34H244.058V204.692H246.648V205.882H244.058V209.984C244.058 210.535 244.333 210.81 244.884 210.81H246.788V211.524L246.144 212H244.842C243.414 212 242.7 211.281 242.7 209.844ZM248.388 212V204.692H256.69C258.128 204.692 258.846 205.406 258.846 206.834V212H257.474V206.694C257.474 206.153 257.204 205.882 256.662 205.882H254.296V212H252.924V205.882H249.746V212H248.388ZM260.911 209.802V201.64H262.269V209.942C262.269 210.558 262.586 210.889 263.221 210.936V212.126C261.681 212.126 260.911 211.351 260.911 209.802ZM264.584 209.704L269.694 207.31L264.584 204.916L265.088 203.866L270.926 206.652V207.968L265.088 210.754L264.584 209.704ZM157.397 253.968V252.652L163.235 249.866L163.739 250.916L158.629 253.31L163.739 255.704L163.235 256.754L157.397 253.968ZM165.645 258V256.32H167.255V258H165.645ZM165.743 255.004V248.34H167.171V255.004H165.743ZM168.86 254.318V253.142H172.864V254.318H168.86ZM173.987 254.318V253.142H177.991V254.318H173.987ZM183.149 258V248.34H187.615C189.09 248.34 189.827 249.077 189.827 250.552V251.476C189.827 251.793 189.734 252.064 189.547 252.288L189.057 252.876L189.645 253.366C189.953 253.618 190.107 253.991 190.107 254.486V255.788C190.107 257.263 189.37 258 187.895 258H183.149ZM184.577 256.712H187.881C188.413 256.712 188.679 256.446 188.679 255.914V254.402C188.679 253.87 188.413 253.604 187.881 253.604H184.577V256.712ZM184.577 252.316H187.601C188.133 252.316 188.399 252.05 188.399 251.518V250.426C188.399 249.894 188.133 249.628 187.601 249.628H184.577V252.316ZM192.2 258V248.34H198.584V249.628H193.628V252.316H198.164V253.604H193.628V256.712H198.584V258H192.2ZM200.373 255.788V250.552C200.373 249.077 201.105 248.34 202.571 248.34H206.743L207.471 248.9V249.628H202.585C202.062 249.628 201.801 249.894 201.801 250.426V255.914C201.801 256.446 202.062 256.712 202.585 256.712H206.323V253.604H204.097V252.316H207.751V258H202.571C201.105 258 200.373 257.263 200.373 255.788ZM209.919 258V248.34H211.347V258H209.919ZM213.802 258V248.34H215.37L220.074 255.732V248.34H221.502V258H219.934L215.23 250.608V258H213.802ZM227.31 258V248.34H228.738V252.316H233.26V248.34H234.688V258H233.26V253.604H228.738V258H227.31ZM237.14 258V248.34H243.524V249.628H238.568V252.316H243.104V253.604H238.568V256.712H243.524V258H237.14ZM244.486 257.706L247.566 248.34H249.848L252.914 257.706L252.732 258H251.542L250.814 255.704H246.6L245.872 258H244.682L244.486 257.706ZM247.006 254.416H250.408L248.854 249.628H248.56L247.006 254.416ZM254.421 258V248.34H258.159C260.586 248.34 261.799 249.553 261.799 251.98V254.36C261.799 256.787 260.586 258 258.159 258H254.421ZM255.849 256.712H258.243C259.662 256.712 260.371 256.003 260.371 254.584V251.756C260.371 250.337 259.662 249.628 258.243 249.628H255.849V256.712ZM266.655 254.318V253.142H270.659V254.318H266.655ZM271.782 254.318V253.142H275.786V254.318H271.782ZM277.203 255.704L282.313 253.31L277.203 250.916L277.707 249.866L283.545 252.652V253.968L277.707 256.754L277.203 255.704ZM160.761 427.968V426.652L166.599 423.866L167.103 424.916L161.993 427.31L167.103 429.704L166.599 430.754L160.761 427.968ZM169.008 432V430.32H170.618V432H169.008ZM169.106 429.004V422.34H170.534V429.004H169.106ZM172.224 428.318V427.142H176.228V428.318H172.224ZM177.351 428.318V427.142H181.355V428.318H177.351ZM186.513 432V422.34H192.897V423.628H187.941V426.316H192.477V427.604H187.941V430.712H192.897V432H186.513ZM194.825 432V422.34H196.393L201.097 429.732V422.34H202.525V432H200.957L196.253 424.608V432H194.825ZM204.97 432V422.34H208.708C211.134 422.34 212.348 423.553 212.348 425.98V428.36C212.348 430.787 211.134 432 208.708 432H204.97ZM206.398 430.712H208.792C210.21 430.712 210.92 430.003 210.92 428.584V425.756C210.92 424.337 210.21 423.628 208.792 423.628H206.398V430.712ZM217.876 432V422.34H219.304V426.316H223.826V422.34H225.254V432H223.826V427.604H219.304V432H217.876ZM227.706 432V422.34H234.09V423.628H229.134V426.316H233.67V427.604H229.134V430.712H234.09V432H227.706ZM235.053 431.706L238.133 422.34H240.415L243.481 431.706L243.299 432H242.109L241.381 429.704H237.167L236.439 432H235.249L235.053 431.706ZM237.573 428.416H240.975L239.421 423.628H239.127L237.573 428.416ZM244.987 432V422.34H248.725C251.152 422.34 252.365 423.553 252.365 425.98V428.36C252.365 430.787 251.152 432 248.725 432H244.987ZM246.415 430.712H248.809C250.228 430.712 250.937 430.003 250.937 428.584V425.756C250.937 424.337 250.228 423.628 248.809 423.628H246.415V430.712ZM257.222 428.318V427.142H261.226V428.318H257.222ZM262.349 428.318V427.142H266.353V428.318H262.349ZM267.77 429.704L272.88 427.31L267.77 424.916L268.274 423.866L274.112 426.652V427.968L268.274 430.754L267.77 429.704Z" fill="#898A8D"/>
<path d="M157.397 230.968V229.652L163.235 226.866L163.739 227.916L158.629 230.31L163.739 232.704L163.235 233.754L157.397 230.968ZM226.987 232.438V231.262H233.315V232.438H226.987ZM226.987 229.358V228.182H233.315V229.358H226.987ZM235.151 228.224V224.64H236.397V228.224H235.151ZM237.755 228.224V224.64H239.001V228.224H237.755ZM257.19 228.224V224.64H258.436V228.224H257.19ZM259.794 228.224V224.64H261.04V228.224H259.794ZM298.86 232.438V231.262H305.188V232.438H298.86ZM298.86 229.358V228.182H305.188V229.358H298.86ZM307.024 228.224V224.64H308.27V228.224H307.024ZM309.628 228.224V224.64H310.874V228.224H309.628ZM344.895 228.224V224.64H346.141V228.224H344.895ZM347.499 228.224V224.64H348.745V228.224H347.499ZM350.539 232.704L355.649 230.31L350.539 227.916L351.043 226.866L356.881 229.652V230.968L351.043 233.754L350.539 232.704ZM170.851 276.968V275.652L176.689 272.866L177.193 273.916L172.083 276.31L177.193 278.704L176.689 279.754L170.851 276.968ZM210.99 278.704L216.1 276.31L210.99 273.916L211.494 272.866L217.332 275.652V276.968L211.494 279.754L210.99 278.704ZM184.304 299.968V298.652L190.142 295.866L190.646 296.916L185.536 299.31L190.646 301.704L190.142 302.754L184.304 299.968ZM219.084 301.704L224.194 299.31L219.084 296.916L219.588 295.866L225.426 298.652V299.968L219.588 302.754L219.084 301.704ZM226.59 294.634L226.772 294.34H227.99L230.454 298.988L232.932 294.34H234.15L234.318 294.634L231.168 300.472V304H229.74V300.472L226.59 294.634ZM235.687 301.788V296.552C235.687 295.077 236.42 294.34 237.885 294.34H241.133C242.608 294.34 243.345 295.077 243.345 296.552V301.788C243.345 303.263 242.608 304 241.133 304H237.885C236.42 304 235.687 303.263 235.687 301.788ZM237.115 301.914C237.115 302.446 237.377 302.712 237.899 302.712H241.119C241.651 302.712 241.917 302.446 241.917 301.914V296.426C241.917 295.894 241.651 295.628 241.119 295.628H237.899C237.377 295.628 237.115 295.894 237.115 296.426V301.914ZM245.573 301.788V294.34H247.001V301.914C247.001 302.446 247.263 302.712 247.785 302.712H250.725C251.257 302.712 251.523 302.446 251.523 301.914V294.34H252.951V301.788C252.951 303.263 252.214 304 250.739 304H247.771C246.306 304 245.573 303.263 245.573 301.788ZM255.323 304V294.34H259.929C261.404 294.34 262.141 295.077 262.141 296.552V298.106C262.141 299.301 261.647 300.01 260.657 300.234L262.421 303.678L262.239 304H261.021L259.145 300.304H256.751V304H255.323ZM256.751 299.016H259.915C260.447 299.016 260.713 298.75 260.713 298.218V296.426C260.713 295.894 260.447 295.628 259.915 295.628H256.751V299.016ZM263.634 305.624H270.634V306.8H263.634V305.624ZM272.427 304V294.34H276.893C278.367 294.34 279.105 295.077 279.105 296.552V297.476C279.105 297.793 279.011 298.064 278.825 298.288L278.335 298.876L278.923 299.366C279.231 299.618 279.385 299.991 279.385 300.486V301.788C279.385 303.263 278.647 304 277.173 304H272.427ZM273.855 302.712H277.159C277.691 302.712 277.957 302.446 277.957 301.914V300.402C277.957 299.87 277.691 299.604 277.159 299.604H273.855V302.712ZM273.855 298.316H276.879C277.411 298.316 277.677 298.05 277.677 297.518V296.426C277.677 295.894 277.411 295.628 276.879 295.628H273.855V298.316ZM281.478 304V294.34H282.906V302.712H287.442V304H281.478ZM288.871 301.788V296.552C288.871 295.077 289.603 294.34 291.069 294.34H294.317C295.791 294.34 296.529 295.077 296.529 296.552V301.788C296.529 303.263 295.791 304 294.317 304H291.069C289.603 304 288.871 303.263 288.871 301.788ZM290.299 301.914C290.299 302.446 290.56 302.712 291.083 302.712H294.303C294.835 302.712 295.101 302.446 295.101 301.914V296.426C295.101 295.894 294.835 295.628 294.303 295.628H291.083C290.56 295.628 290.299 295.894 290.299 296.426V301.914ZM298.701 301.788V296.552C298.701 295.077 299.434 294.34 300.899 294.34H305.071L305.799 294.9V295.628H300.913C300.39 295.628 300.129 295.894 300.129 296.426V301.914C300.129 302.446 300.39 302.712 300.913 302.712H304.651V299.604H302.425V298.316H306.079V304H300.899C299.434 304 298.701 303.263 298.701 301.788ZM307.911 299.968V298.652L313.749 295.866L314.253 296.916L309.143 299.31L314.253 301.704L313.749 302.754L307.911 299.968ZM348.352 301.704L353.462 299.31L348.352 296.916L348.856 295.866L354.694 298.652V299.968L348.856 302.754L348.352 301.704ZM184.304 322.968V321.652L190.142 318.866L190.646 319.916L185.536 322.31L190.646 324.704L190.142 325.754L184.304 322.968ZM280.745 324.438V323.262H287.073V324.438H280.745ZM280.745 321.358V320.182H287.073V321.358H280.745ZM288.909 320.224V316.64H290.155V320.224H288.909ZM291.513 320.224V316.64H292.759V320.224H291.513ZM515.438 320.224V316.64H516.684V320.224H515.438ZM518.042 320.224V316.64H519.288V320.224H518.042ZM193.874 342.438V341.262H200.202V342.438H193.874ZM193.874 339.358V338.182H200.202V339.358H193.874ZM202.037 338.224V334.64H203.283V338.224H202.037ZM204.641 338.224V334.64H205.887V338.224H204.641ZM265.338 338.224V334.64H266.584V338.224H265.338ZM267.942 338.224V334.64H269.188V338.224H267.942ZM269.711 345.308L273.645 334.612L274.807 335.032L270.873 345.728L269.711 345.308ZM275.945 342.704L281.055 340.31L275.945 337.916L276.449 336.866L282.287 339.652V340.968L276.449 343.754L275.945 342.704ZM184.304 363.968V362.652L190.142 359.866L190.646 360.916L185.536 363.31L190.646 365.704L190.142 366.754L184.304 363.968ZM286.022 365.438V364.262H292.35V365.438H286.022ZM286.022 362.358V361.182H292.35V362.358H286.022ZM294.186 361.224V357.64H295.432V361.224H294.186ZM296.79 361.224V357.64H298.036V361.224H296.79ZM359.934 361.224V357.64H361.18V361.224H359.934ZM362.538 361.224V357.64H363.784V361.224H362.538ZM420.075 365.438V364.262H426.403V365.438H420.075ZM420.075 362.358V361.182H426.403V362.358H420.075ZM428.239 361.224V357.64H429.485V361.224H428.239ZM430.843 361.224V357.64H432.089V361.224H430.843ZM245.186 379.224V375.64H246.432V379.224H245.186ZM247.79 379.224V375.64H249.036V379.224H247.79ZM253.619 386.308L257.553 375.612L258.715 376.032L254.781 386.728L253.619 386.308ZM259.854 383.704L264.964 381.31L259.854 378.916L260.358 377.866L266.196 380.652V381.968L260.358 384.754L259.854 383.704ZM170.851 404.968V403.652L176.689 400.866L177.193 401.916L172.083 404.31L177.193 406.704L176.689 407.754L170.851 404.968ZM216.65 406.704L221.76 404.31L216.65 401.916L217.154 400.866L222.992 403.652V404.968L217.154 407.754L216.65 406.704Z" fill="black"/>
<path d="M165.687 235V224.64H167.045V227.692H169.649C171.087 227.692 171.805 228.406 171.805 229.834V235H170.433V229.694C170.433 229.153 170.163 228.882 169.621 228.882H167.045V235H165.687ZM173.862 232.844V225.34H175.22V227.692H177.81V228.882H175.22V232.984C175.22 233.535 175.495 233.81 176.046 233.81H177.95V234.524L177.306 235H176.004C174.576 235 173.862 234.281 173.862 232.844ZM179.55 235V227.692H187.852C189.29 227.692 190.008 228.406 190.008 229.834V235H188.636V229.694C188.636 229.153 188.366 228.882 187.824 228.882H185.458V235H184.086V228.882H180.908V235H179.55ZM192.073 232.802V224.64H193.431V232.942C193.431 233.558 193.748 233.889 194.383 233.936V235.126C192.843 235.126 192.073 234.351 192.073 232.802ZM179.14 281V270.64H180.498V273.692H183.102C184.54 273.692 185.258 274.406 185.258 275.834V281H183.886V275.694C183.886 275.153 183.616 274.882 183.074 274.882H180.498V281H179.14ZM187.259 278.844V275.834C187.259 274.406 187.973 273.692 189.401 273.692H191.221C192.658 273.692 193.377 274.406 193.377 275.834V277.906H188.617V278.984C188.617 279.535 188.892 279.81 189.443 279.81H193.097V280.524L192.453 281H189.401C187.973 281 187.259 280.281 187.259 278.844ZM188.617 276.758H192.005V275.694C192.005 275.153 191.734 274.882 191.193 274.882H189.443C188.892 274.882 188.617 275.153 188.617 275.694V276.758ZM197.201 281C195.764 281 195.045 280.281 195.045 278.844C195.045 277.407 195.764 276.688 197.201 276.688H199.567V275.694C199.567 275.153 199.297 274.882 198.755 274.882H195.759V274.168L196.403 273.692H198.783C200.221 273.692 200.939 274.406 200.939 275.834V281H197.201ZM196.403 278.984C196.403 279.535 196.679 279.81 197.229 279.81H199.567V277.836H197.229C196.679 277.836 196.403 278.107 196.403 278.648V278.984ZM202.94 278.844V275.834C202.94 274.406 203.654 273.692 205.082 273.692H207.686V270.64H209.058V281H205.082C203.654 281 202.94 280.281 202.94 278.844ZM204.298 278.984C204.298 279.535 204.574 279.81 205.124 279.81H207.686V274.882H205.124C204.574 274.882 204.298 275.153 204.298 275.694V278.984ZM192.537 301.844V294.34H193.895V296.692H196.485V297.882H193.895V301.984C193.895 302.535 194.171 302.81 194.721 302.81H196.625V303.524L195.981 304H194.679C193.251 304 192.537 303.281 192.537 301.844ZM198.198 295.404V293.934H199.612V295.404H198.198ZM198.226 304V296.692H199.584V304H198.226ZM201.711 301.844V294.34H203.069V296.692H205.659V297.882H203.069V301.984C203.069 302.535 203.345 302.81 203.895 302.81H205.799V303.524L205.155 304H203.853C202.425 304 201.711 303.281 201.711 301.844ZM207.344 301.802V293.64H208.702V301.942C208.702 302.558 209.019 302.889 209.654 302.936V304.126C208.114 304.126 207.344 303.351 207.344 301.802ZM211.144 301.844V298.834C211.144 297.406 211.858 296.692 213.286 296.692H215.106C216.543 296.692 217.262 297.406 217.262 298.834V300.906H212.502V301.984C212.502 302.535 212.777 302.81 213.328 302.81H216.982V303.524L216.338 304H213.286C211.858 304 211.144 303.281 211.144 301.844ZM212.502 299.758H215.89V298.694C215.89 298.153 215.619 297.882 215.078 297.882H213.328C212.777 297.882 212.502 298.153 212.502 298.694V299.758ZM315.389 304.308L319.323 293.612L320.485 294.032L316.551 304.728L315.389 304.308ZM321.805 301.844V294.34H323.163V296.692H325.753V297.882H323.163V301.984C323.163 302.535 323.438 302.81 323.989 302.81H325.893V303.524L325.249 304H323.947C322.519 304 321.805 303.281 321.805 301.844ZM327.466 295.404V293.934H328.88V295.404H327.466ZM327.494 304V296.692H328.852V304H327.494ZM330.979 301.844V294.34H332.337V296.692H334.927V297.882H332.337V301.984C332.337 302.535 332.612 302.81 333.163 302.81H335.067V303.524L334.423 304H333.121C331.693 304 330.979 303.281 330.979 301.844ZM336.612 301.802V293.64H337.97V301.942C337.97 302.558 338.287 302.889 338.922 302.936V304.126C337.382 304.126 336.612 303.351 336.612 301.802ZM340.411 301.844V298.834C340.411 297.406 341.125 296.692 342.553 296.692H344.373C345.81 296.692 346.529 297.406 346.529 298.834V300.906H341.769V301.984C341.769 302.535 342.044 302.81 342.595 302.81H346.249V303.524L345.605 304H342.553C341.125 304 340.411 303.281 340.411 301.844ZM341.769 299.758H345.157V298.694C345.157 298.153 344.886 297.882 344.345 297.882H342.595C342.044 297.882 341.769 298.153 341.769 298.694V299.758ZM192.593 327V319.692H200.895C202.333 319.692 203.051 320.406 203.051 321.834V327H201.679V321.694C201.679 321.153 201.409 320.882 200.867 320.882H198.501V327H197.129V320.882H193.951V327H192.593ZM205.06 324.844V321.834C205.06 320.406 205.774 319.692 207.202 319.692H209.022C210.459 319.692 211.178 320.406 211.178 321.834V323.906H206.418V324.984C206.418 325.535 206.693 325.81 207.244 325.81H210.898V326.524L210.254 327H207.202C205.774 327 205.06 326.281 205.06 324.844ZM206.418 322.758H209.806V321.694C209.806 321.153 209.535 320.882 208.994 320.882H207.244C206.693 320.882 206.418 321.153 206.418 321.694V322.758ZM213.182 324.844V317.34H214.54V319.692H217.13V320.882H214.54V324.984C214.54 325.535 214.815 325.81 215.366 325.81H217.27V326.524L216.626 327H215.324C213.896 327 213.182 326.281 213.182 324.844ZM220.635 327C219.197 327 218.479 326.281 218.479 324.844C218.479 323.407 219.197 322.688 220.635 322.688H223.001V321.694C223.001 321.153 222.73 320.882 222.189 320.882H219.193V320.168L219.837 319.692H222.217C223.654 319.692 224.373 320.406 224.373 321.834V327H220.635ZM219.837 324.984C219.837 325.535 220.112 325.81 220.663 325.81H223.001V323.836H220.663C220.112 323.836 219.837 324.107 219.837 324.648V324.984ZM192.593 368V360.692H200.895C202.333 360.692 203.051 361.406 203.051 362.834V368H201.679V362.694C201.679 362.153 201.409 361.882 200.867 361.882H198.501V368H197.129V361.882H193.951V368H192.593ZM205.06 365.844V362.834C205.06 361.406 205.774 360.692 207.202 360.692H209.022C210.459 360.692 211.178 361.406 211.178 362.834V364.906H206.418V365.984C206.418 366.535 206.693 366.81 207.244 366.81H210.898V367.524L210.254 368H207.202C205.774 368 205.06 367.281 205.06 365.844ZM206.418 363.758H209.806V362.694C209.806 362.153 209.535 361.882 208.994 361.882H207.244C206.693 361.882 206.418 362.153 206.418 362.694V363.758ZM213.182 365.844V358.34H214.54V360.692H217.13V361.882H214.54V365.984C214.54 366.535 214.815 366.81 215.366 366.81H217.27V367.524L216.626 368H215.324C213.896 368 213.182 367.281 213.182 365.844ZM220.635 368C219.197 368 218.479 367.281 218.479 365.844C218.479 364.407 219.197 363.688 220.635 363.688H223.001V362.694C223.001 362.153 222.73 361.882 222.189 361.882H219.193V361.168L219.837 360.692H222.217C223.654 360.692 224.373 361.406 224.373 362.834V368H220.635ZM219.837 365.984C219.837 366.535 220.112 366.81 220.663 366.81H223.001V364.836H220.663C220.112 364.836 219.837 365.107 219.837 365.648V365.984ZM184.8 409V398.64H186.158V401.692H188.762C190.2 401.692 190.918 402.406 190.918 403.834V409H189.546V403.694C189.546 403.153 189.276 402.882 188.734 402.882H186.158V409H184.8ZM192.919 406.844V403.834C192.919 402.406 193.633 401.692 195.061 401.692H196.881C198.318 401.692 199.037 402.406 199.037 403.834V405.906H194.277V406.984C194.277 407.535 194.552 407.81 195.103 407.81H198.757V408.524L198.113 409H195.061C193.633 409 192.919 408.281 192.919 406.844ZM194.277 404.758H197.665V403.694C197.665 403.153 197.394 402.882 196.853 402.882H195.103C194.552 402.882 194.277 403.153 194.277 403.694V404.758ZM202.861 409C201.424 409 200.705 408.281 200.705 406.844C200.705 405.407 201.424 404.688 202.861 404.688H205.227V403.694C205.227 403.153 204.957 402.882 204.415 402.882H201.419V402.168L202.063 401.692H204.443C205.881 401.692 206.599 402.406 206.599 403.834V409H202.861ZM202.063 406.984C202.063 407.535 202.339 407.81 202.889 407.81H205.227V405.836H202.889C202.339 405.836 202.063 406.107 202.063 406.648V406.984ZM208.601 406.844V403.834C208.601 402.406 209.315 401.692 210.743 401.692H213.347V398.64H214.719V409H210.743C209.315 409 208.601 408.281 208.601 406.844ZM209.959 406.984C209.959 407.535 210.234 407.81 210.785 407.81H213.347V402.882H210.785C210.234 402.882 209.959 403.153 209.959 403.694V406.984Z" fill="#5F23EB"/>
<path d="M178.328 409.308L182.262 398.612L183.424 399.032L179.49 409.728L178.328 409.308Z" fill="#7854F7"/>
<path d="M199.291 232.802V224.64H200.649V232.942C200.649 233.558 200.967 233.889 201.601 233.936V235.126C200.061 235.126 199.291 234.351 199.291 232.802ZM204.967 235C203.53 235 202.811 234.281 202.811 232.844C202.811 231.407 203.53 230.688 204.967 230.688H207.333V229.694C207.333 229.153 207.062 228.882 206.521 228.882H203.525V228.168L204.169 227.692H206.549C207.986 227.692 208.705 228.406 208.705 229.834V235H204.967ZM204.169 232.984C204.169 233.535 204.444 233.81 204.995 233.81H207.333V231.836H204.995C204.444 231.836 204.169 232.107 204.169 232.648V232.984ZM210.818 235V227.692H214.78C216.217 227.692 216.936 228.406 216.936 229.834V235H215.564V229.694C215.564 229.153 215.293 228.882 214.752 228.882H212.176V235H210.818ZM218.909 232.844V229.834C218.909 228.406 219.627 227.692 221.065 227.692H225.041V235.644C225.041 237.081 224.322 237.8 222.885 237.8H220.141L219.497 237.324V236.61H222.857C223.398 236.61 223.669 236.335 223.669 235.784V235H221.065C219.627 235 218.909 234.281 218.909 232.844ZM220.281 232.984C220.281 233.535 220.551 233.81 221.093 233.81H223.669V228.882H221.093C220.551 228.882 220.281 229.153 220.281 229.694V232.984Z" fill="#A26112"/>
<path d="M240.921 232.844V229.834C240.921 228.406 241.635 227.692 243.063 227.692H244.883C246.32 227.692 247.039 228.406 247.039 229.834V231.906H242.279V232.984C242.279 233.535 242.554 233.81 243.105 233.81H246.759V234.524L246.115 235H243.063C241.635 235 240.921 234.281 240.921 232.844ZM242.279 230.758H245.667V229.694C245.667 229.153 245.396 228.882 244.855 228.882H243.105C242.554 228.882 242.279 229.153 242.279 229.694V230.758ZM249.099 235V227.692H253.061C254.499 227.692 255.217 228.406 255.217 229.834V235H253.845V229.694C253.845 229.153 253.575 228.882 253.033 228.882H250.457V235H249.099ZM312.906 235V227.692H316.868C318.305 227.692 319.024 228.406 319.024 229.834V235H317.652V229.694C317.652 229.153 317.381 228.882 316.84 228.882H314.264V235H312.906ZM321.024 232.844V229.834C321.024 228.406 321.738 227.692 323.166 227.692H325.126C326.564 227.692 327.282 228.406 327.282 229.834V232.844C327.282 234.281 326.564 235 325.126 235H323.166C321.738 235 321.024 234.281 321.024 232.844ZM322.382 232.984C322.382 233.535 322.658 233.81 323.208 233.81H325.098C325.64 233.81 325.91 233.535 325.91 232.984V229.694C325.91 229.153 325.64 228.882 325.098 228.882H323.208C322.658 228.882 322.382 229.153 322.382 229.694V232.984ZM328.808 231.318V230.142H332.812V231.318H328.808ZM333.249 236.736C334.061 236.699 334.467 236.288 334.467 235.504V227.692H335.825V235.35C335.825 237.067 334.966 237.926 333.249 237.926V236.736ZM334.439 226.404V224.934H335.853V226.404H334.439ZM337.728 234.524V233.81H340.948C341.498 233.81 341.774 233.53 341.774 232.97C341.774 232.401 341.536 232.074 341.06 231.99L339.436 231.724C338.297 231.537 337.728 230.903 337.728 229.82C337.728 228.401 338.446 227.692 339.884 227.692H342.152L342.796 228.168V228.882H339.912C339.361 228.882 339.086 229.162 339.086 229.722C339.086 230.226 339.324 230.515 339.8 230.59L341.438 230.87C342.567 231.057 343.132 231.724 343.132 232.872C343.132 234.291 342.418 235 340.99 235H338.372L337.728 234.524ZM294.735 324.802V316.64H296.093V324.942C296.093 325.558 296.41 325.889 297.045 325.936V327.126C295.505 327.126 294.735 326.351 294.735 324.802ZM298.646 327V319.692H302.608C304.046 319.692 304.764 320.406 304.764 321.834V327H303.392V321.694C303.392 321.153 303.122 320.882 302.58 320.882H300.004V327H298.646ZM306.821 324.844V319.692H308.179V324.984C308.179 325.535 308.454 325.81 309.005 325.81H311.567V319.692H312.939V327H308.963C307.535 327 306.821 326.281 306.821 324.844ZM315.051 327V320.56C315.378 319.981 315.998 319.692 316.913 319.692H318.355L318.999 320.168V320.882H317.053C316.754 320.882 316.54 320.957 316.409 321.106V327H315.051ZM320.397 324.802V316.64H321.755V324.942C321.755 325.558 322.072 325.889 322.707 325.936V327.126C321.167 327.126 320.397 326.351 320.397 324.802ZM324.308 329.8V319.692H328.27C329.708 319.692 330.426 320.406 330.426 321.834V324.844C330.426 326.281 329.708 327 328.27 327H325.666V329.8H324.308ZM325.666 325.81H328.242C328.784 325.81 329.054 325.535 329.054 324.984V321.694C329.054 321.153 328.784 320.882 328.242 320.882H325.666V325.81ZM332.442 327V325.32H334.052V327H332.442ZM332.442 321.372V319.692H334.052V321.372H332.442ZM335.363 319.916L335.517 319.692H336.693L338.695 325.81H338.933L340.935 319.692H342.111L342.251 319.916L338.933 329.8H337.757L337.617 329.576L338.527 327H337.757L335.363 319.916ZM343.515 324.844V321.834C343.515 320.406 344.229 319.692 345.657 319.692H347.617C349.054 319.692 349.773 320.406 349.773 321.834V324.844C349.773 326.281 349.054 327 347.617 327H345.657C344.229 327 343.515 326.281 343.515 324.844ZM344.873 324.984C344.873 325.535 345.148 325.81 345.699 325.81H347.589C348.13 325.81 348.401 325.535 348.401 324.984V321.694C348.401 321.153 348.13 320.882 347.589 320.882H345.699C345.148 320.882 344.873 321.153 344.873 321.694V324.984ZM351.774 324.844V319.692H353.132V324.984C353.132 325.535 353.407 325.81 353.958 325.81H356.52V319.692H357.892V327H353.916C352.488 327 351.774 326.281 351.774 324.844ZM360.2 326.86V319.44C360.2 318.04 360.896 317.34 362.286 317.34H368.978V326.16H365.422C363.994 326.16 363.28 325.441 363.28 324.004V322.296C363.28 320.859 363.994 320.14 365.422 320.14H367.732V318.418H362.3C361.731 318.418 361.446 318.707 361.446 319.286V327.014C361.446 327.593 361.731 327.882 362.3 327.882H368.698V328.484L368.054 328.96H362.286C360.896 328.96 360.2 328.26 360.2 326.86ZM364.638 324.144C364.638 324.695 364.914 324.97 365.464 324.97H367.606V321.33H365.464C364.914 321.33 364.638 321.605 364.638 322.156V324.144ZM371.229 324.802V316.64H372.587V324.942C372.587 325.558 372.904 325.889 373.539 325.936V327.126C371.999 327.126 371.229 326.351 371.229 324.802ZM375.112 318.404V316.934H376.526V318.404H375.112ZM375.14 327V319.692H376.498V327H375.14ZM378.541 324.844V321.834C378.541 320.406 379.26 319.692 380.697 319.692H384.673V327.644C384.673 329.081 383.955 329.8 382.517 329.8H379.773L379.129 329.324V328.61H382.489C383.031 328.61 383.301 328.335 383.301 327.784V327H380.697C379.26 327 378.541 326.281 378.541 324.844ZM379.913 324.984C379.913 325.535 380.184 325.81 380.725 325.81H383.301V320.882H380.725C380.184 320.882 379.913 321.153 379.913 321.694V324.984ZM386.83 327V316.64H388.188V319.692H390.792C392.229 319.692 392.948 320.406 392.948 321.834V327H391.576V321.694C391.576 321.153 391.305 320.882 390.764 320.882H388.188V327H386.83ZM395.004 324.844V317.34H396.362V319.692H398.952V320.882H396.362V324.984C396.362 325.535 396.638 325.81 397.188 325.81H399.092V326.524L398.448 327H397.146C395.718 327 395.004 326.281 395.004 324.844ZM400.693 327V319.692H404.655C406.092 319.692 406.811 320.406 406.811 321.834V327H405.439V321.694C405.439 321.153 405.168 320.882 404.627 320.882H402.051V327H400.693ZM408.896 318.404V316.934H410.31V318.404H408.896ZM408.924 327V319.692H410.282V327H408.924ZM412.465 327V319.692H416.427C417.864 319.692 418.583 320.406 418.583 321.834V327H417.211V321.694C417.211 321.153 416.94 320.882 416.399 320.882H413.823V327H412.465ZM420.555 324.844V321.834C420.555 320.406 421.274 319.692 422.711 319.692H426.687V327.644C426.687 329.081 425.968 329.8 424.531 329.8H421.787L421.143 329.324V328.61H424.503C425.044 328.61 425.315 328.335 425.315 327.784V327H422.711C421.274 327 420.555 326.281 420.555 324.844ZM421.927 324.984C421.927 325.535 422.198 325.81 422.739 325.81H425.315V320.882H422.739C422.198 320.882 421.927 321.153 421.927 321.694V324.984ZM428.801 327V325.32H430.411V327H428.801ZM434.313 327C432.875 327 432.157 326.281 432.157 324.844C432.157 323.407 432.875 322.688 434.313 322.688H436.679V321.694C436.679 321.153 436.408 320.882 435.867 320.882H432.871V320.168L433.515 319.692H435.895C437.332 319.692 438.051 320.406 438.051 321.834V327H434.313ZM433.515 324.984C433.515 325.535 433.79 325.81 434.341 325.81H436.679V323.836H434.341C433.79 323.836 433.515 324.107 433.515 324.648V324.984ZM440.052 324.844V321.834C440.052 320.406 440.766 319.692 442.194 319.692H444.798V316.64H446.17V327H442.194C440.766 327 440.052 326.281 440.052 324.844ZM441.41 324.984C441.41 325.535 441.685 325.81 442.236 325.81H444.798V320.882H442.236C441.685 320.882 441.41 321.153 441.41 321.694V324.984ZM448.228 324.844V321.834C448.228 320.406 448.942 319.692 450.37 319.692H452.974V316.64H454.346V327H450.37C448.942 327 448.228 326.281 448.228 324.844ZM449.586 324.984C449.586 325.535 449.861 325.81 450.412 325.81H452.974V320.882H450.412C449.861 320.882 449.586 321.153 449.586 321.694V324.984ZM456.459 327V320.56C456.786 319.981 457.407 319.692 458.321 319.692H459.763L460.407 320.168V320.882H458.461C458.163 320.882 457.948 320.957 457.817 321.106V327H456.459ZM461.749 324.844V321.834C461.749 320.406 462.463 319.692 463.891 319.692H465.711C467.148 319.692 467.867 320.406 467.867 321.834V323.906H463.107V324.984C463.107 325.535 463.382 325.81 463.933 325.81H467.587V326.524L466.943 327H463.891C462.463 327 461.749 326.281 461.749 324.844ZM463.107 322.758H466.495V321.694C466.495 321.153 466.224 320.882 465.683 320.882H463.933C463.382 320.882 463.107 321.153 463.107 321.694V322.758ZM469.647 326.524V325.81H472.867C473.418 325.81 473.693 325.53 473.693 324.97C473.693 324.401 473.455 324.074 472.979 323.99L471.355 323.724C470.217 323.537 469.647 322.903 469.647 321.82C469.647 320.401 470.366 319.692 471.803 319.692H474.071L474.715 320.168V320.882H471.831C471.281 320.882 471.005 321.162 471.005 321.722C471.005 322.226 471.243 322.515 471.719 322.59L473.357 322.87C474.487 323.057 475.051 323.724 475.051 324.872C475.051 326.291 474.337 327 472.909 327H470.291L469.647 326.524ZM476.675 326.524V325.81H479.895C480.445 325.81 480.721 325.53 480.721 324.97C480.721 324.401 480.483 324.074 480.007 323.99L478.383 323.724C477.244 323.537 476.675 322.903 476.675 321.82C476.675 320.401 477.393 319.692 478.831 319.692H481.099L481.743 320.168V320.882H478.859C478.308 320.882 478.033 321.162 478.033 321.722C478.033 322.226 478.271 322.515 478.747 322.59L480.385 322.87C481.514 323.057 482.079 323.724 482.079 324.872C482.079 326.291 481.365 327 479.937 327H477.319L476.675 326.524ZM483.94 327V325.32H485.55V327H483.94ZM487.575 324.844V321.834C487.575 320.406 488.289 319.692 489.717 319.692H492.419L493.063 320.168V320.882H489.759C489.209 320.882 488.933 321.153 488.933 321.694V324.984C488.933 325.535 489.209 325.81 489.759 325.81H493.063V326.524L492.419 327H489.717C488.289 327 487.575 326.281 487.575 324.844ZM494.685 324.844V321.834C494.685 320.406 495.399 319.692 496.827 319.692H498.787C500.224 319.692 500.943 320.406 500.943 321.834V324.844C500.943 326.281 500.224 327 498.787 327H496.827C495.399 327 494.685 326.281 494.685 324.844ZM496.043 324.984C496.043 325.535 496.318 325.81 496.869 325.81H498.759C499.3 325.81 499.571 325.535 499.571 324.984V321.694C499.571 321.153 499.3 320.882 498.759 320.882H496.869C496.318 320.882 496.043 321.153 496.043 321.694V324.984ZM503 327V319.692H511.302C512.739 319.692 513.458 320.406 513.458 321.834V327H512.086V321.694C512.086 321.153 511.815 320.882 511.274 320.882H508.908V327H507.536V320.882H504.358V327H503ZM207.864 342.802V334.64H209.222V342.942C209.222 343.558 209.539 343.889 210.174 343.936V345.126C208.634 345.126 207.864 344.351 207.864 342.802ZM211.747 336.404V334.934H213.161V336.404H211.747ZM211.775 345V337.692H213.133V345H211.775ZM215.176 342.844V339.834C215.176 338.406 215.895 337.692 217.332 337.692H221.308V345.644C221.308 347.081 220.589 347.8 219.152 347.8H216.408L215.764 347.324V346.61H219.124C219.665 346.61 219.936 346.335 219.936 345.784V345H217.332C215.895 345 215.176 344.281 215.176 342.844ZM216.548 342.984C216.548 343.535 216.819 343.81 217.36 343.81H219.936V338.882H217.36C216.819 338.882 216.548 339.153 216.548 339.694V342.984ZM223.465 345V334.64H224.823V337.692H227.427C228.864 337.692 229.583 338.406 229.583 339.834V345H228.211V339.694C228.211 339.153 227.94 338.882 227.399 338.882H224.823V345H223.465ZM231.639 342.844V335.34H232.997V337.692H235.587V338.882H232.997V342.984C232.997 343.535 233.272 343.81 233.823 343.81H235.727V344.524L235.083 345H233.781C232.353 345 231.639 344.281 231.639 342.844ZM237.328 345V337.692H241.29C242.727 337.692 243.446 338.406 243.446 339.834V345H242.074V339.694C242.074 339.153 241.803 338.882 241.262 338.882H238.686V345H237.328ZM245.53 336.404V334.934H246.944V336.404H245.53ZM245.558 345V337.692H246.916V345H245.558ZM249.099 345V337.692H253.061C254.499 337.692 255.217 338.406 255.217 339.834V345H253.845V339.694C253.845 339.153 253.575 338.882 253.033 338.882H250.457V345H249.099ZM257.19 342.844V339.834C257.19 338.406 257.908 337.692 259.346 337.692H263.322V345.644C263.322 347.081 262.603 347.8 261.166 347.8H258.422L257.778 347.324V346.61H261.138C261.679 346.61 261.95 346.335 261.95 345.784V345H259.346C257.908 345 257.19 344.281 257.19 342.844ZM258.562 342.984C258.562 343.535 258.832 343.81 259.374 343.81H261.95V338.882H259.374C258.832 338.882 258.562 339.153 258.562 339.694V342.984ZM299.956 365.844V362.834C299.956 361.406 300.67 360.692 302.098 360.692H304.058C305.495 360.692 306.214 361.406 306.214 362.834V365.844C306.214 367.281 305.495 368 304.058 368H302.098C300.67 368 299.956 367.281 299.956 365.844ZM301.314 365.984C301.314 366.535 301.589 366.81 302.14 366.81H304.03C304.571 366.81 304.842 366.535 304.842 365.984V362.694C304.842 362.153 304.571 361.882 304.03 361.882H302.14C301.589 361.882 301.314 362.153 301.314 362.694V365.984ZM308.131 365.844V362.834C308.131 361.406 308.85 360.692 310.287 360.692H314.263V368.644C314.263 370.081 313.545 370.8 312.107 370.8H309.363L308.719 370.324V369.61H312.079C312.621 369.61 312.891 369.335 312.891 368.784V368H310.287C308.85 368 308.131 367.281 308.131 365.844ZM309.503 365.984C309.503 366.535 309.774 366.81 310.315 366.81H312.891V361.882H310.315C309.774 361.882 309.503 362.153 309.503 362.694V365.984ZM316.378 368V366.32H317.988V368H316.378ZM316.378 362.372V360.692H317.988V362.372H316.378ZM320.097 359.404V357.934H321.511V359.404H320.097ZM320.125 368V360.692H321.483V368H320.125ZM323.666 368V360.692H331.968C333.405 360.692 334.124 361.406 334.124 362.834V368H332.752V362.694C332.752 362.153 332.481 361.882 331.94 361.882H329.574V368H328.202V361.882H325.024V368H323.666ZM338.008 368C336.571 368 335.852 367.281 335.852 365.844C335.852 364.407 336.571 363.688 338.008 363.688H340.374V362.694C340.374 362.153 340.103 361.882 339.562 361.882H336.566V361.168L337.21 360.692H339.59C341.027 360.692 341.746 361.406 341.746 362.834V368H338.008ZM337.21 365.984C337.21 366.535 337.485 366.81 338.036 366.81H340.374V364.836H338.036C337.485 364.836 337.21 365.107 337.21 365.648V365.984ZM343.719 365.844V362.834C343.719 361.406 344.438 360.692 345.875 360.692H349.851V368.644C349.851 370.081 349.132 370.8 347.695 370.8H344.951L344.307 370.324V369.61H347.667C348.208 369.61 348.479 369.335 348.479 368.784V368H345.875C344.438 368 343.719 367.281 343.719 365.844ZM345.091 365.984C345.091 366.535 345.362 366.81 345.903 366.81H348.479V361.882H345.903C345.362 361.882 345.091 362.153 345.091 362.694V365.984ZM351.896 365.844V362.834C351.896 361.406 352.61 360.692 354.038 360.692H355.858C357.295 360.692 358.014 361.406 358.014 362.834V364.906H353.254V365.984C353.254 366.535 353.529 366.81 354.08 366.81H357.734V367.524L357.09 368H354.038C352.61 368 351.896 367.281 351.896 365.844ZM353.254 363.758H356.642V362.694C356.642 362.153 356.371 361.882 355.83 361.882H354.08C353.529 361.882 353.254 362.153 353.254 362.694V363.758ZM434.121 368V357.64H435.479V360.692H438.083C439.52 360.692 440.239 361.406 440.239 362.834V368H438.867V362.694C438.867 362.153 438.596 361.882 438.055 361.882H435.479V368H434.121ZM442.295 365.844V358.34H443.653V360.692H446.243V361.882H443.653V365.984C443.653 366.535 443.929 366.81 444.479 366.81H446.383V367.524L445.739 368H444.437C443.009 368 442.295 367.281 442.295 365.844ZM447.928 365.844V358.34H449.286V360.692H451.876V361.882H449.286V365.984C449.286 366.535 449.561 366.81 450.112 366.81H452.016V367.524L451.372 368H450.07C448.642 368 447.928 367.281 447.928 365.844ZM453.617 370.8V360.692H457.579C459.016 360.692 459.735 361.406 459.735 362.834V365.844C459.735 367.281 459.016 368 457.579 368H454.975V370.8H453.617ZM454.975 366.81H457.551C458.092 366.81 458.363 366.535 458.363 365.984V362.694C458.363 362.153 458.092 361.882 457.551 361.882H454.975V366.81ZM461.513 367.524V366.81H464.733C465.283 366.81 465.559 366.53 465.559 365.97C465.559 365.401 465.321 365.074 464.845 364.99L463.221 364.724C462.082 364.537 461.513 363.903 461.513 362.82C461.513 361.401 462.231 360.692 463.669 360.692H465.937L466.581 361.168V361.882H463.697C463.146 361.882 462.871 362.162 462.871 362.722C462.871 363.226 463.109 363.515 463.585 363.59L465.223 363.87C466.352 364.057 466.917 364.724 466.917 365.872C466.917 367.291 466.203 368 464.775 368H462.157L461.513 367.524ZM468.778 368V366.32H470.388V368H468.778ZM468.778 362.372V360.692H470.388V362.372H468.778ZM471.713 368.308L475.647 357.612L476.809 358.032L472.875 368.728L471.713 368.308ZM476.539 368.308L480.473 357.612L481.635 358.032L477.701 368.728L476.539 368.308ZM482.241 360.916L482.409 360.692H483.557L484.915 366.81H485.097L486.721 360.692H488.359L489.983 366.81H490.165L491.523 360.692H492.671L492.825 360.916L491.187 368H489.073L487.533 362.148L486.007 368H483.893L482.241 360.916ZM493.48 360.916L493.648 360.692H494.796L496.154 366.81H496.336L497.96 360.692H499.598L501.222 366.81H501.404L502.762 360.692H503.91L504.064 360.916L502.426 368H500.312L498.772 362.148L497.246 368H495.132L493.48 360.916ZM504.718 360.916L504.886 360.692H506.034L507.392 366.81H507.574L509.198 360.692H510.836L512.46 366.81H512.642L514 360.692H515.148L515.302 360.916L513.664 368H511.55L510.01 362.148L508.484 368H506.37L504.718 360.916ZM516.684 368V366.32H518.294V368H516.684ZM519.332 360.916L519.486 360.692H520.662L522.664 366.81H522.902L524.904 360.692H526.08L526.22 360.916L522.902 370.8H521.726L521.586 370.576L522.496 368H521.726L519.332 360.916ZM527.483 365.844V362.834C527.483 361.406 528.197 360.692 529.625 360.692H531.585C533.023 360.692 533.741 361.406 533.741 362.834V365.844C533.741 367.281 533.023 368 531.585 368H529.625C528.197 368 527.483 367.281 527.483 365.844ZM528.841 365.984C528.841 366.535 529.117 366.81 529.667 366.81H531.557C532.099 366.81 532.369 366.535 532.369 365.984V362.694C532.369 362.153 532.099 361.882 531.557 361.882H529.667C529.117 361.882 528.841 362.153 528.841 362.694V365.984ZM535.743 365.844V360.692H537.101V365.984C537.101 366.535 537.376 366.81 537.927 366.81H540.489V360.692H541.861V368H537.885C536.457 368 535.743 367.281 535.743 365.844ZM543.973 368V361.56C544.3 360.981 544.92 360.692 545.835 360.692H547.277L547.921 361.168V361.882H545.975C545.676 361.882 545.462 361.957 545.331 362.106V368H543.973ZM548.499 368V366.32H550.109V368H548.499ZM552.246 368V357.64H553.604V360.692H556.208C557.645 360.692 558.364 361.406 558.364 362.834V365.844C558.364 367.281 557.645 368 556.208 368H552.246ZM553.604 366.81H556.18C556.721 366.81 556.992 366.535 556.992 365.984V362.694C556.992 362.153 556.721 361.882 556.18 361.882H553.604V366.81ZM560.366 365.802V357.64H561.724V365.942C561.724 366.558 562.041 366.889 562.676 366.936V368.126C561.136 368.126 560.366 367.351 560.366 365.802ZM564.165 365.844V362.834C564.165 361.406 564.879 360.692 566.307 360.692H568.267C569.704 360.692 570.423 361.406 570.423 362.834V365.844C570.423 367.281 569.704 368 568.267 368H566.307C564.879 368 564.165 367.281 564.165 365.844ZM565.523 365.984C565.523 366.535 565.798 366.81 566.349 366.81H568.239C568.78 366.81 569.051 366.535 569.051 365.984V362.694C569.051 362.153 568.78 361.882 568.239 361.882H566.349C565.798 361.882 565.523 362.153 565.523 362.694V365.984ZM572.34 365.844V362.834C572.34 361.406 573.059 360.692 574.496 360.692H578.472V368.644C578.472 370.081 577.754 370.8 576.316 370.8H573.572L572.928 370.324V369.61H576.288C576.83 369.61 577.1 369.335 577.1 368.784V368H574.496C573.059 368 572.34 367.281 572.34 365.844ZM573.712 365.984C573.712 366.535 573.983 366.81 574.524 366.81H577.1V361.882H574.524C573.983 361.882 573.712 362.153 573.712 362.694V365.984ZM579.817 368.308L583.751 357.612L584.913 358.032L580.979 368.728L579.817 368.308ZM156.767 376.634L156.949 376.34H158.167L160.631 380.988L163.109 376.34H164.327L164.495 376.634L161.345 382.472V386H159.917V382.472L156.767 376.634ZM165.865 383.788V378.552C165.865 377.077 166.598 376.34 168.063 376.34H171.311C172.786 376.34 173.523 377.077 173.523 378.552V383.788C173.523 385.263 172.786 386 171.311 386H168.063C166.598 386 165.865 385.263 165.865 383.788ZM167.293 383.914C167.293 384.446 167.554 384.712 168.077 384.712H171.297C171.829 384.712 172.095 384.446 172.095 383.914V378.426C172.095 377.894 171.829 377.628 171.297 377.628H168.077C167.554 377.628 167.293 377.894 167.293 378.426V383.914ZM175.751 383.788V376.34H177.179V383.914C177.179 384.446 177.44 384.712 177.963 384.712H180.903C181.435 384.712 181.701 384.446 181.701 383.914V376.34H183.129V383.788C183.129 385.263 182.392 386 180.917 386H177.949C176.484 386 175.751 385.263 175.751 383.788ZM185.501 386V376.34H190.107C191.582 376.34 192.319 377.077 192.319 378.552V380.106C192.319 381.301 191.824 382.01 190.835 382.234L192.599 385.678L192.417 386H191.199L189.323 382.304H186.929V386H185.501ZM186.929 381.016H190.093C190.625 381.016 190.891 380.75 190.891 380.218V378.426C190.891 377.894 190.625 377.628 190.093 377.628H186.929V381.016ZM193.811 387.624H200.811V388.8H193.811V387.624ZM202.605 386V376.34H204.033V386H202.605ZM206.487 386V376.34H208.293L211.401 382.976L214.523 376.34H216.329V386H214.901V378.636L212.087 384.642H210.729L207.915 378.636V386H206.487ZM217.812 385.706L220.892 376.34H223.174L226.24 385.706L226.058 386H224.868L224.14 383.704H219.926L219.198 386H218.008L217.812 385.706ZM220.332 382.416H223.734L222.18 377.628H221.886L220.332 382.416ZM227.607 383.788V378.552C227.607 377.077 228.34 376.34 229.805 376.34H233.977L234.705 376.9V377.628H229.819C229.296 377.628 229.035 377.894 229.035 378.426V383.914C229.035 384.446 229.296 384.712 229.819 384.712H233.557V381.604H231.331V380.316H234.985V386H229.805C228.34 386 227.607 385.263 227.607 383.788ZM237.153 386V376.34H243.537V377.628H238.581V380.316H243.117V381.604H238.581V384.712H243.537V386H237.153Z" fill="#3C6ECF"/>
<path d="M266.323 232.844V229.834C266.323 228.406 267.037 227.692 268.465 227.692H271.167L271.811 228.168V228.882H268.507C267.957 228.882 267.681 229.153 267.681 229.694V232.984C267.681 233.535 267.957 233.81 268.507 233.81H271.811V234.524L271.167 235H268.465C267.037 235 266.323 234.281 266.323 232.844ZM273.489 232.802V224.64H274.847V232.942C274.847 233.558 275.164 233.889 275.799 233.936V235.126C274.259 235.126 273.489 234.351 273.489 232.802ZM279.164 235C277.727 235 277.008 234.281 277.008 232.844C277.008 231.407 277.727 230.688 279.164 230.688H281.53V229.694C281.53 229.153 281.259 228.882 280.718 228.882H277.722V228.168L278.366 227.692H280.746C282.183 227.692 282.902 228.406 282.902 229.834V235H279.164ZM278.366 232.984C278.366 233.535 278.641 233.81 279.192 233.81H281.53V231.836H279.192C278.641 231.836 278.366 232.107 278.366 232.648V232.984ZM284.735 234.524V233.81H287.955C288.506 233.81 288.781 233.53 288.781 232.97C288.781 232.401 288.543 232.074 288.067 231.99L286.443 231.724C285.305 231.537 284.735 230.903 284.735 229.82C284.735 228.401 285.454 227.692 286.891 227.692H289.159L289.803 228.168V228.882H286.919C286.369 228.882 286.093 229.162 286.093 229.722C286.093 230.226 286.331 230.515 286.807 230.59L288.445 230.87C289.575 231.057 290.139 231.724 290.139 232.872C290.139 234.291 289.425 235 287.997 235H285.379L284.735 234.524ZM291.763 234.524V233.81H294.983C295.533 233.81 295.809 233.53 295.809 232.97C295.809 232.401 295.571 232.074 295.095 231.99L293.471 231.724C292.332 231.537 291.763 230.903 291.763 229.82C291.763 228.401 292.481 227.692 293.919 227.692H296.187L296.831 228.168V228.882H293.947C293.396 228.882 293.121 229.162 293.121 229.722C293.121 230.226 293.359 230.515 293.835 230.59L295.473 230.87C296.602 231.057 297.167 231.724 297.167 232.872C297.167 234.291 296.453 235 295.025 235H292.407L291.763 234.524ZM229.737 324.844V321.834C229.737 320.406 230.451 319.692 231.879 319.692H234.581L235.225 320.168V320.882H231.921C231.371 320.882 231.095 321.153 231.095 321.694V324.984C231.095 325.535 231.371 325.81 231.921 325.81H235.225V326.524L234.581 327H231.879C230.451 327 229.737 326.281 229.737 324.844ZM236.847 324.844V321.834C236.847 320.406 237.561 319.692 238.989 319.692H240.949C242.386 319.692 243.105 320.406 243.105 321.834V324.844C243.105 326.281 242.386 327 240.949 327H238.989C237.561 327 236.847 326.281 236.847 324.844ZM238.205 324.984C238.205 325.535 238.48 325.81 239.031 325.81H240.921C241.462 325.81 241.733 325.535 241.733 324.984V321.694C241.733 321.153 241.462 320.882 240.921 320.882H239.031C238.48 320.882 238.205 321.153 238.205 321.694V324.984ZM245.162 327V319.692H249.124C250.561 319.692 251.28 320.406 251.28 321.834V327H249.908V321.694C249.908 321.153 249.637 320.882 249.096 320.882H246.52V327H245.162ZM253.336 324.844V317.34H254.694V319.692H257.284V320.882H254.694V324.984C254.694 325.535 254.97 325.81 255.52 325.81H257.424V326.524L256.78 327H255.478C254.05 327 253.336 326.281 253.336 324.844ZM258.913 324.844V321.834C258.913 320.406 259.627 319.692 261.055 319.692H262.875C264.312 319.692 265.031 320.406 265.031 321.834V323.906H260.271V324.984C260.271 325.535 260.546 325.81 261.097 325.81H264.751V326.524L264.107 327H261.055C259.627 327 258.913 326.281 258.913 324.844ZM260.271 322.758H263.659V321.694C263.659 321.153 263.388 320.882 262.847 320.882H261.097C260.546 320.882 260.271 321.153 260.271 321.694V322.758ZM267.092 327V319.692H271.054C272.491 319.692 273.21 320.406 273.21 321.834V327H271.838V321.694C271.838 321.153 271.567 320.882 271.026 320.882H268.45V327H267.092ZM275.266 324.844V317.34H276.624V319.692H279.214V320.882H276.624V324.984C276.624 325.535 276.899 325.81 277.45 325.81H279.354V326.524L278.71 327H277.408C275.98 327 275.266 326.281 275.266 324.844ZM157.593 345V337.692H161.555C162.993 337.692 163.711 338.406 163.711 339.834V345H162.339V339.694C162.339 339.153 162.069 338.882 161.527 338.882H158.951V345H157.593ZM167.588 345C166.151 345 165.432 344.281 165.432 342.844C165.432 341.407 166.151 340.688 167.588 340.688H169.954V339.694C169.954 339.153 169.683 338.882 169.142 338.882H166.146V338.168L166.79 337.692H169.17C170.607 337.692 171.326 338.406 171.326 339.834V345H167.588ZM166.79 342.984C166.79 343.535 167.065 343.81 167.616 343.81H169.954V341.836H167.616C167.065 341.836 166.79 342.107 166.79 342.648V342.984ZM173.439 345V337.692H181.741C183.179 337.692 183.897 338.406 183.897 339.834V345H182.525V339.694C182.525 339.153 182.255 338.882 181.713 338.882H179.347V345H177.975V338.882H174.797V345H173.439ZM185.905 342.844V339.834C185.905 338.406 186.619 337.692 188.047 337.692H189.867C191.305 337.692 192.023 338.406 192.023 339.834V341.906H187.263V342.984C187.263 343.535 187.539 343.81 188.089 343.81H191.743V344.524L191.099 345H188.047C186.619 345 185.905 344.281 185.905 342.844ZM187.263 340.758H190.651V339.694C190.651 339.153 190.381 338.882 189.839 338.882H188.089C187.539 338.882 187.263 339.153 187.263 339.694V340.758ZM229.849 370.8V360.692H233.811C235.249 360.692 235.967 361.406 235.967 362.834V365.844C235.967 367.281 235.249 368 233.811 368H231.207V370.8H229.849ZM231.207 366.81H233.783C234.325 366.81 234.595 366.535 234.595 365.984V362.694C234.595 362.153 234.325 361.882 233.783 361.882H231.207V366.81ZM237.969 368V361.56C238.296 360.981 238.916 360.692 239.831 360.692H241.273L241.917 361.168V361.882H239.971C239.672 361.882 239.458 361.957 239.327 362.106V368H237.969ZM243.259 365.844V362.834C243.259 361.406 243.973 360.692 245.401 360.692H247.361C248.798 360.692 249.517 361.406 249.517 362.834V365.844C249.517 367.281 248.798 368 247.361 368H245.401C243.973 368 243.259 367.281 243.259 365.844ZM244.617 365.984C244.617 366.535 244.892 366.81 245.443 366.81H247.333C247.874 366.81 248.145 366.535 248.145 365.984V362.694C248.145 362.153 247.874 361.882 247.333 361.882H245.443C244.892 361.882 244.617 362.153 244.617 362.694V365.984ZM251.574 370.8V360.692H255.536C256.973 360.692 257.692 361.406 257.692 362.834V365.844C257.692 367.281 256.973 368 255.536 368H252.932V370.8H251.574ZM252.932 366.81H255.508C256.049 366.81 256.32 366.535 256.32 365.984V362.694C256.32 362.153 256.049 361.882 255.508 361.882H252.932V366.81ZM259.638 365.844V362.834C259.638 361.406 260.352 360.692 261.78 360.692H263.6C265.037 360.692 265.756 361.406 265.756 362.834V364.906H260.996V365.984C260.996 366.535 261.271 366.81 261.822 366.81H265.476V367.524L264.832 368H261.78C260.352 368 259.638 367.281 259.638 365.844ZM260.996 363.758H264.384V362.694C264.384 362.153 264.113 361.882 263.572 361.882H261.822C261.271 361.882 260.996 362.153 260.996 362.694V363.758ZM267.76 368V361.56C268.087 360.981 268.707 360.692 269.622 360.692H271.064L271.708 361.168V361.882H269.762C269.463 361.882 269.249 361.957 269.118 362.106V368H267.76ZM273.106 365.844V358.34H274.464V360.692H277.054V361.882H274.464V365.984C274.464 366.535 274.739 366.81 275.29 366.81H277.194V367.524L276.55 368H275.248C273.82 368 273.106 367.281 273.106 365.844ZM277.969 360.916L278.123 360.692H279.299L281.301 366.81H281.539L283.541 360.692H284.717L284.857 360.916L281.539 370.8H280.363L280.223 370.576L281.133 368H280.363L277.969 360.916ZM369.067 365.844V362.834C369.067 361.406 369.781 360.692 371.209 360.692H373.911L374.555 361.168V361.882H371.251C370.701 361.882 370.425 362.153 370.425 362.694V365.984C370.425 366.535 370.701 366.81 371.251 366.81H374.555V367.524L373.911 368H371.209C369.781 368 369.067 367.281 369.067 365.844ZM376.177 365.844V362.834C376.177 361.406 376.891 360.692 378.319 360.692H380.279C381.716 360.692 382.435 361.406 382.435 362.834V365.844C382.435 367.281 381.716 368 380.279 368H378.319C376.891 368 376.177 367.281 376.177 365.844ZM377.535 365.984C377.535 366.535 377.81 366.81 378.361 366.81H380.251C380.792 366.81 381.063 366.535 381.063 365.984V362.694C381.063 362.153 380.792 361.882 380.251 361.882H378.361C377.81 361.882 377.535 362.153 377.535 362.694V365.984ZM384.492 368V360.692H388.454C389.891 360.692 390.61 361.406 390.61 362.834V368H389.238V362.694C389.238 362.153 388.967 361.882 388.426 361.882H385.85V368H384.492ZM392.666 365.844V358.34H394.024V360.692H396.614V361.882H394.024V365.984C394.024 366.535 394.3 366.81 394.85 366.81H396.754V367.524L396.11 368H394.808C393.38 368 392.666 367.281 392.666 365.844ZM398.243 365.844V362.834C398.243 361.406 398.957 360.692 400.385 360.692H402.205C403.643 360.692 404.361 361.406 404.361 362.834V364.906H399.601V365.984C399.601 366.535 399.877 366.81 400.427 366.81H404.081V367.524L403.437 368H400.385C398.957 368 398.243 367.281 398.243 365.844ZM399.601 363.758H402.989V362.694C402.989 362.153 402.719 361.882 402.177 361.882H400.427C399.877 361.882 399.601 362.153 399.601 362.694V363.758ZM406.422 368V360.692H410.384C411.821 360.692 412.54 361.406 412.54 362.834V368H411.168V362.694C411.168 362.153 410.897 361.882 410.356 361.882H407.78V368H406.422ZM414.596 365.844V358.34H415.954V360.692H418.544V361.882H415.954V365.984C415.954 366.535 416.229 366.81 416.78 366.81H418.684V367.524L418.04 368H416.738C415.31 368 414.596 367.281 414.596 365.844Z" fill="#A16112"/>
<g filter="url(#filter1_d_3616_20181)">
<rect x="124" y="120" width="532" height="26" fill="white"/>
<rect x="134.05" y="130.05" width="5.9" height="5.9" rx="2.95" fill="#EE6A5F" stroke="#C7493E" stroke-width="0.1"/>
<rect x="154.05" y="130.05" width="5.9" height="5.9" rx="2.95" fill="#5FC454" stroke="#3AA531" stroke-width="0.1"/>
<rect x="144.05" y="130.05" width="5.9" height="5.9" rx="2.95" fill="#F4BE50" stroke="#DFAB41" stroke-width="0.1"/>
<rect x="175" y="129" width="10" height="7.27273" rx="1" fill="white" stroke="#737373" stroke-width="0.6"/>
<path d="M178.182 135.819L178.182 129.455" stroke="#737373" stroke-width="0.6" stroke-linecap="square"/>
<path d="M175.909 130.818L176.909 130.818" stroke="#737373" stroke-width="0.3" stroke-linecap="round"/>
<path d="M175.909 131.918L176.909 131.918" stroke="#737373" stroke-width="0.3" stroke-linecap="round"/>
<path d="M175.909 133.018L176.909 133.018" stroke="#737373" stroke-width="0.3" stroke-linecap="round"/>
<path d="M203.635 129L200 132.635L203.635 136.27" stroke="#737373" stroke-width="0.6" stroke-linecap="round" stroke-linejoin="round"/>
<path d="M217.635 129L221.27 132.635L217.635 136.27" stroke="#737373" stroke-opacity="0.5" stroke-width="0.6" stroke-linecap="round" stroke-linejoin="round"/>
<rect x="236" y="126" width="297" height="14" rx="2" fill="#F2F2F2"/>
<rect x="241" y="130" width="6" height="6" rx="3" fill="#F2F2F2" stroke="#737373" stroke-width="0.4"/>
<path d="M242.579 132.959L245.421 132.959" stroke="#737373" stroke-width="0.4" stroke-linecap="round"/>
<path d="M244 131.576L244 134.418" stroke="#737373" stroke-width="0.4" stroke-linecap="round"/>
<rect x="571" y="128.477" width="9.02053" height="9.04762" rx="4.51026" fill="white" stroke="#737373" stroke-width="0.6"/>
<path d="M575.833 130.548C575.833 130.403 575.707 130.285 575.551 130.285C575.396 130.285 575.27 130.403 575.27 130.548L575.833 130.548ZM575.353 135.161C575.462 135.264 575.64 135.264 575.75 135.161L577.54 133.482C577.65 133.379 577.65 133.212 577.54 133.109C577.43 133.006 577.252 133.006 577.142 133.109L575.551 134.601L573.961 133.109C573.851 133.006 573.673 133.006 573.563 133.109C573.453 133.212 573.453 133.379 573.563 133.482L575.353 135.161ZM575.27 130.548L575.27 134.974L575.833 134.974L575.833 130.548L575.27 130.548Z" fill="#737373"/>
<rect x="594.021" y="131.453" width="7.12147" height="6.54762" rx="1.90909" fill="white" stroke="#737373" stroke-width="0.6"/>
<path d="M599.836 129.63L598.134 128.033V127.978H598.075L597.953 127.863C597.722 127.646 597.354 127.646 597.123 127.863L597.001 127.978H596.942V128.033L595.24 129.63C594.998 129.857 594.998 130.233 595.24 130.46C595.471 130.677 595.838 130.677 596.069 130.46L596.942 129.641V135.08C596.942 135.416 597.227 135.657 597.538 135.657C597.849 135.657 598.134 135.416 598.134 135.08V129.641L599.007 130.46C599.238 130.677 599.605 130.677 599.836 130.46C600.078 130.233 600.078 129.857 599.836 129.63Z" fill="#737373" stroke="white" stroke-width="0.6"/>
<path d="M615.142 132.904L622.264 132.904" stroke="#737373" stroke-width="0.6" stroke-linecap="round"/>
<path d="M618.703 129.428L618.703 136.571" stroke="#737373" stroke-width="0.6" stroke-linecap="round"/>
<rect x="636.264" y="128.238" width="7.30407" height="7.32601" rx="2" fill="white" stroke="#737373" stroke-width="0.6"/>
<rect x="638.82" y="130.436" width="7.30408" height="7.32601" rx="2" fill="white" stroke="#737373" stroke-width="0.6"/>
<ellipse rx="1.01861" ry="1.01825" transform="matrix(-1 0 0 1 545.824 130.503)" fill="black"/>
<path d="M545.654 130.35L547.556 132.25" stroke="black" stroke-width="0.8146"/>
<ellipse cx="552.106" cy="130.503" rx="1.01861" ry="1.01825" fill="black"/>
<path d="M552.292 130.35L550.391 132.25" stroke="black" stroke-width="0.8146"/>
<path fill-rule="evenodd" clip-rule="evenodd" d="M545.635 135.796C544.731 135.435 544.206 134.476 544.463 133.538C545.086 131.263 546.881 129.619 548.999 129.619C551.121 129.619 552.92 131.271 553.539 133.556C553.794 134.496 553.264 135.454 552.358 135.811C551.323 136.218 550.195 136.441 549.015 136.441C547.821 136.441 546.68 136.212 545.635 135.796Z" fill="#FFDF6F"/>
<path fill-rule="evenodd" clip-rule="evenodd" d="M545.635 135.796C544.731 135.435 544.206 134.476 544.463 133.538C545.086 131.263 546.881 129.619 548.999 129.619C551.121 129.619 552.92 131.271 553.539 133.556C553.794 134.496 553.264 135.454 552.358 135.811C551.323 136.218 550.195 136.441 549.015 136.441C547.821 136.441 546.68 136.212 545.635 135.796Z" fill="black" fill-opacity="0.5" style="mix-blend-mode:saturation"/>
<path d="M544.752 133.617C545.349 131.438 547.05 129.919 548.999 129.919V129.319C546.713 129.319 544.823 131.088 544.173 133.459L544.752 133.617ZM548.999 129.919C550.952 129.919 552.656 131.445 553.25 133.634L553.829 133.477C553.184 131.097 551.29 129.319 548.999 129.319V129.919ZM552.248 135.532C551.247 135.925 550.157 136.141 549.015 136.141V136.741C550.233 136.741 551.398 136.511 552.468 136.09L552.248 135.532ZM549.015 136.141C547.86 136.141 546.757 135.92 545.746 135.517L545.524 136.074C546.604 136.505 547.782 136.741 549.015 136.741V136.141ZM553.25 133.634C553.461 134.414 553.024 135.226 552.248 135.532L552.468 136.09C553.504 135.682 554.127 134.577 553.829 133.477L553.25 133.634ZM544.173 133.459C543.873 134.556 544.49 135.662 545.524 136.074L545.746 135.517C544.972 135.209 544.539 134.396 544.752 133.617L544.173 133.459Z" fill="black"/>
<path fill-rule="evenodd" clip-rule="evenodd" d="M546.517 135.086C545.793 134.842 545.362 134.065 545.706 133.384C546.294 132.221 547.548 131.418 548.999 131.418C550.45 131.418 551.703 132.221 552.292 133.384C552.636 134.065 552.204 134.842 551.481 135.086C550.702 135.348 549.867 135.491 548.999 135.491C548.131 135.491 547.296 135.348 546.517 135.086Z" fill="black"/>
<path d="M551 133H549.5" stroke="white" stroke-width="0.2" stroke-linecap="round"/>
<path d="M548.5 133H547" stroke="white" stroke-width="0.2" stroke-linecap="round"/>
<rect x="350" y="131.898" width="4.33333" height="3.85185" rx="1" fill="#9E9E9E"/>
<rect x="350.781" y="129.55" width="2.77037" height="4.6963" rx="1.38519" stroke="#9E9E9E" stroke-width="0.6"/>
<path d="M358.661 135L357.537 131.182H358.305L359.054 133.986H359.091L359.842 131.182H360.61L361.356 133.973H361.393L362.136 131.182H362.904L361.783 135H361.025L360.249 132.243H360.192L359.417 135H358.661ZM364.367 135L363.244 131.182H364.012L364.76 133.986H364.797L365.548 131.182H366.316L367.062 133.973H367.099L367.842 131.182H368.611L367.489 135H366.731L365.956 132.243H365.899L365.123 135H364.367ZM370.074 135L368.95 131.182H369.718L370.466 133.986H370.504L371.254 131.182H372.023L372.768 133.973H372.806L373.549 131.182H374.317L373.196 135H372.438L371.662 132.243H371.605L370.829 135H370.074ZM374.922 135.047C374.787 135.047 374.67 134.999 374.572 134.903C374.474 134.805 374.425 134.688 374.425 134.55C374.425 134.414 374.474 134.298 374.572 134.202C374.67 134.104 374.787 134.055 374.922 134.055C375.058 134.055 375.175 134.104 375.273 134.202C375.371 134.298 375.42 134.414 375.42 134.55C375.42 134.641 375.396 134.725 375.35 134.801C375.305 134.876 375.246 134.935 375.171 134.98C375.096 135.025 375.014 135.047 374.922 135.047ZM377.456 135.085C377.214 135.085 376.996 135.04 376.8 134.95C376.604 134.859 376.45 134.727 376.335 134.555C376.222 134.383 376.166 134.171 376.166 133.921C376.166 133.706 376.208 133.528 376.29 133.389C376.373 133.25 376.485 133.14 376.626 133.059C376.767 132.977 376.924 132.916 377.098 132.875C377.272 132.833 377.45 132.802 377.63 132.78C377.859 132.754 378.045 132.732 378.187 132.716C378.33 132.697 378.433 132.668 378.498 132.629C378.562 132.589 378.595 132.524 378.595 132.435V132.417C378.595 132.2 378.533 132.032 378.411 131.913C378.29 131.793 378.109 131.734 377.869 131.734C377.619 131.734 377.421 131.789 377.277 131.9C377.135 132.01 377.036 132.131 376.981 132.266L376.283 132.107C376.366 131.875 376.487 131.687 376.646 131.545C376.807 131.401 376.991 131.296 377.2 131.232C377.409 131.165 377.629 131.132 377.859 131.132C378.011 131.132 378.173 131.15 378.344 131.187C378.516 131.222 378.677 131.286 378.826 131.381C378.977 131.475 379.1 131.61 379.196 131.786C379.292 131.96 379.341 132.186 379.341 132.464V135H378.615V134.478H378.585C378.537 134.574 378.465 134.669 378.369 134.761C378.272 134.854 378.149 134.931 377.998 134.993C377.847 135.054 377.667 135.085 377.456 135.085ZM377.618 134.488C377.823 134.488 377.999 134.447 378.145 134.366C378.292 134.285 378.404 134.179 378.48 134.048C378.558 133.915 378.597 133.774 378.597 133.623V133.131C378.571 133.157 378.519 133.182 378.443 133.205C378.369 133.227 378.283 133.246 378.187 133.262C378.091 133.277 377.997 133.291 377.906 133.305C377.815 133.316 377.739 133.326 377.678 133.335C377.533 133.353 377.402 133.383 377.282 133.426C377.165 133.47 377.07 133.532 376.999 133.613C376.929 133.692 376.894 133.799 376.894 133.931C376.894 134.115 376.962 134.254 377.098 134.349C377.234 134.442 377.407 134.488 377.618 134.488ZM381.004 129.909V135H380.26V129.909H381.004ZM381.993 135V129.909H382.737V131.801H382.781C382.824 131.721 382.887 131.629 382.968 131.525C383.049 131.42 383.162 131.329 383.306 131.251C383.45 131.172 383.641 131.132 383.878 131.132C384.186 131.132 384.461 131.21 384.703 131.366C384.945 131.522 385.135 131.746 385.272 132.039C385.411 132.333 385.481 132.686 385.481 133.098C385.481 133.511 385.412 133.865 385.275 134.16C385.137 134.453 384.948 134.679 384.708 134.838C384.468 134.996 384.193 135.075 383.885 135.075C383.653 135.075 383.463 135.036 383.316 134.958C383.17 134.88 383.056 134.789 382.973 134.684C382.89 134.58 382.826 134.487 382.781 134.406H382.719V135H381.993ZM382.722 133.091C382.722 133.359 382.761 133.595 382.838 133.797C382.916 133.999 383.029 134.157 383.177 134.272C383.324 134.384 383.505 134.441 383.718 134.441C383.941 134.441 384.126 134.382 384.275 134.264C384.424 134.145 384.537 133.983 384.613 133.779C384.691 133.576 384.73 133.346 384.73 133.091C384.73 132.839 384.692 132.613 384.616 132.412C384.541 132.212 384.429 132.054 384.278 131.938C384.129 131.821 383.942 131.763 383.718 131.763C383.503 131.763 383.321 131.819 383.172 131.93C383.024 132.041 382.912 132.196 382.836 132.395C382.76 132.594 382.722 132.826 382.722 133.091ZM386.585 136.432C386.474 136.432 386.373 136.423 386.282 136.404C386.191 136.388 386.123 136.37 386.078 136.35L386.257 135.741C386.393 135.777 386.514 135.793 386.62 135.788C386.726 135.783 386.82 135.743 386.901 135.669C386.984 135.594 387.057 135.472 387.12 135.303L387.212 135.05L385.815 131.182H386.61L387.577 134.145H387.617L388.584 131.182H389.382L387.808 135.51C387.736 135.708 387.643 135.877 387.53 136.014C387.417 136.153 387.283 136.258 387.127 136.327C386.972 136.397 386.791 136.432 386.585 136.432ZM391.793 131.182V131.778H389.707V131.182H391.793ZM390.266 130.267H391.01V133.879C391.01 134.023 391.031 134.132 391.074 134.205C391.117 134.276 391.173 134.325 391.241 134.351C391.311 134.376 391.386 134.388 391.467 134.388C391.527 134.388 391.579 134.384 391.624 134.376C391.668 134.368 391.703 134.361 391.728 134.356L391.862 134.97C391.819 134.987 391.758 135.003 391.678 135.02C391.599 135.038 391.499 135.048 391.38 135.05C391.185 135.053 391.002 135.018 390.833 134.945C390.664 134.872 390.527 134.76 390.423 134.607C390.319 134.455 390.266 134.263 390.266 134.033V130.267ZM393.37 132.733V135H392.627V129.909H393.36V131.803H393.408C393.497 131.598 393.634 131.435 393.818 131.314C394.002 131.193 394.242 131.132 394.539 131.132C394.8 131.132 395.029 131.186 395.225 131.294C395.422 131.401 395.574 131.562 395.682 131.776C395.791 131.988 395.846 132.253 395.846 132.571V135H395.103V132.661C395.103 132.381 395.031 132.164 394.887 132.01C394.742 131.854 394.542 131.776 394.285 131.776C394.109 131.776 393.952 131.813 393.813 131.888C393.675 131.962 393.567 132.072 393.487 132.216C393.409 132.358 393.37 132.531 393.37 132.733ZM398.414 135.077C398.037 135.077 397.713 134.997 397.442 134.836C397.171 134.674 396.963 134.446 396.815 134.152C396.669 133.857 396.596 133.512 396.596 133.116C396.596 132.725 396.669 132.38 396.815 132.082C396.963 131.783 397.168 131.551 397.432 131.383C397.697 131.216 398.007 131.132 398.361 131.132C398.577 131.132 398.786 131.168 398.988 131.239C399.19 131.31 399.371 131.422 399.532 131.575C399.693 131.727 399.82 131.925 399.912 132.169C400.005 132.411 400.052 132.705 400.052 133.051V133.315H397.016V132.758H399.323C399.323 132.562 399.284 132.389 399.204 132.238C399.124 132.086 399.013 131.966 398.868 131.878C398.726 131.79 398.559 131.746 398.366 131.746C398.157 131.746 397.975 131.797 397.819 131.9C397.665 132.001 397.546 132.134 397.461 132.298C397.379 132.46 397.337 132.637 397.337 132.827V133.262C397.337 133.518 397.382 133.735 397.471 133.914C397.563 134.093 397.689 134.229 397.852 134.324C398.014 134.417 398.204 134.463 398.421 134.463C398.562 134.463 398.69 134.443 398.806 134.403C398.922 134.362 399.023 134.301 399.107 134.219C399.192 134.138 399.256 134.038 399.301 133.919L400.004 134.045C399.948 134.253 399.847 134.434 399.701 134.59C399.557 134.744 399.376 134.864 399.157 134.95C398.94 135.035 398.692 135.077 398.414 135.077ZM400.866 135V129.909H401.609V131.801H401.654C401.697 131.721 401.759 131.629 401.84 131.525C401.922 131.42 402.034 131.329 402.178 131.251C402.323 131.172 402.513 131.132 402.75 131.132C403.058 131.132 403.334 131.21 403.575 131.366C403.817 131.522 404.007 131.746 404.145 132.039C404.284 132.333 404.354 132.686 404.354 133.098C404.354 133.511 404.285 133.865 404.147 134.16C404.01 134.453 403.821 134.679 403.58 134.838C403.34 134.996 403.066 135.075 402.758 135.075C402.526 135.075 402.336 135.036 402.188 134.958C402.043 134.88 401.928 134.789 401.845 134.684C401.763 134.58 401.699 134.487 401.654 134.406H401.592V135H400.866ZM401.594 133.091C401.594 133.359 401.633 133.595 401.711 133.797C401.789 133.999 401.902 134.157 402.049 134.272C402.197 134.384 402.377 134.441 402.591 134.441C402.813 134.441 402.999 134.382 403.148 134.264C403.297 134.145 403.41 133.983 403.486 133.779C403.564 133.576 403.603 133.346 403.603 133.091C403.603 132.839 403.565 132.613 403.488 132.412C403.414 132.212 403.301 132.054 403.15 131.938C403.001 131.821 402.815 131.763 402.591 131.763C402.376 131.763 402.193 131.819 402.044 131.93C401.897 132.041 401.785 132.196 401.709 132.395C401.632 132.594 401.594 132.826 401.594 133.091ZM406.764 135.077C406.388 135.077 406.064 134.997 405.792 134.836C405.522 134.674 405.313 134.446 405.165 134.152C405.02 133.857 404.947 133.512 404.947 133.116C404.947 132.725 405.02 132.38 405.165 132.082C405.313 131.783 405.518 131.551 405.782 131.383C406.047 131.216 406.357 131.132 406.712 131.132C406.927 131.132 407.136 131.168 407.338 131.239C407.54 131.31 407.722 131.422 407.882 131.575C408.043 131.727 408.17 131.925 408.263 132.169C408.355 132.411 408.402 132.705 408.402 133.051V133.315H405.367V132.758H407.674C407.674 132.562 407.634 132.389 407.554 132.238C407.475 132.086 407.363 131.966 407.219 131.878C407.076 131.79 406.909 131.746 406.717 131.746C406.508 131.746 406.325 131.797 406.17 131.9C406.016 132.001 405.896 132.134 405.812 132.298C405.729 132.46 405.687 132.637 405.687 132.827V133.262C405.687 133.518 405.732 133.735 405.822 133.914C405.913 134.093 406.04 134.229 406.202 134.324C406.364 134.417 406.554 134.463 406.771 134.463C406.912 134.463 407.04 134.443 407.156 134.403C407.272 134.362 407.373 134.301 407.457 134.219C407.542 134.138 407.606 134.038 407.651 133.919L408.355 134.045C408.298 134.253 408.197 134.434 408.051 134.59C407.907 134.744 407.726 134.864 407.507 134.95C407.29 135.035 407.042 135.077 406.764 135.077ZM410.802 135.077C410.426 135.077 410.102 134.997 409.83 134.836C409.56 134.674 409.351 134.446 409.204 134.152C409.058 133.857 408.985 133.512 408.985 133.116C408.985 132.725 409.058 132.38 409.204 132.082C409.351 131.783 409.557 131.551 409.82 131.383C410.085 131.216 410.395 131.132 410.75 131.132C410.965 131.132 411.174 131.168 411.376 131.239C411.579 131.31 411.76 131.422 411.921 131.575C412.081 131.727 412.208 131.925 412.301 132.169C412.394 132.411 412.44 132.705 412.44 133.051V133.315H409.405V132.758H411.712C411.712 132.562 411.672 132.389 411.593 132.238C411.513 132.086 411.401 131.966 411.257 131.878C411.115 131.79 410.947 131.746 410.755 131.746C410.546 131.746 410.364 131.797 410.208 131.9C410.054 132.001 409.935 132.134 409.85 132.298C409.767 132.46 409.726 132.637 409.726 132.827V133.262C409.726 133.518 409.771 133.735 409.86 133.914C409.951 134.093 410.078 134.229 410.24 134.324C410.403 134.417 410.593 134.463 410.81 134.463C410.95 134.463 411.079 134.443 411.195 134.403C411.311 134.362 411.411 134.301 411.496 134.219C411.58 134.138 411.645 134.038 411.69 133.919L412.393 134.045C412.337 134.253 412.236 134.434 412.09 134.59C411.946 134.744 411.764 134.864 411.545 134.95C411.328 135.035 411.081 135.077 410.802 135.077ZM413.685 135.047C413.549 135.047 413.432 134.999 413.334 134.903C413.236 134.805 413.187 134.688 413.187 134.55C413.187 134.414 413.236 134.298 413.334 134.202C413.432 134.104 413.549 134.055 413.685 134.055C413.821 134.055 413.937 134.104 414.035 134.202C414.133 134.298 414.182 134.414 414.182 134.55C414.182 134.641 414.159 134.725 414.112 134.801C414.067 134.876 414.008 134.935 413.933 134.98C413.859 135.025 413.776 135.047 413.685 135.047ZM416.716 135.077C416.346 135.077 416.028 134.993 415.761 134.826C415.496 134.657 415.292 134.424 415.15 134.127C415.007 133.831 414.936 133.491 414.936 133.108C414.936 132.721 415.009 132.378 415.155 132.082C415.3 131.783 415.506 131.551 415.771 131.383C416.036 131.216 416.349 131.132 416.708 131.132C416.998 131.132 417.257 131.186 417.484 131.294C417.711 131.4 417.894 131.549 418.033 131.741C418.174 131.933 418.258 132.158 418.284 132.415H417.561C417.521 132.236 417.43 132.082 417.287 131.952C417.147 131.823 416.958 131.759 416.721 131.759C416.513 131.759 416.332 131.813 416.176 131.923C416.022 132.03 415.902 132.184 415.816 132.385C415.73 132.584 415.687 132.819 415.687 133.091C415.687 133.369 415.729 133.61 415.813 133.812C415.898 134.014 416.017 134.171 416.171 134.282C416.327 134.393 416.51 134.448 416.721 134.448C416.862 134.448 416.989 134.422 417.103 134.371C417.219 134.318 417.316 134.243 417.394 134.145C417.474 134.047 417.529 133.929 417.561 133.792H418.284C418.258 134.039 418.177 134.259 418.043 134.453C417.909 134.647 417.729 134.799 417.504 134.911C417.28 135.022 417.017 135.077 416.716 135.077ZM420.617 135.077C420.259 135.077 419.947 134.995 419.68 134.831C419.413 134.667 419.206 134.437 419.059 134.142C418.911 133.847 418.838 133.503 418.838 133.108C418.838 132.712 418.911 132.366 419.059 132.069C419.206 131.773 419.413 131.542 419.68 131.378C419.947 131.214 420.259 131.132 420.617 131.132C420.975 131.132 421.288 131.214 421.554 131.378C421.821 131.542 422.028 131.773 422.176 132.069C422.323 132.366 422.397 132.712 422.397 133.108C422.397 133.503 422.323 133.847 422.176 134.142C422.028 134.437 421.821 134.667 421.554 134.831C421.288 134.995 420.975 135.077 420.617 135.077ZM420.62 134.453C420.852 134.453 421.044 134.392 421.197 134.269C421.349 134.147 421.462 133.983 421.535 133.779C421.609 133.576 421.646 133.351 421.646 133.106C421.646 132.862 421.609 132.638 421.535 132.435C421.462 132.229 421.349 132.064 421.197 131.94C421.044 131.816 420.852 131.754 420.62 131.754C420.386 131.754 420.192 131.816 420.038 131.94C419.886 132.064 419.772 132.229 419.698 132.435C419.625 132.638 419.588 132.862 419.588 133.106C419.588 133.351 419.625 133.576 419.698 133.779C419.772 133.983 419.886 134.147 420.038 134.269C420.192 134.392 420.386 134.453 420.62 134.453ZM423.157 135V131.182H423.87V131.803H423.917C423.997 131.593 424.127 131.429 424.308 131.311C424.488 131.192 424.705 131.132 424.957 131.132C425.212 131.132 425.426 131.192 425.598 131.311C425.772 131.43 425.9 131.594 425.983 131.803H426.023C426.114 131.599 426.259 131.437 426.458 131.316C426.657 131.193 426.894 131.132 427.169 131.132C427.515 131.132 427.798 131.241 428.017 131.458C428.237 131.675 428.347 132.002 428.347 132.44V135H427.604V132.509C427.604 132.251 427.533 132.063 427.393 131.947C427.252 131.831 427.084 131.773 426.888 131.773C426.646 131.773 426.458 131.848 426.324 131.997C426.189 132.145 426.122 132.334 426.122 132.566V135H425.382V132.462C425.382 132.255 425.317 132.088 425.188 131.962C425.058 131.836 424.89 131.773 424.683 131.773C424.542 131.773 424.412 131.811 424.293 131.885C424.175 131.958 424.08 132.06 424.007 132.191C423.936 132.322 423.9 132.474 423.9 132.646V135H423.157Z" fill="#4C4C4C"/>
</g>
<defs>
<filter id="filter0_d_3616_20181" x="0" y="0" width="780" height="662" filterUnits="userSpaceOnUse" color-interpolation-filters="sRGB">
<feFlood flood-opacity="0" result="BackgroundImageFix"/>
<feColorMatrix in="SourceAlpha" type="matrix" values="0 0 0 0 0 0 0 0 0 0 0 0 0 0 0 0 0 0 127 0" result="hardAlpha"/>
<feOffset dy="4"/>
<feGaussianBlur stdDeviation="62"/>
<feComposite in2="hardAlpha" operator="out"/>
<feColorMatrix type="matrix" values="0 0 0 0 0.768627 0 0 0 0 0.768627 0 0 0 0 0.768627 0 0 0 0.25 0"/>
<feBlend mode="normal" in2="BackgroundImageFix" result="effect1_dropShadow_3616_20181"/>
<feBlend mode="normal" in="SourceGraphic" in2="effect1_dropShadow_3616_20181" result="shape"/>
</filter>
<filter id="filter1_d_3616_20181" x="113" y="113" width="554" height="48" filterUnits="userSpaceOnUse" color-interpolation-filters="sRGB">
<feFlood flood-opacity="0" result="BackgroundImageFix"/>
<feColorMatrix in="SourceAlpha" type="matrix" values="0 0 0 0 0 0 0 0 0 0 0 0 0 0 0 0 0 0 127 0" result="hardAlpha"/>
<feOffset dy="4"/>
<feGaussianBlur stdDeviation="5.5"/>
<feComposite in2="hardAlpha" operator="out"/>
<feColorMatrix type="matrix" values="0 0 0 0 0.898039 0 0 0 0 0.898039 0 0 0 0 0.898039 0 0 0 0.25 0"/>
<feBlend mode="normal" in2="BackgroundImageFix" result="effect1_dropShadow_3616_20181"/>
<feBlend mode="normal" in="SourceGraphic" in2="effect1_dropShadow_3616_20181" result="shape"/>
</filter>
</defs>
</svg>
