<svg width="369" height="293" viewBox="0 0 369 293" fill="none" xmlns="http://www.w3.org/2000/svg">
<g filter="url(#filter0_d_5044_25110)">
<path d="M13 10.2895C13 9.57704 13.577 9 14.2895 9H354.711C355.423 9 356 9.57704 356 10.2895V274.632C356 275.344 355.423 275.921 354.711 275.921H14.2895C13.577 275.921 13 275.344 13 274.632V10.2895Z" fill="white"/>
<path d="M13 10.2895C13 9.57704 13.577 9 14.2895 9H354.711C355.423 9 356 9.57704 356 10.2895V274.632C356 275.344 355.423 275.921 354.711 275.921H14.2895C13.577 275.921 13 275.344 13 274.632V10.2895Z" fill="white"/>
<path d="M34.5322 65.7166V64.8681L38.2962 63.0719L38.6211 63.7489L35.3265 65.2924L38.6211 66.8359L38.2962 67.5128L34.5322 65.7166ZM39.85 68.3162V67.233H40.888V68.3162H39.85ZM39.9132 66.3846V62.088H40.8339V66.3846H39.9132ZM42.3561 68.3162V62.088H44.7661C46.3309 62.088 47.113 62.8701 47.113 64.4349V65.9694C47.113 67.5341 46.3309 68.3162 44.7661 68.3162H42.3561ZM43.2768 67.4858H44.8203C45.7352 67.4858 46.1923 67.0287 46.1923 66.1138V64.2905C46.1923 63.3756 45.7352 62.9185 44.8203 62.9185H43.2768V67.4858ZM48.4186 66.89V63.5142C48.4186 62.5632 48.8912 62.088 49.8357 62.088H51.9298C52.8808 62.088 53.356 62.5632 53.356 63.5142V66.89C53.356 67.841 52.8808 68.3162 51.9298 68.3162H49.8357C48.8912 68.3162 48.4186 67.841 48.4186 66.89ZM49.3393 66.9713C49.3393 67.3143 49.5082 67.4858 49.8447 67.4858H51.9208C52.2638 67.4858 52.4353 67.3143 52.4353 66.9713V63.433C52.4353 63.09 52.2638 62.9185 51.9208 62.9185H49.8447C49.5082 62.9185 49.3393 63.09 49.3393 63.433V66.9713ZM54.7563 66.89V63.5142C54.7563 62.5632 55.2289 62.088 56.1735 62.088H58.6828L59.1431 62.4491V62.9185H56.1825C55.8459 62.9185 55.677 63.09 55.677 63.433V66.9713C55.677 67.3143 55.8459 67.4858 56.1825 67.4858H59.1431V67.9551L58.6828 68.3162H56.1735C55.2289 68.3162 54.7563 67.841 54.7563 66.89ZM59.8136 62.9185V62.088H64.7781V62.9185H62.7562V68.3162H61.8355V62.9185H59.8136ZM65.163 62.2776L65.2804 62.088H66.0657L67.6543 65.0848L69.2519 62.088H70.0372L70.1456 62.2776L68.1146 66.0416V68.3162H67.1939V66.0416L65.163 62.2776ZM71.1191 68.3162V62.088H74.0888C75.0391 62.088 75.5149 62.5632 75.5149 63.5142V64.6966C75.5149 65.6412 75.0391 66.1138 74.0888 66.1138H72.0398V68.3162H71.1191ZM72.0398 65.2834H74.0797C74.4227 65.2834 74.5942 65.1119 74.5942 64.7689V63.433C74.5942 63.09 74.4227 62.9185 74.0797 62.9185H72.0398V65.2834ZM76.8218 68.3162V62.088H80.9378V62.9185H77.7425V64.6515H80.667V65.4819H77.7425V67.4858H80.9378V68.3162H76.8218ZM84.2595 68.3162V61.6367H85.135V63.6045H86.8139C87.7404 63.6045 88.204 64.0648 88.204 64.9855V68.3162H87.3194V64.8952C87.3194 64.5464 87.1447 64.3717 86.7959 64.3717H85.135V68.3162H84.2595ZM89.5302 66.9261V62.088H90.4058V63.6045H92.0756V64.3717H90.4058V67.0164C90.4058 67.3716 90.5831 67.549 90.9383 67.549H92.1659V68.0093L91.7507 68.3162H90.9112C89.9905 68.3162 89.5302 67.8526 89.5302 66.9261ZM93.1975 68.3162V63.6045H98.5501C99.4772 63.6045 99.9401 64.0648 99.9401 64.9855V68.3162H99.0555V64.8952C99.0555 64.5464 98.8815 64.3717 98.532 64.3717H97.0066V68.3162H96.122V64.3717H94.073V68.3162H93.1975ZM101.272 66.8991V61.6367H102.147V66.9893C102.147 67.3865 102.351 67.5999 102.761 67.6302V68.3974C101.768 68.3974 101.272 67.8978 101.272 66.8991ZM103.64 66.8359L106.934 65.2924L103.64 63.7489L103.965 63.0719L107.729 64.8681V65.7166L103.965 67.5128L103.64 66.8359ZM34.5322 95.3745V94.526L38.2962 92.7298L38.6211 93.4068L35.3265 94.9503L38.6211 96.4938L38.2962 97.1707L34.5322 95.3745ZM39.85 97.9741V96.8909H40.888V97.9741H39.85ZM39.9132 96.0425V91.7459H40.8339V96.0425H39.9132ZM41.9228 95.6002V94.842H44.5044V95.6002H41.9228ZM45.2284 95.6002V94.842H47.8099V95.6002H45.2284ZM51.1355 97.9741V91.7459H54.0149C54.9659 91.7459 55.441 92.2211 55.441 93.1721V93.7678C55.441 93.9722 55.3811 94.1469 55.2605 94.2913L54.9446 94.6705L55.3237 94.9864C55.5223 95.1488 55.6216 95.3893 55.6216 95.7085V96.5479C55.6216 97.4989 55.1464 97.9741 54.1954 97.9741H51.1355ZM52.0562 97.1437H54.1864C54.5294 97.1437 54.7009 96.9722 54.7009 96.6292V95.6543C54.7009 95.3113 54.5294 95.1398 54.1864 95.1398H52.0562V97.1437ZM52.0562 94.3094H54.0059C54.3489 94.3094 54.5204 94.1379 54.5204 93.7949V93.0908C54.5204 92.7478 54.3489 92.5764 54.0059 92.5764H52.0562V94.3094ZM56.971 97.9741V91.7459H61.087V92.5764H57.8917V94.3094H60.8162V95.1398H57.8917V97.1437H61.087V97.9741H56.971ZM62.2404 96.5479V93.1721C62.2404 92.2211 62.7124 91.7459 63.6576 91.7459H66.3474L66.8168 92.107V92.5764H63.6666C63.3294 92.5764 63.1611 92.7478 63.1611 93.0908V96.6292C63.1611 96.9722 63.3294 97.1437 63.6666 97.1437H66.0766V95.1398H64.6414V94.3094H66.9973V97.9741H63.6576C62.7124 97.9741 62.2404 97.4989 62.2404 96.5479ZM68.3951 97.9741V91.7459H69.3158V97.9741H68.3951ZM70.8986 97.9741V91.7459H71.9095L74.9424 96.5118V91.7459H75.8631V97.9741H74.8521L71.8193 93.2082V97.9741H70.8986ZM79.6077 97.9741V91.7459H80.5284V94.3094H83.4439V91.7459H84.3646V97.9741H83.4439V95.1398H80.5284V97.9741H79.6077ZM85.9455 97.9741V91.7459H90.0615V92.5764H86.8662V94.3094H89.7907V95.1398H86.8662V97.1437H90.0615V97.9741H85.9455ZM90.6817 97.7845L92.6675 91.7459H94.1388L96.1156 97.7845L95.9982 97.9741H95.231L94.7616 96.4938H92.0447L91.5753 97.9741H90.8081L90.6817 97.7845ZM92.3064 95.6633H94.4998L93.4979 92.5764H93.3084L92.3064 95.6633ZM97.0872 97.9741V91.7459H99.4972C101.062 91.7459 101.844 92.528 101.844 94.0928V95.6272C101.844 97.192 101.062 97.9741 99.4972 97.9741H97.0872ZM98.0079 97.1437H99.5514C100.466 97.1437 100.923 96.6865 100.923 95.7717V93.9483C100.923 93.0335 100.466 92.5764 99.5514 92.5764H98.0079V97.1437ZM104.975 95.6002V94.842H107.556V95.6002H104.975ZM108.28 95.6002V94.842H110.862V95.6002H108.28ZM111.776 96.4938L115.07 94.9503L111.776 93.4068L112.101 92.7298L115.864 94.526V95.3745L112.101 97.1707L111.776 96.4938ZM36.7011 207.559V206.71L40.4651 204.914L40.79 205.591L37.4954 207.134L40.79 208.678L40.4651 209.355L36.7011 207.559ZM42.0183 210.158V209.075H43.0563V210.158H42.0183ZM42.0814 208.227V203.93H43.0021V208.227H42.0814ZM44.0917 207.784V207.026H46.6733V207.784H44.0917ZM47.3973 207.784V207.026H49.9788V207.784H47.3973ZM53.3044 210.158V203.93H57.4204V204.761H54.2251V206.494H57.1496V207.324H54.2251V209.328H57.4204V210.158H53.3044ZM58.6634 210.158V203.93H59.6744L62.7072 208.696V203.93H63.6279V210.158H62.617L59.5841 205.392V210.158H58.6634ZM65.2043 210.158V203.93H67.6143C69.1784 203.93 69.9612 204.712 69.9612 206.277V207.811C69.9612 209.376 69.1784 210.158 67.6143 210.158H65.2043ZM66.125 209.328H67.6685C68.5827 209.328 69.0405 208.871 69.0405 207.956V206.133C69.0405 205.218 68.5827 204.761 67.6685 204.761H66.125V209.328ZM73.5253 210.158V203.93H74.4459V206.494H77.3615V203.93H78.2821V210.158H77.3615V207.324H74.4459V210.158H73.5253ZM79.863 210.158V203.93H83.979V204.761H80.7837V206.494H83.7082V207.324H80.7837V209.328H83.979V210.158H79.863ZM84.5999 209.969L86.5857 203.93H88.057L90.0338 209.969L89.9164 210.158H89.1492L88.6798 208.678H85.9629L85.4935 210.158H84.7263L84.5999 209.969ZM86.2246 207.848H88.418L87.4161 204.761H87.2266L86.2246 207.848ZM91.0047 210.158V203.93H93.4148C94.9795 203.93 95.7616 204.712 95.7616 206.277V207.811C95.7616 209.376 94.9795 210.158 93.4148 210.158H91.0047ZM91.9254 209.328H93.4689C94.3838 209.328 94.8409 208.871 94.8409 207.956V206.133C94.8409 205.218 94.3838 204.761 93.4689 204.761H91.9254V209.328ZM98.8931 207.784V207.026H101.475V207.784H98.8931ZM102.199 207.784V207.026H104.78V207.784H102.199ZM105.694 208.678L108.988 207.134L105.694 205.591L106.019 204.914L109.783 206.71V207.559L106.019 209.355L105.694 208.678Z" fill="#898A8D"/>
<path d="M34.5322 80.5447V79.6963L38.2962 77.9L38.6211 78.577L35.3265 80.1205L38.6211 81.664L38.2962 82.341L34.5322 80.5447ZM79.3995 81.4925V80.7343H83.4794V81.4925H79.3995ZM79.3995 79.5067V78.7485H83.4794V79.5067H79.3995ZM84.6631 78.7756V76.4648H85.4664V78.7756H84.6631ZM86.342 78.7756V76.4648H87.1453V78.7756H86.342ZM98.8725 78.7756V76.4648H99.6758V78.7756H98.8725ZM100.551 78.7756V76.4648H101.355V78.7756H100.551ZM125.739 81.4925V80.7343H129.819V81.4925H125.739ZM125.739 79.5067V78.7485H129.819V79.5067H125.739ZM131.002 78.7756V76.4648H131.806V78.7756H131.002ZM132.681 78.7756V76.4648H133.484V78.7756H132.681ZM155.419 78.7756V76.4648H156.222V78.7756H155.419ZM157.098 78.7756V76.4648H157.901V78.7756H157.098ZM159.058 81.664L162.353 80.1205L159.058 78.577L159.383 77.9L163.147 79.6963V80.5447L159.383 82.341L159.058 81.664ZM43.2065 110.203V109.354L46.9705 107.558L47.2954 108.235L44.0008 109.778L47.2954 111.322L46.9705 111.999L43.2065 110.203ZM69.0856 111.322L72.3802 109.778L69.0856 108.235L69.4106 107.558L73.1745 109.354V110.203L69.4106 111.999L69.0856 111.322ZM51.8802 125.032V124.183L55.6441 122.387L55.9691 123.064L52.6745 124.607L55.9691 126.151L55.6441 126.828L51.8802 125.032ZM74.3041 126.151L77.5987 124.607L74.3041 123.064L74.6291 122.387L78.393 124.183V125.032L74.6291 126.828L74.3041 126.151ZM79.1435 121.593L79.2608 121.403H80.0461L81.6348 124.4L83.2324 121.403H84.0177L84.126 121.593L82.0951 125.357V127.631H81.1744V125.357L79.1435 121.593ZM85.0087 126.205V122.829C85.0087 121.878 85.4813 121.403 86.4258 121.403H88.5199C89.4709 121.403 89.9461 121.878 89.9461 122.829V126.205C89.9461 127.156 89.4709 127.631 88.5199 127.631H86.4258C85.4813 127.631 85.0087 127.156 85.0087 126.205ZM85.9294 126.286C85.9294 126.629 86.0983 126.801 86.4348 126.801H88.5109C88.8539 126.801 89.0254 126.629 89.0254 126.286V122.748C89.0254 122.405 88.8539 122.233 88.5109 122.233H86.4348C86.0983 122.233 85.9294 122.405 85.9294 122.748V126.286ZM91.3825 126.205V121.403H92.3032V126.286C92.3032 126.629 92.4721 126.801 92.8087 126.801H94.7042C95.0472 126.801 95.2187 126.629 95.2187 126.286V121.403H96.1394V126.205C96.1394 127.156 95.6642 127.631 94.7132 127.631H92.7997C91.8551 127.631 91.3825 127.156 91.3825 126.205ZM97.6687 127.631V121.403H100.638C101.589 121.403 102.065 121.878 102.065 122.829V123.831C102.065 124.602 101.746 125.059 101.108 125.203L102.245 127.424L102.128 127.631H101.342L100.133 125.248H98.5894V127.631H97.6687ZM98.5894 124.418H100.629C100.972 124.418 101.144 124.246 101.144 123.903V122.748C101.144 122.405 100.972 122.233 100.629 122.233H98.5894V124.418ZM103.027 128.678H107.54V129.436H103.027V128.678ZM108.696 127.631V121.403H111.576C112.526 121.403 113.002 121.878 113.002 122.829V123.425C113.002 123.629 112.941 123.804 112.821 123.948L112.505 124.328L112.885 124.643C113.083 124.806 113.182 125.046 113.182 125.366V126.205C113.182 127.156 112.707 127.631 111.756 127.631H108.696ZM109.617 126.801H111.747C112.09 126.801 112.262 126.629 112.262 126.286V125.311C112.262 124.968 112.09 124.797 111.747 124.797H109.617V126.801ZM109.617 123.966H111.567C111.91 123.966 112.081 123.795 112.081 123.452V122.748C112.081 122.405 111.91 122.233 111.567 122.233H109.617V123.966ZM114.532 127.631V121.403H115.452V126.801H118.377V127.631H114.532ZM119.298 126.205V122.829C119.298 121.878 119.77 121.403 120.715 121.403H122.81C123.76 121.403 124.236 121.878 124.236 122.829V126.205C124.236 127.156 123.76 127.631 122.81 127.631H120.715C119.77 127.631 119.298 127.156 119.298 126.205ZM120.219 126.286C120.219 126.629 120.387 126.801 120.725 126.801H122.801C123.144 126.801 123.315 126.629 123.315 126.286V122.748C123.315 122.405 123.144 122.233 122.801 122.233H120.725C120.387 122.233 120.219 122.405 120.219 122.748V126.286ZM125.636 126.205V122.829C125.636 121.878 126.109 121.403 127.053 121.403H129.743L130.212 121.764V122.233H127.062C126.725 122.233 126.557 122.405 126.557 122.748V126.286C126.557 126.629 126.725 126.801 127.062 126.801H129.472V124.797H128.037V123.966H130.393V127.631H127.053C126.109 127.631 125.636 127.156 125.636 126.205ZM131.574 125.032V124.183L135.338 122.387L135.663 123.064L132.368 124.607L135.663 126.151L135.338 126.828L131.574 125.032ZM157.648 126.151L160.943 124.607L157.648 123.064L157.973 122.387L161.737 124.183V125.032L157.973 126.828L157.648 126.151ZM51.8802 139.861V139.012L55.6441 137.216L55.9691 137.893L52.6745 139.436L55.9691 140.98L55.6441 141.657L51.8802 139.861ZM114.059 140.808V140.05H118.139V140.808H114.059ZM114.059 138.823V138.064H118.139V138.823H114.059ZM119.323 138.091V135.781H120.126V138.091H119.323ZM121.002 138.091V135.781H121.805V138.091H121.002ZM265.374 138.091V135.781H266.178V138.091H265.374ZM267.053 138.091V135.781H267.857V138.091H267.053ZM58.0503 152.414V151.655H62.1302V152.414H58.0503ZM58.0503 150.428V149.67H62.1302V150.428H58.0503ZM63.3133 149.697V147.386H64.1166V149.697H63.3133ZM64.9922 149.697V147.386H65.7955V149.697H64.9922ZM104.126 149.697V147.386H104.929V149.697H104.126ZM105.805 149.697V147.386H106.608V149.697H105.805ZM106.945 154.264L109.482 147.368L110.231 147.639L107.694 154.535L106.945 154.264ZM110.964 152.585L114.259 151.042L110.964 149.498L111.289 148.821L115.053 150.617V151.466L111.289 153.262L110.964 152.585ZM51.8802 166.295V165.446L55.6441 163.65L55.9691 164.327L52.6745 165.87L55.9691 167.414L55.6441 168.091L51.8802 166.295ZM117.462 167.242V166.484H121.541V167.242H117.462ZM117.462 165.257V164.499H121.541V165.257H117.462ZM122.725 164.526V162.215H123.528V164.526H122.725ZM124.404 164.526V162.215H125.207V164.526H124.404ZM165.115 164.526V162.215H165.919V164.526H165.115ZM166.794 164.526V162.215H167.598V164.526H166.794ZM203.89 167.242V166.484H207.97V167.242H203.89ZM203.89 165.257V164.499H207.97V165.257H203.89ZM209.154 164.526V162.215H209.957V164.526H209.154ZM210.833 164.526V162.215H211.636V164.526H210.833ZM91.133 176.131V173.82H91.9364V176.131H91.133ZM92.8119 176.131V173.82H93.6153V176.131H92.8119ZM96.5701 180.698L99.1065 173.802L99.8557 174.073L97.3193 180.969L96.5701 180.698ZM100.59 179.019L103.885 177.476L100.59 175.932L100.915 175.255L104.679 177.052V177.9L100.915 179.696L100.59 179.019ZM43.2065 192.729V191.88L46.9705 190.084L47.2954 190.761L44.0008 192.305L47.2954 193.848L46.9705 194.525L43.2065 192.729ZM72.7348 193.848L76.0294 192.305L72.7348 190.761L73.0598 190.084L76.8237 191.88V192.729L73.0598 194.525L72.7348 193.848Z" fill="black"/>
<path d="M39.8772 83.1443V76.4648H40.7528V78.4326H42.4316C43.3588 78.4326 43.8217 78.8929 43.8217 79.8136V83.1443H42.9371V79.7233C42.9371 79.3745 42.763 79.1998 42.4136 79.1998H40.7528V83.1443H39.8772ZM45.1479 81.7543V76.9162H46.0235V78.4326H47.6933V79.1998H46.0235V81.8445C46.0235 82.1998 46.2008 82.3771 46.556 82.3771H47.7836V82.8374L47.3684 83.1443H46.5289C45.6083 83.1443 45.1479 82.6807 45.1479 81.7543ZM48.8152 83.1443V78.4326H54.1678C55.0949 78.4326 55.5578 78.8929 55.5578 79.8136V83.1443H54.6733V79.7233C54.6733 79.3745 54.4992 79.1998 54.1497 79.1998H52.6243V83.1443H51.7397V79.1998H49.6907V83.1443H48.8152ZM56.8892 81.7272V76.4648H57.7648V81.8175C57.7648 82.2146 57.9692 82.428 58.3786 82.4583V83.2256C57.3857 83.2256 56.8892 82.7259 56.8892 81.7272ZM48.5508 112.802V106.123H49.4264V108.09H51.1053C52.0324 108.09 52.4953 108.551 52.4953 109.472V112.802H51.6108V109.381C51.6108 109.032 51.4367 108.858 51.0872 108.858H49.4264V112.802H48.5508ZM53.7855 111.412V109.472C53.7855 108.551 54.2458 108.09 55.1665 108.09H56.3399C57.2664 108.09 57.73 108.551 57.73 109.472V110.807H54.661V111.502C54.661 111.858 54.8383 112.035 55.1936 112.035H57.5494V112.495L57.1342 112.802H55.1665C54.2458 112.802 53.7855 112.339 53.7855 111.412ZM54.661 110.067H56.8454V109.381C56.8454 109.032 56.6707 108.858 56.3219 108.858H55.1936C54.8383 108.858 54.661 109.032 54.661 109.381V110.067ZM60.1954 112.802C59.269 112.802 58.8054 112.339 58.8054 111.412C58.8054 110.486 59.269 110.022 60.1954 110.022H61.7209V109.381C61.7209 109.032 61.5468 108.858 61.1974 108.858H59.2657V108.397L59.6809 108.09H61.2154C62.1425 108.09 62.6055 108.551 62.6055 109.472V112.802H60.1954ZM59.6809 111.502C59.6809 111.858 59.8589 112.035 60.2135 112.035H61.7209V110.762H60.2135C59.8589 110.762 59.6809 110.937 59.6809 111.286V111.502ZM63.8956 111.412V109.472C63.8956 108.551 64.3559 108.09 65.2766 108.09H66.9555V106.123H67.8401V112.802H65.2766C64.3559 112.802 63.8956 112.339 63.8956 111.412ZM64.7711 111.502C64.7711 111.858 64.9491 112.035 65.3037 112.035H66.9555V108.858H65.3037C64.9491 108.858 64.7711 109.032 64.7711 109.381V111.502ZM57.1884 126.241V121.403H58.0639V122.919H59.7338V123.687H58.0639V126.331C58.0639 126.687 58.2419 126.864 58.5965 126.864H59.8241V127.324L59.4089 127.631H58.5694C57.6487 127.631 57.1884 127.168 57.1884 126.241ZM60.8382 122.089V121.141H61.7499V122.089H60.8382ZM60.8563 127.631V122.919H61.7318V127.631H60.8563ZM63.1032 126.241V121.403H63.9788V122.919H65.6486V123.687H63.9788V126.331C63.9788 126.687 64.1567 126.864 64.5113 126.864H65.7389V127.324L65.3237 127.631H64.4842C63.5635 127.631 63.1032 127.168 63.1032 126.241ZM66.735 126.214V120.952H67.6106V126.304C67.6106 126.701 67.8149 126.915 68.2243 126.945V127.712C67.2315 127.712 66.735 127.213 66.735 126.214ZM69.185 126.241V124.3C69.185 123.38 69.6453 122.919 70.566 122.919H71.7395C72.6659 122.919 73.1295 123.38 73.1295 124.3V125.636H70.0606V126.331C70.0606 126.687 70.2379 126.864 70.5931 126.864H72.949V127.324L72.5338 127.631H70.566C69.6453 127.631 69.185 127.168 69.185 126.241ZM70.0606 124.896H72.2449V124.21C72.2449 123.861 72.0702 123.687 71.7214 123.687H70.5931C70.2379 123.687 70.0606 123.861 70.0606 124.21V124.896ZM136.396 127.83L138.932 120.934L139.681 121.204L137.145 128.101L136.396 127.83ZM140.532 126.241V121.403H141.408V122.919H143.078V123.687H141.408V126.331C141.408 126.687 141.585 126.864 141.94 126.864H143.168V127.324L142.753 127.631H141.913C140.993 127.631 140.532 127.168 140.532 126.241ZM144.182 122.089V121.141H145.094V122.089H144.182ZM144.2 127.631V122.919H145.076V127.631H144.2ZM146.447 126.241V121.403H147.323V122.919H148.992V123.687H147.323V126.331C147.323 126.687 147.5 126.864 147.855 126.864H149.083V127.324L148.668 127.631H147.828C146.907 127.631 146.447 127.168 146.447 126.241ZM150.079 126.214V120.952H150.954V126.304C150.954 126.701 151.159 126.915 151.568 126.945V127.712C150.575 127.712 150.079 127.213 150.079 126.214ZM152.528 126.241V124.3C152.528 123.38 152.989 122.919 153.909 122.919H155.083C156.009 122.919 156.473 123.38 156.473 124.3V125.636H153.404V126.331C153.404 126.687 153.581 126.864 153.936 126.864H156.292V127.324L155.877 127.631H153.909C152.989 127.631 152.528 127.168 152.528 126.241ZM153.404 124.896H155.588V124.21C155.588 123.861 155.413 123.687 155.065 123.687H153.936C153.581 123.687 153.404 123.861 153.404 124.21V124.896ZM57.2245 142.46V137.748H62.5771C63.5042 137.748 63.9671 138.209 63.9671 139.129V142.46H63.0826V139.039C63.0826 138.69 62.9085 138.516 62.559 138.516H61.0336V142.46H60.149V138.516H58.1V142.46H57.2245ZM65.2624 141.07V139.129C65.2624 138.209 65.7228 137.748 66.6434 137.748H67.8169C68.7434 137.748 69.2069 138.209 69.2069 139.129V140.465H66.138V141.16C66.138 141.516 66.3153 141.693 66.6705 141.693H69.0264V142.153L68.6112 142.46H66.6434C65.7228 142.46 65.2624 141.997 65.2624 141.07ZM66.138 139.725H68.3223V139.039C68.3223 138.69 68.1476 138.516 67.7988 138.516H66.6705C66.3153 138.516 66.138 138.69 66.138 139.039V139.725ZM70.499 141.07V136.232H71.3745V137.748H73.0444V138.516H71.3745V141.16C71.3745 141.516 71.5518 141.693 71.9071 141.693H73.1347V142.153L72.7195 142.46H71.88C70.9593 142.46 70.499 141.997 70.499 141.07ZM75.3042 142.46C74.3771 142.46 73.9142 141.997 73.9142 141.07C73.9142 140.144 74.3771 139.68 75.3042 139.68H76.8297V139.039C76.8297 138.69 76.6549 138.516 76.3061 138.516H74.3745V138.055L74.7897 137.748H76.3242C77.2507 137.748 77.7142 138.209 77.7142 139.129V142.46H75.3042ZM74.7897 141.16C74.7897 141.516 74.967 141.693 75.3222 141.693H76.8297V140.42H75.3222C74.967 140.42 74.7897 140.595 74.7897 140.944V141.16ZM57.2245 168.894V164.183H62.5771C63.5042 164.183 63.9671 164.643 63.9671 165.564V168.894H63.0826V165.473C63.0826 165.125 62.9085 164.95 62.559 164.95H61.0336V168.894H60.149V164.95H58.1V168.894H57.2245ZM65.2624 167.504V165.564C65.2624 164.643 65.7228 164.183 66.6434 164.183H67.8169C68.7434 164.183 69.2069 164.643 69.2069 165.564V166.9H66.138V167.595C66.138 167.95 66.3153 168.127 66.6705 168.127H69.0264V168.587L68.6112 168.894H66.6434C65.7228 168.894 65.2624 168.431 65.2624 167.504ZM66.138 166.159H68.3223V165.473C68.3223 165.125 68.1476 164.95 67.7988 164.95H66.6705C66.3153 164.95 66.138 165.125 66.138 165.473V166.159ZM70.499 167.504V162.666H71.3745V164.183H73.0444V164.95H71.3745V167.595C71.3745 167.95 71.5518 168.127 71.9071 168.127H73.1347V168.587L72.7195 168.894H71.88C70.9593 168.894 70.499 168.431 70.499 167.504ZM75.3042 168.894C74.3771 168.894 73.9142 168.431 73.9142 167.504C73.9142 166.578 74.3771 166.114 75.3042 166.114H76.8297V165.473C76.8297 165.125 76.6549 164.95 76.3061 164.95H74.3745V164.489L74.7897 164.183H76.3242C77.2507 164.183 77.7142 164.643 77.7142 165.564V168.894H75.3042ZM74.7897 167.595C74.7897 167.95 74.967 168.127 75.3222 168.127H76.8297V166.854H75.3222C74.967 166.854 74.7897 167.029 74.7897 167.378V167.595ZM52.2001 195.329V188.649H53.0756V190.617H54.7545C55.6816 190.617 56.1446 191.077 56.1446 191.998V195.329H55.26V191.908C55.26 191.559 55.0859 191.384 54.7364 191.384H53.0756V195.329H52.2001ZM57.4347 193.938V191.998C57.4347 191.077 57.895 190.617 58.8157 190.617H59.9891C60.9156 190.617 61.3792 191.077 61.3792 191.998V193.334H58.3102V194.029C58.3102 194.384 58.4875 194.561 58.8428 194.561H61.1986V195.022L60.7834 195.329H58.8157C57.895 195.329 57.4347 194.865 57.4347 193.938ZM58.3102 192.594H60.4946V191.908C60.4946 191.559 60.3199 191.384 59.9711 191.384H58.8428C58.4875 191.384 58.3102 191.559 58.3102 191.908V192.594ZM63.8446 195.329C62.9182 195.329 62.4546 194.865 62.4546 193.938C62.4546 193.012 62.9182 192.548 63.8446 192.548H65.3701V191.908C65.3701 191.559 65.196 191.384 64.8466 191.384H62.9149V190.924L63.3301 190.617H64.8646C65.7917 190.617 66.2547 191.077 66.2547 191.998V195.329H63.8446ZM63.3301 194.029C63.3301 194.384 63.5081 194.561 63.8627 194.561H65.3701V193.289H63.8627C63.5081 193.289 63.3301 193.463 63.3301 193.812V194.029ZM67.5454 193.938V191.998C67.5454 191.077 68.0058 190.617 68.9265 190.617H70.6054V188.649H71.4899V195.329H68.9265C68.0058 195.329 67.5454 194.865 67.5454 193.938ZM68.421 194.029C68.421 194.384 68.5983 194.561 68.9535 194.561H70.6054V191.384H68.9535C68.5983 191.384 68.421 191.559 68.421 191.908V194.029Z" fill="#5F23EB"/>
<path d="M48.0273 195.527L50.5637 188.631L51.3129 188.902L48.7765 195.798L48.0273 195.527Z" fill="#7854F7"/>
<path d="M61.543 81.7272V76.4648H62.4185V81.8175C62.4185 82.2146 62.6235 82.428 63.0323 82.4583V83.2256C62.0394 83.2256 61.543 82.7259 61.543 81.7272ZM65.2025 83.1443C64.276 83.1443 63.8124 82.6807 63.8124 81.7543C63.8124 80.8278 64.276 80.3642 65.2025 80.3642H66.7279V79.7233C66.7279 79.3745 66.5532 79.1998 66.2044 79.1998H64.2728V78.7395L64.688 78.4326H66.2225C67.149 78.4326 67.6125 78.8929 67.6125 79.8136V83.1443H65.2025ZM64.688 81.8445C64.688 82.1998 64.8653 82.3771 65.2205 82.3771H66.7279V81.1044H65.2205C64.8653 81.1044 64.688 81.2791 64.688 81.6279V81.8445ZM68.9748 83.1443V78.4326H71.5293C72.4558 78.4326 72.9194 78.8929 72.9194 79.8136V83.1443H72.0348V79.7233C72.0348 79.3745 71.86 79.1998 71.5112 79.1998H69.8504V83.1443H68.9748ZM74.1914 81.7543V79.8136C74.1914 78.8929 74.6543 78.4326 75.5815 78.4326H78.1449V83.5595C78.1449 84.486 77.6814 84.9496 76.7549 84.9496H74.9857L74.5705 84.6427V84.1823H76.7368C77.0856 84.1823 77.2604 84.005 77.2604 83.6498V83.1443H75.5815C74.6543 83.1443 74.1914 82.6807 74.1914 81.7543ZM75.076 81.8445C75.076 82.1998 75.2501 82.3771 75.5995 82.3771H77.2604V79.1998H75.5995C75.2501 79.1998 75.076 79.3745 75.076 79.7233V81.8445Z" fill="#A26112"/>
<path d="M88.3834 81.7542V79.8135C88.3834 78.8928 88.8438 78.4325 89.7644 78.4325H90.9379C91.8643 78.4325 92.3279 78.8928 92.3279 79.8135V81.1494H89.259V81.8444C89.259 82.1997 89.4363 82.377 89.7915 82.377H92.1474V82.8373L91.7322 83.1442H89.7644C88.8438 83.1442 88.3834 82.6806 88.3834 81.7542ZM89.259 80.4092H91.4433V79.7232C91.4433 79.3744 91.2686 79.1997 90.9198 79.1997H89.7915C89.4363 79.1997 89.259 79.3744 89.259 79.7232V80.4092ZM93.6561 83.1442V78.4325H96.2105C97.1376 78.4325 97.6006 78.8928 97.6006 79.8135V83.1442H96.716V79.7232C96.716 79.3744 96.5419 79.1997 96.1925 79.1997H94.5316V83.1442H93.6561ZM134.795 83.1442V78.4325H137.349C138.276 78.4325 138.739 78.8928 138.739 79.8135V83.1442H137.855V79.7232C137.855 79.3744 137.68 79.1997 137.331 79.1997H135.67V83.1442H134.795ZM140.029 81.7542V79.8135C140.029 78.8928 140.489 78.4325 141.41 78.4325H142.673C143.601 78.4325 144.064 78.8928 144.064 79.8135V81.7542C144.064 82.6806 143.601 83.1442 142.673 83.1442H141.41C140.489 83.1442 140.029 82.6806 140.029 81.7542ZM140.904 81.8444C140.904 82.1997 141.082 82.377 141.437 82.377H142.655C143.005 82.377 143.179 82.1997 143.179 81.8444V79.7232C143.179 79.3744 143.005 79.1997 142.655 79.1997H141.437C141.082 79.1997 140.904 79.3744 140.904 79.7232V81.8444ZM145.047 80.7703V80.0121H147.629V80.7703H145.047ZM147.911 84.2635C148.434 84.2396 148.696 83.9746 148.696 83.4692V78.4325H149.572V83.3699C149.572 84.4769 149.018 85.0307 147.911 85.0307V84.2635ZM148.678 77.6021V76.6543H149.59V77.6021H148.678ZM150.798 82.8373V82.377H152.874C153.229 82.377 153.407 82.1965 153.407 81.8354C153.407 81.4685 153.254 81.2577 152.947 81.2036L151.9 81.0321C151.165 80.9115 150.798 80.5027 150.798 79.8045C150.798 78.8896 151.261 78.4325 152.188 78.4325H153.651L154.066 78.7394V79.1997H152.207C151.851 79.1997 151.674 79.3802 151.674 79.7413C151.674 80.0662 151.827 80.2526 152.134 80.3009L153.19 80.4814C153.918 80.602 154.283 81.0321 154.283 81.7722C154.283 82.6871 153.822 83.1442 152.902 83.1442H151.214L150.798 82.8373ZM123.079 141.043V135.781H123.955V141.133C123.955 141.53 124.159 141.744 124.569 141.774V142.541C123.576 142.541 123.079 142.042 123.079 141.043ZM125.601 142.46V137.748H128.155C129.082 137.748 129.545 138.209 129.545 139.129V142.46H128.661V139.039C128.661 138.69 128.487 138.515 128.137 138.515H126.476V142.46H125.601ZM130.872 141.07V137.748H131.747V141.16C131.747 141.515 131.924 141.693 132.28 141.693H133.931V137.748H134.816V142.46H132.253C131.332 142.46 130.872 141.996 130.872 141.07ZM136.178 142.46V138.308C136.389 137.935 136.788 137.748 137.378 137.748H138.308L138.723 138.055V138.515H137.469C137.276 138.515 137.138 138.564 137.053 138.66V142.46H136.178ZM139.625 141.043V135.781H140.5V141.133C140.5 141.53 140.704 141.744 141.114 141.774V142.541C140.121 142.541 139.625 142.042 139.625 141.043ZM142.146 144.265V137.748H144.701C145.628 137.748 146.091 138.209 146.091 139.129V141.07C146.091 141.996 145.628 142.46 144.701 142.46H143.022V144.265H142.146ZM143.022 141.693H144.682C145.032 141.693 145.206 141.515 145.206 141.16V139.039C145.206 138.69 145.032 138.515 144.682 138.515H143.022V141.693ZM147.39 142.46V141.377H148.428V142.46H147.39ZM147.39 138.831V137.748H148.428V138.831H147.39ZM149.274 137.893L149.373 137.748H150.131L151.422 141.693H151.575L152.866 137.748H153.624L153.715 137.893L151.575 144.265H150.817L150.727 144.121L151.314 142.46H150.817L149.274 137.893ZM154.53 141.07V139.129C154.53 138.209 154.99 137.748 155.911 137.748H157.174C158.101 137.748 158.564 138.209 158.564 139.129V141.07C158.564 141.996 158.101 142.46 157.174 142.46H155.911C154.99 142.46 154.53 141.996 154.53 141.07ZM155.405 141.16C155.405 141.515 155.582 141.693 155.938 141.693H157.156C157.505 141.693 157.68 141.515 157.68 141.16V139.039C157.68 138.69 157.505 138.515 157.156 138.515H155.938C155.582 138.515 155.405 138.69 155.405 139.039V141.16ZM159.854 141.07V137.748H160.73V141.16C160.73 141.515 160.907 141.693 161.263 141.693H162.914V137.748H163.799V142.46H161.235C160.315 142.46 159.854 141.996 159.854 141.07ZM165.287 142.37V137.586C165.287 136.683 165.736 136.232 166.632 136.232H170.946V141.918H168.654C167.733 141.918 167.273 141.455 167.273 140.528V139.427C167.273 138.501 167.733 138.037 168.654 138.037H170.143V136.927H166.641C166.274 136.927 166.09 137.113 166.09 137.487V142.469C166.09 142.842 166.274 143.029 166.641 143.029H170.766V143.417L170.351 143.724H166.632C165.736 143.724 165.287 143.272 165.287 142.37ZM168.148 140.619C168.148 140.974 168.326 141.151 168.681 141.151H170.062V138.804H168.681C168.326 138.804 168.148 138.982 168.148 139.337V140.619ZM172.398 141.043V135.781H173.273V141.133C173.273 141.53 173.478 141.744 173.887 141.774V142.541C172.894 142.541 172.398 142.042 172.398 141.043ZM174.901 136.918V135.97H175.813V136.918H174.901ZM174.919 142.46V137.748H175.795V142.46H174.919ZM177.112 141.07V139.129C177.112 138.209 177.576 137.748 178.502 137.748H181.066V142.875C181.066 143.802 180.603 144.265 179.676 144.265H177.906L177.491 143.958V143.498H179.658C180.007 143.498 180.181 143.321 180.181 142.965V142.46H178.502C177.576 142.46 177.112 141.996 177.112 141.07ZM177.997 141.16C177.997 141.515 178.171 141.693 178.52 141.693H180.181V138.515H178.52C178.171 138.515 177.997 138.69 177.997 139.039V141.16ZM182.456 142.46V135.781H183.332V137.748H185.011C185.937 137.748 186.401 138.209 186.401 139.129V142.46H185.516V139.039C185.516 138.69 185.342 138.515 184.993 138.515H183.332V142.46H182.456ZM187.726 141.07V136.232H188.602V137.748H190.272V138.515H188.602V141.16C188.602 141.515 188.78 141.693 189.134 141.693H190.362V142.153L189.947 142.46H189.107C188.187 142.46 187.726 141.996 187.726 141.07ZM191.394 142.46V137.748H193.949C194.875 137.748 195.339 138.209 195.339 139.129V142.46H194.454V139.039C194.454 138.69 194.28 138.515 193.931 138.515H192.27V142.46H191.394ZM196.683 136.918V135.97H197.595V136.918H196.683ZM196.701 142.46V137.748H197.577V142.46H196.701ZM198.984 142.46V137.748H201.539C202.465 137.748 202.929 138.209 202.929 139.129V142.46H202.044V139.039C202.044 138.69 201.869 138.515 201.521 138.515H199.86V142.46H198.984ZM204.2 141.07V139.129C204.2 138.209 204.664 137.748 205.59 137.748H208.154V142.875C208.154 143.802 207.69 144.265 206.764 144.265H204.994L204.579 143.958V143.498H206.745C207.094 143.498 207.269 143.321 207.269 142.965V142.46H205.59C204.664 142.46 204.2 141.996 204.2 141.07ZM205.085 141.16C205.085 141.515 205.259 141.693 205.608 141.693H207.269V138.515H205.608C205.259 138.515 205.085 138.69 205.085 139.039V141.16ZM209.517 142.46V141.377H210.555V142.46H209.517ZM213.07 142.46C212.143 142.46 211.68 141.996 211.68 141.07C211.68 140.143 212.143 139.68 213.07 139.68H214.596V139.039C214.596 138.69 214.421 138.515 214.072 138.515H212.141V138.055L212.556 137.748H214.09C215.017 137.748 215.48 138.209 215.48 139.129V142.46H213.07ZM212.556 141.16C212.556 141.515 212.733 141.693 213.088 141.693H214.596V140.42H213.088C212.733 140.42 212.556 140.595 212.556 140.944V141.16ZM216.77 141.07V139.129C216.77 138.209 217.231 137.748 218.152 137.748H219.83V135.781H220.715V142.46H218.152C217.231 142.46 216.77 141.996 216.77 141.07ZM217.646 141.16C217.646 141.515 217.823 141.693 218.179 141.693H219.83V138.515H218.179C217.823 138.515 217.646 138.69 217.646 139.039V141.16ZM222.042 141.07V139.129C222.042 138.209 222.502 137.748 223.423 137.748H225.102V135.781H225.986V142.46H223.423C222.502 142.46 222.042 141.996 222.042 141.07ZM222.917 141.16C222.917 141.515 223.095 141.693 223.45 141.693H225.102V138.515H223.45C223.095 138.515 222.917 138.69 222.917 139.039V141.16ZM227.349 142.46V138.308C227.56 137.935 227.96 137.748 228.549 137.748H229.479L229.894 138.055V138.515H228.639C228.447 138.515 228.309 138.564 228.224 138.66V142.46H227.349ZM230.759 141.07V139.129C230.759 138.209 231.22 137.748 232.14 137.748H233.314C234.24 137.748 234.704 138.209 234.704 139.129V140.465H231.635V141.16C231.635 141.515 231.812 141.693 232.167 141.693H234.523V142.153L234.108 142.46H232.14C231.22 142.46 230.759 141.996 230.759 141.07ZM231.635 139.725H233.819V139.039C233.819 138.69 233.645 138.515 233.296 138.515H232.167C231.812 138.515 231.635 138.69 231.635 139.039V139.725ZM235.851 142.153V141.693H237.928C238.283 141.693 238.46 141.512 238.46 141.151C238.46 140.784 238.307 140.573 238 140.519L236.953 140.348C236.219 140.227 235.851 139.819 235.851 139.12C235.851 138.205 236.315 137.748 237.242 137.748H238.704L239.119 138.055V138.515H237.26C236.905 138.515 236.727 138.696 236.727 139.057C236.727 139.382 236.88 139.568 237.187 139.617L238.243 139.797C238.972 139.918 239.336 140.348 239.336 141.088C239.336 142.003 238.875 142.46 237.955 142.46H236.267L235.851 142.153ZM240.383 142.153V141.693H242.459C242.813 141.693 242.991 141.512 242.991 141.151C242.991 140.784 242.838 140.573 242.531 140.519L241.484 140.348C240.75 140.227 240.383 139.819 240.383 139.12C240.383 138.205 240.846 137.748 241.773 137.748H243.235L243.65 138.055V138.515H241.791C241.436 138.515 241.258 138.696 241.258 139.057C241.258 139.382 241.412 139.568 241.719 139.617L242.775 139.797C243.503 139.918 243.867 140.348 243.867 141.088C243.867 142.003 243.407 142.46 242.486 142.46H240.798L240.383 142.153ZM245.067 142.46V141.377H246.105V142.46H245.067ZM247.41 141.07V139.129C247.41 138.209 247.871 137.748 248.791 137.748H250.533L250.949 138.055V138.515H248.818C248.464 138.515 248.286 138.69 248.286 139.039V141.16C248.286 141.515 248.464 141.693 248.818 141.693H250.949V142.153L250.533 142.46H248.791C247.871 142.46 247.41 141.996 247.41 141.07ZM251.994 141.07V139.129C251.994 138.209 252.455 137.748 253.375 137.748H254.639C255.566 137.748 256.029 138.209 256.029 139.129V141.07C256.029 141.996 255.566 142.46 254.639 142.46H253.375C252.455 142.46 251.994 141.996 251.994 141.07ZM252.87 141.16C252.87 141.515 253.047 141.693 253.402 141.693H254.621C254.97 141.693 255.145 141.515 255.145 141.16V139.039C255.145 138.69 254.97 138.515 254.621 138.515H253.402C253.047 138.515 252.87 138.69 252.87 139.039V141.16ZM257.355 142.46V137.748H262.708C263.634 137.748 264.098 138.209 264.098 139.129V142.46H263.213V139.039C263.213 138.69 263.039 138.515 262.69 138.515H261.164V142.46H260.28V138.515H258.231V142.46H257.355ZM67.0703 152.648V147.386H67.9459V152.738C67.9459 153.136 68.1503 153.349 68.5597 153.379V154.147C67.5668 154.147 67.0703 153.647 67.0703 152.648ZM69.5738 148.523V147.575H70.4855V148.523H69.5738ZM69.5919 154.065V149.354H70.4675V154.065H69.5919ZM71.7847 152.675V150.735C71.7847 149.814 72.2482 149.354 73.1747 149.354H75.7382V154.48C75.7382 155.407 75.2746 155.871 74.3481 155.871H72.579L72.1638 155.564V155.103H74.3301C74.6789 155.103 74.8536 154.926 74.8536 154.571V154.065H73.1747C72.2482 154.065 71.7847 153.602 71.7847 152.675ZM72.6692 152.765C72.6692 153.121 72.844 153.298 73.1928 153.298H74.8536V150.121H73.1928C72.844 150.121 72.6692 150.295 72.6692 150.644V152.765ZM77.1289 154.065V147.386H78.0044V149.354H79.6833C80.6098 149.354 81.0734 149.814 81.0734 150.735V154.065H80.1888V150.644C80.1888 150.295 80.0141 150.121 79.6653 150.121H78.0044V154.065H77.1289ZM82.399 152.675V147.837H83.2745V149.354H84.9444V150.121H83.2745V152.765C83.2745 153.121 83.4518 153.298 83.8071 153.298H85.0346V153.758L84.6194 154.065H83.78C82.8593 154.065 82.399 153.602 82.399 152.675ZM86.0669 154.065V149.354H88.6213C89.5478 149.354 90.0114 149.814 90.0114 150.735V154.065H89.1268V150.644C89.1268 150.295 88.9521 150.121 88.6033 150.121H86.9424V154.065H86.0669ZM91.355 148.523V147.575H92.2667V148.523H91.355ZM91.373 154.065V149.354H92.2486V154.065H91.373ZM93.6561 154.065V149.354H96.2105C97.1376 149.354 97.6006 149.814 97.6006 150.735V154.065H96.716V150.644C96.716 150.295 96.5419 150.121 96.1925 150.121H94.5316V154.065H93.6561ZM98.8726 152.675V150.735C98.8726 149.814 99.3356 149.354 100.263 149.354H102.826V154.48C102.826 155.407 102.363 155.871 101.436 155.871H99.6669L99.2517 155.564V155.103H101.418C101.767 155.103 101.942 154.926 101.942 154.571V154.065H100.263C99.3356 154.065 98.8726 153.602 98.8726 152.675ZM99.7572 152.765C99.7572 153.121 99.9313 153.298 100.281 153.298H101.942V150.121H100.281C99.9313 150.121 99.7572 150.295 99.7572 150.644V152.765ZM126.445 167.504V165.564C126.445 164.643 126.906 164.182 127.826 164.182H129.09C130.017 164.182 130.48 164.643 130.48 165.564V167.504C130.48 168.431 130.017 168.894 129.09 168.894H127.826C126.906 168.894 126.445 168.431 126.445 167.504ZM127.321 167.594C127.321 167.95 127.498 168.127 127.854 168.127H129.072C129.421 168.127 129.596 167.95 129.596 167.594V165.473C129.596 165.124 129.421 164.95 129.072 164.95H127.854C127.498 164.95 127.321 165.124 127.321 165.473V167.594ZM131.716 167.504V165.564C131.716 164.643 132.18 164.182 133.106 164.182H135.67V169.309C135.67 170.236 135.207 170.699 134.28 170.699H132.51L132.095 170.393V169.932H134.262C134.611 169.932 134.785 169.755 134.785 169.4V168.894H133.106C132.18 168.894 131.716 168.431 131.716 167.504ZM132.601 167.594C132.601 167.95 132.775 168.127 133.124 168.127H134.785V164.95H133.124C132.775 164.95 132.601 165.124 132.601 165.473V167.594ZM137.033 168.894V167.811H138.071V168.894H137.033ZM137.033 165.266V164.182H138.071V165.266H137.033ZM139.431 163.352V162.404H140.343V163.352H139.431ZM139.449 168.894V164.182H140.325V168.894H139.449ZM141.732 168.894V164.182H147.085C148.011 164.182 148.475 164.643 148.475 165.564V168.894H147.59V165.473C147.59 165.124 147.416 164.95 147.067 164.95H145.541V168.894H144.657V164.95H142.608V168.894H141.732ZM150.979 168.894C150.052 168.894 149.589 168.431 149.589 167.504C149.589 166.578 150.052 166.114 150.979 166.114H152.504V165.473C152.504 165.124 152.33 164.95 151.981 164.95H150.049V164.489L150.464 164.182H151.999C152.925 164.182 153.389 164.643 153.389 165.564V168.894H150.979ZM150.464 167.594C150.464 167.95 150.642 168.127 150.997 168.127H152.504V166.854H150.997C150.642 166.854 150.464 167.029 150.464 167.378V167.594ZM154.661 167.504V165.564C154.661 164.643 155.125 164.182 156.051 164.182H158.615V169.309C158.615 170.236 158.151 170.699 157.225 170.699H155.455L155.04 170.393V169.932H157.206C157.555 169.932 157.73 169.755 157.73 169.4V168.894H156.051C155.125 168.894 154.661 168.431 154.661 167.504ZM155.546 167.594C155.546 167.95 155.72 168.127 156.069 168.127H157.73V164.95H156.069C155.72 164.95 155.546 165.124 155.546 165.473V167.594ZM159.933 167.504V165.564C159.933 164.643 160.393 164.182 161.314 164.182H162.488C163.414 164.182 163.878 164.643 163.878 165.564V166.899H160.809V167.594C160.809 167.95 160.986 168.127 161.341 168.127H163.697V168.587L163.282 168.894H161.314C160.393 168.894 159.933 168.431 159.933 167.504ZM160.809 166.159H162.993V165.473C162.993 165.124 162.818 164.95 162.469 164.95H161.341C160.986 164.95 160.809 165.124 160.809 165.473V166.159ZM212.947 168.894V162.215H213.822V164.182H215.501C216.428 164.182 216.891 164.643 216.891 165.564V168.894H216.006V165.473C216.006 165.124 215.832 164.95 215.483 164.95H213.822V168.894H212.947ZM218.217 167.504V162.666H219.092V164.182H220.762V164.95H219.092V167.594C219.092 167.95 219.27 168.127 219.625 168.127H220.852V168.587L220.437 168.894H219.598C218.677 168.894 218.217 168.431 218.217 167.504ZM221.848 167.504V162.666H222.724V164.182H224.394V164.95H222.724V167.594C222.724 167.95 222.901 168.127 223.257 168.127H224.484V168.587L224.069 168.894H223.229C222.309 168.894 221.848 168.431 221.848 167.504ZM225.516 170.699V164.182H228.071C228.997 164.182 229.461 164.643 229.461 165.564V167.504C229.461 168.431 228.997 168.894 228.071 168.894H226.392V170.699H225.516ZM226.392 168.127H228.053C228.402 168.127 228.576 167.95 228.576 167.594V165.473C228.576 165.124 228.402 164.95 228.053 164.95H226.392V168.127ZM230.607 168.587V168.127H232.683C233.038 168.127 233.216 167.946 233.216 167.585C233.216 167.219 233.062 167.008 232.755 166.954L231.708 166.782C230.974 166.661 230.607 166.253 230.607 165.554C230.607 164.64 231.07 164.182 231.997 164.182H233.46L233.875 164.489V164.95H232.015C231.66 164.95 231.483 165.13 231.483 165.491C231.483 165.816 231.636 166.003 231.943 166.051L232.999 166.231C233.727 166.352 234.091 166.782 234.091 167.522C234.091 168.437 233.631 168.894 232.71 168.894H231.022L230.607 168.587ZM235.291 168.894V167.811H236.329V168.894H235.291ZM235.291 165.266V164.182H236.329V165.266H235.291ZM237.184 169.093L239.72 162.197L240.469 162.467L237.933 169.364L237.184 169.093ZM240.295 169.093L242.831 162.197L243.581 162.467L241.044 169.364L240.295 169.093ZM243.971 164.327L244.08 164.182H244.82L245.695 168.127H245.813L246.86 164.182H247.916L248.963 168.127H249.08L249.956 164.182H250.696L250.795 164.327L249.739 168.894H248.376L247.383 165.121L246.399 168.894H245.036L243.971 164.327ZM251.217 164.327L251.326 164.182H252.066L252.942 168.127H253.059L254.106 164.182H255.162L256.209 168.127H256.326L257.202 164.182H257.942L258.041 164.327L256.985 168.894H255.622L254.629 165.121L253.646 168.894H252.283L251.217 164.327ZM258.463 164.327L258.571 164.182H259.312L260.187 168.127H260.304L261.351 164.182H262.408L263.455 168.127H263.572L264.447 164.182H265.188L265.287 164.327L264.231 168.894H262.868L261.875 165.121L260.891 168.894H259.528L258.463 164.327ZM266.178 168.894V167.811H267.216V168.894H266.178ZM267.885 164.327L267.985 164.182H268.743L270.033 168.127H270.187L271.478 164.182H272.236L272.326 164.327L270.187 170.699H269.429L269.338 170.555L269.925 168.894H269.429L267.885 164.327ZM273.14 167.504V165.564C273.14 164.643 273.601 164.182 274.521 164.182H275.785C276.712 164.182 277.175 164.643 277.175 165.564V167.504C277.175 168.431 276.712 168.894 275.785 168.894H274.521C273.601 168.894 273.14 168.431 273.14 167.504ZM274.016 167.594C274.016 167.95 274.194 168.127 274.549 168.127H275.767C276.117 168.127 276.291 167.95 276.291 167.594V165.473C276.291 165.124 276.117 164.95 275.767 164.95H274.549C274.194 164.95 274.016 165.124 274.016 165.473V167.594ZM278.466 167.504V164.182H279.342V167.594C279.342 167.95 279.519 168.127 279.874 168.127H281.526V164.182H282.411V168.894H279.847C278.926 168.894 278.466 168.431 278.466 167.504ZM283.772 168.894V164.742C283.983 164.369 284.383 164.182 284.973 164.182H285.902L286.318 164.489V164.95H285.063C284.87 164.95 284.732 164.998 284.648 165.094V168.894H283.772ZM286.69 168.894V167.811H287.728V168.894H286.69ZM289.106 168.894V162.215H289.982V164.182H291.661C292.587 164.182 293.051 164.643 293.051 165.564V167.504C293.051 168.431 292.587 168.894 291.661 168.894H289.106ZM289.982 168.127H291.642C291.991 168.127 292.166 167.95 292.166 167.594V165.473C292.166 165.124 291.991 164.95 291.642 164.95H289.982V168.127ZM294.341 167.477V162.215H295.217V167.567C295.217 167.964 295.421 168.178 295.831 168.208V168.975C294.838 168.975 294.341 168.476 294.341 167.477ZM296.791 167.504V165.564C296.791 164.643 297.251 164.182 298.172 164.182H299.435C300.362 164.182 300.825 164.643 300.825 165.564V167.504C300.825 168.431 300.362 168.894 299.435 168.894H298.172C297.251 168.894 296.791 168.431 296.791 167.504ZM297.666 167.594C297.666 167.95 297.844 168.127 298.199 168.127H299.417C299.766 168.127 299.941 167.95 299.941 167.594V165.473C299.941 165.124 299.766 164.95 299.417 164.95H298.199C297.844 164.95 297.666 165.124 297.666 165.473V167.594ZM302.061 167.504V165.564C302.061 164.643 302.525 164.182 303.451 164.182H306.015V169.309C306.015 170.236 305.552 170.699 304.625 170.699H302.856L302.441 170.393V169.932H304.607C304.956 169.932 305.13 169.755 305.13 169.4V168.894H303.451C302.525 168.894 302.061 168.431 302.061 167.504ZM302.946 167.594C302.946 167.95 303.121 168.127 303.47 168.127H305.13V164.95H303.47C303.121 164.95 302.946 165.124 302.946 165.473V167.594ZM306.882 169.093L309.419 162.197L310.168 162.467L307.631 169.364L306.882 169.093ZM34.1262 174.461L34.2436 174.271H35.0289L36.6175 177.268L38.2151 174.271H39.0004L39.1087 174.461L37.0778 178.225V180.499H36.1571V178.225L34.1262 174.461ZM39.992 179.073V175.697C39.992 174.746 40.4646 174.271 41.4092 174.271H43.5033C44.4543 174.271 44.9294 174.746 44.9294 175.697V179.073C44.9294 180.024 44.4543 180.499 43.5033 180.499H41.4092C40.4646 180.499 39.992 180.024 39.992 179.073ZM40.9127 179.155C40.9127 179.498 41.081 179.669 41.4182 179.669H43.4942C43.8372 179.669 44.0087 179.498 44.0087 179.155V175.616C44.0087 175.273 43.8372 175.102 43.4942 175.102H41.4182C41.081 175.102 40.9127 175.273 40.9127 175.616V179.155ZM46.3659 179.073V174.271H47.2866V179.155C47.2866 179.498 47.4549 179.669 47.7921 179.669H49.6876C50.0306 179.669 50.2021 179.498 50.2021 179.155V174.271H51.1228V179.073C51.1228 180.024 50.6476 180.499 49.6966 180.499H47.783C46.8385 180.499 46.3659 180.024 46.3659 179.073ZM52.6521 180.499V174.271H55.6217C56.5727 174.271 57.0479 174.746 57.0479 175.697V176.699C57.0479 177.47 56.7288 177.927 56.0911 178.071L57.2284 180.292L57.1111 180.499H56.3258L55.1163 178.117H53.5728V180.499H52.6521ZM53.5728 177.286H55.6127C55.9557 177.286 56.1272 177.115 56.1272 176.772V175.616C56.1272 175.273 55.9557 175.102 55.6127 175.102H53.5728V177.286ZM58.0099 181.547H62.523V182.305H58.0099V181.547ZM63.6797 180.499V174.271H64.6004V180.499H63.6797ZM66.1825 180.499V174.271H67.3469L69.3508 178.55L71.3636 174.271H72.528V180.499H71.6074V175.752L69.7931 179.624H68.9175L67.1032 175.752V180.499H66.1825ZM73.4842 180.31L75.47 174.271H76.9413L78.918 180.31L78.8007 180.499H78.0334L77.5641 179.019H74.8472L74.3778 180.499H73.6105L73.4842 180.31ZM75.1089 178.189H77.3023L76.3004 175.102H76.1108L75.1089 178.189ZM79.7994 179.073V175.697C79.7994 174.746 80.272 174.271 81.2165 174.271H83.9064L84.3757 174.632V175.102H81.2255C80.8883 175.102 80.7201 175.273 80.7201 175.616V179.155C80.7201 179.498 80.8883 179.669 81.2255 179.669H83.6356V177.665H82.2004V176.835H84.5562V180.499H81.2165C80.272 180.499 79.7994 180.024 79.7994 179.073ZM85.954 180.499V174.271H90.07V175.102H86.8747V176.835H89.7992V177.665H86.8747V179.669H90.07V180.499H85.954Z" fill="#3C6ECF"/>
<path d="M104.761 81.7543V79.8136C104.761 78.8929 105.221 78.4326 106.142 78.4326H107.884L108.299 78.7395V79.1998H106.169C105.814 79.1998 105.636 79.3745 105.636 79.7233V81.8445C105.636 82.1998 105.814 82.3771 106.169 82.3771H108.299V82.8374L107.884 83.1443H106.142C105.221 83.1443 104.761 82.6807 104.761 81.7543ZM109.381 81.7272V76.4648H110.257V81.8175C110.257 82.2146 110.461 82.428 110.87 82.4583V83.2256C109.878 83.2256 109.381 82.7259 109.381 81.7272ZM113.04 83.1443C112.114 83.1443 111.65 82.6807 111.65 81.7543C111.65 80.8278 112.114 80.3642 113.04 80.3642H114.565V79.7233C114.565 79.3745 114.391 79.1998 114.042 79.1998H112.11V78.7395L112.525 78.4326H114.06C114.986 78.4326 115.45 78.8929 115.45 79.8136V83.1443H113.04ZM112.525 81.8445C112.525 82.1998 112.703 82.3771 113.058 82.3771H114.565V81.1044H113.058C112.703 81.1044 112.525 81.2791 112.525 81.6279V81.8445ZM116.632 82.8374V82.3771H118.708C119.063 82.3771 119.24 82.1966 119.24 81.8355C119.24 81.4686 119.087 81.2578 118.78 81.2037L117.733 81.0322C116.999 80.9116 116.632 80.5028 116.632 79.8046C116.632 78.8897 117.095 78.4326 118.022 78.4326H119.484L119.899 78.7395V79.1998H118.04C117.685 79.1998 117.507 79.3803 117.507 79.7414C117.507 80.0663 117.661 80.2527 117.968 80.301L119.024 80.4816C119.752 80.6021 120.116 81.0322 120.116 81.7723C120.116 82.6872 119.656 83.1443 118.735 83.1443H117.047L116.632 82.8374ZM121.163 82.8374V82.3771H123.239C123.594 82.3771 123.772 82.1966 123.772 81.8355C123.772 81.4686 123.618 81.2578 123.311 81.2037L122.264 81.0322C121.53 80.9116 121.163 80.5028 121.163 79.8046C121.163 78.8897 121.626 78.4326 122.553 78.4326H124.015L124.431 78.7395V79.1998H122.571C122.216 79.1998 122.039 79.3803 122.039 79.7414C122.039 80.0663 122.192 80.2527 122.499 80.301L123.555 80.4816C124.283 80.6021 124.647 81.0322 124.647 81.7723C124.647 82.6872 124.187 83.1443 123.266 83.1443H121.578L121.163 82.8374ZM81.1726 141.07V139.129C81.1726 138.209 81.6329 137.748 82.5536 137.748H84.2957L84.7109 138.055V138.516H82.5807C82.2261 138.516 82.0481 138.69 82.0481 139.039V141.16C82.0481 141.516 82.2261 141.693 82.5807 141.693H84.7109V142.153L84.2957 142.46H82.5536C81.6329 142.46 81.1726 141.997 81.1726 141.07ZM85.7567 141.07V139.129C85.7567 138.209 86.217 137.748 87.1377 137.748H88.4014C89.3279 137.748 89.7914 138.209 89.7914 139.129V141.07C89.7914 141.997 89.3279 142.46 88.4014 142.46H87.1377C86.217 142.46 85.7567 141.997 85.7567 141.07ZM86.6322 141.16C86.6322 141.516 86.8095 141.693 87.1648 141.693H88.3833C88.7321 141.693 88.9068 141.516 88.9068 141.16V139.039C88.9068 138.69 88.7321 138.516 88.3833 138.516H87.1648C86.8095 138.516 86.6322 138.69 86.6322 139.039V141.16ZM91.1176 142.46V137.748H93.6721C94.5986 137.748 95.0621 138.209 95.0621 139.129V142.46H94.1776V139.039C94.1776 138.69 94.0028 138.516 93.654 138.516H91.9932V142.46H91.1176ZM96.3877 141.07V136.232H97.2633V137.748H98.9331V138.516H97.2633V141.16C97.2633 141.516 97.4412 141.693 97.7958 141.693H99.0234V142.153L98.6082 142.46H97.7688C96.8481 142.46 96.3877 141.997 96.3877 141.07ZM99.9834 141.07V139.129C99.9834 138.209 100.444 137.748 101.364 137.748H102.538C103.464 137.748 103.928 138.209 103.928 139.129V140.465H100.859V141.16C100.859 141.516 101.036 141.693 101.392 141.693H103.747V142.153L103.332 142.46H101.364C100.444 142.46 99.9834 141.997 99.9834 141.07ZM100.859 139.725H103.043V139.039C103.043 138.69 102.869 138.516 102.52 138.516H101.392C101.036 138.516 100.859 138.69 100.859 139.039V139.725ZM105.257 142.46V137.748H107.811C108.738 137.748 109.201 138.209 109.201 139.129V142.46H108.317V139.039C108.317 138.69 108.142 138.516 107.793 138.516H106.132V142.46H105.257ZM110.527 141.07V136.232H111.402V137.748H113.072V138.516H111.402V141.16C111.402 141.516 111.58 141.693 111.935 141.693H113.162V142.153L112.747 142.46H111.908C110.987 142.46 110.527 141.997 110.527 141.07ZM34.6587 154.065V149.354H37.2131C38.1403 149.354 38.6032 149.814 38.6032 150.735V154.065H37.7186V150.644C37.7186 150.296 37.5445 150.121 37.1951 150.121H35.5342V154.065H34.6587ZM41.1028 154.065C40.1763 154.065 39.7128 153.602 39.7128 152.675C39.7128 151.749 40.1763 151.285 41.1028 151.285H42.6283V150.644C42.6283 150.296 42.4536 150.121 42.1048 150.121H40.1731V149.661L40.5883 149.354H42.1228C43.0493 149.354 43.5129 149.814 43.5129 150.735V154.065H41.1028ZM40.5883 152.766C40.5883 153.121 40.7656 153.298 41.1209 153.298H42.6283V152.025H41.1209C40.7656 152.025 40.5883 152.2 40.5883 152.549V152.766ZM44.8752 154.065V149.354H50.2278C51.1549 149.354 51.6178 149.814 51.6178 150.735V154.065H50.7333V150.644C50.7333 150.296 50.5592 150.121 50.2097 150.121H48.6843V154.065H47.7997V150.121H45.7507V154.065H44.8752ZM52.9125 152.675V150.735C52.9125 149.814 53.3728 149.354 54.2935 149.354H55.4669C56.3941 149.354 56.857 149.814 56.857 150.735V152.071H53.788V152.766C53.788 153.121 53.966 153.298 54.3206 153.298H56.6765V153.758L56.2612 154.065H54.2935C53.3728 154.065 52.9125 153.602 52.9125 152.675ZM53.788 151.33H55.9724V150.644C55.9724 150.296 55.7983 150.121 55.4489 150.121H54.3206C53.966 150.121 53.788 150.296 53.788 150.644V151.33ZM81.2448 170.7V164.183H83.7992C84.7264 164.183 85.1893 164.643 85.1893 165.564V167.504C85.1893 168.431 84.7264 168.894 83.7992 168.894H82.1203V170.7H81.2448ZM82.1203 168.127H83.7812C84.1306 168.127 84.3047 167.95 84.3047 167.595V165.473C84.3047 165.125 84.1306 164.95 83.7812 164.95H82.1203V168.127ZM86.4801 168.894V164.742C86.6909 164.369 87.0906 164.183 87.6806 164.183H88.6103L89.0255 164.489V164.95H87.7708C87.578 164.95 87.4401 164.998 87.3556 165.094V168.894H86.4801ZM89.8907 167.504V165.564C89.8907 164.643 90.3511 164.183 91.2717 164.183H92.5354C93.4619 164.183 93.9255 164.643 93.9255 165.564V167.504C93.9255 168.431 93.4619 168.894 92.5354 168.894H91.2717C90.3511 168.894 89.8907 168.431 89.8907 167.504ZM90.7663 167.595C90.7663 167.95 90.9436 168.127 91.2988 168.127H92.5174C92.8662 168.127 93.0409 167.95 93.0409 167.595V165.473C93.0409 165.125 92.8662 164.95 92.5174 164.95H91.2988C90.9436 164.95 90.7663 165.125 90.7663 165.473V167.595ZM95.2517 170.7V164.183H97.8061C98.7326 164.183 99.1962 164.643 99.1962 165.564V167.504C99.1962 168.431 98.7326 168.894 97.8061 168.894H96.1273V170.7H95.2517ZM96.1273 168.127H97.7881C98.1369 168.127 98.3116 167.95 98.3116 167.595V165.473C98.3116 165.125 98.1369 164.95 97.7881 164.95H96.1273V168.127ZM100.451 167.504V165.564C100.451 164.643 100.911 164.183 101.832 164.183H103.005C103.932 164.183 104.395 164.643 104.395 165.564V166.9H101.326V167.595C101.326 167.95 101.504 168.127 101.859 168.127H104.215V168.587L103.8 168.894H101.832C100.911 168.894 100.451 168.431 100.451 167.504ZM101.326 166.159H103.511V165.473C103.511 165.125 103.336 164.95 102.987 164.95H101.859C101.504 164.95 101.326 165.125 101.326 165.473V166.159ZM105.687 168.894V164.742C105.898 164.369 106.298 164.183 106.888 164.183H107.818L108.233 164.489V164.95H106.978C106.785 164.95 106.647 164.998 106.563 165.094V168.894H105.687ZM109.134 167.504V162.666H110.01V164.183H111.68V164.95H110.01V167.595C110.01 167.95 110.187 168.127 110.542 168.127H111.77V168.587L111.355 168.894H110.515C109.595 168.894 109.134 168.431 109.134 167.504ZM112.27 164.327L112.369 164.183H113.127L114.418 168.127H114.571L115.862 164.183H116.62L116.71 164.327L114.571 170.7H113.813L113.723 170.555L114.309 168.894H113.813L112.27 164.327ZM171.004 167.504V165.564C171.004 164.643 171.464 164.183 172.385 164.183H174.127L174.542 164.489V164.95H172.412C172.057 164.95 171.879 165.125 171.879 165.473V167.595C171.879 167.95 172.057 168.127 172.412 168.127H174.542V168.587L174.127 168.894H172.385C171.464 168.894 171.004 168.431 171.004 167.504ZM175.588 167.504V165.564C175.588 164.643 176.048 164.183 176.969 164.183H178.233C179.159 164.183 179.623 164.643 179.623 165.564V167.504C179.623 168.431 179.159 168.894 178.233 168.894H176.969C176.048 168.894 175.588 168.431 175.588 167.504ZM176.463 167.595C176.463 167.95 176.641 168.127 176.996 168.127H178.215C178.563 168.127 178.738 167.95 178.738 167.595V165.473C178.738 165.125 178.563 164.95 178.215 164.95H176.996C176.641 164.95 176.463 165.125 176.463 165.473V167.595ZM180.949 168.894V164.183H183.503C184.43 164.183 184.893 164.643 184.893 165.564V168.894H184.009V165.473C184.009 165.125 183.834 164.95 183.485 164.95H181.824V168.894H180.949ZM186.219 167.504V162.666H187.094V164.183H188.764V164.95H187.094V167.595C187.094 167.95 187.272 168.127 187.627 168.127H188.855V168.587L188.439 168.894H187.6C186.679 168.894 186.219 168.431 186.219 167.504ZM189.815 167.504V165.564C189.815 164.643 190.275 164.183 191.196 164.183H192.369C193.296 164.183 193.759 164.643 193.759 165.564V166.9H190.69V167.595C190.69 167.95 190.868 168.127 191.223 168.127H193.579V168.587L193.163 168.894H191.196C190.275 168.894 189.815 168.431 189.815 167.504ZM190.69 166.159H192.875V165.473C192.875 165.125 192.7 164.95 192.351 164.95H191.223C190.868 164.95 190.69 165.125 190.69 165.473V166.159ZM195.088 168.894V164.183H197.642C198.569 164.183 199.032 164.643 199.032 165.564V168.894H198.148V165.473C198.148 165.125 197.973 164.95 197.624 164.95H195.963V168.894H195.088ZM200.358 167.504V162.666H201.234V164.183H202.903V164.95H201.234V167.595C201.234 167.95 201.411 168.127 201.766 168.127H202.994V168.587L202.578 168.894H201.739C200.818 168.894 200.358 168.431 200.358 167.504Z" fill="#A16112"/>
<path d="M356 9H13V25.7632H356V9Z" fill="white"/>
<path d="M23.2837 17.3824C23.2837 16.332 22.4321 15.4805 21.3817 15.4805C20.3313 15.4805 19.4797 16.332 19.4797 17.3824C19.4797 18.4329 20.3313 19.2844 21.3817 19.2844C22.4321 19.2844 23.2837 18.4329 23.2837 17.3824Z" fill="#EE6A5F" stroke="#C7493E" stroke-width="0.1"/>
<path d="M36.1782 17.3824C36.1782 16.332 35.3267 15.4805 34.2762 15.4805C33.2258 15.4805 32.3743 16.332 32.3743 17.3824C32.3743 18.4329 33.2258 19.2844 34.2762 19.2844C35.3267 19.2844 36.1782 18.4329 36.1782 17.3824Z" fill="#5FC454" stroke="#3AA531" stroke-width="0.1"/>
<path d="M29.7309 17.3824C29.7309 16.332 28.8794 15.4805 27.829 15.4805C26.7785 15.4805 25.927 16.332 25.927 17.3824C25.927 18.4329 26.7785 19.2844 27.829 19.2844C28.8794 19.2844 29.7309 18.4329 29.7309 17.3824Z" fill="#F4BE50" stroke="#DFAB41" stroke-width="0.1"/>
<path d="M51.6842 14.8027H46.5263C46.1703 14.8027 45.8816 15.0914 45.8816 15.4475V18.847C45.8816 19.2031 46.1703 19.4917 46.5263 19.4917H51.6842C52.0403 19.4917 52.329 19.2031 52.329 18.847V15.4475C52.329 15.0914 52.0403 14.8027 51.6842 14.8027Z" fill="white" stroke="#737373" stroke-width="0.6"/>
<path d="M47.9331 19.1988V15.0957" stroke="#737373" stroke-width="0.6" stroke-linecap="square"/>
<path d="M46.4675 15.9746H47.1123" stroke="#737373" stroke-width="0.3" stroke-linecap="round"/>
<path d="M46.4675 16.6836H47.1123" stroke="#737373" stroke-width="0.3" stroke-linecap="round"/>
<path d="M46.4675 17.3926H47.1123" stroke="#737373" stroke-width="0.3" stroke-linecap="round"/>
<path d="M64.3436 14.8027L62 17.1463L64.3436 19.49" stroke="#737373" stroke-width="0.6" stroke-linecap="round" stroke-linejoin="round"/>
<path d="M73.3699 14.8027L75.7135 17.1463L73.3699 19.49" stroke="#737373" stroke-opacity="0.5" stroke-width="0.6" stroke-linecap="round" stroke-linejoin="round"/>
<path d="M275.408 12.8691H86.4999C85.7878 12.8691 85.2104 13.4465 85.2104 14.1586V20.606C85.2104 21.3181 85.7878 21.8955 86.4999 21.8955H275.408C276.12 21.8955 276.697 21.3181 276.697 20.606V14.1586C276.697 13.4465 276.12 12.8691 275.408 12.8691Z" fill="#F2F2F2"/>
<path d="M92.3027 17.3815C92.3027 16.3132 91.4368 15.4473 90.3685 15.4473C89.3003 15.4473 88.4343 16.3132 88.4343 17.3815C88.4343 18.4497 89.3003 19.3157 90.3685 19.3157C91.4368 19.3157 92.3027 18.4497 92.3027 17.3815Z" fill="#F2F2F2" stroke="#737373" stroke-width="0.4"/>
<path d="M89.4524 17.3555H91.2847" stroke="#737373" stroke-width="0.4" stroke-linecap="round"/>
<path d="M90.3684 16.4629V18.2952" stroke="#737373" stroke-width="0.4" stroke-linecap="round"/>
<path d="M307.013 17.3728C307.013 15.7668 305.711 14.4648 304.105 14.4648C302.499 14.4648 301.197 15.7668 301.197 17.3728V17.3902C301.197 18.9962 302.499 20.2982 304.105 20.2982C305.711 20.2982 307.013 18.9962 307.013 17.3902V17.3728Z" fill="white" stroke="#737373" stroke-width="0.6"/>
<path d="M304.313 15.8004C304.313 15.7069 304.232 15.6309 304.132 15.6309C304.032 15.6309 303.95 15.7069 303.95 15.8004H304.313ZM304.004 18.7746C304.074 18.841 304.189 18.841 304.26 18.7746L305.414 17.6921C305.485 17.6257 305.485 17.518 305.414 17.4516C305.343 17.3852 305.228 17.3852 305.157 17.4516L304.132 18.4135L303.106 17.4516C303.036 17.3852 302.921 17.3852 302.85 17.4516C302.779 17.518 302.779 17.6257 302.85 17.6921L304.004 18.7746ZM303.95 15.8004V18.654H304.313V15.8004H303.95Z" fill="#737373"/>
<path d="M319.4 16.3848H317.271C316.591 16.3848 316.04 16.9358 316.04 17.6156V19.3754C316.04 20.0552 316.591 20.6063 317.271 20.6063H319.4C320.08 20.6063 320.631 20.0552 320.631 19.3754V17.6156C320.631 16.9358 320.08 16.3848 319.4 16.3848Z" fill="white" stroke="#737373" stroke-width="0.6"/>
<path d="M318.692 18.7228V18.5294V15.2161L319.255 15.7442C319.403 15.8841 319.64 15.8841 319.789 15.7442C319.945 15.5978 319.945 15.3554 319.789 15.209L318.692 14.1794V14.1439H318.654L318.575 14.0698L318.505 14.1439L318.575 14.0698C318.426 13.9299 318.189 13.9299 318.04 14.0698L317.961 14.1439H317.923V14.1794L316.826 15.209C316.67 15.3554 316.67 15.5978 316.826 15.7442C316.975 15.8841 317.211 15.8841 317.36 15.7442L317.923 15.2161V18.5294V18.7228V18.9163H317.979C318.048 19.0259 318.174 19.0949 318.307 19.0949C318.441 19.0949 318.567 19.0259 318.636 18.9163H318.692V18.7228Z" fill="#737373" stroke="white" stroke-width="0.6"/>
<path d="M329.657 17.3203H334.249" stroke="#737373" stroke-width="0.6" stroke-linecap="round"/>
<path d="M331.953 15.0781V19.6835" stroke="#737373" stroke-width="0.6" stroke-linecap="round"/>
<path d="M346.695 14.3125H344.565C343.853 14.3125 343.275 14.8898 343.275 15.602V17.7464C343.275 18.4585 343.853 19.0358 344.565 19.0358H346.695C347.407 19.0358 347.985 18.4585 347.985 17.7464V15.602C347.985 14.8898 347.407 14.3125 346.695 14.3125Z" fill="white" stroke="#737373" stroke-width="0.6"/>
<path d="M348.343 15.7285H346.213C345.501 15.7285 344.923 16.3058 344.923 17.018V19.1624C344.923 19.8745 345.501 20.4519 346.213 20.4519H348.343C349.055 20.4519 349.633 19.8745 349.633 19.1624V17.018C349.633 16.3058 349.055 15.7285 348.343 15.7285Z" fill="white" stroke="#737373" stroke-width="0.6"/>
<path d="M284.965 16.4282C284.603 16.4282 284.309 16.1343 284.309 15.7717C284.309 15.4092 284.603 15.1152 284.965 15.1152C285.328 15.1152 285.622 15.4092 285.622 15.7717C285.622 16.1343 285.328 16.4282 284.965 16.4282Z" fill="black"/>
<path d="M284.856 15.6719L286.082 16.8969" stroke="black" stroke-width="0.8146"/>
<path d="M289.016 16.4282C289.378 16.4282 289.672 16.1343 289.672 15.7717C289.672 15.4092 289.378 15.1152 289.016 15.1152C288.653 15.1152 288.359 15.4092 288.359 15.7717C288.359 16.1343 288.653 16.4282 289.016 16.4282Z" fill="black"/>
<path d="M289.136 15.6719L287.91 16.8969" stroke="black" stroke-width="0.8146"/>
<path fill-rule="evenodd" clip-rule="evenodd" d="M284.844 19.1837C284.261 18.951 283.922 18.3327 284.088 17.7279C284.49 16.2611 285.647 15.2012 287.013 15.2012C288.381 15.2012 289.541 16.2663 289.94 17.7395C290.104 18.3456 289.762 18.9632 289.178 19.1934C288.511 19.4558 287.784 19.5996 287.023 19.5996C286.253 19.5996 285.517 19.4519 284.844 19.1837Z" fill="#FFDF6F"/>
<g style="mix-blend-mode:saturation">
<path fill-rule="evenodd" clip-rule="evenodd" d="M284.844 19.1837C284.261 18.951 283.922 18.3327 284.088 17.7279C284.49 16.2611 285.647 15.2012 287.013 15.2012C288.381 15.2012 289.541 16.2663 289.94 17.7395C290.104 18.3456 289.762 18.9632 289.178 19.1934C288.511 19.4558 287.784 19.5996 287.023 19.5996C286.253 19.5996 285.517 19.4519 284.844 19.1837Z" fill="black" fill-opacity="0.5"/>
</g>
<path d="M284.274 17.7789C284.659 16.374 285.756 15.3947 287.013 15.3947V15.0078C285.539 15.0078 284.32 16.1484 283.901 17.677L284.274 17.7789ZM287.013 15.3947C288.272 15.3947 289.37 16.3785 289.753 17.7899L290.127 17.6886C289.711 16.1542 288.49 15.0078 287.013 15.0078V15.3947ZM289.107 19.0136C288.462 19.2669 287.759 19.4062 287.023 19.4062V19.793C287.808 19.793 288.559 19.6448 289.249 19.3733L289.107 19.0136ZM287.023 19.4062C286.278 19.4062 285.567 19.2637 284.915 19.0039L284.772 19.363C285.468 19.6409 286.228 19.793 287.023 19.793V19.4062ZM289.753 17.7899C289.889 18.2927 289.608 18.8163 289.107 19.0136L289.249 19.3733C289.917 19.1103 290.319 18.3978 290.127 17.6886L289.753 17.7899ZM283.901 17.677C283.708 18.3843 284.105 19.0974 284.772 19.363L284.915 19.0039C284.416 18.8053 284.137 18.2811 284.274 17.7789L283.901 17.677Z" fill="black"/>
<path fill-rule="evenodd" clip-rule="evenodd" d="M285.412 18.7262C284.946 18.5689 284.668 18.0679 284.889 17.6289C285.269 16.8791 286.077 16.3613 287.013 16.3613C287.948 16.3613 288.756 16.8791 289.136 17.6289C289.357 18.0679 289.079 18.5689 288.613 18.7262C288.111 18.8951 287.572 18.9873 287.013 18.9873C286.453 18.9873 285.915 18.8951 285.412 18.7262Z" fill="black"/>
<path d="M288.303 17.3809H287.335" stroke="white" stroke-width="0.2" stroke-linecap="round"/>
<path d="M286.691 17.3809H285.724" stroke="white" stroke-width="0.2" stroke-linecap="round"/>
<path d="M160.86 16.6719H159.355C158.999 16.6719 158.71 16.9605 158.71 17.3166V18.5106C158.71 18.8666 158.999 19.1553 159.355 19.1553H160.86C161.216 19.1553 161.504 18.8666 161.504 18.5106V17.3166C161.504 16.9605 161.216 16.6719 160.86 16.6719Z" fill="#9E9E9E"/>
<path d="M161 16.0513C161 15.5581 160.6 15.1582 160.107 15.1582C159.614 15.1582 159.214 15.5581 159.214 16.0513V17.293C159.214 17.7862 159.614 18.1861 160.107 18.1861C160.6 18.1861 161 17.7862 161 17.293V16.0513Z" stroke="#9E9E9E" stroke-width="0.6"/>
<path d="M164.295 18.671L163.57 16.2094H164.065L164.548 18.0173H164.572L165.056 16.2094H165.551L166.032 18.0089H166.056L166.535 16.2094H167.03L166.308 18.671H165.819L165.319 16.8935H165.282L164.782 18.671H164.295ZM167.974 18.671L167.25 16.2094H167.745L168.227 18.0173H168.251L168.735 16.2094H169.23L169.711 18.0089H169.735L170.214 16.2094H170.71L169.987 18.671H169.498L168.998 16.8935H168.961L168.461 18.671H167.974ZM171.653 18.671L170.928 16.2094H171.424L171.906 18.0173H171.93L172.414 16.2094H172.91L173.39 18.0089H173.415L173.894 16.2094H174.389L173.666 18.671H173.177L172.677 16.8935H172.64L172.14 18.671H171.653ZM174.779 18.7013C174.692 18.7013 174.616 18.6704 174.553 18.6085C174.49 18.5453 174.458 18.4699 174.458 18.3809C174.458 18.2932 174.49 18.2184 174.553 18.1565C174.616 18.0933 174.692 18.0617 174.779 18.0617C174.867 18.0617 174.942 18.0933 175.005 18.1565C175.068 18.2184 175.1 18.2932 175.1 18.3809C175.1 18.4396 175.084 18.4937 175.055 18.5427C175.026 18.5911 174.988 18.6291 174.939 18.6581C174.891 18.6871 174.838 18.7013 174.779 18.7013ZM176.413 18.7258C176.257 18.7258 176.116 18.6968 175.99 18.6388C175.863 18.5801 175.764 18.495 175.69 18.3841C175.617 18.2732 175.581 18.1365 175.581 17.9754C175.581 17.8367 175.608 17.722 175.661 17.6324C175.714 17.5427 175.787 17.4718 175.877 17.4196C175.968 17.3667 176.07 17.3274 176.182 17.301C176.294 17.2739 176.409 17.2539 176.525 17.2397C176.672 17.2229 176.792 17.2088 176.884 17.1985C176.976 17.1862 177.042 17.1675 177.084 17.1424C177.126 17.1166 177.147 17.0747 177.147 17.0173V17.0057C177.147 16.8658 177.107 16.7574 177.028 16.6807C176.95 16.6034 176.834 16.5653 176.679 16.5653C176.518 16.5653 176.39 16.6008 176.297 16.6723C176.206 16.7433 176.142 16.8213 176.106 16.9083L175.656 16.8058C175.71 16.6562 175.788 16.535 175.89 16.4435C175.994 16.3506 176.113 16.2829 176.248 16.2417C176.382 16.1985 176.524 16.1772 176.672 16.1772C176.77 16.1772 176.875 16.1888 176.985 16.2126C177.096 16.2352 177.2 16.2765 177.296 16.3377C177.393 16.3983 177.473 16.4854 177.534 16.5988C177.596 16.711 177.628 16.8567 177.628 17.036V18.671H177.16V18.3345H177.14C177.11 18.3964 177.063 18.4576 177.001 18.5169C176.939 18.5769 176.859 18.6265 176.762 18.6665C176.665 18.7058 176.549 18.7258 176.413 18.7258ZM176.517 18.3409C176.649 18.3409 176.763 18.3145 176.857 18.2623C176.952 18.21 177.024 18.1417 177.073 18.0572C177.123 17.9715 177.148 17.8806 177.148 17.7832V17.466C177.131 17.4828 177.098 17.4989 177.049 17.5137C177.001 17.5279 176.946 17.5402 176.884 17.5505C176.822 17.5601 176.761 17.5692 176.703 17.5782C176.644 17.5853 176.595 17.5917 176.556 17.5975C176.462 17.6092 176.378 17.6285 176.3 17.6562C176.225 17.6846 176.164 17.7246 176.118 17.7768C176.073 17.8277 176.05 17.8967 176.05 17.9818C176.05 18.1004 176.094 18.1901 176.182 18.2513C176.269 18.3113 176.381 18.3409 176.517 18.3409ZM178.7 15.3887V18.671H178.22V15.3887H178.7ZM179.338 18.671V15.3887H179.817V16.6085H179.846C179.874 16.5569 179.914 16.4976 179.966 16.4306C180.019 16.3629 180.091 16.3042 180.184 16.2539C180.277 16.203 180.4 16.1772 180.553 16.1772C180.752 16.1772 180.929 16.2275 181.085 16.3281C181.241 16.4286 181.364 16.5731 181.452 16.762C181.541 16.9515 181.587 17.1791 181.587 17.4447C181.587 17.711 181.542 17.9393 181.454 18.1295C181.365 18.3184 181.243 18.4641 181.088 18.5666C180.933 18.6684 180.756 18.7194 180.558 18.7194C180.408 18.7194 180.286 18.6942 180.191 18.6439C180.097 18.5937 180.023 18.535 179.97 18.4673C179.916 18.4002 179.875 18.3403 179.846 18.2881H179.806V18.671H179.338ZM179.808 17.4402C179.808 17.613 179.833 17.7652 179.883 17.8954C179.933 18.0256 180.006 18.1275 180.101 18.2017C180.196 18.2739 180.313 18.3106 180.45 18.3106C180.594 18.3106 180.713 18.2726 180.809 18.1965C180.905 18.1198 180.978 18.0153 181.027 17.8838C181.077 17.7529 181.102 17.6046 181.102 17.4402C181.102 17.2778 181.078 17.132 181.029 17.0025C180.981 16.8735 180.908 16.7716 180.811 16.6968C180.715 16.6214 180.594 16.584 180.45 16.584C180.311 16.584 180.194 16.6201 180.098 16.6917C180.002 16.7632 179.93 16.8632 179.881 16.9915C179.832 17.1198 179.808 17.2694 179.808 17.4402ZM182.298 19.5943C182.227 19.5943 182.162 19.5885 182.103 19.5762C182.044 19.5659 182.001 19.5543 181.972 19.5414L182.087 19.1488C182.175 19.172 182.253 19.1823 182.321 19.1791C182.389 19.1759 182.45 19.1501 182.502 19.1024C182.556 19.054 182.603 18.9753 182.643 18.8664L182.703 18.7033L181.802 16.2094H182.315L182.938 18.1198H182.964L183.587 16.2094H184.102L183.087 18.9998C183.04 19.1275 182.981 19.2365 182.908 19.3248C182.835 19.4144 182.748 19.4821 182.648 19.5266C182.548 19.5717 182.431 19.5943 182.298 19.5943ZM185.656 16.2094V16.5937H184.311V16.2094H185.656ZM184.672 15.6195H185.151V17.9483C185.151 18.0411 185.165 18.1114 185.193 18.1585C185.22 18.2042 185.256 18.2358 185.3 18.2526C185.345 18.2687 185.394 18.2765 185.446 18.2765C185.485 18.2765 185.518 18.2739 185.547 18.2687C185.576 18.2636 185.598 18.259 185.614 18.2558L185.701 18.6517C185.673 18.6626 185.634 18.673 185.582 18.6839C185.531 18.6955 185.467 18.702 185.39 18.7033C185.264 18.7052 185.146 18.6826 185.037 18.6356C184.928 18.5885 184.84 18.5163 184.773 18.4176C184.706 18.3196 184.672 18.1959 184.672 18.0476V15.6195ZM186.673 17.2094V18.671H186.194V15.3887H186.666V16.6098H186.697C186.755 16.4776 186.843 16.3725 186.962 16.2945C187.08 16.2165 187.235 16.1772 187.427 16.1772C187.595 16.1772 187.743 16.212 187.869 16.2816C187.996 16.3506 188.094 16.4544 188.164 16.5924C188.234 16.7291 188.269 16.8999 188.269 17.105V18.671H187.79V17.163C187.79 16.9825 187.744 16.8426 187.651 16.7433C187.558 16.6427 187.429 16.5924 187.263 16.5924C187.149 16.5924 187.048 16.6163 186.959 16.6646C186.87 16.7123 186.8 16.7832 186.748 16.8761C186.698 16.9676 186.673 17.0792 186.673 17.2094ZM189.925 18.7207C189.682 18.7207 189.473 18.6691 189.298 18.5653C189.124 18.4608 188.989 18.3138 188.894 18.1243C188.8 17.9341 188.753 17.7117 188.753 17.4563C188.753 17.2043 188.8 16.9818 188.894 16.7897C188.989 16.5969 189.122 16.4473 189.292 16.339C189.463 16.2313 189.663 16.1772 189.891 16.1772C190.03 16.1772 190.165 16.2004 190.295 16.2462C190.425 16.2919 190.542 16.3642 190.646 16.4628C190.75 16.5608 190.831 16.6885 190.891 16.8458C190.951 17.0018 190.981 17.1914 190.981 17.4144V17.5846H189.024V17.2255H190.511C190.511 17.0992 190.486 16.9876 190.434 16.8903C190.383 16.7923 190.311 16.7149 190.218 16.6582C190.126 16.6014 190.018 16.5731 189.894 16.5731C189.759 16.5731 189.642 16.6059 189.541 16.6723C189.442 16.7375 189.365 16.8232 189.311 16.929C189.258 17.0334 189.231 17.1475 189.231 17.27V17.5505C189.231 17.7155 189.26 17.8554 189.317 17.9708C189.376 18.0863 189.458 18.1739 189.563 18.2352C189.667 18.2952 189.79 18.3248 189.929 18.3248C190.02 18.3248 190.103 18.3119 190.178 18.2861C190.253 18.2597 190.318 18.2204 190.372 18.1675C190.427 18.1153 190.468 18.0508 190.497 17.9741L190.95 18.0553C190.914 18.1894 190.849 18.3061 190.755 18.4067C190.662 18.506 190.545 18.5833 190.404 18.6388C190.264 18.6936 190.104 18.7207 189.925 18.7207ZM191.506 18.671V15.3887H191.985V16.6085H192.014C192.042 16.5569 192.082 16.4976 192.134 16.4306C192.187 16.3629 192.259 16.3042 192.352 16.2539C192.445 16.203 192.568 16.1772 192.721 16.1772C192.919 16.1772 193.097 16.2275 193.252 16.3281C193.409 16.4286 193.531 16.5731 193.62 16.762C193.71 16.9515 193.755 17.1791 193.755 17.4447C193.755 17.711 193.71 17.9393 193.621 18.1295C193.533 18.3184 193.411 18.4641 193.256 18.5666C193.101 18.6684 192.924 18.7194 192.726 18.7194C192.576 18.7194 192.454 18.6942 192.358 18.6439C192.265 18.5937 192.191 18.535 192.137 18.4673C192.084 18.4002 192.043 18.3403 192.014 18.2881H191.974V18.671H191.506ZM191.975 17.4402C191.975 17.613 192 17.7652 192.051 17.8954C192.101 18.0256 192.174 18.1275 192.269 18.2017C192.364 18.2739 192.48 18.3106 192.618 18.3106C192.761 18.3106 192.881 18.2726 192.977 18.1965C193.073 18.1198 193.146 18.0153 193.195 17.8838C193.245 17.7529 193.271 17.6046 193.271 17.4402C193.271 17.2778 193.246 17.132 193.196 17.0025C193.149 16.8735 193.076 16.7716 192.978 16.6968C192.882 16.6214 192.762 16.584 192.618 16.584C192.479 16.584 192.361 16.6201 192.265 16.6917C192.171 16.7632 192.098 16.8632 192.049 16.9915C192 17.1198 191.975 17.2694 191.975 17.4402ZM195.309 18.7207C195.066 18.7207 194.857 18.6691 194.682 18.5653C194.508 18.4608 194.373 18.3138 194.278 18.1243C194.184 17.9341 194.137 17.7117 194.137 17.4563C194.137 17.2043 194.184 16.9818 194.278 16.7897C194.373 16.5969 194.505 16.4473 194.675 16.339C194.846 16.2313 195.046 16.1772 195.275 16.1772C195.414 16.1772 195.548 16.2004 195.679 16.2462C195.809 16.2919 195.926 16.3642 196.029 16.4628C196.133 16.5608 196.215 16.6885 196.275 16.8458C196.334 17.0018 196.365 17.1914 196.365 17.4144V17.5846H194.408V17.2255H195.895C195.895 17.0992 195.869 16.9876 195.818 16.8903C195.767 16.7923 195.695 16.7149 195.602 16.6582C195.51 16.6014 195.402 16.5731 195.278 16.5731C195.143 16.5731 195.026 16.6059 194.926 16.6723C194.826 16.7375 194.749 16.8232 194.695 16.929C194.641 17.0334 194.614 17.1475 194.614 17.27V17.5505C194.614 17.7155 194.643 17.8554 194.701 17.9708C194.76 18.0863 194.842 18.1739 194.946 18.2352C195.051 18.2952 195.173 18.3248 195.313 18.3248C195.404 18.3248 195.486 18.3119 195.561 18.2861C195.636 18.2597 195.701 18.2204 195.755 18.1675C195.81 18.1153 195.851 18.0508 195.88 17.9741L196.334 18.0553C196.298 18.1894 196.232 18.3061 196.138 18.4067C196.045 18.506 195.929 18.5833 195.788 18.6388C195.648 18.6936 195.488 18.7207 195.309 18.7207ZM197.912 18.7207C197.67 18.7207 197.461 18.6691 197.285 18.5653C197.111 18.4608 196.976 18.3138 196.882 18.1243C196.788 17.9341 196.74 17.7117 196.74 17.4563C196.74 17.2043 196.788 16.9818 196.882 16.7897C196.976 16.5969 197.109 16.4473 197.279 16.339C197.45 16.2313 197.65 16.1772 197.878 16.1772C198.017 16.1772 198.152 16.2004 198.282 16.2462C198.413 16.2919 198.53 16.3642 198.633 16.4628C198.737 16.5608 198.818 16.6885 198.878 16.8458C198.938 17.0018 198.968 17.1914 198.968 17.4144V17.5846H197.011V17.2255H198.499C198.499 17.0992 198.473 16.9876 198.422 16.8903C198.37 16.7923 198.298 16.7149 198.205 16.6582C198.114 16.6014 198.005 16.5731 197.882 16.5731C197.747 16.5731 197.63 16.6059 197.529 16.6723C197.43 16.7375 197.353 16.8232 197.298 16.929C197.245 17.0334 197.218 17.1475 197.218 17.27V17.5505C197.218 17.7155 197.247 17.8554 197.305 17.9708C197.363 18.0863 197.445 18.1739 197.55 18.2352C197.655 18.2952 197.777 18.3248 197.917 18.3248C198.007 18.3248 198.091 18.3119 198.165 18.2861C198.24 18.2597 198.305 18.2204 198.359 18.1675C198.414 18.1153 198.455 18.0508 198.485 17.9741L198.938 18.0553C198.902 18.1894 198.837 18.3061 198.742 18.4067C198.65 18.506 198.532 18.5833 198.391 18.6388C198.251 18.6936 198.092 18.7207 197.912 18.7207ZM199.771 18.7013C199.683 18.7013 199.608 18.6704 199.544 18.6085C199.481 18.5453 199.45 18.4699 199.45 18.3809C199.45 18.2932 199.481 18.2184 199.544 18.1565C199.608 18.0933 199.683 18.0617 199.771 18.0617C199.858 18.0617 199.933 18.0933 199.996 18.1565C200.06 18.2184 200.091 18.2932 200.091 18.3809C200.091 18.4396 200.076 18.4937 200.046 18.5427C200.017 18.5911 199.979 18.6291 199.931 18.6581C199.883 18.6871 199.829 18.7013 199.771 18.7013ZM201.725 18.7207C201.486 18.7207 201.281 18.6665 201.109 18.5588C200.938 18.4499 200.807 18.2997 200.715 18.1082C200.623 17.9173 200.577 17.6981 200.577 17.4512C200.577 17.2017 200.624 16.9805 200.719 16.7897C200.812 16.5969 200.945 16.4473 201.116 16.339C201.287 16.2313 201.488 16.1772 201.72 16.1772C201.907 16.1772 202.074 16.212 202.22 16.2816C202.366 16.35 202.484 16.446 202.574 16.5698C202.665 16.6936 202.719 16.8387 202.736 17.0044H202.27C202.244 16.889 202.185 16.7897 202.093 16.7059C202.003 16.6227 201.881 16.5814 201.728 16.5814C201.594 16.5814 201.477 16.6163 201.377 16.6872C201.278 16.7562 201.2 16.8554 201.145 16.985C201.089 17.1133 201.062 17.2649 201.062 17.4402C201.062 17.6195 201.089 17.7748 201.143 17.9051C201.198 18.0353 201.274 18.1365 201.374 18.2081C201.474 18.2797 201.592 18.3151 201.728 18.3151C201.819 18.3151 201.901 18.2984 201.974 18.2655C202.049 18.2313 202.112 18.183 202.162 18.1198C202.214 18.0566 202.249 17.9805 202.27 17.8922H202.736C202.719 18.0514 202.667 18.1933 202.581 18.3184C202.494 18.4434 202.378 18.5414 202.233 18.6136C202.089 18.6852 201.919 18.7207 201.725 18.7207ZM204.24 18.7207C204.009 18.7207 203.808 18.6678 203.636 18.5621C203.464 18.4563 203.33 18.308 203.236 18.1178C203.14 17.9276 203.093 17.7059 203.093 17.4512C203.093 17.1959 203.14 16.9728 203.236 16.7813C203.33 16.5905 203.464 16.4415 203.636 16.3358C203.808 16.2301 204.009 16.1772 204.24 16.1772C204.471 16.1772 204.673 16.2301 204.844 16.3358C205.016 16.4415 205.15 16.5905 205.245 16.7813C205.34 16.9728 205.388 17.1959 205.388 17.4512C205.388 17.7059 205.34 17.9276 205.245 18.1178C205.15 18.308 205.016 18.4563 204.844 18.5621C204.673 18.6678 204.471 18.7207 204.24 18.7207ZM204.242 18.3184C204.392 18.3184 204.515 18.279 204.614 18.1997C204.712 18.1211 204.785 18.0153 204.832 17.8838C204.88 17.7529 204.904 17.6079 204.904 17.4499C204.904 17.2926 204.88 17.1482 204.832 17.0173C204.785 16.8845 204.712 16.7781 204.614 16.6981C204.515 16.6182 204.392 16.5782 204.242 16.5782C204.091 16.5782 203.966 16.6182 203.867 16.6981C203.769 16.7781 203.695 16.8845 203.648 17.0173C203.6 17.1482 203.577 17.2926 203.577 17.4499C203.577 17.6079 203.6 17.7529 203.648 17.8838C203.695 18.0153 203.769 18.1211 203.867 18.1997C203.966 18.279 204.091 18.3184 204.242 18.3184ZM205.878 18.671V16.2094H206.337V16.6098H206.368C206.419 16.4744 206.503 16.3687 206.62 16.2926C206.736 16.2159 206.876 16.1772 207.038 16.1772C207.203 16.1772 207.341 16.2159 207.452 16.2926C207.564 16.3693 207.646 16.4751 207.7 16.6098H207.726C207.784 16.4783 207.878 16.3738 208.006 16.2958C208.134 16.2165 208.287 16.1772 208.464 16.1772C208.687 16.1772 208.87 16.2475 209.011 16.3874C209.153 16.5273 209.224 16.7381 209.224 17.0205V18.671H208.745V17.065C208.745 16.8986 208.699 16.7774 208.609 16.7027C208.518 16.6279 208.41 16.5905 208.283 16.5905C208.127 16.5905 208.006 16.6388 207.92 16.7349C207.833 16.8303 207.789 16.9522 207.789 17.1017V18.671H207.312V17.0347C207.312 16.9012 207.27 16.7936 207.187 16.7123C207.103 16.6311 206.995 16.5905 206.862 16.5905C206.771 16.5905 206.687 16.615 206.61 16.6627C206.534 16.7097 206.473 16.7755 206.426 16.86C206.38 16.9444 206.357 17.0424 206.357 17.1533V18.671H205.878Z" fill="#4C4C4C"/>
</g>
<defs>
<filter id="filter0_d_5044_25110" x="0" y="0" width="369" height="292.922" filterUnits="userSpaceOnUse" color-interpolation-filters="sRGB">
<feFlood flood-opacity="0" result="BackgroundImageFix"/>
<feColorMatrix in="SourceAlpha" type="matrix" values="0 0 0 0 0 0 0 0 0 0 0 0 0 0 0 0 0 0 127 0" result="hardAlpha"/>
<feOffset dy="4"/>
<feGaussianBlur stdDeviation="6.5"/>
<feComposite in2="hardAlpha" operator="out"/>
<feColorMatrix type="matrix" values="0 0 0 0 0.768627 0 0 0 0 0.768627 0 0 0 0 0.768627 0 0 0 0.2 0"/>
<feBlend mode="normal" in2="BackgroundImageFix" result="effect1_dropShadow_5044_25110"/>
<feBlend mode="normal" in="SourceGraphic" in2="effect1_dropShadow_5044_25110" result="shape"/>
</filter>
</defs>
</svg>
