<svg width="1235" height="500" viewBox="0 0 1235 500" fill="none" xmlns="http://www.w3.org/2000/svg">
<g opacity="0.03">
<path fill-rule="evenodd" clip-rule="evenodd" d="M1284.3 -12.9609L1338.32 18.229V80.6088L1284.3 111.799L1230.28 80.6088V18.229L1284.3 -12.9609ZM1335.45 19.8852L1284.3 -9.64856L1233.15 19.8852V78.9431L1284.3 108.477L1335.45 78.9431V19.8852Z" fill="#2E3135"/>
<path fill-rule="evenodd" clip-rule="evenodd" d="M1164.57 111.787L1110.55 80.5971V18.2173L1164.57 -12.9727L1218.6 18.2173V80.5971L1164.57 111.787ZM1113.42 78.9409L1164.57 108.475L1215.72 78.9409V19.883L1164.57 -9.65071L1113.42 19.883V78.9409Z" fill="#2E3135"/>
<path fill-rule="evenodd" clip-rule="evenodd" d="M1170.41 121.182L1224.44 89.9922L1278.46 121.182V183.562L1224.44 214.752L1170.41 183.562V121.182ZM1173.29 181.896L1224.44 211.43L1275.59 181.896V122.838L1224.44 93.3046L1173.29 122.838V181.896Z" fill="#2E3135"/>
<path fill-rule="evenodd" clip-rule="evenodd" d="M1044.85 111.787L990.828 80.5971V18.2173L1044.85 -12.9727L1098.87 18.2173V80.5971L1044.85 111.787ZM993.7 78.9409L1044.85 108.475L1096 78.9409V19.883L1044.85 -9.65071L993.7 19.883V78.9409Z" fill="#2E3135"/>
<path fill-rule="evenodd" clip-rule="evenodd" d="M925.126 111.787L871.104 80.5971V18.2173L925.126 -12.9727L979.148 18.2173V80.5971L925.126 111.787ZM873.976 78.9409L925.126 108.475L976.276 78.9409V19.883L925.126 -9.65071L873.976 19.883V78.9409Z" fill="#2E3135"/>
<path fill-rule="evenodd" clip-rule="evenodd" d="M930.975 121.182L984.997 89.9922L1039.02 121.182V183.562L984.997 214.752L930.975 183.562V121.182ZM933.847 181.896L984.997 211.43L1036.15 181.896V122.838L984.997 93.3046L933.847 122.838V181.896Z" fill="#2E3135"/>
<path fill-rule="evenodd" clip-rule="evenodd" d="M806.081 111.787L752.059 80.5971V18.2173L806.081 -12.9727L860.104 18.2173V80.5971L806.081 111.787ZM754.931 78.9409L806.081 108.475L857.232 78.9409V19.883L806.081 -9.65071L754.931 19.883V78.9409Z" fill="#2E3135"/>
<path fill-rule="evenodd" clip-rule="evenodd" d="M686.357 111.787L632.335 80.5971V18.2173L686.357 -12.9727L740.38 18.2173V80.5971L686.357 111.787ZM635.207 78.9409L686.357 108.475L737.508 78.9409V19.883L686.357 -9.65071L635.207 19.883V78.9409Z" fill="#2E3135"/>
<path fill-rule="evenodd" clip-rule="evenodd" d="M692.197 121.182L746.219 89.9922L800.241 121.182V183.562L746.219 214.752L692.197 183.562V121.182ZM695.069 181.896L746.219 211.43L797.369 181.896V122.838L746.219 93.3046L695.069 122.838V181.896Z" fill="#2E3135"/>
<path fill-rule="evenodd" clip-rule="evenodd" d="M566.633 111.787L512.611 80.5971V18.2173L566.633 -12.9727L620.655 18.2173V80.5971L566.633 111.787ZM515.483 78.9409L566.633 108.475L617.783 78.9409V19.883L566.633 -9.65071L515.483 19.883V78.9409Z" fill="#2E3135"/>
<path fill-rule="evenodd" clip-rule="evenodd" d="M446.909 111.787L392.887 80.5971V18.2173L446.909 -12.9727L500.931 18.2173V80.5971L446.909 111.787ZM395.759 78.9409L446.909 108.475L498.059 78.9409V19.883L446.909 -9.65071L395.759 19.883V78.9409Z" fill="#2E3135"/>
<path fill-rule="evenodd" clip-rule="evenodd" d="M452.749 121.182L506.771 89.9922L560.793 121.182V183.562L506.771 214.752L452.749 183.562V121.182ZM455.621 181.896L506.771 211.43L557.921 181.896V122.838L506.771 93.3046L455.621 122.838V181.896Z" fill="#2E3135"/>
<path fill-rule="evenodd" clip-rule="evenodd" d="M327.185 111.787L273.163 80.5971V18.2173L327.185 -12.9727L381.207 18.2173V80.5971L327.185 111.787ZM276.035 78.9409L327.185 108.475L378.335 78.9409V19.883L327.185 -9.65071L276.035 19.883V78.9409Z" fill="#2E3135"/>
<path fill-rule="evenodd" clip-rule="evenodd" d="M213.31 121.182L267.332 89.9922L321.355 121.182V183.562L267.332 214.752L213.31 183.562V121.182ZM216.182 181.896L267.332 211.43L318.483 181.896V122.838L267.332 93.3046L216.182 122.838V181.896Z" fill="#2E3135"/>
<path fill-rule="evenodd" clip-rule="evenodd" d="M207.461 111.787L153.438 80.5971V18.2173L207.461 -12.9727L261.483 18.2173V80.5971L207.461 111.787ZM156.31 78.9409L207.461 108.475L258.611 78.9409V19.883L207.461 -9.65071L156.31 19.883V78.9409Z" fill="#2E3135"/>
<path fill-rule="evenodd" clip-rule="evenodd" d="M87.746 111.787L33.7236 80.5971V18.2173L87.746 -12.9727L141.768 18.2173V80.5971L87.746 111.787ZM36.5956 78.9409L87.746 108.475L138.896 78.9409V19.883L87.746 -9.65071L36.5956 19.883V78.9409Z" fill="#2E3135"/>
<path fill-rule="evenodd" clip-rule="evenodd" d="M-31.9777 111.787L-86 80.5971V18.2173L-31.9777 -12.9727L22.0446 18.2173V80.5971L-31.9777 111.787ZM-83.128 78.9409L-31.9777 108.475L19.1726 78.9409V19.883L-31.9777 -9.65071L-83.128 19.883V78.9409Z" fill="#2E3135"/>
<path fill-rule="evenodd" clip-rule="evenodd" d="M27.8841 214.752L-26.1382 183.562V121.182L27.8841 89.9922L81.9065 121.182V183.562L27.8841 214.752ZM-23.2662 181.906L27.8841 211.439L79.0345 181.906V122.848L27.8841 93.3141L-23.2662 122.848V181.906Z" fill="#2E3135"/>
<path fill-rule="evenodd" clip-rule="evenodd" d="M93.5859 121.182L147.608 89.9922L201.631 121.182V183.562L147.608 214.752L93.5859 183.562V121.182ZM96.4579 181.896L147.608 211.43L198.759 181.896V122.838L147.608 93.3046L96.4579 122.838V181.896Z" fill="#2E3135"/>
<path fill-rule="evenodd" clip-rule="evenodd" d="M332.594 121.182L386.616 89.9922L440.638 121.182V183.562L386.616 214.752L332.594 183.562V121.182ZM335.466 181.896L386.616 211.43L437.766 181.896V122.838L386.616 93.3046L335.466 122.838V181.896Z" fill="#2E3135"/>
<path fill-rule="evenodd" clip-rule="evenodd" d="M571.602 121.182L625.624 89.9922L679.646 121.182V183.562L625.624 214.752L571.602 183.562V121.182ZM574.474 181.896L625.624 211.43L676.774 181.896V122.838L625.624 93.3046L574.474 122.838V181.896Z" fill="#2E3135"/>
<path fill-rule="evenodd" clip-rule="evenodd" d="M810.6 121.182L864.622 89.9922L918.645 121.182V183.562L864.622 214.752L810.6 183.562V121.182ZM813.472 181.896L864.622 211.43L915.773 181.896V122.838L864.622 93.3046L813.472 122.838V181.896Z" fill="#2E3135"/>
<path fill-rule="evenodd" clip-rule="evenodd" d="M1049.61 121.182L1103.63 89.9922L1157.65 121.182V183.562L1103.63 214.752L1049.61 183.562V121.182ZM1052.48 181.896L1103.63 211.43L1154.78 181.896V122.838L1103.63 93.3046L1052.48 122.838V181.896Z" fill="#2E3135"/>
<path fill-rule="evenodd" clip-rule="evenodd" d="M1284.3 193.449L1338.32 224.639V287.019L1284.3 318.209L1230.28 287.019V224.639L1284.3 193.449ZM1335.45 226.295L1284.3 196.762L1233.15 226.295V285.353L1284.3 314.887L1335.45 285.353V226.295Z" fill="#2E3135"/>
<path fill-rule="evenodd" clip-rule="evenodd" d="M1218.6 287.019L1164.57 318.209L1110.55 287.019V224.639L1164.57 193.449L1218.6 224.639V287.019ZM1215.72 226.305L1164.57 196.771L1113.42 226.305V285.363L1164.57 314.896L1215.72 285.363V226.305Z" fill="#2E3135"/>
<path fill-rule="evenodd" clip-rule="evenodd" d="M1278.46 389.968L1224.44 421.158L1170.41 389.968V327.588L1224.44 296.398L1278.46 327.588V389.968ZM1275.59 329.254L1224.44 299.72L1173.29 329.254V388.312L1224.44 417.846L1275.59 388.312V329.254Z" fill="#2E3135"/>
<path fill-rule="evenodd" clip-rule="evenodd" d="M1044.85 193.449L1098.87 224.639V287.019L1044.85 318.209L990.828 287.019V224.639L1044.85 193.449ZM1096 226.295L1044.85 196.762L993.7 226.295V285.353L1044.85 314.887L1096 285.353V226.295Z" fill="#2E3135"/>
<path fill-rule="evenodd" clip-rule="evenodd" d="M925.126 193.449L979.148 224.639V287.019L925.126 318.209L871.104 287.019V224.639L925.126 193.449ZM976.276 226.295L925.126 196.762L873.976 226.295V285.353L925.126 314.887L976.276 285.353V226.295Z" fill="#2E3135"/>
<path fill-rule="evenodd" clip-rule="evenodd" d="M984.988 296.41L1039.01 327.6V389.98L984.988 421.17L930.965 389.98V327.6L984.988 296.41ZM1036.14 329.256L984.988 299.723L933.837 329.256V388.314L984.988 417.848L1036.14 388.314V329.256Z" fill="#2E3135"/>
<path fill-rule="evenodd" clip-rule="evenodd" d="M806.081 193.449L860.104 224.639V287.019L806.081 318.209L752.059 287.019V224.639L806.081 193.449ZM857.232 226.295L806.081 196.762L754.931 226.295V285.353L806.081 314.887L857.232 285.353V226.295Z" fill="#2E3135"/>
<path fill-rule="evenodd" clip-rule="evenodd" d="M686.357 193.449L740.38 224.639V287.019L686.357 318.209L632.335 287.019V224.639L686.357 193.449ZM737.508 226.295L686.357 196.762L635.207 226.295V285.353L686.357 314.887L737.508 285.353V226.295Z" fill="#2E3135"/>
<path fill-rule="evenodd" clip-rule="evenodd" d="M746.219 296.41L800.241 327.6V389.98L746.219 421.17L692.197 389.98V327.6L746.219 296.41ZM797.369 329.256L746.219 299.723L695.069 329.256V388.314L746.219 417.848L797.369 388.314V329.256Z" fill="#2E3135"/>
<path fill-rule="evenodd" clip-rule="evenodd" d="M566.633 193.449L620.655 224.639V287.019L566.633 318.209L512.611 287.019V224.639L566.633 193.449ZM617.783 226.295L566.633 196.762L515.483 226.295V285.353L566.633 314.887L617.783 285.353V226.295Z" fill="#2E3135"/>
<path fill-rule="evenodd" clip-rule="evenodd" d="M446.909 193.449L500.931 224.639V287.019L446.909 318.209L392.887 287.019V224.639L446.909 193.449ZM498.059 226.295L446.909 196.762L395.759 226.295V285.353L446.909 314.887L498.059 285.353V226.295Z" fill="#2E3135"/>
<path fill-rule="evenodd" clip-rule="evenodd" d="M506.771 296.41L560.793 327.6V389.98L506.771 421.17L452.749 389.98V327.6L506.771 296.41ZM557.921 329.256L506.771 299.723L455.621 329.256V388.314L506.771 417.848L557.921 388.314V329.256Z" fill="#2E3135"/>
<path fill-rule="evenodd" clip-rule="evenodd" d="M327.185 193.449L381.207 224.639V287.019L327.185 318.209L273.163 287.019V224.639L327.185 193.449ZM378.335 226.295L327.185 196.762L276.035 226.295V285.353L327.185 314.887L378.335 285.353V226.295Z" fill="#2E3135"/>
<path fill-rule="evenodd" clip-rule="evenodd" d="M267.323 296.41L321.345 327.6V389.98L267.323 421.17L213.301 389.98V327.6L267.323 296.41ZM318.473 329.256L267.323 299.723L216.173 329.256V388.314L267.323 417.848L318.473 388.314V329.256Z" fill="#2E3135"/>
<path fill-rule="evenodd" clip-rule="evenodd" d="M207.461 193.449L261.483 224.639V287.019L207.461 318.209L153.438 287.019V224.639L207.461 193.449ZM258.611 226.295L207.461 196.762L156.31 226.295V285.353L207.461 314.887L258.611 285.353V226.295Z" fill="#2E3135"/>
<path fill-rule="evenodd" clip-rule="evenodd" d="M87.746 193.449L141.768 224.639V287.019L87.746 318.209L33.7236 287.019V224.639L87.746 193.449ZM138.896 226.295L87.746 196.762L36.5956 226.295V285.353L87.746 314.887L138.896 285.353V226.295Z" fill="#2E3135"/>
<path fill-rule="evenodd" clip-rule="evenodd" d="M-31.9777 318.209L-86 287.019V224.639L-31.9777 193.449L22.0446 224.639V287.019L-31.9777 318.209ZM-83.128 285.363L-31.9777 314.896L19.1726 285.363V226.305L-31.9777 196.771L-83.128 226.305V285.363Z" fill="#2E3135"/>
<path fill-rule="evenodd" clip-rule="evenodd" d="M27.8841 421.158L-26.1382 389.968V327.588L27.8841 296.398L81.9065 327.588V389.968L27.8841 421.158ZM-23.2662 388.312L27.8841 417.846L79.0345 388.312V329.254L27.8841 299.72L-23.2662 329.254V388.312Z" fill="#2E3135"/>
<path fill-rule="evenodd" clip-rule="evenodd" d="M147.598 296.41L201.621 327.6V389.98L147.598 421.17L93.5762 389.98V327.6L147.598 296.41ZM198.749 329.256L147.598 299.723L96.4482 329.256V388.314L147.598 417.848L198.749 388.314V329.256Z" fill="#2E3135"/>
<path fill-rule="evenodd" clip-rule="evenodd" d="M386.606 296.41L440.629 327.6V389.98L386.606 421.17L332.584 389.98V327.6L386.606 296.41ZM437.757 329.256L386.606 299.723L335.456 329.256V388.314L386.606 417.848L437.757 388.314V329.256Z" fill="#2E3135"/>
<path fill-rule="evenodd" clip-rule="evenodd" d="M625.615 296.41L679.637 327.6V389.98L625.615 421.17L571.592 389.98V327.6L625.615 296.41ZM676.765 329.256L625.615 299.723L574.464 329.256V388.314L625.615 417.848L676.765 388.314V329.256Z" fill="#2E3135"/>
<path fill-rule="evenodd" clip-rule="evenodd" d="M864.622 296.41L918.645 327.6V389.98L864.622 421.17L810.6 389.98V327.6L864.622 296.41ZM915.773 329.256L864.622 299.723L813.472 329.256V388.314L864.622 417.848L915.773 388.314V329.256Z" fill="#2E3135"/>
<path fill-rule="evenodd" clip-rule="evenodd" d="M1103.63 296.41L1157.65 327.6V389.98L1103.63 421.17L1049.61 389.98V327.6L1103.63 296.41ZM1154.78 329.256L1103.63 299.723L1052.48 329.256V388.314L1103.63 417.848L1154.78 388.314V329.256Z" fill="#2E3135"/>
<path fill-rule="evenodd" clip-rule="evenodd" d="M1284.3 399.859L1338.32 431.049V493.429L1284.3 524.619L1230.28 493.429V431.049L1284.3 399.859ZM1335.45 432.705L1284.3 403.172L1233.15 432.705V491.763L1284.3 521.297L1335.45 491.763V432.705Z" fill="#2E3135"/>
<path fill-rule="evenodd" clip-rule="evenodd" d="M1218.6 493.429L1164.57 524.619L1110.55 493.429V431.049L1164.57 399.859L1218.6 431.049V493.429ZM1215.72 432.715L1164.57 403.181L1113.42 432.715V491.773L1164.57 521.307L1215.72 491.773V432.715Z" fill="#2E3135"/>
<path fill-rule="evenodd" clip-rule="evenodd" d="M1044.85 399.859L1098.87 431.049V493.429L1044.85 524.619L990.828 493.429V431.049L1044.85 399.859ZM1096 432.705L1044.85 403.172L993.7 432.705V491.763L1044.85 521.297L1096 491.763V432.705Z" fill="#2E3135"/>
<path fill-rule="evenodd" clip-rule="evenodd" d="M925.126 399.859L979.148 431.049V493.429L925.126 524.619L871.104 493.429V431.049L925.126 399.859ZM976.276 432.705L925.126 403.172L873.976 432.705V491.763L925.126 521.297L976.276 491.763V432.705Z" fill="#2E3135"/>
<path fill-rule="evenodd" clip-rule="evenodd" d="M806.081 399.859L860.104 431.049V493.429L806.081 524.619L752.059 493.429V431.049L806.081 399.859ZM857.232 432.705L806.081 403.172L754.931 432.705V491.763L806.081 521.297L857.232 491.763V432.705Z" fill="#2E3135"/>
<path fill-rule="evenodd" clip-rule="evenodd" d="M686.357 399.859L740.38 431.049V493.429L686.357 524.619L632.335 493.429V431.049L686.357 399.859ZM737.508 432.705L686.357 403.172L635.207 432.705V491.763L686.357 521.297L737.508 491.763V432.705Z" fill="#2E3135"/>
<path fill-rule="evenodd" clip-rule="evenodd" d="M566.633 399.859L620.655 431.049V493.429L566.633 524.619L512.611 493.429V431.049L566.633 399.859ZM617.783 432.705L566.633 403.172L515.483 432.705V491.763L566.633 521.297L617.783 491.763V432.705Z" fill="#2E3135"/>
<path fill-rule="evenodd" clip-rule="evenodd" d="M446.909 399.859L500.931 431.049V493.429L446.909 524.619L392.887 493.429V431.049L446.909 399.859ZM498.059 432.705L446.909 403.172L395.759 432.705V491.763L446.909 521.297L498.059 491.763V432.705Z" fill="#2E3135"/>
<path fill-rule="evenodd" clip-rule="evenodd" d="M327.185 399.859L381.207 431.049V493.429L327.185 524.619L273.163 493.429V431.049L327.185 399.859ZM378.335 432.705L327.185 403.172L276.035 432.705V491.763L327.185 521.297L378.335 491.763V432.705Z" fill="#2E3135"/>
<path fill-rule="evenodd" clip-rule="evenodd" d="M207.461 399.859L261.483 431.049V493.429L207.461 524.619L153.438 493.429V431.049L207.461 399.859ZM258.611 432.705L207.461 403.172L156.31 432.705V491.763L207.461 521.297L258.611 491.763V432.705Z" fill="#2E3135"/>
<path fill-rule="evenodd" clip-rule="evenodd" d="M33.7236 431.049L87.746 399.859L141.768 431.049V493.429L87.746 524.619L33.7236 493.429V431.049ZM36.5956 491.763L87.746 521.297L138.896 491.763V432.705L87.746 403.172L36.5956 432.705V491.763Z" fill="#2E3135"/>
<path fill-rule="evenodd" clip-rule="evenodd" d="M-31.9777 524.619L-86 493.429V431.049L-31.9777 399.859L22.0446 431.049V493.429L-31.9777 524.619ZM-83.128 491.773L-31.9777 521.307L19.1726 491.773V432.715L-31.9777 403.181L-83.128 432.715V491.773Z" fill="#2E3135"/>
<path d="M1170.41 -22.5831V-24H1173.7L1224.44 5.2944L1275.17 -24H1278.46V-22.5831L1224.44 8.60677L1170.41 -22.5831Z" fill="#2E3135"/>
<path d="M930.975 -22.5831V-24H934.259L984.997 5.2944L1035.74 -24H1039.02V-22.5831L984.997 8.60677L930.975 -22.5831Z" fill="#2E3135"/>
<path d="M692.197 -22.5831V-24H695.48L746.219 5.2944L796.958 -24H800.241V-22.5831L746.219 8.60677L692.197 -22.5831Z" fill="#2E3135"/>
<path d="M452.749 -22.5831V-24H456.032L506.771 5.2944L557.51 -24H560.793V-22.5831L506.771 8.60677L452.749 -22.5831Z" fill="#2E3135"/>
<path d="M213.31 -22.5831V-24H216.594L267.332 5.2944L318.071 -24H321.355V-22.5831L267.332 8.60677L213.31 -22.5831Z" fill="#2E3135"/>
<path d="M-26.1382 -22.5831V-24H-22.8545L27.8841 5.2944L78.6228 -24H81.9065V-22.5831L27.8841 8.60677L-26.1382 -22.5831Z" fill="#2E3135"/>
<path d="M93.5859 -22.5831V-24H96.8696L147.608 5.2944L198.347 -24H201.631V-22.5831L147.608 8.60677L93.5859 -22.5831Z" fill="#2E3135"/>
<path d="M332.594 -22.5831V-24H335.877L386.616 5.2944L437.355 -24H440.638V-22.5831L386.616 8.60677L332.594 -22.5831Z" fill="#2E3135"/>
<path d="M571.602 -22.5831V-24H574.885L625.624 5.2944L676.363 -24H679.646V-22.5831L625.624 8.60677L571.602 -22.5831Z" fill="#2E3135"/>
<path d="M810.6 -22.5831V-24H813.884L864.622 5.2944L915.361 -24H918.645V-22.5831L864.622 8.60677L810.6 -22.5831Z" fill="#2E3135"/>
<path d="M1049.61 -22.5831V-24H1052.89L1103.63 5.2944L1154.37 -24H1157.65V-22.5831L1103.63 8.60677L1049.61 -22.5831Z" fill="#2E3135"/>
</g>
</svg>
