<svg width="1436" height="1024" viewBox="0 0 1436 1024" fill="none" xmlns="http://www.w3.org/2000/svg">
<g opacity="0.11" clip-path="url(#clip0_3380_23756)">
<path fill-rule="evenodd" clip-rule="evenodd" d="M1256.41 -12.8198L1310.44 -44.0098L1364.46 -12.8198V49.56L1310.44 80.7499L1256.41 49.56V-12.8198ZM1259.29 47.8942L1310.44 77.428L1361.59 47.8942V-11.1637L1310.44 -40.6974L1259.29 -11.1637V47.8942Z" fill="#F8C455"/>
<path fill-rule="evenodd" clip-rule="evenodd" d="M1256.41 -12.8198L1310.44 -44.0098L1364.46 -12.8198V49.56L1310.44 80.7499L1256.41 49.56V-12.8198ZM1259.29 47.8942L1310.44 77.428L1361.59 47.8942V-11.1637L1310.44 -40.6974L1259.29 -11.1637V47.8942Z" fill="black" fill-opacity="0.25"/>
<path fill-rule="evenodd" clip-rule="evenodd" d="M1016.98 -12.8198L1071 -44.0098L1125.02 -12.8198V49.56L1071 80.7499L1016.98 49.56V-12.8198ZM1019.85 47.8942L1071 77.428L1122.15 47.8942V-11.1637L1071 -40.6974L1019.85 -11.1637V47.8942Z" fill="#F8C455"/>
<path fill-rule="evenodd" clip-rule="evenodd" d="M1016.98 -12.8198L1071 -44.0098L1125.02 -12.8198V49.56L1071 80.7499L1016.98 49.56V-12.8198ZM1019.85 47.8942L1071 77.428L1122.15 47.8942V-11.1637L1071 -40.6974L1019.85 -11.1637V47.8942Z" fill="black" fill-opacity="0.25"/>
<path fill-rule="evenodd" clip-rule="evenodd" d="M778.197 -12.8198L832.219 -44.0098L886.241 -12.8198V49.56L832.219 80.7499L778.197 49.56V-12.8198ZM781.069 47.8942L832.219 77.428L883.369 47.8942V-11.1637L832.219 -40.6974L781.069 -11.1637V47.8942Z" fill="#F8C455"/>
<path fill-rule="evenodd" clip-rule="evenodd" d="M778.197 -12.8198L832.219 -44.0098L886.241 -12.8198V49.56L832.219 80.7499L778.197 49.56V-12.8198ZM781.069 47.8942L832.219 77.428L883.369 47.8942V-11.1637L832.219 -40.6974L781.069 -11.1637V47.8942Z" fill="black" fill-opacity="0.25"/>
<path fill-rule="evenodd" clip-rule="evenodd" d="M538.749 -12.8198L592.771 -44.0098L646.793 -12.8198V49.56L592.771 80.7499L538.749 49.56V-12.8198ZM541.621 47.8942L592.771 77.428L643.921 47.8942V-11.1637L592.771 -40.6974L541.621 -11.1637V47.8942Z" fill="#F8C455"/>
<path fill-rule="evenodd" clip-rule="evenodd" d="M538.749 -12.8198L592.771 -44.0098L646.793 -12.8198V49.56L592.771 80.7499L538.749 49.56V-12.8198ZM541.621 47.8942L592.771 77.428L643.921 47.8942V-11.1637L592.771 -40.6974L541.621 -11.1637V47.8942Z" fill="black" fill-opacity="0.25"/>
<path fill-rule="evenodd" clip-rule="evenodd" d="M299.31 -12.8198L353.332 -44.0098L407.355 -12.8198V49.56L353.332 80.7499L299.31 49.56V-12.8198ZM302.182 47.8942L353.332 77.428L404.483 47.8942V-11.1637L353.332 -40.6974L302.182 -11.1637V47.8942Z" fill="#F8C455"/>
<path fill-rule="evenodd" clip-rule="evenodd" d="M299.31 -12.8198L353.332 -44.0098L407.355 -12.8198V49.56L353.332 80.7499L299.31 49.56V-12.8198ZM302.182 47.8942L353.332 77.428L404.483 47.8942V-11.1637L353.332 -40.6974L302.182 -11.1637V47.8942Z" fill="black" fill-opacity="0.25"/>
<path fill-rule="evenodd" clip-rule="evenodd" d="M113.884 80.7499L59.8618 49.56V-12.8198L113.884 -44.0098L167.906 -12.8198V49.56L113.884 80.7499V80.7499ZM62.7338 47.9038L113.884 77.4375L165.034 47.9038V-11.1541L113.884 -40.6878L62.7338 -11.1541V47.9038Z" fill="#F8C455"/>
<path fill-rule="evenodd" clip-rule="evenodd" d="M113.884 80.7499L59.8618 49.56V-12.8198L113.884 -44.0098L167.906 -12.8198V49.56L113.884 80.7499V80.7499ZM62.7338 47.9038L113.884 77.4375L165.034 47.9038V-11.1541L113.884 -40.6878L62.7338 -11.1541V47.9038Z" fill="black" fill-opacity="0.25"/>
<path fill-rule="evenodd" clip-rule="evenodd" d="M179.586 -12.8198L233.608 -44.0098L287.631 -12.8198V49.56L233.608 80.7499L179.586 49.56V-12.8198V-12.8198ZM182.458 47.8942L233.608 77.428L284.759 47.8942V-11.1637L233.608 -40.6974L182.458 -11.1637V47.8942V47.8942Z" fill="#F8C455"/>
<path fill-rule="evenodd" clip-rule="evenodd" d="M179.586 -12.8198L233.608 -44.0098L287.631 -12.8198V49.56L233.608 80.7499L179.586 49.56V-12.8198V-12.8198ZM182.458 47.8942L233.608 77.428L284.759 47.8942V-11.1637L233.608 -40.6974L182.458 -11.1637V47.8942V47.8942Z" fill="black" fill-opacity="0.25"/>
<path fill-rule="evenodd" clip-rule="evenodd" d="M418.594 -12.8198L472.616 -44.0098L526.638 -12.8198V49.56L472.616 80.7499L418.594 49.56V-12.8198ZM421.466 47.8942L472.616 77.428L523.766 47.8942V-11.1637L472.616 -40.6974L421.466 -11.1637V47.8942Z" fill="#F8C455"/>
<path fill-rule="evenodd" clip-rule="evenodd" d="M418.594 -12.8198L472.616 -44.0098L526.638 -12.8198V49.56L472.616 80.7499L418.594 49.56V-12.8198ZM421.466 47.8942L472.616 77.428L523.766 47.8942V-11.1637L472.616 -40.6974L421.466 -11.1637V47.8942Z" fill="black" fill-opacity="0.25"/>
<path fill-rule="evenodd" clip-rule="evenodd" d="M657.602 -12.8198L711.624 -44.0098L765.646 -12.8198V49.56L711.624 80.7499L657.602 49.56V-12.8198ZM660.474 47.8942L711.624 77.428L762.774 47.8942V-11.1637L711.624 -40.6974L660.474 -11.1637V47.8942Z" fill="#F8C455"/>
<path fill-rule="evenodd" clip-rule="evenodd" d="M657.602 -12.8198L711.624 -44.0098L765.646 -12.8198V49.56L711.624 80.7499L657.602 49.56V-12.8198ZM660.474 47.8942L711.624 77.428L762.774 47.8942V-11.1637L711.624 -40.6974L660.474 -11.1637V47.8942Z" fill="black" fill-opacity="0.25"/>
<path fill-rule="evenodd" clip-rule="evenodd" d="M896.6 -12.8198L950.622 -44.0098L1004.64 -12.8198V49.56L950.622 80.7499L896.6 49.56V-12.8198ZM899.472 47.8942L950.622 77.428L1001.77 47.8942V-11.1637L950.622 -40.6974L899.472 -11.1637V47.8942Z" fill="#F8C455"/>
<path fill-rule="evenodd" clip-rule="evenodd" d="M896.6 -12.8198L950.622 -44.0098L1004.64 -12.8198V49.56L950.622 80.7499L896.6 49.56V-12.8198ZM899.472 47.8942L950.622 77.428L1001.77 47.8942V-11.1637L950.622 -40.6974L899.472 -11.1637V47.8942Z" fill="black" fill-opacity="0.25"/>
<path fill-rule="evenodd" clip-rule="evenodd" d="M1135.61 -12.8198L1189.63 -44.0098L1243.65 -12.8198V49.56L1189.63 80.7499L1135.61 49.56V-12.8198ZM1138.48 47.8942L1189.63 77.428L1240.78 47.8942V-11.1637L1189.63 -40.6974L1138.48 -11.1637V47.8942Z" fill="#F8C455"/>
<path fill-rule="evenodd" clip-rule="evenodd" d="M1135.61 -12.8198L1189.63 -44.0098L1243.65 -12.8198V49.56L1189.63 80.7499L1135.61 49.56V-12.8198ZM1138.48 47.8942L1189.63 77.428L1240.78 47.8942V-11.1637L1189.63 -40.6974L1138.48 -11.1637V47.8942Z" fill="black" fill-opacity="0.25"/>
<path d="M1428.64 -44.0002L1436 -39.7496V-36.4373L1428.64 -40.6878L1377.49 -11.1541V47.9038L1428.64 77.4375L1436 73.187V76.4994L1428.64 80.7499L1374.62 49.56V-12.8198L1428.64 -44.0098V-44.0002Z" fill="#F8C455"/>
<path d="M1428.64 -44.0002L1436 -39.7496V-36.4373L1428.64 -40.6878L1377.49 -11.1541V47.9038L1428.64 77.4375L1436 73.187V76.4994L1428.64 80.7499L1374.62 49.56V-12.8198L1428.64 -44.0098V-44.0002Z" fill="black" fill-opacity="0.25"/>
<path d="M46.6604 49.5596L0 76.499V73.1866L43.7884 47.9035V-11.1544L0 -36.4376V-39.75L46.6604 -12.8106V49.5692V49.5596Z" fill="#F8C455"/>
<path d="M46.6604 49.5596L0 76.499V73.1866L43.7884 47.9035V-11.1544L0 -36.4376V-39.75L46.6604 -12.8106V49.5692V49.5596Z" fill="black" fill-opacity="0.25"/>
<path fill-rule="evenodd" clip-rule="evenodd" d="M1370.3 59.4492L1424.32 90.6391V153.019L1370.3 184.209L1316.28 153.019V90.6391L1370.3 59.4492V59.4492ZM1421.45 92.2953L1370.3 62.7616L1319.15 92.2953V151.353L1370.3 180.887L1421.45 151.353V92.2953Z" fill="#F8C455"/>
<path fill-rule="evenodd" clip-rule="evenodd" d="M1370.3 59.4492L1424.32 90.6391V153.019L1370.3 184.209L1316.28 153.019V90.6391L1370.3 59.4492V59.4492ZM1421.45 92.2953L1370.3 62.7616L1319.15 92.2953V151.353L1370.3 180.887L1421.45 151.353V92.2953Z" fill="black" fill-opacity="0.25"/>
<path fill-rule="evenodd" clip-rule="evenodd" d="M1304.6 153.019L1250.57 184.209L1196.55 153.019V90.6391L1250.57 59.4492L1304.6 90.6391V153.019ZM1301.72 92.3049L1250.57 62.7712L1199.42 92.3049V151.363L1250.57 180.896L1301.72 151.363V92.3049Z" fill="#F8C455"/>
<path fill-rule="evenodd" clip-rule="evenodd" d="M1304.6 153.019L1250.57 184.209L1196.55 153.019V90.6391L1250.57 59.4492L1304.6 90.6391V153.019ZM1301.72 92.3049L1250.57 62.7712L1199.42 92.3049V151.363L1250.57 180.896L1301.72 151.363V92.3049Z" fill="black" fill-opacity="0.25"/>
<path fill-rule="evenodd" clip-rule="evenodd" d="M1364.46 255.97L1310.44 287.16L1256.41 255.97V193.59L1310.44 162.4L1364.46 193.59V255.97V255.97ZM1361.59 195.256L1310.44 165.722L1259.29 195.256V254.314L1310.44 283.848L1361.59 254.314V195.256Z" fill="#F8C455"/>
<path fill-rule="evenodd" clip-rule="evenodd" d="M1364.46 255.97L1310.44 287.16L1256.41 255.97V193.59L1310.44 162.4L1364.46 193.59V255.97V255.97ZM1361.59 195.256L1310.44 165.722L1259.29 195.256V254.314L1310.44 283.848L1361.59 254.314V195.256Z" fill="black" fill-opacity="0.25"/>
<path fill-rule="evenodd" clip-rule="evenodd" d="M1130.85 59.4492L1184.87 90.6391V153.019L1130.85 184.209L1076.83 153.019V90.6391L1130.85 59.4492V59.4492ZM1182 92.2953L1130.85 62.7616L1079.7 92.2953V151.353L1130.85 180.887L1182 151.353V92.2953Z" fill="#F8C455"/>
<path fill-rule="evenodd" clip-rule="evenodd" d="M1130.85 59.4492L1184.87 90.6391V153.019L1130.85 184.209L1076.83 153.019V90.6391L1130.85 59.4492V59.4492ZM1182 92.2953L1130.85 62.7616L1079.7 92.2953V151.353L1130.85 180.887L1182 151.353V92.2953Z" fill="black" fill-opacity="0.25"/>
<path fill-rule="evenodd" clip-rule="evenodd" d="M1011.13 59.4492L1065.15 90.6391V153.019L1011.13 184.209L957.104 153.019V90.6391L1011.13 59.4492V59.4492ZM1062.28 92.2953L1011.13 62.7616L959.976 92.2953V151.353L1011.13 180.887L1062.28 151.353V92.2953Z" fill="#F8C455"/>
<path fill-rule="evenodd" clip-rule="evenodd" d="M1011.13 59.4492L1065.15 90.6391V153.019L1011.13 184.209L957.104 153.019V90.6391L1011.13 59.4492V59.4492ZM1062.28 92.2953L1011.13 62.7616L959.976 92.2953V151.353L1011.13 180.887L1062.28 151.353V92.2953Z" fill="black" fill-opacity="0.25"/>
<path fill-rule="evenodd" clip-rule="evenodd" d="M1070.99 162.41L1125.01 193.6V255.98L1070.99 287.17L1016.97 255.98V193.6L1070.99 162.41ZM1122.14 195.256L1070.99 165.723L1019.84 195.256V254.314L1070.99 283.848L1122.14 254.314V195.256Z" fill="#F8C455"/>
<path fill-rule="evenodd" clip-rule="evenodd" d="M1070.99 162.41L1125.01 193.6V255.98L1070.99 287.17L1016.97 255.98V193.6L1070.99 162.41ZM1122.14 195.256L1070.99 165.723L1019.84 195.256V254.314L1070.99 283.848L1122.14 254.314V195.256Z" fill="black" fill-opacity="0.25"/>
<path fill-rule="evenodd" clip-rule="evenodd" d="M892.081 59.4492L946.104 90.6391V153.019L892.081 184.209L838.059 153.019V90.6391L892.081 59.4492V59.4492ZM943.232 92.2953L892.081 62.7616L840.931 92.2953V151.353L892.081 180.887L943.232 151.353V92.2953Z" fill="#F8C455"/>
<path fill-rule="evenodd" clip-rule="evenodd" d="M892.081 59.4492L946.104 90.6391V153.019L892.081 184.209L838.059 153.019V90.6391L892.081 59.4492V59.4492ZM943.232 92.2953L892.081 62.7616L840.931 92.2953V151.353L892.081 180.887L943.232 151.353V92.2953Z" fill="black" fill-opacity="0.25"/>
<path fill-rule="evenodd" clip-rule="evenodd" d="M772.357 59.4492L826.38 90.6391V153.019L772.357 184.209L718.335 153.019V90.6391L772.357 59.4492V59.4492ZM823.508 92.2953L772.357 62.7616L721.207 92.2953V151.353L772.357 180.887L823.508 151.353V92.2953Z" fill="#F8C455"/>
<path fill-rule="evenodd" clip-rule="evenodd" d="M772.357 59.4492L826.38 90.6391V153.019L772.357 184.209L718.335 153.019V90.6391L772.357 59.4492V59.4492ZM823.508 92.2953L772.357 62.7616L721.207 92.2953V151.353L772.357 180.887L823.508 151.353V92.2953Z" fill="black" fill-opacity="0.25"/>
<path fill-rule="evenodd" clip-rule="evenodd" d="M832.219 162.41L886.241 193.6V255.98L832.219 287.17L778.197 255.98V193.6L832.219 162.41ZM883.369 195.256L832.219 165.723L781.069 195.256V254.314L832.219 283.848L883.369 254.314V195.256Z" fill="#F8C455"/>
<path fill-rule="evenodd" clip-rule="evenodd" d="M832.219 162.41L886.241 193.6V255.98L832.219 287.17L778.197 255.98V193.6L832.219 162.41ZM883.369 195.256L832.219 165.723L781.069 195.256V254.314L832.219 283.848L883.369 254.314V195.256Z" fill="black" fill-opacity="0.25"/>
<path fill-rule="evenodd" clip-rule="evenodd" d="M652.633 59.4492L706.655 90.6391V153.019L652.633 184.209L598.611 153.019V90.6391L652.633 59.4492V59.4492ZM703.783 92.2953L652.633 62.7616L601.483 92.2953V151.353L652.633 180.887L703.783 151.353V92.2953Z" fill="#F8C455"/>
<path fill-rule="evenodd" clip-rule="evenodd" d="M652.633 59.4492L706.655 90.6391V153.019L652.633 184.209L598.611 153.019V90.6391L652.633 59.4492V59.4492ZM703.783 92.2953L652.633 62.7616L601.483 92.2953V151.353L652.633 180.887L703.783 151.353V92.2953Z" fill="black" fill-opacity="0.25"/>
<path fill-rule="evenodd" clip-rule="evenodd" d="M532.909 59.4492L586.931 90.6391V153.019L532.909 184.209L478.887 153.019V90.6391L532.909 59.4492V59.4492ZM584.059 92.2953L532.909 62.7616L481.759 92.2953V151.353L532.909 180.887L584.059 151.353V92.2953Z" fill="#F8C455"/>
<path fill-rule="evenodd" clip-rule="evenodd" d="M532.909 59.4492L586.931 90.6391V153.019L532.909 184.209L478.887 153.019V90.6391L532.909 59.4492V59.4492ZM584.059 92.2953L532.909 62.7616L481.759 92.2953V151.353L532.909 180.887L584.059 151.353V92.2953Z" fill="black" fill-opacity="0.25"/>
<path fill-rule="evenodd" clip-rule="evenodd" d="M592.771 162.41L646.793 193.6V255.98L592.771 287.17L538.749 255.98V193.6L592.771 162.41ZM643.921 195.256L592.771 165.723L541.621 195.256V254.314L592.771 283.848L643.921 254.314V195.256Z" fill="#F8C455"/>
<path fill-rule="evenodd" clip-rule="evenodd" d="M592.771 162.41L646.793 193.6V255.98L592.771 287.17L538.749 255.98V193.6L592.771 162.41ZM643.921 195.256L592.771 165.723L541.621 195.256V254.314L592.771 283.848L643.921 254.314V195.256Z" fill="black" fill-opacity="0.25"/>
<path fill-rule="evenodd" clip-rule="evenodd" d="M413.185 59.4492L467.207 90.6391V153.019L413.185 184.209L359.163 153.019V90.6391L413.185 59.4492V59.4492ZM464.335 92.2953L413.185 62.7616L362.035 92.2953V151.353L413.185 180.887L464.335 151.353V92.2953Z" fill="#F8C455"/>
<path fill-rule="evenodd" clip-rule="evenodd" d="M413.185 59.4492L467.207 90.6391V153.019L413.185 184.209L359.163 153.019V90.6391L413.185 59.4492V59.4492ZM464.335 92.2953L413.185 62.7616L362.035 92.2953V151.353L413.185 180.887L464.335 151.353V92.2953Z" fill="black" fill-opacity="0.25"/>
<path fill-rule="evenodd" clip-rule="evenodd" d="M353.323 162.41L407.345 193.6V255.98L353.323 287.17L299.3 255.98V193.6L353.323 162.41ZM404.473 195.256L353.323 165.723L302.172 195.256V254.314L353.323 283.848L404.473 254.314V195.256Z" fill="#F8C455"/>
<path fill-rule="evenodd" clip-rule="evenodd" d="M353.323 162.41L407.345 193.6V255.98L353.323 287.17L299.3 255.98V193.6L353.323 162.41ZM404.473 195.256L353.323 165.723L302.172 195.256V254.314L353.323 283.848L404.473 254.314V195.256Z" fill="black" fill-opacity="0.25"/>
<path fill-rule="evenodd" clip-rule="evenodd" d="M293.461 59.4492L347.483 90.6391V153.019L293.461 184.209L239.438 153.019V90.6391L293.461 59.4492V59.4492ZM344.611 92.2953L293.461 62.7616L242.31 92.2953V151.353L293.461 180.887L344.611 151.353V92.2953Z" fill="#F8C455"/>
<path fill-rule="evenodd" clip-rule="evenodd" d="M293.461 59.4492L347.483 90.6391V153.019L293.461 184.209L239.438 153.019V90.6391L293.461 59.4492V59.4492ZM344.611 92.2953L293.461 62.7616L242.31 92.2953V151.353L293.461 180.887L344.611 151.353V92.2953Z" fill="black" fill-opacity="0.25"/>
<path fill-rule="evenodd" clip-rule="evenodd" d="M173.746 59.4492L227.769 90.6391V153.019L173.746 184.209L119.724 153.019V90.6391L173.746 59.4492V59.4492ZM224.897 92.2953L173.746 62.7616L122.596 92.2953V151.353L173.746 180.887L224.897 151.353V92.2953Z" fill="#F8C455"/>
<path fill-rule="evenodd" clip-rule="evenodd" d="M173.746 59.4492L227.769 90.6391V153.019L173.746 184.209L119.724 153.019V90.6391L173.746 59.4492V59.4492ZM224.897 92.2953L173.746 62.7616L122.596 92.2953V151.353L173.746 180.887L224.897 151.353V92.2953Z" fill="black" fill-opacity="0.25"/>
<path fill-rule="evenodd" clip-rule="evenodd" d="M54.0223 184.209L0 153.019V90.6391L54.0223 59.4492L108.045 90.6391V153.019L54.0223 184.209ZM2.872 151.363L54.0223 180.896L105.173 151.363V92.3049L54.0223 62.7712L2.872 92.3049V151.363Z" fill="#F8C455"/>
<path fill-rule="evenodd" clip-rule="evenodd" d="M54.0223 184.209L0 153.019V90.6391L54.0223 59.4492L108.045 90.6391V153.019L54.0223 184.209ZM2.872 151.363L54.0223 180.896L105.173 151.363V92.3049L54.0223 62.7712L2.872 92.3049V151.363Z" fill="black" fill-opacity="0.25"/>
<path fill-rule="evenodd" clip-rule="evenodd" d="M113.884 287.16L59.8618 255.97V193.59L113.884 162.4L167.906 193.59V255.97L113.884 287.16V287.16ZM62.7338 254.314L113.884 283.848L165.034 254.314V195.256L113.884 165.722L62.7338 195.256V254.314Z" fill="#F8C455"/>
<path fill-rule="evenodd" clip-rule="evenodd" d="M113.884 287.16L59.8618 255.97V193.59L113.884 162.4L167.906 193.59V255.97L113.884 287.16V287.16ZM62.7338 254.314L113.884 283.848L165.034 254.314V195.256L113.884 165.722L62.7338 195.256V254.314Z" fill="black" fill-opacity="0.25"/>
<path fill-rule="evenodd" clip-rule="evenodd" d="M233.598 162.41L287.621 193.6V255.98L233.598 287.17L179.576 255.98V193.6L233.598 162.41ZM284.749 195.256L233.598 165.723L182.448 195.256V254.314L233.598 283.848L284.749 254.314V195.256Z" fill="#F8C455"/>
<path fill-rule="evenodd" clip-rule="evenodd" d="M233.598 162.41L287.621 193.6V255.98L233.598 287.17L179.576 255.98V193.6L233.598 162.41ZM284.749 195.256L233.598 165.723L182.448 195.256V254.314L233.598 283.848L284.749 254.314V195.256Z" fill="black" fill-opacity="0.25"/>
<path fill-rule="evenodd" clip-rule="evenodd" d="M472.606 162.41L526.629 193.6V255.98L472.606 287.17L418.584 255.98V193.6L472.606 162.41ZM523.757 195.256L472.606 165.723L421.456 195.256V254.314L472.606 283.848L523.757 254.314V195.256Z" fill="#F8C455"/>
<path fill-rule="evenodd" clip-rule="evenodd" d="M472.606 162.41L526.629 193.6V255.98L472.606 287.17L418.584 255.98V193.6L472.606 162.41ZM523.757 195.256L472.606 165.723L421.456 195.256V254.314L472.606 283.848L523.757 254.314V195.256Z" fill="black" fill-opacity="0.25"/>
<path fill-rule="evenodd" clip-rule="evenodd" d="M711.615 162.41L765.637 193.6V255.98L711.615 287.17L657.592 255.98V193.6L711.615 162.41ZM762.765 195.256L711.615 165.723L660.464 195.256V254.314L711.615 283.848L762.765 254.314V195.256Z" fill="#F8C455"/>
<path fill-rule="evenodd" clip-rule="evenodd" d="M711.615 162.41L765.637 193.6V255.98L711.615 287.17L657.592 255.98V193.6L711.615 162.41ZM762.765 195.256L711.615 165.723L660.464 195.256V254.314L711.615 283.848L762.765 254.314V195.256Z" fill="black" fill-opacity="0.25"/>
<path fill-rule="evenodd" clip-rule="evenodd" d="M950.622 162.41L1004.64 193.6V255.98L950.622 287.17L896.6 255.98V193.6L950.622 162.41V162.41ZM1001.77 195.256L950.622 165.723L899.472 195.256V254.314L950.622 283.848L1001.77 254.314V195.256Z" fill="#F8C455"/>
<path fill-rule="evenodd" clip-rule="evenodd" d="M950.622 162.41L1004.64 193.6V255.98L950.622 287.17L896.6 255.98V193.6L950.622 162.41V162.41ZM1001.77 195.256L950.622 165.723L899.472 195.256V254.314L950.622 283.848L1001.77 254.314V195.256Z" fill="black" fill-opacity="0.25"/>
<path fill-rule="evenodd" clip-rule="evenodd" d="M1189.63 162.41L1243.65 193.6V255.98L1189.63 287.17L1135.61 255.98V193.6L1189.63 162.41ZM1240.78 195.256L1189.63 165.723L1138.48 195.256V254.314L1189.63 283.848L1240.78 254.314V195.256Z" fill="#F8C455"/>
<path fill-rule="evenodd" clip-rule="evenodd" d="M1189.63 162.41L1243.65 193.6V255.98L1189.63 287.17L1135.61 255.98V193.6L1189.63 162.41ZM1240.78 195.256L1189.63 165.723L1138.48 195.256V254.314L1189.63 283.848L1240.78 254.314V195.256Z" fill="black" fill-opacity="0.25"/>
<path d="M1428.64 162.41L1436 166.661V169.973L1428.64 165.722L1377.49 195.256V254.314L1428.64 283.848L1436 279.597V282.909L1428.64 287.16L1374.62 255.97V193.59L1428.64 162.4V162.41Z" fill="#F8C455"/>
<path d="M1428.64 162.41L1436 166.661V169.973L1428.64 165.722L1377.49 195.256V254.314L1428.64 283.848L1436 279.597V282.909L1428.64 287.16L1374.62 255.97V193.59L1428.64 162.4V162.41Z" fill="black" fill-opacity="0.25"/>
<path d="M46.6604 255.97L0 282.909V279.597L43.7884 254.314V195.256L0 169.973V166.66L46.6604 193.6V255.979V255.97Z" fill="#F8C455"/>
<path d="M46.6604 255.97L0 282.909V279.597L43.7884 254.314V195.256L0 169.973V166.66L46.6604 193.6V255.979V255.97Z" fill="black" fill-opacity="0.25"/>
<path fill-rule="evenodd" clip-rule="evenodd" d="M1370.3 265.859L1424.32 297.049V359.429L1370.3 390.619L1316.28 359.429V297.049L1370.3 265.859V265.859ZM1421.45 298.705L1370.3 269.172L1319.15 298.705V357.763L1370.3 387.297L1421.45 357.763V298.705Z" fill="#F8C455"/>
<path fill-rule="evenodd" clip-rule="evenodd" d="M1370.3 265.859L1424.32 297.049V359.429L1370.3 390.619L1316.28 359.429V297.049L1370.3 265.859V265.859ZM1421.45 298.705L1370.3 269.172L1319.15 298.705V357.763L1370.3 387.297L1421.45 357.763V298.705Z" fill="black" fill-opacity="0.25"/>
<path fill-rule="evenodd" clip-rule="evenodd" d="M1304.6 359.429L1250.57 390.619L1196.55 359.429V297.049L1250.57 265.859L1304.6 297.049V359.429ZM1301.72 298.715L1250.57 269.181L1199.42 298.715V357.773L1250.57 387.307L1301.72 357.773V298.715Z" fill="#F8C455"/>
<path fill-rule="evenodd" clip-rule="evenodd" d="M1304.6 359.429L1250.57 390.619L1196.55 359.429V297.049L1250.57 265.859L1304.6 297.049V359.429ZM1301.72 298.715L1250.57 269.181L1199.42 298.715V357.773L1250.57 387.307L1301.72 357.773V298.715Z" fill="black" fill-opacity="0.25"/>
<path fill-rule="evenodd" clip-rule="evenodd" d="M1364.46 462.38L1310.44 493.57L1256.41 462.38V400L1310.44 368.811L1364.46 400V462.38ZM1361.59 401.666L1310.44 372.133L1259.29 401.666V460.724L1310.44 490.258L1361.59 460.724V401.666V401.666Z" fill="#F8C455"/>
<path fill-rule="evenodd" clip-rule="evenodd" d="M1364.46 462.38L1310.44 493.57L1256.41 462.38V400L1310.44 368.811L1364.46 400V462.38ZM1361.59 401.666L1310.44 372.133L1259.29 401.666V460.724L1310.44 490.258L1361.59 460.724V401.666V401.666Z" fill="black" fill-opacity="0.25"/>
<path fill-rule="evenodd" clip-rule="evenodd" d="M1130.85 265.859L1184.87 297.049V359.429L1130.85 390.619L1076.83 359.429V297.049L1130.85 265.859V265.859ZM1182 298.705L1130.85 269.172L1079.7 298.705V357.763L1130.85 387.297L1182 357.763V298.705Z" fill="#F8C455"/>
<path fill-rule="evenodd" clip-rule="evenodd" d="M1130.85 265.859L1184.87 297.049V359.429L1130.85 390.619L1076.83 359.429V297.049L1130.85 265.859V265.859ZM1182 298.705L1130.85 269.172L1079.7 298.705V357.763L1130.85 387.297L1182 357.763V298.705Z" fill="black" fill-opacity="0.25"/>
<path fill-rule="evenodd" clip-rule="evenodd" d="M1011.13 265.859L1065.15 297.049V359.429L1011.13 390.619L957.104 359.429V297.049L1011.13 265.859V265.859ZM1062.28 298.705L1011.13 269.172L959.976 298.705V357.763L1011.13 387.297L1062.28 357.763V298.705Z" fill="#F8C455"/>
<path fill-rule="evenodd" clip-rule="evenodd" d="M1011.13 265.859L1065.15 297.049V359.429L1011.13 390.619L957.104 359.429V297.049L1011.13 265.859V265.859ZM1062.28 298.705L1011.13 269.172L959.976 298.705V357.763L1011.13 387.297L1062.28 357.763V298.705Z" fill="black" fill-opacity="0.25"/>
<path fill-rule="evenodd" clip-rule="evenodd" d="M1070.99 368.82L1125.01 400.01V462.39L1070.99 493.58L1016.97 462.39V400.01L1070.99 368.82ZM1122.14 401.666L1070.99 372.133L1019.84 401.666V460.724L1070.99 490.258L1122.14 460.724V401.666Z" fill="#F8C455"/>
<path fill-rule="evenodd" clip-rule="evenodd" d="M1070.99 368.82L1125.01 400.01V462.39L1070.99 493.58L1016.97 462.39V400.01L1070.99 368.82ZM1122.14 401.666L1070.99 372.133L1019.84 401.666V460.724L1070.99 490.258L1122.14 460.724V401.666Z" fill="black" fill-opacity="0.25"/>
<path fill-rule="evenodd" clip-rule="evenodd" d="M892.081 265.859L946.104 297.049V359.429L892.081 390.619L838.059 359.429V297.049L892.081 265.859V265.859ZM943.232 298.705L892.081 269.172L840.931 298.705V357.763L892.081 387.297L943.232 357.763V298.705Z" fill="#F8C455"/>
<path fill-rule="evenodd" clip-rule="evenodd" d="M892.081 265.859L946.104 297.049V359.429L892.081 390.619L838.059 359.429V297.049L892.081 265.859V265.859ZM943.232 298.705L892.081 269.172L840.931 298.705V357.763L892.081 387.297L943.232 357.763V298.705Z" fill="black" fill-opacity="0.25"/>
<path fill-rule="evenodd" clip-rule="evenodd" d="M772.357 265.859L826.38 297.049V359.429L772.357 390.619L718.335 359.429V297.049L772.357 265.859V265.859ZM823.508 298.705L772.357 269.172L721.207 298.705V357.763L772.357 387.297L823.508 357.763V298.705Z" fill="#F8C455"/>
<path fill-rule="evenodd" clip-rule="evenodd" d="M772.357 265.859L826.38 297.049V359.429L772.357 390.619L718.335 359.429V297.049L772.357 265.859V265.859ZM823.508 298.705L772.357 269.172L721.207 298.705V357.763L772.357 387.297L823.508 357.763V298.705Z" fill="black" fill-opacity="0.25"/>
<path fill-rule="evenodd" clip-rule="evenodd" d="M832.219 368.82L886.241 400.01V462.39L832.219 493.58L778.197 462.39V400.01L832.219 368.82ZM883.369 401.666L832.219 372.133L781.069 401.666V460.724L832.219 490.258L883.369 460.724V401.666Z" fill="#F8C455"/>
<path fill-rule="evenodd" clip-rule="evenodd" d="M832.219 368.82L886.241 400.01V462.39L832.219 493.58L778.197 462.39V400.01L832.219 368.82ZM883.369 401.666L832.219 372.133L781.069 401.666V460.724L832.219 490.258L883.369 460.724V401.666Z" fill="black" fill-opacity="0.25"/>
<path fill-rule="evenodd" clip-rule="evenodd" d="M652.633 265.859L706.655 297.049V359.429L652.633 390.619L598.611 359.429V297.049L652.633 265.859V265.859ZM703.783 298.705L652.633 269.172L601.483 298.705V357.763L652.633 387.297L703.783 357.763V298.705Z" fill="#F8C455"/>
<path fill-rule="evenodd" clip-rule="evenodd" d="M652.633 265.859L706.655 297.049V359.429L652.633 390.619L598.611 359.429V297.049L652.633 265.859V265.859ZM703.783 298.705L652.633 269.172L601.483 298.705V357.763L652.633 387.297L703.783 357.763V298.705Z" fill="black" fill-opacity="0.25"/>
<path fill-rule="evenodd" clip-rule="evenodd" d="M532.909 265.859L586.931 297.049V359.429L532.909 390.619L478.887 359.429V297.049L532.909 265.859V265.859ZM584.059 298.705L532.909 269.172L481.759 298.705V357.763L532.909 387.297L584.059 357.763V298.705Z" fill="#F8C455"/>
<path fill-rule="evenodd" clip-rule="evenodd" d="M532.909 265.859L586.931 297.049V359.429L532.909 390.619L478.887 359.429V297.049L532.909 265.859V265.859ZM584.059 298.705L532.909 269.172L481.759 298.705V357.763L532.909 387.297L584.059 357.763V298.705Z" fill="black" fill-opacity="0.25"/>
<path fill-rule="evenodd" clip-rule="evenodd" d="M592.771 368.82L646.793 400.01V462.39L592.771 493.58L538.749 462.39V400.01L592.771 368.82ZM643.921 401.666L592.771 372.133L541.621 401.666V460.724L592.771 490.258L643.921 460.724V401.666Z" fill="#F8C455"/>
<path fill-rule="evenodd" clip-rule="evenodd" d="M592.771 368.82L646.793 400.01V462.39L592.771 493.58L538.749 462.39V400.01L592.771 368.82ZM643.921 401.666L592.771 372.133L541.621 401.666V460.724L592.771 490.258L643.921 460.724V401.666Z" fill="black" fill-opacity="0.25"/>
<path fill-rule="evenodd" clip-rule="evenodd" d="M413.185 265.859L467.207 297.049V359.429L413.185 390.619L359.163 359.429V297.049L413.185 265.859V265.859ZM464.335 298.705L413.185 269.172L362.035 298.705V357.763L413.185 387.297L464.335 357.763V298.705Z" fill="#F8C455"/>
<path fill-rule="evenodd" clip-rule="evenodd" d="M413.185 265.859L467.207 297.049V359.429L413.185 390.619L359.163 359.429V297.049L413.185 265.859V265.859ZM464.335 298.705L413.185 269.172L362.035 298.705V357.763L413.185 387.297L464.335 357.763V298.705Z" fill="black" fill-opacity="0.25"/>
<path fill-rule="evenodd" clip-rule="evenodd" d="M353.323 368.82L407.345 400.01V462.39L353.323 493.58L299.3 462.39V400.01L353.323 368.82ZM404.473 401.666L353.323 372.133L302.172 401.666V460.724L353.323 490.258L404.473 460.724V401.666Z" fill="#F8C455"/>
<path fill-rule="evenodd" clip-rule="evenodd" d="M353.323 368.82L407.345 400.01V462.39L353.323 493.58L299.3 462.39V400.01L353.323 368.82ZM404.473 401.666L353.323 372.133L302.172 401.666V460.724L353.323 490.258L404.473 460.724V401.666Z" fill="black" fill-opacity="0.25"/>
<path fill-rule="evenodd" clip-rule="evenodd" d="M293.461 265.859L347.483 297.049V359.429L293.461 390.619L239.438 359.429V297.049L293.461 265.859V265.859ZM344.611 298.705L293.461 269.172L242.31 298.705V357.763L293.461 387.297L344.611 357.763V298.705Z" fill="#F8C455"/>
<path fill-rule="evenodd" clip-rule="evenodd" d="M293.461 265.859L347.483 297.049V359.429L293.461 390.619L239.438 359.429V297.049L293.461 265.859V265.859ZM344.611 298.705L293.461 269.172L242.31 298.705V357.763L293.461 387.297L344.611 357.763V298.705Z" fill="black" fill-opacity="0.25"/>
<path fill-rule="evenodd" clip-rule="evenodd" d="M119.724 297.049L173.746 265.859L227.769 297.049V359.429L173.746 390.619L119.724 359.429V297.049V297.049ZM122.596 357.763L173.746 387.297L224.897 357.763V298.705L173.746 269.172L122.596 298.705V357.763Z" fill="#F8C455"/>
<path fill-rule="evenodd" clip-rule="evenodd" d="M119.724 297.049L173.746 265.859L227.769 297.049V359.429L173.746 390.619L119.724 359.429V297.049V297.049ZM122.596 357.763L173.746 387.297L224.897 357.763V298.705L173.746 269.172L122.596 298.705V357.763Z" fill="black" fill-opacity="0.25"/>
<path fill-rule="evenodd" clip-rule="evenodd" d="M54.0223 390.619L0 359.429V297.049L54.0223 265.859L108.045 297.049V359.429L54.0223 390.619ZM2.872 357.773L54.0223 387.307L105.173 357.773V298.715L54.0223 269.181L2.872 298.715V357.773Z" fill="#F8C455"/>
<path fill-rule="evenodd" clip-rule="evenodd" d="M54.0223 390.619L0 359.429V297.049L54.0223 265.859L108.045 297.049V359.429L54.0223 390.619ZM2.872 357.773L54.0223 387.307L105.173 357.773V298.715L54.0223 269.181L2.872 298.715V357.773Z" fill="black" fill-opacity="0.25"/>
<path fill-rule="evenodd" clip-rule="evenodd" d="M113.884 493.57L59.8618 462.38V400L113.884 368.811L167.906 400V462.38L113.884 493.57V493.57ZM62.7338 460.724L113.884 490.258L165.034 460.724V401.666L113.884 372.133L62.7338 401.666V460.724Z" fill="#F8C455"/>
<path fill-rule="evenodd" clip-rule="evenodd" d="M113.884 493.57L59.8618 462.38V400L113.884 368.811L167.906 400V462.38L113.884 493.57V493.57ZM62.7338 460.724L113.884 490.258L165.034 460.724V401.666L113.884 372.133L62.7338 401.666V460.724Z" fill="black" fill-opacity="0.25"/>
<path fill-rule="evenodd" clip-rule="evenodd" d="M233.598 368.82L287.621 400.01V462.39L233.598 493.58L179.576 462.39V400.01L233.598 368.82ZM284.749 401.666L233.598 372.133L182.448 401.666V460.724L233.598 490.258L284.749 460.724V401.666Z" fill="#F8C455"/>
<path fill-rule="evenodd" clip-rule="evenodd" d="M233.598 368.82L287.621 400.01V462.39L233.598 493.58L179.576 462.39V400.01L233.598 368.82ZM284.749 401.666L233.598 372.133L182.448 401.666V460.724L233.598 490.258L284.749 460.724V401.666Z" fill="black" fill-opacity="0.25"/>
<path fill-rule="evenodd" clip-rule="evenodd" d="M472.606 368.82L526.629 400.01V462.39L472.606 493.58L418.584 462.39V400.01L472.606 368.82ZM523.757 401.666L472.606 372.133L421.456 401.666V460.724L472.606 490.258L523.757 460.724V401.666Z" fill="#F8C455"/>
<path fill-rule="evenodd" clip-rule="evenodd" d="M472.606 368.82L526.629 400.01V462.39L472.606 493.58L418.584 462.39V400.01L472.606 368.82ZM523.757 401.666L472.606 372.133L421.456 401.666V460.724L472.606 490.258L523.757 460.724V401.666Z" fill="black" fill-opacity="0.25"/>
<path fill-rule="evenodd" clip-rule="evenodd" d="M711.615 368.82L765.637 400.01V462.39L711.615 493.58L657.592 462.39V400.01L711.615 368.82ZM762.765 401.666L711.615 372.133L660.464 401.666V460.724L711.615 490.258L762.765 460.724V401.666Z" fill="#F8C455"/>
<path fill-rule="evenodd" clip-rule="evenodd" d="M711.615 368.82L765.637 400.01V462.39L711.615 493.58L657.592 462.39V400.01L711.615 368.82ZM762.765 401.666L711.615 372.133L660.464 401.666V460.724L711.615 490.258L762.765 460.724V401.666Z" fill="black" fill-opacity="0.25"/>
<path fill-rule="evenodd" clip-rule="evenodd" d="M950.622 368.82L1004.64 400.01V462.39L950.622 493.58L896.6 462.39V400.01L950.622 368.82V368.82ZM1001.77 401.666L950.622 372.133L899.472 401.666V460.724L950.622 490.258L1001.77 460.724V401.666Z" fill="#F8C455"/>
<path fill-rule="evenodd" clip-rule="evenodd" d="M950.622 368.82L1004.64 400.01V462.39L950.622 493.58L896.6 462.39V400.01L950.622 368.82V368.82ZM1001.77 401.666L950.622 372.133L899.472 401.666V460.724L950.622 490.258L1001.77 460.724V401.666Z" fill="black" fill-opacity="0.25"/>
<path fill-rule="evenodd" clip-rule="evenodd" d="M1189.63 493.57L1135.61 462.38V400L1189.63 368.811L1243.65 400V462.38L1189.63 493.57ZM1138.48 460.724L1189.63 490.258L1240.78 460.724V401.666L1189.63 372.133L1138.48 401.666V460.724Z" fill="#F8C455"/>
<path fill-rule="evenodd" clip-rule="evenodd" d="M1189.63 493.57L1135.61 462.38V400L1189.63 368.811L1243.65 400V462.38L1189.63 493.57ZM1138.48 460.724L1189.63 490.258L1240.78 460.724V401.666L1189.63 372.133L1138.48 401.666V460.724Z" fill="black" fill-opacity="0.25"/>
<path d="M1428.64 368.82L1436 373.071V376.383L1428.64 372.133L1377.49 401.666V460.724L1428.64 490.258L1436 486.007V489.32L1428.64 493.57L1374.62 462.38V400L1428.64 368.811V368.82Z" fill="#F8C455"/>
<path d="M1428.64 368.82L1436 373.071V376.383L1428.64 372.133L1377.49 401.666V460.724L1428.64 490.258L1436 486.007V489.32L1428.64 493.57L1374.62 462.38V400L1428.64 368.811V368.82Z" fill="black" fill-opacity="0.25"/>
<path d="M46.6604 462.38L0 489.319V486.007L43.7884 460.724V401.666L0 376.383V373.07L46.6604 400.01V462.389V462.38Z" fill="#F8C455"/>
<path d="M46.6604 462.38L0 489.319V486.007L43.7884 460.724V401.666L0 376.383V373.07L46.6604 400.01V462.389V462.38Z" fill="black" fill-opacity="0.25"/>
<path fill-rule="evenodd" clip-rule="evenodd" d="M1370.3 472.279L1424.32 503.469V565.849L1370.3 597.039L1316.28 565.849V503.469L1370.3 472.279ZM1421.45 505.125L1370.3 475.592L1319.15 505.125V564.183L1370.3 593.717L1421.45 564.183V505.125Z" fill="#F8C455"/>
<path fill-rule="evenodd" clip-rule="evenodd" d="M1370.3 472.279L1424.32 503.469V565.849L1370.3 597.039L1316.28 565.849V503.469L1370.3 472.279ZM1421.45 505.125L1370.3 475.592L1319.15 505.125V564.183L1370.3 593.717L1421.45 564.183V505.125Z" fill="black" fill-opacity="0.25"/>
<path fill-rule="evenodd" clip-rule="evenodd" d="M1304.6 565.839L1250.57 597.029L1196.55 565.839V503.459L1250.57 472.27L1304.6 503.459V565.839ZM1301.72 505.125L1250.57 475.592L1199.42 505.125V564.183L1250.57 593.717L1301.72 564.183V505.125Z" fill="#F8C455"/>
<path fill-rule="evenodd" clip-rule="evenodd" d="M1304.6 565.839L1250.57 597.029L1196.55 565.839V503.459L1250.57 472.27L1304.6 503.459V565.839ZM1301.72 505.125L1250.57 475.592L1199.42 505.125V564.183L1250.57 593.717L1301.72 564.183V505.125Z" fill="black" fill-opacity="0.25"/>
<path fill-rule="evenodd" clip-rule="evenodd" d="M1364.46 668.8L1310.44 699.99L1256.41 668.8V606.42L1310.44 575.23L1364.46 606.42V668.8ZM1361.59 608.086L1310.44 578.552L1259.29 608.086V667.144L1310.44 696.678L1361.59 667.144V608.086Z" fill="#F8C455"/>
<path fill-rule="evenodd" clip-rule="evenodd" d="M1364.46 668.8L1310.44 699.99L1256.41 668.8V606.42L1310.44 575.23L1364.46 606.42V668.8ZM1361.59 608.086L1310.44 578.552L1259.29 608.086V667.144L1310.44 696.678L1361.59 667.144V608.086Z" fill="black" fill-opacity="0.25"/>
<path fill-rule="evenodd" clip-rule="evenodd" d="M1130.85 472.279L1184.87 503.469V565.849L1130.85 597.039L1076.83 565.849V503.469L1130.85 472.279ZM1182 505.125L1130.85 475.592L1079.7 505.125V564.183L1130.85 593.717L1182 564.183V505.125Z" fill="#F8C455"/>
<path fill-rule="evenodd" clip-rule="evenodd" d="M1130.85 472.279L1184.87 503.469V565.849L1130.85 597.039L1076.83 565.849V503.469L1130.85 472.279ZM1182 505.125L1130.85 475.592L1079.7 505.125V564.183L1130.85 593.717L1182 564.183V505.125Z" fill="black" fill-opacity="0.25"/>
<path fill-rule="evenodd" clip-rule="evenodd" d="M1011.13 472.279L1065.15 503.469V565.849L1011.13 597.039L957.104 565.849V503.469L1011.13 472.279ZM1062.28 505.125L1011.13 475.592L959.976 505.125V564.183L1011.13 593.717L1062.28 564.183V505.125Z" fill="#F8C455"/>
<path fill-rule="evenodd" clip-rule="evenodd" d="M1011.13 472.279L1065.15 503.469V565.849L1011.13 597.039L957.104 565.849V503.469L1011.13 472.279ZM1062.28 505.125L1011.13 475.592L959.976 505.125V564.183L1011.13 593.717L1062.28 564.183V505.125Z" fill="black" fill-opacity="0.25"/>
<path fill-rule="evenodd" clip-rule="evenodd" d="M1070.99 699.99L1016.97 668.8V606.42L1070.99 575.23L1125.01 606.42V668.8L1070.99 699.99ZM1019.84 667.144L1070.99 696.678L1122.14 667.144V608.086L1070.99 578.552L1019.84 608.086V667.144Z" fill="#F8C455"/>
<path fill-rule="evenodd" clip-rule="evenodd" d="M1070.99 699.99L1016.97 668.8V606.42L1070.99 575.23L1125.01 606.42V668.8L1070.99 699.99ZM1019.84 667.144L1070.99 696.678L1122.14 667.144V608.086L1070.99 578.552L1019.84 608.086V667.144Z" fill="black" fill-opacity="0.25"/>
<path fill-rule="evenodd" clip-rule="evenodd" d="M892.081 472.279L946.104 503.469V565.849L892.081 597.039L838.059 565.849V503.469L892.081 472.279ZM943.232 505.125L892.081 475.592L840.931 505.125V564.183L892.081 593.717L943.232 564.183V505.125Z" fill="#F8C455"/>
<path fill-rule="evenodd" clip-rule="evenodd" d="M892.081 472.279L946.104 503.469V565.849L892.081 597.039L838.059 565.849V503.469L892.081 472.279ZM943.232 505.125L892.081 475.592L840.931 505.125V564.183L892.081 593.717L943.232 564.183V505.125Z" fill="black" fill-opacity="0.25"/>
<path fill-rule="evenodd" clip-rule="evenodd" d="M772.357 472.279L826.38 503.469V565.849L772.357 597.039L718.335 565.849V503.469L772.357 472.279ZM823.508 505.125L772.357 475.592L721.207 505.125V564.183L772.357 593.717L823.508 564.183V505.125Z" fill="#F8C455"/>
<path fill-rule="evenodd" clip-rule="evenodd" d="M772.357 472.279L826.38 503.469V565.849L772.357 597.039L718.335 565.849V503.469L772.357 472.279ZM823.508 505.125L772.357 475.592L721.207 505.125V564.183L772.357 593.717L823.508 564.183V505.125Z" fill="black" fill-opacity="0.25"/>
<path fill-rule="evenodd" clip-rule="evenodd" d="M832.219 699.99L778.197 668.8V606.42L832.219 575.23L886.241 606.42V668.8L832.219 699.99ZM781.069 667.144L832.219 696.678L883.369 667.144V608.086L832.219 578.552L781.069 608.086V667.144Z" fill="#F8C455"/>
<path fill-rule="evenodd" clip-rule="evenodd" d="M832.219 699.99L778.197 668.8V606.42L832.219 575.23L886.241 606.42V668.8L832.219 699.99ZM781.069 667.144L832.219 696.678L883.369 667.144V608.086L832.219 578.552L781.069 608.086V667.144Z" fill="black" fill-opacity="0.25"/>
<path fill-rule="evenodd" clip-rule="evenodd" d="M652.633 472.279L706.655 503.469V565.849L652.633 597.039L598.611 565.849V503.469L652.633 472.279ZM703.783 505.125L652.633 475.592L601.483 505.125V564.183L652.633 593.717L703.783 564.183V505.125Z" fill="#F8C455"/>
<path fill-rule="evenodd" clip-rule="evenodd" d="M652.633 472.279L706.655 503.469V565.849L652.633 597.039L598.611 565.849V503.469L652.633 472.279ZM703.783 505.125L652.633 475.592L601.483 505.125V564.183L652.633 593.717L703.783 564.183V505.125Z" fill="black" fill-opacity="0.25"/>
<path fill-rule="evenodd" clip-rule="evenodd" d="M532.909 472.279L586.931 503.469V565.849L532.909 597.039L478.887 565.849V503.469L532.909 472.279ZM584.059 505.125L532.909 475.592L481.759 505.125V564.183L532.909 593.717L584.059 564.183V505.125Z" fill="#F8C455"/>
<path fill-rule="evenodd" clip-rule="evenodd" d="M532.909 472.279L586.931 503.469V565.849L532.909 597.039L478.887 565.849V503.469L532.909 472.279ZM584.059 505.125L532.909 475.592L481.759 505.125V564.183L532.909 593.717L584.059 564.183V505.125Z" fill="black" fill-opacity="0.25"/>
<path fill-rule="evenodd" clip-rule="evenodd" d="M592.771 699.99L538.749 668.8V606.42L592.771 575.23L646.793 606.42V668.8L592.771 699.99ZM541.621 667.144L592.771 696.678L643.921 667.144V608.086L592.771 578.552L541.621 608.086V667.144Z" fill="#F8C455"/>
<path fill-rule="evenodd" clip-rule="evenodd" d="M592.771 699.99L538.749 668.8V606.42L592.771 575.23L646.793 606.42V668.8L592.771 699.99ZM541.621 667.144L592.771 696.678L643.921 667.144V608.086L592.771 578.552L541.621 608.086V667.144Z" fill="black" fill-opacity="0.25"/>
<path fill-rule="evenodd" clip-rule="evenodd" d="M413.185 472.279L467.207 503.469V565.849L413.185 597.039L359.163 565.849V503.469L413.185 472.279ZM464.335 505.125L413.185 475.592L362.035 505.125V564.183L413.185 593.717L464.335 564.183V505.125Z" fill="#F8C455"/>
<path fill-rule="evenodd" clip-rule="evenodd" d="M413.185 472.279L467.207 503.469V565.849L413.185 597.039L359.163 565.849V503.469L413.185 472.279ZM464.335 505.125L413.185 475.592L362.035 505.125V564.183L413.185 593.717L464.335 564.183V505.125Z" fill="black" fill-opacity="0.25"/>
<path fill-rule="evenodd" clip-rule="evenodd" d="M353.323 699.99L299.3 668.8V606.42L353.323 575.23L407.345 606.42V668.8L353.323 699.99ZM302.172 667.144L353.323 696.678L404.473 667.144V608.086L353.323 578.552L302.172 608.086V667.144Z" fill="#F8C455"/>
<path fill-rule="evenodd" clip-rule="evenodd" d="M353.323 699.99L299.3 668.8V606.42L353.323 575.23L407.345 606.42V668.8L353.323 699.99ZM302.172 667.144L353.323 696.678L404.473 667.144V608.086L353.323 578.552L302.172 608.086V667.144Z" fill="black" fill-opacity="0.25"/>
<path fill-rule="evenodd" clip-rule="evenodd" d="M293.461 472.279L347.483 503.469V565.849L293.461 597.039L239.438 565.849V503.469L293.461 472.279ZM344.611 505.125L293.461 475.592L242.31 505.125V564.183L293.461 593.717L344.611 564.183V505.125Z" fill="#F8C455"/>
<path fill-rule="evenodd" clip-rule="evenodd" d="M293.461 472.279L347.483 503.469V565.849L293.461 597.039L239.438 565.849V503.469L293.461 472.279ZM344.611 505.125L293.461 475.592L242.31 505.125V564.183L293.461 593.717L344.611 564.183V505.125Z" fill="black" fill-opacity="0.25"/>
<path fill-rule="evenodd" clip-rule="evenodd" d="M119.724 503.459L173.746 472.27L227.769 503.459V565.839L173.746 597.029L119.724 565.839V503.459ZM122.596 564.174L173.746 593.707L224.897 564.174V505.116L173.746 475.582L122.596 505.116V564.174V564.174Z" fill="#F8C455"/>
<path fill-rule="evenodd" clip-rule="evenodd" d="M119.724 503.459L173.746 472.27L227.769 503.459V565.839L173.746 597.029L119.724 565.839V503.459ZM122.596 564.174L173.746 593.707L224.897 564.174V505.116L173.746 475.582L122.596 505.116V564.174V564.174Z" fill="black" fill-opacity="0.25"/>
<path fill-rule="evenodd" clip-rule="evenodd" d="M54.0223 597.029L0 565.839V503.459L54.0223 472.27L108.045 503.459V565.839L54.0223 597.029ZM2.872 564.183L54.0223 593.717L105.173 564.183V505.125L54.0223 475.592L2.872 505.125V564.183Z" fill="#F8C455"/>
<path fill-rule="evenodd" clip-rule="evenodd" d="M54.0223 597.029L0 565.839V503.459L54.0223 472.27L108.045 503.459V565.839L54.0223 597.029ZM2.872 564.183L54.0223 593.717L105.173 564.183V505.125L54.0223 475.592L2.872 505.125V564.183Z" fill="black" fill-opacity="0.25"/>
<path fill-rule="evenodd" clip-rule="evenodd" d="M113.884 699.99L59.8618 668.8V606.42L113.884 575.23L167.906 606.42V668.8L113.884 699.99V699.99ZM62.7338 667.144L113.884 696.678L165.034 667.144V608.086L113.884 578.552L62.7338 608.086V667.144Z" fill="#F8C455"/>
<path fill-rule="evenodd" clip-rule="evenodd" d="M113.884 699.99L59.8618 668.8V606.42L113.884 575.23L167.906 606.42V668.8L113.884 699.99V699.99ZM62.7338 667.144L113.884 696.678L165.034 667.144V608.086L113.884 578.552L62.7338 608.086V667.144Z" fill="black" fill-opacity="0.25"/>
<path fill-rule="evenodd" clip-rule="evenodd" d="M179.586 606.42L233.608 575.23L287.631 606.42V668.8L233.608 699.99L179.586 668.8V606.42V606.42ZM182.458 667.134L233.608 696.668L284.759 667.134V608.077L233.608 578.543L182.458 608.077V667.134V667.134Z" fill="#F8C455"/>
<path fill-rule="evenodd" clip-rule="evenodd" d="M179.586 606.42L233.608 575.23L287.631 606.42V668.8L233.608 699.99L179.586 668.8V606.42V606.42ZM182.458 667.134L233.608 696.668L284.759 667.134V608.077L233.608 578.543L182.458 608.077V667.134V667.134Z" fill="black" fill-opacity="0.25"/>
<path fill-rule="evenodd" clip-rule="evenodd" d="M472.606 699.99L418.584 668.8V606.42L472.606 575.23L526.629 606.42V668.8L472.606 699.99ZM421.456 667.144L472.606 696.678L523.757 667.144V608.086L472.606 578.552L421.456 608.086V667.144Z" fill="#F8C455"/>
<path fill-rule="evenodd" clip-rule="evenodd" d="M472.606 699.99L418.584 668.8V606.42L472.606 575.23L526.629 606.42V668.8L472.606 699.99ZM421.456 667.144L472.606 696.678L523.757 667.144V608.086L472.606 578.552L421.456 608.086V667.144Z" fill="black" fill-opacity="0.25"/>
<path fill-rule="evenodd" clip-rule="evenodd" d="M711.615 699.99L657.592 668.8V606.42L711.615 575.23L765.637 606.42V668.8L711.615 699.99ZM660.464 667.144L711.615 696.678L762.765 667.144V608.086L711.615 578.552L660.464 608.086V667.144Z" fill="#F8C455"/>
<path fill-rule="evenodd" clip-rule="evenodd" d="M711.615 699.99L657.592 668.8V606.42L711.615 575.23L765.637 606.42V668.8L711.615 699.99ZM660.464 667.144L711.615 696.678L762.765 667.144V608.086L711.615 578.552L660.464 608.086V667.144Z" fill="black" fill-opacity="0.25"/>
<path fill-rule="evenodd" clip-rule="evenodd" d="M950.622 699.99L896.6 668.8V606.42L950.622 575.23L1004.64 606.42V668.8L950.622 699.99V699.99ZM899.472 667.144L950.622 696.678L1001.77 667.144V608.086L950.622 578.552L899.472 608.086V667.144V667.144Z" fill="#F8C455"/>
<path fill-rule="evenodd" clip-rule="evenodd" d="M950.622 699.99L896.6 668.8V606.42L950.622 575.23L1004.64 606.42V668.8L950.622 699.99V699.99ZM899.472 667.144L950.622 696.678L1001.77 667.144V608.086L950.622 578.552L899.472 608.086V667.144V667.144Z" fill="black" fill-opacity="0.25"/>
<path fill-rule="evenodd" clip-rule="evenodd" d="M1189.63 699.99L1135.61 668.8V606.42L1189.63 575.23L1243.65 606.42V668.8L1189.63 699.99ZM1138.48 667.144L1189.63 696.678L1240.78 667.144V608.086L1189.63 578.552L1138.48 608.086V667.144Z" fill="#F8C455"/>
<path fill-rule="evenodd" clip-rule="evenodd" d="M1189.63 699.99L1135.61 668.8V606.42L1189.63 575.23L1243.65 606.42V668.8L1189.63 699.99ZM1138.48 667.144L1189.63 696.678L1240.78 667.144V608.086L1189.63 578.552L1138.48 608.086V667.144Z" fill="black" fill-opacity="0.25"/>
<path d="M1428.64 575.23L1436 579.481V582.793L1428.64 578.543L1377.49 608.076V667.134L1428.64 696.668L1436 692.417V695.73L1428.64 699.98L1374.62 668.79V606.411L1428.64 575.221V575.23Z" fill="#F8C455"/>
<path d="M1428.64 575.23L1436 579.481V582.793L1428.64 578.543L1377.49 608.076V667.134L1428.64 696.668L1436 692.417V695.73L1428.64 699.98L1374.62 668.79V606.411L1428.64 575.221V575.23Z" fill="black" fill-opacity="0.25"/>
<path d="M46.6604 668.8L0 695.739V692.427L43.7884 667.144V608.086L0 582.803V579.49L46.6604 606.43V668.809V668.8Z" fill="#F8C455"/>
<path d="M46.6604 668.8L0 695.739V692.427L43.7884 667.144V608.086L0 582.803V579.49L46.6604 606.43V668.809V668.8Z" fill="black" fill-opacity="0.25"/>
<path fill-rule="evenodd" clip-rule="evenodd" d="M1370.3 678.689L1424.32 709.879V772.259L1370.3 803.449L1316.28 772.259V709.879L1370.3 678.689ZM1421.45 711.536L1370.3 682.002L1319.15 711.536V770.593L1370.3 800.127L1421.45 770.593V711.536Z" fill="#F8C455"/>
<path fill-rule="evenodd" clip-rule="evenodd" d="M1370.3 678.689L1424.32 709.879V772.259L1370.3 803.449L1316.28 772.259V709.879L1370.3 678.689ZM1421.45 711.536L1370.3 682.002L1319.15 711.536V770.593L1370.3 800.127L1421.45 770.593V711.536Z" fill="black" fill-opacity="0.25"/>
<path fill-rule="evenodd" clip-rule="evenodd" d="M1250.57 803.439L1196.55 772.25V709.87L1250.57 678.68L1304.6 709.87V772.25L1250.57 803.439ZM1199.42 770.593L1250.57 800.127L1301.72 770.593V711.535L1250.57 682.002L1199.42 711.535V770.593Z" fill="#F8C455"/>
<path fill-rule="evenodd" clip-rule="evenodd" d="M1250.57 803.439L1196.55 772.25V709.87L1250.57 678.68L1304.6 709.87V772.25L1250.57 803.439ZM1199.42 770.593L1250.57 800.127L1301.72 770.593V711.535L1250.57 682.002L1199.42 711.535V770.593Z" fill="black" fill-opacity="0.25"/>
<path fill-rule="evenodd" clip-rule="evenodd" d="M1310.44 906.4L1256.41 875.21V812.831L1310.44 781.641L1364.46 812.831V875.21L1310.44 906.4ZM1259.29 873.554L1310.44 903.088L1361.59 873.554V814.496L1310.44 784.963L1259.29 814.496V873.554Z" fill="#F8C455"/>
<path fill-rule="evenodd" clip-rule="evenodd" d="M1310.44 906.4L1256.41 875.21V812.831L1310.44 781.641L1364.46 812.831V875.21L1310.44 906.4ZM1259.29 873.554L1310.44 903.088L1361.59 873.554V814.496L1310.44 784.963L1259.29 814.496V873.554Z" fill="black" fill-opacity="0.25"/>
<path fill-rule="evenodd" clip-rule="evenodd" d="M1130.85 803.439L1076.83 772.25V709.87L1130.85 678.68L1184.87 709.87V772.25L1130.85 803.439ZM1079.7 770.593L1130.85 800.127L1182 770.593V711.535L1130.85 682.002L1079.7 711.535V770.593Z" fill="#F8C455"/>
<path fill-rule="evenodd" clip-rule="evenodd" d="M1130.85 803.439L1076.83 772.25V709.87L1130.85 678.68L1184.87 709.87V772.25L1130.85 803.439ZM1079.7 770.593L1130.85 800.127L1182 770.593V711.535L1130.85 682.002L1079.7 711.535V770.593Z" fill="black" fill-opacity="0.25"/>
<path fill-rule="evenodd" clip-rule="evenodd" d="M1011.13 803.439L957.104 772.25V709.87L1011.13 678.68L1065.15 709.87V772.25L1011.13 803.439ZM959.976 770.593L1011.13 800.127L1062.28 770.593V711.535L1011.13 682.002L959.976 711.535V770.593Z" fill="#F8C455"/>
<path fill-rule="evenodd" clip-rule="evenodd" d="M1011.13 803.439L957.104 772.25V709.87L1011.13 678.68L1065.15 709.87V772.25L1011.13 803.439ZM959.976 770.593L1011.13 800.127L1062.28 770.593V711.535L1011.13 682.002L959.976 711.535V770.593Z" fill="black" fill-opacity="0.25"/>
<path fill-rule="evenodd" clip-rule="evenodd" d="M1070.99 906.4L1016.97 875.21V812.831L1070.99 781.641L1125.01 812.831V875.21L1070.99 906.4ZM1019.84 873.554L1070.99 903.088L1122.14 873.554V814.496L1070.99 784.963L1019.84 814.496V873.554Z" fill="#F8C455"/>
<path fill-rule="evenodd" clip-rule="evenodd" d="M1070.99 906.4L1016.97 875.21V812.831L1070.99 781.641L1125.01 812.831V875.21L1070.99 906.4ZM1019.84 873.554L1070.99 903.088L1122.14 873.554V814.496L1070.99 784.963L1019.84 814.496V873.554Z" fill="black" fill-opacity="0.25"/>
<path fill-rule="evenodd" clip-rule="evenodd" d="M892.081 803.439L838.059 772.25V709.87L892.081 678.68L946.104 709.87V772.25L892.081 803.439ZM840.931 770.593L892.081 800.127L943.232 770.593V711.535L892.081 682.002L840.931 711.535V770.593Z" fill="#F8C455"/>
<path fill-rule="evenodd" clip-rule="evenodd" d="M892.081 803.439L838.059 772.25V709.87L892.081 678.68L946.104 709.87V772.25L892.081 803.439ZM840.931 770.593L892.081 800.127L943.232 770.593V711.535L892.081 682.002L840.931 711.535V770.593Z" fill="black" fill-opacity="0.25"/>
<path fill-rule="evenodd" clip-rule="evenodd" d="M772.357 803.439L718.335 772.25V709.87L772.357 678.68L826.38 709.87V772.25L772.357 803.439ZM721.207 770.593L772.357 800.127L823.508 770.593V711.535L772.357 682.002L721.207 711.535V770.593Z" fill="#F8C455"/>
<path fill-rule="evenodd" clip-rule="evenodd" d="M772.357 803.439L718.335 772.25V709.87L772.357 678.68L826.38 709.87V772.25L772.357 803.439ZM721.207 770.593L772.357 800.127L823.508 770.593V711.535L772.357 682.002L721.207 711.535V770.593Z" fill="black" fill-opacity="0.25"/>
<path fill-rule="evenodd" clip-rule="evenodd" d="M832.219 906.4L778.197 875.21V812.831L832.219 781.641L886.241 812.831V875.21L832.219 906.4ZM781.069 873.554L832.219 903.088L883.369 873.554V814.496L832.219 784.963L781.069 814.496V873.554Z" fill="#F8C455"/>
<path fill-rule="evenodd" clip-rule="evenodd" d="M832.219 906.4L778.197 875.21V812.831L832.219 781.641L886.241 812.831V875.21L832.219 906.4ZM781.069 873.554L832.219 903.088L883.369 873.554V814.496L832.219 784.963L781.069 814.496V873.554Z" fill="black" fill-opacity="0.25"/>
<path fill-rule="evenodd" clip-rule="evenodd" d="M652.633 803.439L598.611 772.25V709.87L652.633 678.68L706.655 709.87V772.25L652.633 803.439ZM601.483 770.593L652.633 800.127L703.783 770.593V711.535L652.633 682.002L601.483 711.535V770.593Z" fill="#F8C455"/>
<path fill-rule="evenodd" clip-rule="evenodd" d="M652.633 803.439L598.611 772.25V709.87L652.633 678.68L706.655 709.87V772.25L652.633 803.439ZM601.483 770.593L652.633 800.127L703.783 770.593V711.535L652.633 682.002L601.483 711.535V770.593Z" fill="black" fill-opacity="0.25"/>
<path fill-rule="evenodd" clip-rule="evenodd" d="M532.909 803.439L478.887 772.25V709.87L532.909 678.68L586.931 709.87V772.25L532.909 803.439ZM481.759 770.593L532.909 800.127L584.059 770.593V711.535L532.909 682.002L481.759 711.535V770.593Z" fill="#F8C455"/>
<path fill-rule="evenodd" clip-rule="evenodd" d="M532.909 803.439L478.887 772.25V709.87L532.909 678.68L586.931 709.87V772.25L532.909 803.439ZM481.759 770.593L532.909 800.127L584.059 770.593V711.535L532.909 682.002L481.759 711.535V770.593Z" fill="black" fill-opacity="0.25"/>
<path fill-rule="evenodd" clip-rule="evenodd" d="M592.771 906.4L538.749 875.21V812.831L592.771 781.641L646.793 812.831V875.21L592.771 906.4ZM541.621 873.554L592.771 903.088L643.921 873.554V814.496L592.771 784.963L541.621 814.496V873.554Z" fill="#F8C455"/>
<path fill-rule="evenodd" clip-rule="evenodd" d="M592.771 906.4L538.749 875.21V812.831L592.771 781.641L646.793 812.831V875.21L592.771 906.4ZM541.621 873.554L592.771 903.088L643.921 873.554V814.496L592.771 784.963L541.621 814.496V873.554Z" fill="black" fill-opacity="0.25"/>
<path fill-rule="evenodd" clip-rule="evenodd" d="M413.185 803.439L359.163 772.25V709.87L413.185 678.68L467.207 709.87V772.25L413.185 803.439ZM362.035 770.593L413.185 800.127L464.335 770.593V711.535L413.185 682.002L362.035 711.535V770.593Z" fill="#F8C455"/>
<path fill-rule="evenodd" clip-rule="evenodd" d="M413.185 803.439L359.163 772.25V709.87L413.185 678.68L467.207 709.87V772.25L413.185 803.439ZM362.035 770.593L413.185 800.127L464.335 770.593V711.535L413.185 682.002L362.035 711.535V770.593Z" fill="black" fill-opacity="0.25"/>
<path fill-rule="evenodd" clip-rule="evenodd" d="M353.323 906.4L299.3 875.21V812.831L353.323 781.641L407.345 812.831V875.21L353.323 906.4ZM302.172 873.554L353.323 903.088L404.473 873.554V814.496L353.323 784.963L302.172 814.496V873.554Z" fill="#F8C455"/>
<path fill-rule="evenodd" clip-rule="evenodd" d="M353.323 906.4L299.3 875.21V812.831L353.323 781.641L407.345 812.831V875.21L353.323 906.4ZM302.172 873.554L353.323 903.088L404.473 873.554V814.496L353.323 784.963L302.172 814.496V873.554Z" fill="black" fill-opacity="0.25"/>
<path fill-rule="evenodd" clip-rule="evenodd" d="M293.461 803.439L239.438 772.25V709.87L293.461 678.68L347.483 709.87V772.25L293.461 803.439ZM242.31 770.593L293.461 800.127L344.611 770.593V711.535L293.461 682.002L242.31 711.535V770.593Z" fill="#F8C455"/>
<path fill-rule="evenodd" clip-rule="evenodd" d="M293.461 803.439L239.438 772.25V709.87L293.461 678.68L347.483 709.87V772.25L293.461 803.439ZM242.31 770.593L293.461 800.127L344.611 770.593V711.535L293.461 682.002L242.31 711.535V770.593Z" fill="black" fill-opacity="0.25"/>
<path fill-rule="evenodd" clip-rule="evenodd" d="M119.724 709.879L173.746 678.689L227.769 709.879V772.259L173.746 803.449L119.724 772.259V709.879ZM122.596 770.593L173.746 800.127L224.897 770.593V711.536L173.746 682.002L122.596 711.536V770.593V770.593Z" fill="#F8C455"/>
<path fill-rule="evenodd" clip-rule="evenodd" d="M119.724 709.879L173.746 678.689L227.769 709.879V772.259L173.746 803.449L119.724 772.259V709.879ZM122.596 770.593L173.746 800.127L224.897 770.593V711.536L173.746 682.002L122.596 711.536V770.593V770.593Z" fill="black" fill-opacity="0.25"/>
<path fill-rule="evenodd" clip-rule="evenodd" d="M54.0223 803.439L0 772.25V709.87L54.0223 678.68L108.045 709.87V772.25L54.0223 803.439ZM2.872 770.593L54.0223 800.127L105.173 770.593V711.535L54.0223 682.002L2.872 711.535V770.593Z" fill="#F8C455"/>
<path fill-rule="evenodd" clip-rule="evenodd" d="M54.0223 803.439L0 772.25V709.87L54.0223 678.68L108.045 709.87V772.25L54.0223 803.439ZM2.872 770.593L54.0223 800.127L105.173 770.593V711.535L54.0223 682.002L2.872 711.535V770.593Z" fill="black" fill-opacity="0.25"/>
<path fill-rule="evenodd" clip-rule="evenodd" d="M113.884 906.4L59.8618 875.21V812.831L113.884 781.641L167.906 812.831V875.21L113.884 906.4V906.4ZM62.7338 873.554L113.884 903.088L165.034 873.554V814.496L113.884 784.963L62.7338 814.496V873.554Z" fill="#F8C455"/>
<path fill-rule="evenodd" clip-rule="evenodd" d="M113.884 906.4L59.8618 875.21V812.831L113.884 781.641L167.906 812.831V875.21L113.884 906.4V906.4ZM62.7338 873.554L113.884 903.088L165.034 873.554V814.496L113.884 784.963L62.7338 814.496V873.554Z" fill="black" fill-opacity="0.25"/>
<path fill-rule="evenodd" clip-rule="evenodd" d="M233.598 906.4L179.576 875.21V812.831L233.598 781.641L287.621 812.831V875.21L233.598 906.4ZM182.448 873.554L233.598 903.088L284.749 873.554V814.496L233.598 784.963L182.448 814.496V873.554Z" fill="#F8C455"/>
<path fill-rule="evenodd" clip-rule="evenodd" d="M233.598 906.4L179.576 875.21V812.831L233.598 781.641L287.621 812.831V875.21L233.598 906.4ZM182.448 873.554L233.598 903.088L284.749 873.554V814.496L233.598 784.963L182.448 814.496V873.554Z" fill="black" fill-opacity="0.25"/>
<path fill-rule="evenodd" clip-rule="evenodd" d="M472.606 906.4L418.584 875.21V812.831L472.606 781.641L526.629 812.831V875.21L472.606 906.4ZM421.456 873.554L472.606 903.088L523.757 873.554V814.496L472.606 784.963L421.456 814.496V873.554Z" fill="#F8C455"/>
<path fill-rule="evenodd" clip-rule="evenodd" d="M472.606 906.4L418.584 875.21V812.831L472.606 781.641L526.629 812.831V875.21L472.606 906.4ZM421.456 873.554L472.606 903.088L523.757 873.554V814.496L472.606 784.963L421.456 814.496V873.554Z" fill="black" fill-opacity="0.25"/>
<path fill-rule="evenodd" clip-rule="evenodd" d="M711.615 906.4L657.592 875.21V812.831L711.615 781.641L765.637 812.831V875.21L711.615 906.4ZM660.464 873.554L711.615 903.088L762.765 873.554V814.496L711.615 784.963L660.464 814.496V873.554Z" fill="#F8C455"/>
<path fill-rule="evenodd" clip-rule="evenodd" d="M711.615 906.4L657.592 875.21V812.831L711.615 781.641L765.637 812.831V875.21L711.615 906.4ZM660.464 873.554L711.615 903.088L762.765 873.554V814.496L711.615 784.963L660.464 814.496V873.554Z" fill="black" fill-opacity="0.25"/>
<path fill-rule="evenodd" clip-rule="evenodd" d="M950.622 906.4L896.6 875.21V812.831L950.622 781.641L1004.64 812.831V875.21L950.622 906.4V906.4ZM899.472 873.554L950.622 903.088L1001.77 873.554V814.496L950.622 784.963L899.472 814.496V873.554V873.554Z" fill="#F8C455"/>
<path fill-rule="evenodd" clip-rule="evenodd" d="M950.622 906.4L896.6 875.21V812.831L950.622 781.641L1004.64 812.831V875.21L950.622 906.4V906.4ZM899.472 873.554L950.622 903.088L1001.77 873.554V814.496L950.622 784.963L899.472 814.496V873.554V873.554Z" fill="black" fill-opacity="0.25"/>
<path fill-rule="evenodd" clip-rule="evenodd" d="M1189.63 906.4L1135.61 875.21V812.831L1189.63 781.641L1243.65 812.831V875.21L1189.63 906.4ZM1138.48 873.554L1189.63 903.088L1240.78 873.554V814.496L1189.63 784.963L1138.48 814.496V873.554Z" fill="#F8C455"/>
<path fill-rule="evenodd" clip-rule="evenodd" d="M1189.63 906.4L1135.61 875.21V812.831L1189.63 781.641L1243.65 812.831V875.21L1189.63 906.4ZM1138.48 873.554L1189.63 903.088L1240.78 873.554V814.496L1189.63 784.963L1138.48 814.496V873.554Z" fill="black" fill-opacity="0.25"/>
<path d="M1428.64 781.642L1436 785.893V789.205L1428.64 784.955L1377.49 814.489V873.546L1428.64 903.08L1436 898.83V902.142L1428.64 906.393L1374.62 875.203V812.823L1428.64 781.633V781.642Z" fill="#F8C455"/>
<path d="M1428.64 781.642L1436 785.893V789.205L1428.64 784.955L1377.49 814.489V873.546L1428.64 903.08L1436 898.83V902.142L1428.64 906.393L1374.62 875.203V812.823L1428.64 781.633V781.642Z" fill="black" fill-opacity="0.25"/>
<path d="M46.6604 875.212L0 902.151V898.839L43.7884 873.556V814.498L0 789.215V785.902L46.6604 812.842V875.222V875.212Z" fill="#F8C455"/>
<path d="M46.6604 875.212L0 902.151V898.839L43.7884 873.556V814.498L0 789.215V785.902L46.6604 812.842V875.222V875.212Z" fill="black" fill-opacity="0.25"/>
<path fill-rule="evenodd" clip-rule="evenodd" d="M1370.3 882.229L1424.32 913.419V975.798L1370.3 1006.99L1316.28 975.798V913.419L1370.3 882.229ZM1421.45 915.075L1370.3 885.541L1319.15 915.075V974.133L1370.3 1003.67L1421.45 974.133V915.075Z" fill="#F8C455"/>
<path fill-rule="evenodd" clip-rule="evenodd" d="M1370.3 882.229L1424.32 913.419V975.798L1370.3 1006.99L1316.28 975.798V913.419L1370.3 882.229ZM1421.45 915.075L1370.3 885.541L1319.15 915.075V974.133L1370.3 1003.67L1421.45 974.133V915.075Z" fill="black" fill-opacity="0.25"/>
<path fill-rule="evenodd" clip-rule="evenodd" d="M1250.57 1006.98L1196.55 975.788V913.409L1250.57 882.219L1304.6 913.409V975.788L1250.57 1006.98ZM1199.42 974.132L1250.57 1003.67L1301.72 974.132V915.074L1250.57 885.541L1199.42 915.074V974.132Z" fill="#F8C455"/>
<path fill-rule="evenodd" clip-rule="evenodd" d="M1250.57 1006.98L1196.55 975.788V913.409L1250.57 882.219L1304.6 913.409V975.788L1250.57 1006.98ZM1199.42 974.132L1250.57 1003.67L1301.72 974.132V915.074L1250.57 885.541L1199.42 915.074V974.132Z" fill="black" fill-opacity="0.25"/>
<path fill-rule="evenodd" clip-rule="evenodd" d="M1364.46 1075.88L1310.44 1107.07L1256.41 1075.88V1013.5L1310.44 982.309L1364.46 1013.5V1075.88ZM1361.59 1015.16L1310.44 985.631L1259.29 1015.16V1074.22L1310.44 1103.76L1361.59 1074.22V1015.16Z" fill="#F8C455"/>
<path fill-rule="evenodd" clip-rule="evenodd" d="M1364.46 1075.88L1310.44 1107.07L1256.41 1075.88V1013.5L1310.44 982.309L1364.46 1013.5V1075.88ZM1361.59 1015.16L1310.44 985.631L1259.29 1015.16V1074.22L1310.44 1103.76L1361.59 1074.22V1015.16Z" fill="black" fill-opacity="0.25"/>
<path fill-rule="evenodd" clip-rule="evenodd" d="M1130.85 1006.98L1076.83 975.788V913.409L1130.85 882.219L1184.87 913.409V975.788L1130.85 1006.98ZM1079.7 974.132L1130.85 1003.67L1182 974.132V915.074L1130.85 885.541L1079.7 915.074V974.132Z" fill="#F8C455"/>
<path fill-rule="evenodd" clip-rule="evenodd" d="M1130.85 1006.98L1076.83 975.788V913.409L1130.85 882.219L1184.87 913.409V975.788L1130.85 1006.98ZM1079.7 974.132L1130.85 1003.67L1182 974.132V915.074L1130.85 885.541L1079.7 915.074V974.132Z" fill="black" fill-opacity="0.25"/>
<path fill-rule="evenodd" clip-rule="evenodd" d="M1011.13 1006.98L957.104 975.788V913.409L1011.13 882.219L1065.15 913.409V975.788L1011.13 1006.98ZM959.976 974.132L1011.13 1003.67L1062.28 974.132V915.074L1011.13 885.541L959.976 915.074V974.132Z" fill="#F8C455"/>
<path fill-rule="evenodd" clip-rule="evenodd" d="M1011.13 1006.98L957.104 975.788V913.409L1011.13 882.219L1065.15 913.409V975.788L1011.13 1006.98ZM959.976 974.132L1011.13 1003.67L1062.28 974.132V915.074L1011.13 885.541L959.976 915.074V974.132Z" fill="black" fill-opacity="0.25"/>
<path fill-rule="evenodd" clip-rule="evenodd" d="M1125.01 1075.88L1070.99 1107.07L1016.97 1075.88V1013.5L1070.99 982.309L1125.01 1013.5V1075.88ZM1122.14 1015.16L1070.99 985.631L1019.84 1015.16V1074.22L1070.99 1103.76L1122.14 1074.22V1015.16Z" fill="#F8C455"/>
<path fill-rule="evenodd" clip-rule="evenodd" d="M1125.01 1075.88L1070.99 1107.07L1016.97 1075.88V1013.5L1070.99 982.309L1125.01 1013.5V1075.88ZM1122.14 1015.16L1070.99 985.631L1019.84 1015.16V1074.22L1070.99 1103.76L1122.14 1074.22V1015.16Z" fill="black" fill-opacity="0.25"/>
<path fill-rule="evenodd" clip-rule="evenodd" d="M892.081 1006.98L838.059 975.788V913.409L892.081 882.219L946.104 913.409V975.788L892.081 1006.98ZM840.931 974.132L892.081 1003.67L943.232 974.132V915.074L892.081 885.541L840.931 915.074V974.132Z" fill="#F8C455"/>
<path fill-rule="evenodd" clip-rule="evenodd" d="M892.081 1006.98L838.059 975.788V913.409L892.081 882.219L946.104 913.409V975.788L892.081 1006.98ZM840.931 974.132L892.081 1003.67L943.232 974.132V915.074L892.081 885.541L840.931 915.074V974.132Z" fill="black" fill-opacity="0.25"/>
<path fill-rule="evenodd" clip-rule="evenodd" d="M772.357 1006.98L718.335 975.788V913.409L772.357 882.219L826.38 913.409V975.788L772.357 1006.98ZM721.207 974.132L772.357 1003.67L823.508 974.132V915.074L772.357 885.541L721.207 915.074V974.132Z" fill="#F8C455"/>
<path fill-rule="evenodd" clip-rule="evenodd" d="M772.357 1006.98L718.335 975.788V913.409L772.357 882.219L826.38 913.409V975.788L772.357 1006.98ZM721.207 974.132L772.357 1003.67L823.508 974.132V915.074L772.357 885.541L721.207 915.074V974.132Z" fill="black" fill-opacity="0.25"/>
<path fill-rule="evenodd" clip-rule="evenodd" d="M886.232 1075.88L832.21 1107.07L778.188 1075.88V1013.5L832.21 982.309L886.232 1013.5V1075.88ZM883.36 1015.16L832.21 985.631L781.059 1015.16V1074.22L832.21 1103.76L883.36 1074.22V1015.16Z" fill="#F8C455"/>
<path fill-rule="evenodd" clip-rule="evenodd" d="M886.232 1075.88L832.21 1107.07L778.188 1075.88V1013.5L832.21 982.309L886.232 1013.5V1075.88ZM883.36 1015.16L832.21 985.631L781.059 1015.16V1074.22L832.21 1103.76L883.36 1074.22V1015.16Z" fill="black" fill-opacity="0.25"/>
<path fill-rule="evenodd" clip-rule="evenodd" d="M652.633 1006.98L598.611 975.788V913.409L652.633 882.219L706.655 913.409V975.788L652.633 1006.98ZM601.483 974.132L652.633 1003.67L703.783 974.132V915.074L652.633 885.541L601.483 915.074V974.132Z" fill="#F8C455"/>
<path fill-rule="evenodd" clip-rule="evenodd" d="M652.633 1006.98L598.611 975.788V913.409L652.633 882.219L706.655 913.409V975.788L652.633 1006.98ZM601.483 974.132L652.633 1003.67L703.783 974.132V915.074L652.633 885.541L601.483 915.074V974.132Z" fill="black" fill-opacity="0.25"/>
<path fill-rule="evenodd" clip-rule="evenodd" d="M532.909 1006.98L478.887 975.788V913.409L532.909 882.219L586.931 913.409V975.788L532.909 1006.98ZM481.759 974.132L532.909 1003.67L584.059 974.132V915.074L532.909 885.541L481.759 915.074V974.132Z" fill="#F8C455"/>
<path fill-rule="evenodd" clip-rule="evenodd" d="M532.909 1006.98L478.887 975.788V913.409L532.909 882.219L586.931 913.409V975.788L532.909 1006.98ZM481.759 974.132L532.909 1003.67L584.059 974.132V915.074L532.909 885.541L481.759 915.074V974.132Z" fill="black" fill-opacity="0.25"/>
<path fill-rule="evenodd" clip-rule="evenodd" d="M646.793 1075.88L592.771 1107.07L538.749 1075.88V1013.5L592.771 982.309L646.793 1013.5V1075.88ZM643.921 1015.16L592.771 985.631L541.621 1015.16V1074.22L592.771 1103.76L643.921 1074.22V1015.16Z" fill="#F8C455"/>
<path fill-rule="evenodd" clip-rule="evenodd" d="M646.793 1075.88L592.771 1107.07L538.749 1075.88V1013.5L592.771 982.309L646.793 1013.5V1075.88ZM643.921 1015.16L592.771 985.631L541.621 1015.16V1074.22L592.771 1103.76L643.921 1074.22V1015.16Z" fill="black" fill-opacity="0.25"/>
<path fill-rule="evenodd" clip-rule="evenodd" d="M413.185 1006.98L359.163 975.788V913.409L413.185 882.219L467.207 913.409V975.788L413.185 1006.98ZM362.035 974.132L413.185 1003.67L464.335 974.132V915.074L413.185 885.541L362.035 915.074V974.132Z" fill="#F8C455"/>
<path fill-rule="evenodd" clip-rule="evenodd" d="M413.185 1006.98L359.163 975.788V913.409L413.185 882.219L467.207 913.409V975.788L413.185 1006.98ZM362.035 974.132L413.185 1003.67L464.335 974.132V915.074L413.185 885.541L362.035 915.074V974.132Z" fill="black" fill-opacity="0.25"/>
<path fill-rule="evenodd" clip-rule="evenodd" d="M407.345 1075.88L353.323 1107.07L299.3 1075.88V1013.5L353.323 982.309L407.345 1013.5V1075.88ZM404.473 1015.16L353.323 985.631L302.172 1015.16V1074.22L353.323 1103.76L404.473 1074.22V1015.16Z" fill="#F8C455"/>
<path fill-rule="evenodd" clip-rule="evenodd" d="M407.345 1075.88L353.323 1107.07L299.3 1075.88V1013.5L353.323 982.309L407.345 1013.5V1075.88ZM404.473 1015.16L353.323 985.631L302.172 1015.16V1074.22L353.323 1103.76L404.473 1074.22V1015.16Z" fill="black" fill-opacity="0.25"/>
<path fill-rule="evenodd" clip-rule="evenodd" d="M293.461 1006.98L239.438 975.788V913.409L293.461 882.219L347.483 913.409V975.788L293.461 1006.98ZM242.31 974.132L293.461 1003.67L344.611 974.132V915.074L293.461 885.541L242.31 915.074V974.132Z" fill="#F8C455"/>
<path fill-rule="evenodd" clip-rule="evenodd" d="M293.461 1006.98L239.438 975.788V913.409L293.461 882.219L347.483 913.409V975.788L293.461 1006.98ZM242.31 974.132L293.461 1003.67L344.611 974.132V915.074L293.461 885.541L242.31 915.074V974.132Z" fill="black" fill-opacity="0.25"/>
<path fill-rule="evenodd" clip-rule="evenodd" d="M119.724 913.419L173.746 882.229L227.769 913.419V975.798L173.746 1006.99L119.724 975.798V913.419ZM122.596 974.133L173.746 1003.67L224.897 974.133V915.075L173.746 885.541L122.596 915.075V974.133Z" fill="#F8C455"/>
<path fill-rule="evenodd" clip-rule="evenodd" d="M119.724 913.419L173.746 882.229L227.769 913.419V975.798L173.746 1006.99L119.724 975.798V913.419ZM122.596 974.133L173.746 1003.67L224.897 974.133V915.075L173.746 885.541L122.596 915.075V974.133Z" fill="black" fill-opacity="0.25"/>
<path fill-rule="evenodd" clip-rule="evenodd" d="M54.0223 1006.98L0 975.788V913.409L54.0223 882.219L108.045 913.409V975.788L54.0223 1006.98ZM2.872 974.132L54.0223 1003.67L105.173 974.132V915.074L54.0223 885.541L2.872 915.074V974.132Z" fill="#F8C455"/>
<path fill-rule="evenodd" clip-rule="evenodd" d="M54.0223 1006.98L0 975.788V913.409L54.0223 882.219L108.045 913.409V975.788L54.0223 1006.98ZM2.872 974.132L54.0223 1003.67L105.173 974.132V915.074L54.0223 885.541L2.872 915.074V974.132Z" fill="black" fill-opacity="0.25"/>
<path fill-rule="evenodd" clip-rule="evenodd" d="M167.897 1075.88L113.875 1107.07L59.8525 1075.88V1013.5L113.875 982.309L167.897 1013.5V1075.88ZM165.025 1015.16L113.875 985.631L62.7245 1015.16V1074.22L113.875 1103.76L165.025 1074.22V1015.16Z" fill="#F8C455"/>
<path fill-rule="evenodd" clip-rule="evenodd" d="M167.897 1075.88L113.875 1107.07L59.8525 1075.88V1013.5L113.875 982.309L167.897 1013.5V1075.88ZM165.025 1015.16L113.875 985.631L62.7245 1015.16V1074.22L113.875 1103.76L165.025 1074.22V1015.16Z" fill="black" fill-opacity="0.25"/>
<path fill-rule="evenodd" clip-rule="evenodd" d="M287.621 1075.88L233.598 1107.07L179.576 1075.88V1013.5L233.598 982.309L287.621 1013.5V1075.88ZM284.749 1015.16L233.598 985.631L182.448 1015.16V1074.22L233.598 1103.76L284.749 1074.22V1015.16Z" fill="#F8C455"/>
<path fill-rule="evenodd" clip-rule="evenodd" d="M287.621 1075.88L233.598 1107.07L179.576 1075.88V1013.5L233.598 982.309L287.621 1013.5V1075.88ZM284.749 1015.16L233.598 985.631L182.448 1015.16V1074.22L233.598 1103.76L284.749 1074.22V1015.16Z" fill="black" fill-opacity="0.25"/>
<path fill-rule="evenodd" clip-rule="evenodd" d="M526.629 1075.88L472.606 1107.07L418.584 1075.88V1013.5L472.606 982.309L526.629 1013.5V1075.88ZM523.757 1015.16L472.606 985.631L421.456 1015.16V1074.22L472.606 1103.76L523.757 1074.22V1015.16Z" fill="#F8C455"/>
<path fill-rule="evenodd" clip-rule="evenodd" d="M526.629 1075.88L472.606 1107.07L418.584 1075.88V1013.5L472.606 982.309L526.629 1013.5V1075.88ZM523.757 1015.16L472.606 985.631L421.456 1015.16V1074.22L472.606 1103.76L523.757 1074.22V1015.16Z" fill="black" fill-opacity="0.25"/>
<path fill-rule="evenodd" clip-rule="evenodd" d="M765.637 1075.88L711.615 1107.07L657.592 1075.88V1013.5L711.615 982.309L765.637 1013.5V1075.88ZM762.765 1015.16L711.615 985.631L660.464 1015.16V1074.22L711.615 1103.76L762.765 1074.22V1015.16Z" fill="#F8C455"/>
<path fill-rule="evenodd" clip-rule="evenodd" d="M765.637 1075.88L711.615 1107.07L657.592 1075.88V1013.5L711.615 982.309L765.637 1013.5V1075.88ZM762.765 1015.16L711.615 985.631L660.464 1015.16V1074.22L711.615 1103.76L762.765 1074.22V1015.16Z" fill="black" fill-opacity="0.25"/>
<path fill-rule="evenodd" clip-rule="evenodd" d="M1004.64 1075.88L950.622 1107.07L896.6 1075.88V1013.5L950.622 982.309L1004.64 1013.5V1075.88ZM1001.77 1015.16L950.622 985.631L899.472 1015.16V1074.22L950.622 1103.76L1001.77 1074.22V1015.16Z" fill="#F8C455"/>
<path fill-rule="evenodd" clip-rule="evenodd" d="M1004.64 1075.88L950.622 1107.07L896.6 1075.88V1013.5L950.622 982.309L1004.64 1013.5V1075.88ZM1001.77 1015.16L950.622 985.631L899.472 1015.16V1074.22L950.622 1103.76L1001.77 1074.22V1015.16Z" fill="black" fill-opacity="0.25"/>
<path fill-rule="evenodd" clip-rule="evenodd" d="M1243.65 1075.88L1189.63 1107.07L1135.61 1075.88V1013.5L1189.63 982.309L1243.65 1013.5V1075.88ZM1240.78 1015.16L1189.63 985.631L1138.48 1015.16V1074.22L1189.63 1103.76L1240.78 1074.22V1015.16Z" fill="#F8C455"/>
<path fill-rule="evenodd" clip-rule="evenodd" d="M1243.65 1075.88L1189.63 1107.07L1135.61 1075.88V1013.5L1189.63 982.309L1243.65 1013.5V1075.88ZM1240.78 1015.16L1189.63 985.631L1138.48 1015.16V1074.22L1189.63 1103.76L1240.78 1074.22V1015.16Z" fill="black" fill-opacity="0.25"/>
<path d="M1428.64 982.318L1436 986.569V989.881L1428.64 985.631L1377.49 1015.16V1074.22L1428.64 1103.76L1436 1099.51V1102.82L1428.64 1107.07L1374.62 1075.88V1013.5L1428.64 982.309V982.318Z" fill="#F8C455"/>
<path d="M1428.64 982.318L1436 986.569V989.881L1428.64 985.631L1377.49 1015.16V1074.22L1428.64 1103.76L1436 1099.51V1102.82L1428.64 1107.07L1374.62 1075.88V1013.5L1428.64 982.309V982.318Z" fill="black" fill-opacity="0.25"/>
<path d="M46.6604 1075.88L0 1102.82V1099.51L43.7884 1074.22V1015.16L0 989.881V986.568L46.6604 1013.51V1075.89V1075.88Z" fill="#F8C455"/>
<path d="M46.6604 1075.88L0 1102.82V1099.51L43.7884 1074.22V1015.16L0 989.881V986.568L46.6604 1013.51V1075.89V1075.88Z" fill="black" fill-opacity="0.25"/>
</g>
<defs>
<clipPath id="clip0_3380_23756">
<rect width="1436" height="1436" fill="white" transform="translate(0 -158)"/>
</clipPath>
</defs>
</svg>
