<svg width="53" height="48" viewBox="0 0 53 48" fill="none" xmlns="http://www.w3.org/2000/svg">
<path fill-rule="evenodd" clip-rule="evenodd" d="M26.9982 4C15.4027 4 6 12.7224 6 23.4822C6 32.0877 12.0165 39.3896 20.3622 41.9659C21.4122 42.1445 21.7955 41.5439 21.7955 41.0276C21.7955 40.565 21.778 39.3393 21.7675 37.7143C15.926 38.8913 14.694 35.1023 14.694 35.1023C13.7385 32.8523 12.363 32.2533 12.363 32.2533C10.4555 31.0439 12.5065 31.0698 12.5065 31.0698C14.6135 31.2078 15.723 33.0779 15.723 33.0779C17.5955 36.0552 20.6388 35.1948 21.834 34.6965C22.0248 33.4383 22.5673 32.5796 23.1675 32.0926C18.5038 31.6007 13.602 29.9302 13.602 22.4643C13.602 20.3377 14.421 18.599 15.7633 17.237C15.548 16.7435 14.827 14.763 15.9697 12.0812C15.9697 12.0812 17.7337 11.5568 21.7447 14.0779C23.4195 13.6461 25.2167 13.4302 27.0017 13.4221C28.785 13.4302 30.5822 13.6461 32.2587 14.0779C36.268 11.5568 38.0285 12.0812 38.0285 12.0812C39.1748 14.763 38.4537 16.7435 38.2367 17.237C39.5825 18.599 40.3945 20.3377 40.3945 22.4643C40.3945 29.9481 35.484 31.5942 30.8062 32.0763C31.5605 32.677 32.2325 33.8669 32.2325 35.6835C32.2325 38.2874 32.2063 40.388 32.2063 41.0276C32.2063 41.5487 32.5842 42.1543 33.65 41.9643C41.9887 39.3815 48 32.0861 48 23.4822C48 12.7224 38.5972 4 26.9982 4Z" fill="black"/>
</svg>
