<svg width="169" height="179" viewBox="0 0 169 179" fill="none" xmlns="http://www.w3.org/2000/svg">
<g opacity="0.2">
<path fill-rule="evenodd" clip-rule="evenodd" d="M56.5028 116.517L46.5321 82.1113L79.0868 58.0241L121.612 68.3422L131.583 102.748L99.0283 126.835L56.5028 116.517ZM48.7919 82.6606L58.2315 115.238L98.4972 125.006L129.318 102.202L119.879 69.625L79.6129 59.8561L48.7919 82.6606Z" fill="#F8C455"/>
<path fill-rule="evenodd" clip-rule="evenodd" d="M56.5028 116.517L46.5321 82.1113L79.0868 58.0241L121.612 68.3422L131.583 102.748L99.0283 126.835L56.5028 116.517ZM48.7919 82.6606L58.2315 115.238L98.4972 125.006L129.318 102.202L119.879 69.625L79.6129 59.8561L48.7919 82.6606Z" fill="black" fill-opacity="0.6"/>
<path fill-rule="evenodd" clip-rule="evenodd" d="M74.1386 191.492L31.6131 181.174L21.6424 146.769L54.1972 122.681L96.7227 132.999L106.693 167.405L74.1386 191.492ZM104.429 166.859L94.989 134.282L54.7233 124.513L23.9022 147.318L33.3417 179.895L73.6075 189.664L104.429 166.859Z" fill="#F8C455"/>
<path fill-rule="evenodd" clip-rule="evenodd" d="M74.1386 191.492L31.6131 181.174L21.6424 146.769L54.1972 122.681L96.7227 132.999L106.693 167.405L74.1386 191.492ZM104.429 166.859L94.989 134.282L54.7233 124.513L23.9022 147.318L33.3417 179.895L73.6075 189.664L104.429 166.859Z" fill="black" fill-opacity="0.6"/>
<path fill-rule="evenodd" clip-rule="evenodd" d="M17.7709 140.291L-24.7545 129.973L-34.7253 95.5674L-2.17044 71.4801L40.355 81.7983L50.3257 116.204L17.7709 140.291ZM48.061 115.658L38.6214 83.081L-1.64433 73.3122L-32.4655 96.1167L-23.0259 128.694L17.2398 138.463L48.061 115.658Z" fill="#F8C455"/>
<path fill-rule="evenodd" clip-rule="evenodd" d="M17.7709 140.291L-24.7545 129.973L-34.7253 95.5674L-2.17044 71.4801L40.355 81.7983L50.3257 116.204L17.7709 140.291ZM48.061 115.658L38.6214 83.081L-1.64433 73.3122L-32.4655 96.1167L-23.0259 128.694L17.2398 138.463L48.061 115.658Z" fill="black" fill-opacity="0.6"/>
</g>
</svg>
