<svg width="158" height="46" viewBox="0 0 158 46" fill="none" xmlns="http://www.w3.org/2000/svg">
<path d="M0 23C0 10.2975 10.2975 0 23 0H135C147.703 0 158 10.2975 158 23C158 35.7025 147.703 46 135 46H23C10.2975 46 0 35.7025 0 23Z" fill="white"/>
<path d="M27.9102 23.284H24.2922L26.0742 18.514L27.9102 23.284ZM25.2282 15.76L20.5482 28H22.5462L23.6982 24.922H28.5402L29.7282 28.162L31.7442 27.874L26.9922 15.76H25.2282ZM38.703 26.434L39.639 28H40.737V15.31L38.703 15.49V26.434ZM39.207 25.264C38.811 25.672 38.427 25.978 38.055 26.182C37.695 26.386 37.281 26.488 36.813 26.488C36.333 26.488 35.913 26.368 35.553 26.128C35.205 25.876 34.941 25.534 34.761 25.102C34.581 24.67 34.491 24.172 34.491 23.608C34.491 23.068 34.581 22.588 34.761 22.168C34.941 21.736 35.205 21.394 35.553 21.142C35.913 20.89 36.339 20.764 36.831 20.764C37.287 20.764 37.701 20.86 38.073 21.052C38.457 21.244 38.847 21.568 39.243 22.024L39.837 20.638C39.609 20.302 39.315 20.014 38.955 19.774C38.607 19.534 38.241 19.354 37.857 19.234C37.473 19.102 37.125 19.036 36.813 19.036C35.913 19.036 35.133 19.228 34.473 19.612C33.813 19.996 33.303 20.53 32.943 21.214C32.595 21.898 32.421 22.696 32.421 23.608C32.421 24.544 32.595 25.36 32.943 26.056C33.291 26.74 33.789 27.274 34.437 27.658C35.097 28.042 35.877 28.234 36.777 28.234C37.113 28.234 37.461 28.168 37.821 28.036C38.193 27.916 38.553 27.736 38.901 27.496C39.249 27.256 39.555 26.968 39.819 26.632L39.207 25.264ZM48.7225 26.434L49.6585 28H50.7565V15.31L48.7225 15.49V26.434ZM49.2265 25.264C48.8305 25.672 48.4465 25.978 48.0745 26.182C47.7145 26.386 47.3005 26.488 46.8325 26.488C46.3525 26.488 45.9325 26.368 45.5725 26.128C45.2245 25.876 44.9605 25.534 44.7805 25.102C44.6005 24.67 44.5105 24.172 44.5105 23.608C44.5105 23.068 44.6005 22.588 44.7805 22.168C44.9605 21.736 45.2245 21.394 45.5725 21.142C45.9325 20.89 46.3585 20.764 46.8505 20.764C47.3065 20.764 47.7205 20.86 48.0925 21.052C48.4765 21.244 48.8665 21.568 49.2625 22.024L49.8565 20.638C49.6285 20.302 49.3345 20.014 48.9745 19.774C48.6265 19.534 48.2605 19.354 47.8765 19.234C47.4925 19.102 47.1445 19.036 46.8325 19.036C45.9325 19.036 45.1525 19.228 44.4925 19.612C43.8325 19.996 43.3225 20.53 42.9625 21.214C42.6145 21.898 42.4405 22.696 42.4405 23.608C42.4405 24.544 42.6145 25.36 42.9625 26.056C43.3105 26.74 43.8085 27.274 44.4565 27.658C45.1165 28.042 45.8965 28.234 46.7965 28.234C47.1325 28.234 47.4805 28.168 47.8405 28.036C48.2125 27.916 48.5725 27.736 48.9205 27.496C49.2685 27.256 49.5745 26.968 49.8385 26.632L49.2265 25.264ZM61.0918 19.342H59.5078V16.804L57.4918 17.2V19.342H56.2678L56.2858 20.872H57.4918V25.39C57.4918 26.026 57.6178 26.566 57.8698 27.01C58.1338 27.442 58.4938 27.772 58.9498 28C59.4058 28.228 59.9578 28.342 60.6058 28.342C60.7858 28.342 60.9778 28.318 61.1818 28.27C61.3978 28.222 61.5958 28.162 61.7758 28.09C61.9678 28.018 62.1178 27.946 62.2258 27.874L61.6678 26.38C61.5238 26.44 61.3738 26.488 61.2178 26.524C61.0618 26.56 60.9058 26.578 60.7498 26.578C60.3298 26.578 60.0178 26.44 59.8138 26.164C59.6098 25.876 59.5078 25.51 59.5078 25.066V20.872H61.7038L61.0918 19.342ZM67.5417 28.234C66.6177 28.234 65.8197 28.042 65.1477 27.658C64.4757 27.274 63.9597 26.74 63.5997 26.056C63.2397 25.36 63.0597 24.556 63.0597 23.644C63.0597 22.708 63.2457 21.898 63.6177 21.214C63.9897 20.53 64.5117 19.996 65.1837 19.612C65.8677 19.228 66.6657 19.036 67.5777 19.036C68.5017 19.036 69.2937 19.228 69.9537 19.612C70.6257 19.996 71.1477 20.53 71.5197 21.214C71.8917 21.898 72.0777 22.702 72.0777 23.626C72.0777 24.538 71.8857 25.342 71.5017 26.038C71.1297 26.734 70.6077 27.274 69.9357 27.658C69.2637 28.03 68.4657 28.222 67.5417 28.234ZM67.5597 26.488C68.0637 26.488 68.4957 26.362 68.8557 26.11C69.2157 25.858 69.4917 25.516 69.6837 25.084C69.8877 24.652 69.9897 24.166 69.9897 23.626C69.9897 23.074 69.8937 22.582 69.7017 22.15C69.5097 21.718 69.2337 21.382 68.8737 21.142C68.5137 20.89 68.0817 20.764 67.5777 20.764C67.0977 20.764 66.6717 20.89 66.2997 21.142C65.9277 21.394 65.6397 21.736 65.4357 22.168C65.2437 22.6 65.1417 23.086 65.1297 23.626C65.1297 24.178 65.2257 24.67 65.4177 25.102C65.6097 25.534 65.8917 25.876 66.2637 26.128C66.6357 26.368 67.0677 26.488 67.5597 26.488ZM86.3733 16.282C86.0373 16.09 85.6653 15.94 85.2573 15.832C84.8613 15.712 84.4773 15.628 84.1053 15.58C83.7333 15.532 83.4273 15.508 83.1873 15.508C82.2873 15.508 81.4773 15.67 80.7573 15.994C80.0373 16.306 79.4193 16.75 78.9033 17.326C78.3993 17.902 78.0093 18.586 77.7333 19.378C77.4693 20.158 77.3373 21.016 77.3373 21.952C77.3373 22.816 77.4573 23.632 77.6973 24.4C77.9373 25.156 78.2973 25.828 78.7773 26.416C79.2693 26.992 79.8753 27.442 80.5953 27.766C81.3153 28.09 82.1493 28.252 83.0973 28.252C83.4333 28.252 83.8053 28.222 84.2133 28.162C84.6213 28.102 85.0233 28.018 85.4193 27.91C85.8153 27.79 86.1573 27.652 86.4453 27.496L85.6713 26.002C85.3233 26.158 84.9273 26.29 84.4833 26.398C84.0513 26.494 83.5533 26.542 82.9893 26.542C82.4253 26.542 81.9213 26.422 81.4773 26.182C81.0453 25.942 80.6733 25.606 80.3613 25.174C80.0613 24.742 79.8333 24.25 79.6773 23.698C79.5213 23.146 79.4433 22.558 79.4433 21.934C79.4433 20.974 79.6053 20.146 79.9293 19.45C80.2533 18.742 80.6913 18.196 81.2433 17.812C81.8073 17.416 82.4373 17.218 83.1333 17.218C83.5173 17.218 83.8413 17.242 84.1053 17.29C84.3693 17.326 84.6273 17.38 84.8793 17.452C85.1433 17.524 85.4313 17.614 85.7433 17.722L86.3733 16.282ZM89.9652 21.898C90.2172 21.706 90.4812 21.514 90.7572 21.322C91.0332 21.13 91.3212 20.974 91.6212 20.854C91.9332 20.734 92.2332 20.674 92.5212 20.674C93.0012 20.674 93.3492 20.836 93.5652 21.16C93.7812 21.484 93.8892 21.934 93.8892 22.51V28H95.9052V22.384C95.9052 21.736 95.8092 21.16 95.6172 20.656C95.4372 20.14 95.1372 19.732 94.7172 19.432C94.3092 19.132 93.7452 18.982 93.0252 18.982C92.6652 18.982 92.2872 19.036 91.8912 19.144C91.4952 19.252 91.1052 19.408 90.7212 19.612C90.3492 19.804 89.9952 20.038 89.6592 20.314L89.9652 21.898ZM89.9652 28V15.292L87.9672 15.49V28H89.9652ZM99.9457 28V22.438C100.258 22.15 100.594 21.892 100.954 21.664C101.326 21.436 101.692 21.25 102.052 21.106C102.424 20.962 102.754 20.89 103.042 20.89L102.61 19.27C102.298 19.27 101.956 19.348 101.584 19.504C101.224 19.66 100.876 19.852 100.54 20.08C100.204 20.296 99.9157 20.506 99.6757 20.71L99.0097 19.27H97.9297V28H99.9457ZM108.2 28.234C107.276 28.234 106.478 28.042 105.806 27.658C105.134 27.274 104.618 26.74 104.258 26.056C103.898 25.36 103.718 24.556 103.718 23.644C103.718 22.708 103.904 21.898 104.276 21.214C104.648 20.53 105.17 19.996 105.842 19.612C106.526 19.228 107.324 19.036 108.236 19.036C109.16 19.036 109.952 19.228 110.612 19.612C111.284 19.996 111.806 20.53 112.178 21.214C112.55 21.898 112.736 22.702 112.736 23.626C112.736 24.538 112.544 25.342 112.16 26.038C111.788 26.734 111.266 27.274 110.594 27.658C109.922 28.03 109.124 28.222 108.2 28.234ZM108.218 26.488C108.722 26.488 109.154 26.362 109.514 26.11C109.874 25.858 110.15 25.516 110.342 25.084C110.546 24.652 110.648 24.166 110.648 23.626C110.648 23.074 110.552 22.582 110.36 22.15C110.168 21.718 109.892 21.382 109.532 21.142C109.172 20.89 108.74 20.764 108.236 20.764C107.756 20.764 107.33 20.89 106.958 21.142C106.586 21.394 106.298 21.736 106.094 22.168C105.902 22.6 105.8 23.086 105.788 23.626C105.788 24.178 105.884 24.67 106.076 25.102C106.268 25.534 106.55 25.876 106.922 26.128C107.294 26.368 107.726 26.488 108.218 26.488ZM116.276 28V21.898C116.528 21.706 116.786 21.514 117.05 21.322C117.314 21.13 117.584 20.974 117.86 20.854C118.136 20.734 118.412 20.674 118.688 20.674C119 20.674 119.24 20.752 119.408 20.908C119.588 21.052 119.714 21.262 119.786 21.538C119.87 21.802 119.912 22.126 119.912 22.51V28H121.946V22.204C121.946 21.556 121.85 20.992 121.658 20.512C121.478 20.032 121.184 19.66 120.776 19.396C120.368 19.12 119.834 18.982 119.174 18.982C118.862 18.982 118.514 19.036 118.13 19.144C117.758 19.252 117.386 19.408 117.014 19.612C116.654 19.804 116.306 20.038 115.97 20.314L115.61 19.27H114.26V28H116.276ZM121.856 21.898C122.108 21.706 122.366 21.514 122.63 21.322C122.906 21.13 123.182 20.974 123.458 20.854C123.734 20.734 124.004 20.674 124.268 20.674C124.58 20.674 124.82 20.752 124.988 20.908C125.168 21.052 125.294 21.262 125.366 21.538C125.45 21.802 125.492 22.126 125.492 22.51V28H127.526V22.204C127.526 21.556 127.43 20.992 127.238 20.512C127.058 20.032 126.764 19.66 126.356 19.396C125.948 19.12 125.414 18.982 124.754 18.982C124.43 18.982 124.082 19.036 123.71 19.144C123.338 19.252 122.966 19.408 122.594 19.612C122.222 19.804 121.874 20.038 121.55 20.314L121.856 21.898ZM137.15 24.166V23.734C137.15 22.882 137.012 22.102 136.736 21.394C136.472 20.686 136.052 20.116 135.476 19.684C134.9 19.252 134.162 19.036 133.262 19.036C132.374 19.036 131.606 19.228 130.958 19.612C130.322 19.996 129.83 20.536 129.482 21.232C129.146 21.916 128.978 22.72 128.978 23.644C128.978 24.556 129.158 25.36 129.518 26.056C129.878 26.74 130.424 27.274 131.156 27.658C131.888 28.03 132.788 28.216 133.856 28.216C134.312 28.216 134.732 28.174 135.116 28.09C135.5 28.006 135.854 27.886 136.178 27.73C136.502 27.562 136.802 27.388 137.078 27.208L136.466 25.732C136.034 25.96 135.62 26.146 135.224 26.29C134.84 26.434 134.396 26.506 133.892 26.506C133.268 26.506 132.758 26.41 132.362 26.218C131.978 26.014 131.684 25.738 131.48 25.39C131.288 25.042 131.162 24.634 131.102 24.166H137.15ZM131.138 22.798C131.198 22.366 131.312 22 131.48 21.7C131.66 21.4 131.894 21.172 132.182 21.016C132.482 20.848 132.818 20.764 133.19 20.764C133.574 20.764 133.898 20.848 134.162 21.016C134.438 21.172 134.66 21.4 134.828 21.7C135.008 22 135.134 22.366 135.206 22.798H131.138Z" fill="black"/>
<path d="M23 3H135V-3H23V3ZM135 43H23V49H135V43ZM23 43C11.9543 43 3 34.0457 3 23H-3C-3 37.3594 8.6406 49 23 49V43ZM155 23C155 34.0457 146.046 43 135 43V49C149.359 49 161 37.3594 161 23H155ZM135 3C146.046 3 155 11.9543 155 23H161C161 8.6406 149.359 -3 135 -3V3ZM23 -3C8.6406 -3 -3 8.6406 -3 23H3C3 11.9543 11.9543 3 23 3V-3Z" fill="#333333"/>
</svg>
