<svg width="124" height="89" viewBox="0 0 124 89" fill="none" xmlns="http://www.w3.org/2000/svg">
<path d="M98.668 82.892C90.437 75.6722 83.9243 57.2488 81.6777 46.6509C79.6085 36.9021 82.5778 26.8497 85.5988 17.6082C90.4683 2.71013 105.351 -6.59113 115.207 10.4772C134.205 43.3707 49.4846 61.9188 44.2853 23.4661C41.3155 1.51283 67.6432 19.7616 67.7754 34.7758C67.89 47.9114 52.8076 58.8295 35.9839 58.1266" stroke="#F8C455" stroke-linecap="round" stroke-dasharray="5 5"/>
<path d="M98.668 82.892C90.437 75.6722 83.9243 57.2488 81.6777 46.6509C79.6085 36.9021 82.5778 26.8497 85.5988 17.6082C90.4683 2.71013 105.351 -6.59113 115.207 10.4772C134.205 43.3707 49.4846 61.9188 44.2853 23.4661C41.3155 1.51283 67.6432 19.7616 67.7754 34.7758C67.89 47.9114 52.8076 58.8295 35.9839 58.1266" stroke="white" stroke-opacity="0.9" stroke-linecap="round" stroke-dasharray="5 5"/>
<path opacity="0.5" d="M30.2898 39.6104C33.0965 44.183 29.9622 46.1996 26.0956 48.6863C22.2291 51.173 17.5479 50.668 16.2891 48.6158C15.3739 47.125 16.618 42.0264 20.4833 39.5398C24.3498 37.0531 27.4842 35.0364 30.2898 39.6104Z" fill="#9D9D9C"/>
<path d="M35.8233 56.8315C36.3538 63.0529 30.06 68.6698 21.7652 69.377C13.4705 70.0843 6.31657 65.614 5.7861 59.3926C5.25564 53.1712 11.5494 47.5542 19.8442 46.847C28.1389 46.1397 35.2929 50.61 35.8233 56.8315Z" fill="#F8C455"/>
<path d="M35.8233 56.8315C36.3538 63.0529 30.06 68.6698 21.7652 69.377C13.4705 70.0843 6.31657 65.614 5.7861 59.3926C5.25564 53.1712 11.5494 47.5542 19.8442 46.847C28.1389 46.1397 35.2929 50.61 35.8233 56.8315Z" fill="white" fill-opacity="0.5"/>
<path d="M19.5581 69.4421C17.4252 69.3895 15.4085 68.9958 13.6076 68.323C10.4852 61.5814 10.3689 54.0417 10.5707 50.1883C11.7974 49.2849 13.2184 48.5254 14.7824 47.9531C14.9138 53.2629 18.3853 65.4601 19.5568 69.441L19.5581 69.4421Z" fill="#1E1201"/>
<path d="M19.8441 46.8469C21.5727 46.6996 23.2508 46.7772 24.8306 47.0488C27.8877 51.363 29.4814 62.2731 30.0219 66.7204C28.3138 67.7815 26.3076 68.5846 24.1077 69.0368C23.8964 60.2813 20.4669 50.2676 19.2251 46.9098C19.4295 46.886 19.6367 46.8646 19.8441 46.8469Z" fill="#1E1201"/>
<path d="M33.4328 63.8028C33.5119 57.9533 32.0017 52.6795 31.0029 49.4062C33.7506 51.2086 35.5661 53.8141 35.8234 56.8321C36.038 59.3495 35.1349 61.7691 33.4329 63.8041L33.4328 63.8028Z" fill="#1E1201"/>
<path d="M9.94712 55.948C10.0127 56.7162 9.45919 57.3904 8.71074 57.4542C7.9623 57.518 7.3027 56.9472 7.2372 56.1791C7.1717 55.4109 7.72514 54.7366 8.47359 54.6728C9.22203 54.609 9.88163 55.1798 9.94712 55.948Z" fill="#F6F6F6"/>
<path d="M9.2046 56.0103C9.23422 56.3577 8.98406 56.6624 8.64563 56.6913C8.30719 56.7201 8.00905 56.4621 7.97943 56.1148C7.94981 55.7674 8.19997 55.4627 8.53841 55.4338C8.87684 55.4049 9.17498 55.6629 9.2046 56.0103Z" fill="#1E1201"/>
<path opacity="0.3" d="M10.1556 59.7671C10.1906 60.178 9.63803 60.5612 8.92234 60.6222C8.20664 60.6833 7.59715 60.3991 7.56212 59.9883C7.52709 59.5774 8.07968 59.1942 8.79537 59.1332C9.51106 59.0722 10.1206 59.3563 10.1556 59.7671Z" fill="#F186BB"/>
<path d="M2.97224 48.9468C3.01767 49.4796 2.63358 49.9475 2.1144 49.9918C1.59522 50.0361 1.13746 49.6399 1.09203 49.1071C1.04659 48.5742 1.43068 48.1063 1.94986 48.062C2.46904 48.0178 2.9268 48.4139 2.97224 48.9468Z" fill="#1E1201"/>
<path d="M3.97224 47.0054C4.01767 47.5382 3.63358 48.0061 3.1144 48.0504C2.59522 48.0947 2.13746 47.6985 2.09203 47.1657C2.04659 46.6328 2.43068 46.1649 2.94986 46.1206C3.46904 46.0763 3.9268 46.4725 3.97224 47.0054Z" fill="#1E1201"/>
<path d="M2.62305 48.9788C5.75469 48.5061 7.68736 49.8926 8.41966 53.1359" stroke="#1D1D1B"/>
<path d="M3.68945 46.9001C6.67432 46.8412 8.4995 48.3284 9.16765 51.364" stroke="#1D1D1B"/>
<path opacity="0.5" d="M33.0485 44.6412C34.7274 49.7589 31.2155 50.9588 26.8818 52.4369C22.5493 53.9162 18.11 52.2932 17.357 49.996C16.809 48.3271 19.1899 43.6784 23.5237 42.2003C27.8561 40.721 31.3694 39.5223 33.0485 44.6412Z" fill="#9D9D9C"/>
<path d="M9.24419 62.8073C8.86447 63.2547 8.24718 63.567 7.3913 63.7465C7.11281 63.3464 6.86723 62.9309 6.65576 62.5C7.29843 62.7863 8.17772 62.996 9.24419 62.8073Z" fill="#1E1201"/>
</svg>
