<svg width="38" height="35" viewBox="0 0 38 35" fill="none" xmlns="http://www.w3.org/2000/svg">
<path opacity="0.5" d="M30.9441 3.39757C33.7508 7.97016 30.6165 9.98686 26.7499 12.4736C22.8834 14.9603 18.2022 14.4552 16.9434 12.403C16.0282 10.9122 17.2723 5.81361 21.1376 3.32702C25.0041 0.840322 28.1385 -1.17638 30.9441 3.39757Z" fill="#9D9D9C"/>
<path d="M36.4777 20.618C37.0082 26.8394 30.7144 32.4563 22.4196 33.1636C14.1249 33.8708 6.97096 29.4005 6.44049 23.1791C5.91002 16.9577 12.2038 11.3408 20.4986 10.6335C28.7933 9.92625 35.9473 14.3966 36.4777 20.618Z" fill="#F8C455"/>
<path d="M36.4777 20.618C37.0082 26.8394 30.7144 32.4563 22.4196 33.1636C14.1249 33.8708 6.97096 29.4005 6.44049 23.1791C5.91002 16.9577 12.2038 11.3408 20.4986 10.6335C28.7933 9.92625 35.9473 14.3966 36.4777 20.618Z" fill="white" fill-opacity="0.75"/>
<path d="M20.2123 33.2277C18.0794 33.175 16.0627 32.7814 14.2618 32.1085C11.1394 25.3669 11.0231 17.8273 11.2249 13.9739C12.4516 13.0704 13.8726 12.3109 15.4366 11.7386C15.568 17.0485 19.0395 29.2456 20.211 33.2265L20.2123 33.2277Z" fill="#1E1201"/>
<path d="M20.4983 10.6346C22.2269 10.4873 23.905 10.5649 25.4848 10.8365C28.5419 15.1507 30.1356 26.0608 30.6761 30.5081C28.968 31.5692 26.9618 32.3723 24.7619 32.8245C24.5506 24.069 21.1211 14.0554 19.8793 10.6975C20.0837 10.6738 20.2908 10.6523 20.4983 10.6346Z" fill="#1E1201"/>
<path d="M34.0871 27.588C34.1662 21.7385 32.656 16.4647 31.6572 13.1914C34.4049 14.9938 36.2204 17.5992 36.4777 20.6171C36.6923 23.1346 35.7892 25.5542 34.0872 27.5892L34.0871 27.588Z" fill="#1E1201"/>
<path d="M10.6015 19.7339C10.667 20.502 10.1135 21.1763 9.36507 21.2401C8.61662 21.3039 7.95703 20.7331 7.89153 19.9649C7.82603 19.1967 8.37947 18.5225 9.12791 18.4587C9.87636 18.3949 10.536 18.9657 10.6015 19.7339Z" fill="#F6F6F6"/>
<path d="M9.85886 19.7977C9.88847 20.1451 9.63832 20.4498 9.29988 20.4787C8.96145 20.5075 8.66331 20.2495 8.63369 19.9022C8.60407 19.5548 8.85423 19.2501 9.19266 19.2212C9.5311 19.1923 9.82924 19.4503 9.85886 19.7977Z" fill="#1E1201"/>
<path opacity="0.3" d="M10.8098 23.5547C10.8448 23.9655 10.2922 24.3487 9.57653 24.4097C8.86084 24.4708 8.25135 24.1866 8.21631 23.7758C8.18128 23.3649 8.73388 22.9817 9.44957 22.9207C10.1653 22.8597 10.7748 23.1438 10.8098 23.5547Z" fill="#F186BB"/>
<path d="M3.62654 12.7343C3.67198 13.2671 3.28789 13.7351 2.76871 13.7793C2.24953 13.8236 1.79177 13.4275 1.74633 12.8946C1.7009 12.3617 2.08499 11.8938 2.60417 11.8495C3.12335 11.8053 3.58111 12.2014 3.62654 12.7343Z" fill="#1E1201"/>
<path d="M4.62654 10.7929C4.67198 11.3257 4.28789 11.7937 3.76871 11.8379C3.24953 11.8822 2.79177 11.4861 2.74633 10.9532C2.7009 10.4203 3.08499 9.95239 3.60417 9.90812C4.12335 9.86386 4.58111 10.26 4.62654 10.7929Z" fill="#1E1201"/>
<path d="M3.27741 12.764C6.40904 12.2913 8.34172 13.6778 9.07401 16.9212" stroke="#1D1D1B"/>
<path d="M4.34375 10.6875C7.32861 10.6286 9.1538 12.1159 9.82195 15.1514" stroke="#1D1D1B"/>
<path opacity="0.5" d="M33.7029 8.4297C35.3818 13.5474 31.8699 14.7473 27.5362 16.2254C23.2037 17.7047 18.7644 16.0817 18.0114 13.7844C17.4634 12.1156 19.8443 7.46686 24.1781 5.98874C28.5105 4.50947 32.0238 3.31074 33.7029 8.4297Z" fill="#9D9D9C"/>
<path d="M9.89849 26.5963C9.51877 27.0438 8.90147 27.356 8.0456 27.5356C7.76711 27.1355 7.52153 26.72 7.31006 26.2891C7.95273 26.5754 8.83202 26.7851 9.89849 26.5963Z" fill="#1E1201"/>
</svg>
