<svg width="38" height="29" viewBox="0 0 38 29" fill="none" xmlns="http://www.w3.org/2000/svg">
<path opacity="0.5" d="M30.7743 3.55802C33.6326 7.32234 30.5802 8.92039 26.8148 10.8909C23.0493 12.8613 18.4217 12.3834 17.1398 10.694C16.2078 9.46669 17.3351 5.33155 21.0994 3.36115C24.8648 1.39068 27.9172 -0.207373 30.7743 3.55802Z" fill="#9D9D9C"/>
<path d="M36.2681 17.4907C36.914 22.5746 30.8075 27.0682 22.6283 27.5271C14.4491 27.9861 7.29518 24.2366 6.64918 19.1527C6.00319 14.0688 12.1097 9.57522 20.2889 9.11625C28.4681 8.65728 35.6221 12.4067 36.2681 17.4907Z" fill="#F8C455"/>
<path d="M20.2118 27.4906C18.1674 27.4185 16.228 27.0739 14.4899 26.508C11.3699 21.0464 11.1146 14.9854 11.2343 11.8913C12.3922 11.1824 13.739 10.5919 15.2264 10.1538C15.4537 14.423 19.0122 24.274 20.2105 27.4896L20.2118 27.4906Z" fill="#1E1201"/>
<path d="M20.4738 9.19468C22.1342 9.10033 23.7503 9.18626 25.2756 9.42684C28.2998 12.9396 30.0423 21.737 30.6475 25.3215C29.0244 26.1511 27.1094 26.769 25.0014 27.1019C24.6302 20.0568 21.1386 11.9547 19.8794 9.23654C20.0757 9.22034 20.2746 9.206 20.4738 9.19468Z" fill="#1E1201"/>
<path d="M34.2388 22.8894C34.2031 18.1949 32.6679 13.9403 31.6567 11.2988C34.3019 12.7839 36.0765 14.9007 36.3783 17.3269C36.63 19.3508 35.8177 21.2805 34.2389 22.8904L34.2388 22.8894Z" fill="#1E1201"/>
<path d="M10.5763 16.6082C10.6556 17.2326 10.1247 17.772 9.39018 17.8132C8.65564 17.8544 7.99605 17.3818 7.91667 16.7574C7.83728 16.1329 8.3682 15.5936 9.10274 15.5524C9.83729 15.5112 10.4969 15.9838 10.5763 16.6082Z" fill="#F8C455"/>
<path d="M9.8475 16.6487C9.8834 16.931 9.64342 17.1748 9.31126 17.1935C8.9791 17.2121 8.68095 16.9985 8.64506 16.7161C8.60916 16.4338 8.84914 16.19 9.1813 16.1714C9.51346 16.1527 9.8116 16.3664 9.8475 16.6487Z" fill="#1E1201"/>
<path opacity="0.3" d="M10.7957 19.6629C10.8385 20.0005 10.2985 20.3071 9.59062 20.3469C8.88269 20.3868 8.27319 20.1449 8.23039 19.8072C8.18759 19.4695 8.72757 19.163 9.4355 19.1231C10.1434 19.0833 10.7529 19.3252 10.7957 19.6629Z" fill="#F186BB"/>
<path d="M3.60914 11.0031C3.66421 11.4362 3.29574 11.8105 2.78618 11.8391C2.27662 11.8677 1.81885 11.5397 1.76378 11.1065C1.70871 10.6734 2.07719 10.2991 2.58674 10.2705C3.0963 10.242 3.55407 10.5699 3.60914 11.0031Z" fill="#1E1201"/>
<path d="M4.60914 9.4484C4.66421 9.88154 4.29574 10.2559 3.78618 10.2844C3.27662 10.313 2.81885 9.98502 2.76378 9.55188C2.70871 9.11874 3.07719 8.74441 3.58674 8.71584C4.0963 8.68726 4.55407 9.01526 4.60914 9.4484Z" fill="#1E1201"/>
<path d="M3.27725 10.9443C6.35547 10.604 8.28803 11.7601 9.07349 14.4104" stroke="#1D1D1B"/>
<path d="M4.34375 9.28711C7.27991 9.28161 9.10508 10.5156 9.8219 12.9911" stroke="#1D1D1B"/>
<path opacity="0.5" d="M33.5658 7.61579C35.3257 11.8199 31.878 12.7499 27.6235 13.8955C23.3703 15.042 18.9505 13.6531 18.1611 11.766C17.5868 10.395 19.8489 6.6318 24.1034 5.48623C28.3566 4.3397 31.8056 3.41064 33.5658 7.61579Z" fill="#9D9D9C"/>
<path d="M9.8837 22.0908C9.51586 22.4537 8.90969 22.7018 8.06426 22.8373C7.78012 22.504 7.52832 22.1585 7.31006 21.8008C7.9532 22.0456 8.82954 22.2309 9.8837 22.0908Z" fill="#1E1201"/>
</svg>
