<svg width="98" height="63" viewBox="0 0 98 63" fill="none" xmlns="http://www.w3.org/2000/svg">
<path d="M0.634917 59.0584C0.446237 59.26 0.456735 59.5764 0.658365 59.7651L3.94411 62.8398C4.14575 63.0285 4.46215 63.018 4.65083 62.8163C4.83951 62.6147 4.82901 62.2983 4.62738 62.1096L1.70672 59.3765L4.43979 56.4559C4.62847 56.2542 4.61798 55.9378 4.41635 55.7492C4.21472 55.5605 3.89831 55.571 3.70963 55.7726L0.634917 59.0584ZM1.01658 59.8997C2.60488 59.847 4.17167 59.7834 5.71709 59.7091L5.66908 58.7102C4.12867 58.7843 2.56683 58.8477 0.983419 58.9003L1.01658 59.8997ZM14.9621 59.1204C18.136 58.8668 21.2101 58.5661 24.1858 58.2216L24.0708 57.2283C21.1072 57.5713 18.0449 57.8709 14.8825 58.1236L14.9621 59.1204ZM33.3711 56.9747C36.5355 56.4787 39.5735 55.9301 42.4873 55.3342L42.2869 54.3545C39.3888 54.9472 36.366 55.493 33.2162 55.9868L33.3711 56.9747ZM51.4845 53.247C54.6355 52.4233 57.6143 51.5402 60.4243 50.6062L60.1088 49.6573C57.3205 50.5841 54.3627 51.461 51.2316 52.2795L51.4845 53.247ZM69.0979 47.347C72.1492 46.0532 74.944 44.6943 77.4894 43.2868L77.0055 42.4117C74.4928 43.8011 71.7293 45.145 68.7075 46.4264L69.0979 47.347ZM85.3174 38.2433C88.0439 36.1791 90.3141 34.0568 92.1437 31.9188L91.3839 31.2686C89.6069 33.3451 87.3909 35.4192 84.7137 37.4461L85.3174 38.2433ZM96.9825 23.8743C98.1451 20.5906 98.2864 17.3971 97.4549 14.4728L96.493 14.7463C97.2614 17.4487 97.1414 20.4293 96.0398 23.5406L96.9825 23.8743ZM92.1281 6.73326C89.923 4.95299 87.1286 3.49075 83.7955 2.43133L83.4926 3.38435C86.7282 4.41278 89.4071 5.82173 91.5 7.51134L92.1281 6.73326ZM74.5926 0.688174C73.0984 0.564066 71.5393 0.5 69.9173 0.5V1.5C71.5131 1.5 73.0445 1.56303 74.5098 1.68474L74.5926 0.688174Z" fill="black"/>
</svg>
