<svg width="72" height="71" viewBox="0 0 72 71" fill="none" xmlns="http://www.w3.org/2000/svg">
<circle cx="36.5" cy="38" r="25" fill="#F8C455"/>
<circle cx="36.5" cy="38" r="25" fill="white" fill-opacity="0.5"/>
<path d="M49.3897 36.4062C50.9615 36.4062 52.4056 37.1275 53.3517 38.3851C53.5236 38.6135 53.7921 38.7471 54.0773 38.7471H57.5928C58.0943 38.7471 58.5 38.3418 58.5 37.8408V21.4531C58.5 20.9522 58.0943 20.5469 57.5928 20.5469H40.9227V18.3742C42.4173 17.0874 43.266 15.2484 43.266 13.2588C43.266 9.53204 40.2307 6.5 36.5 6.5C32.7683 6.5 29.7331 9.53204 29.7331 13.2588C29.7331 15.2484 30.5819 17.0883 32.0773 18.3751V20.5469H15.4072C14.9058 20.5469 14.5 20.9522 14.5 21.4531V37.8408C14.5 38.3418 14.9058 38.7471 15.4072 38.7471H18.9227C19.208 38.7471 19.4764 38.6126 19.6483 38.3851C20.5936 37.1275 22.0377 36.4062 23.6094 36.4062C26.3399 36.4062 28.5619 38.625 28.5619 41.3526C28.5619 44.0802 26.3399 46.299 23.6094 46.299C22.0377 46.299 20.5936 45.5777 19.6483 44.3201C19.4764 44.0926 19.208 43.958 18.9227 43.958H15.4072C14.9058 43.958 14.5 44.3634 14.5 44.8643V63.5938C14.5 64.0947 14.9058 64.5 15.4072 64.5H32.9845C33.4861 64.5 33.8918 64.0947 33.8918 63.5938V61.2521C33.8918 60.9671 33.7571 60.6989 33.5294 60.5272C32.2696 59.583 31.5475 58.1404 31.5475 56.5703C31.5475 53.8428 33.7696 51.6232 36.5 51.6232C39.2306 51.6232 41.4516 53.8428 41.4516 56.5703C41.4516 58.1404 40.7295 59.583 39.4706 60.5272C39.2421 60.6989 39.1082 60.9671 39.1082 61.2521V63.5938C39.1082 64.0947 39.514 64.5 40.0155 64.5H57.5928C58.0943 64.5 58.5 64.0947 58.5 63.5938V44.8643C58.5 44.3634 58.0943 43.958 57.5928 43.958H54.0773C53.7921 43.958 53.5236 44.0917 53.3517 44.3201C52.4056 45.5777 50.9615 46.299 49.3897 46.299C46.6593 46.299 44.4381 44.0802 44.4381 41.3526C44.4381 38.625 46.6593 36.4062 49.3897 36.4062ZM42.6237 41.3526C42.6237 45.0793 45.659 48.1115 49.3897 48.1115C51.3823 48.1115 53.2233 47.2636 54.5114 45.7705H56.6856V62.6875H40.9227V61.6857C42.4173 60.3998 43.266 58.5598 43.266 56.5703C43.266 52.8427 40.2307 49.8107 36.5 49.8107C32.7683 49.8107 29.7331 52.8427 29.7331 56.5703C29.7331 58.5598 30.5819 60.3998 32.0773 61.6857V62.6875H16.3144V45.7705H18.4886C19.7759 47.2636 21.6169 48.1115 23.6094 48.1115C27.341 48.1115 30.3763 45.0793 30.3763 41.3526C30.3763 37.6258 27.341 34.5938 23.6094 34.5938C21.6169 34.5938 19.7759 35.4416 18.4886 36.9346H16.3144V22.3594H32.9845C33.4861 22.3594 33.8918 21.9541 33.8918 21.4531V17.9414C33.8918 17.6565 33.758 17.3883 33.5294 17.2166C32.2696 16.2715 31.5475 14.8289 31.5475 13.2588C31.5475 10.5313 33.7696 8.3125 36.5 8.3125C39.2306 8.3125 41.4516 10.5313 41.4516 13.2588C41.4516 14.8289 40.7295 16.2715 39.4706 17.2175C39.2421 17.3883 39.1082 17.6565 39.1082 17.9414V21.4531C39.1082 21.9541 39.514 22.3594 40.0155 22.3594H56.6856V36.9346H54.5114C53.2233 35.4416 51.3823 34.5938 49.3897 34.5938C45.659 34.5938 42.6237 37.6258 42.6237 41.3526Z" fill="black"/>
</svg>
