<svg width="37" height="36" viewBox="0 0 37 36" fill="none" xmlns="http://www.w3.org/2000/svg">
<path opacity="0.5" d="M4.30624 6.54928C2.31741 11.534 5.75481 12.9859 9.99494 14.7758C14.2351 16.5658 18.7683 15.2687 19.66 13.0317C20.3086 11.4065 18.2102 6.59518 13.9713 4.80515C9.73116 3.01522 6.29376 1.56337 4.30624 6.54928Z" fill="#9D9D9C"/>
<path d="M1.78632 24.4633C2.32525 30.684 9.49518 35.1437 17.8012 34.4241C26.1073 33.7045 32.4034 28.0781 31.8645 21.8575C31.3256 15.6368 24.1556 11.1771 15.8496 11.8967C7.54353 12.6162 1.2474 18.2426 1.78632 24.4633Z" fill="#F8C455"/>
<path d="M1.78632 24.4633C2.32525 30.684 9.49518 35.1437 17.8012 34.4241C26.1073 33.7045 32.4034 28.0781 31.8645 21.8575C31.3256 15.6368 24.1556 11.1771 15.8496 11.8967C7.54353 12.6162 1.2474 18.2426 1.78632 24.4633Z" fill="white" fill-opacity="0.75"/>
<path d="M19.9907 34.1132C22.0866 33.6971 24.0094 32.9648 25.6717 31.9943C27.6016 24.8184 26.4288 17.3696 25.5717 13.6072C24.207 12.9265 22.675 12.4208 21.0339 12.124C21.8109 17.3784 20.4681 29.9893 19.9918 34.1118L19.9907 34.1132Z" fill="#1E1201"/>
<path d="M15.8495 11.8936C14.1186 12.0436 12.4759 12.4066 10.9633 12.944C8.68319 17.717 8.97356 28.7391 9.19964 33.2134C11.0664 33.9673 13.1833 34.416 15.4314 34.4859C14.1448 25.8228 15.8191 15.3705 16.4711 11.8498C16.2653 11.8614 16.0572 11.8756 15.8495 11.8936Z" fill="#1E1201"/>
<path d="M5.33556 30.9205C4.25853 25.1704 4.84827 19.7161 5.2749 16.3203C2.87126 18.5654 1.52468 21.4426 1.78611 24.4602C2.00418 26.9774 3.30858 29.2073 5.33566 30.9218L5.33556 30.9205Z" fill="#1E1201"/>
<path d="M27.17 19.1725C27.2366 19.9406 27.8978 20.5104 28.6473 20.4455C29.3968 20.3806 29.9502 19.7055 29.8837 18.9374C29.8171 18.1693 29.1558 17.5995 28.4064 17.6644C27.6569 17.7294 27.1035 18.4044 27.17 19.1725Z" fill="#F6F6F6"/>
<path d="M27.9136 19.11C27.9437 19.4573 28.2425 19.7148 28.5814 19.6855C28.9203 19.6561 29.1705 19.351 29.1404 19.0037C29.1103 18.6563 28.8114 18.3988 28.4725 18.4281C28.1336 18.4575 27.8835 18.7626 27.9136 19.11Z" fill="#1E1201"/>
<path opacity="0.3" d="M27.6169 22.9733C27.6525 23.3842 28.2632 23.6674 28.9799 23.6053C29.6966 23.5432 30.2495 23.1592 30.2139 22.7484C30.1783 22.3375 29.5676 22.0543 28.8509 22.1164C28.1342 22.1785 27.5813 22.5625 27.6169 22.9733Z" fill="#F186BB"/>
<path d="M32.8576 11.0849C32.9037 11.6177 33.3626 12.0132 33.8825 11.9682C34.4024 11.9231 34.7865 11.4546 34.7403 10.9218C34.6942 10.389 34.2352 9.99355 33.7154 10.0386C33.1955 10.0836 32.8114 10.5521 32.8576 11.0849Z" fill="#1E1201"/>
<path d="M31.5392 9.34274C31.5854 9.87555 32.0443 10.271 32.5642 10.226C33.084 10.1809 33.4681 9.71244 33.422 9.17963C33.3758 8.64682 32.9169 8.25136 32.397 8.2964C31.8771 8.34144 31.493 8.80993 31.5392 9.34274Z" fill="#1E1201"/>
<path d="M33.2071 11.057C30.0361 11.126 28.3657 12.8222 28.1969 16.143" stroke="#1D1D1B"/>
<path d="M31.8003 9.19141C28.8448 9.64312 27.2976 11.4202 27.1567 14.5253" stroke="#1D1D1B"/>
<path opacity="0.5" d="M2.44269 11.9788C1.65978 17.3081 5.33027 17.8906 9.85923 18.607C14.3871 19.3247 18.4907 16.9675 18.8415 14.5754C19.0972 12.8374 15.9539 8.6635 11.4249 7.94712C6.89709 7.2294 3.22549 6.64821 2.44269 11.9788Z" fill="#9D9D9C"/>
<path d="M29.0358 25.8151C29.4869 26.1912 30.1494 26.3934 31.0246 26.4242C31.2311 25.9823 31.4025 25.531 31.5376 25.0703C30.9523 25.4622 30.1204 25.819 29.0358 25.8151Z" fill="#1E1201"/>
</svg>
