<svg width="165" height="104" viewBox="0 0 165 104" fill="none" xmlns="http://www.w3.org/2000/svg">
<g clip-path="url(#clip0_3864_22444)">
<path opacity="0.5" d="M134.123 3.07381C131.701 7.86273 134.996 9.61348 139.061 11.7721C143.126 13.9307 147.756 13.0405 148.842 10.8913C149.632 9.32993 147.969 4.35163 143.905 2.19301C139.84 0.0343795 136.545 -1.71636 134.123 3.07381Z" fill="#9D9D9C"/>
<path d="M130.026 20.6909C130.012 26.9349 136.758 32.0124 145.095 32.0317C153.433 32.051 160.203 27.0047 160.217 20.7607C160.231 14.5168 153.485 9.43925 145.148 9.41998C136.81 9.4007 130.04 14.447 130.026 20.6909Z" fill="#F8C455"/>
<path d="M130.026 20.6909C130.012 26.9349 136.758 32.0124 145.095 32.0317C153.433 32.051 160.203 27.0047 160.217 20.7607C160.231 14.5168 153.485 9.43925 145.148 9.41998C136.81 9.4007 130.04 14.447 130.026 20.6909Z" fill="white" fill-opacity="0.5"/>
<path d="M147.304 31.9158C149.428 31.687 151.408 31.128 153.15 30.3086C155.708 23.332 155.2 15.8086 154.68 11.985C153.381 11.186 151.9 10.5466 150.291 10.1055C150.6 15.4081 148.145 27.8504 147.305 31.9145L147.304 31.9158Z" fill="#1E1201"/>
<path d="M145.148 9.42193C143.411 9.41791 141.742 9.63397 140.188 10.0352C137.494 14.5873 136.806 25.5918 136.635 30.0685C138.428 30.9848 140.496 31.6194 142.729 31.8882C142.216 23.1452 144.81 12.8824 145.771 9.43337C145.565 9.42664 145.356 9.42241 145.148 9.42193Z" fill="#1E1201"/>
<path d="M132.989 27.4407C132.426 21.6178 133.497 16.2372 134.223 12.8926C131.629 14.9159 130.033 17.6624 130.026 20.6913C130.02 23.2179 131.122 25.5546 132.989 27.442V27.4407Z" fill="#1E1201"/>
<path d="M155.779 17.6739C155.777 18.4449 156.385 19.071 157.138 19.0728C157.89 19.0745 158.501 18.4512 158.503 17.6802C158.504 16.9092 157.896 16.283 157.144 16.2813C156.392 16.2796 155.781 16.9029 155.779 17.6739Z" fill="#F6F6F6"/>
<path d="M156.525 17.6744C156.524 18.0231 156.799 18.3061 157.139 18.3069C157.479 18.3077 157.756 18.0259 157.756 17.6773C157.757 17.3287 157.482 17.0456 157.142 17.0449C156.802 17.0441 156.526 17.3258 156.525 17.6744Z" fill="#1E1201"/>
<path opacity="0.3" d="M155.887 21.4963C155.886 21.9086 156.469 22.2448 157.189 22.2465C157.908 22.2482 158.493 21.9146 158.494 21.5023C158.495 21.0899 157.912 20.7537 157.192 20.752C156.473 20.7504 155.888 21.0839 155.887 21.4963Z" fill="#F186BB"/>
<path d="M162.161 10.1224C162.159 10.6572 162.581 11.0918 163.103 11.093C163.625 11.0942 164.049 10.6616 164.05 10.1268C164.052 9.59202 163.63 9.15745 163.108 9.15625C162.586 9.15504 162.162 9.58766 162.161 10.1224Z" fill="#1E1201"/>
<path d="M161.002 8.26699C161.001 8.8018 161.423 9.23637 161.945 9.23757C162.466 9.23878 162.891 8.80617 162.892 8.27136C162.893 7.73656 162.471 7.30199 161.949 7.30078C161.427 7.29957 161.003 7.73219 161.002 8.26699Z" fill="#1E1201"/>
<path d="M162.512 10.1228C159.347 9.91051 157.533 11.452 157.071 14.7448" stroke="#1D1D1B"/>
<path d="M161.275 8.14062C158.291 8.32867 156.593 9.96164 156.177 13.0421" stroke="#1D1D1B"/>
<path opacity="0.5" d="M131.786 8.31412C130.534 13.5531 134.138 14.4586 138.586 15.5735C143.033 16.6897 147.329 14.7053 147.89 12.3537C148.299 10.6453 145.538 6.20919 141.09 5.0943C136.644 3.97817 133.038 3.07391 131.786 8.31412Z" fill="#9D9D9C"/>
<path d="M157.048 24.4498C157.464 24.8644 158.106 25.1245 158.976 25.2328C159.22 24.811 159.431 24.3766 159.606 23.9297C158.989 24.2681 158.128 24.5498 157.048 24.4498Z" fill="#1E1201"/>
<path d="M28.1816 127.218C7.36314 114.911 -13.3665 74.7765 6.05972 63.1493C23.743 52.565 89.1562 121.694 75.8958 130.112C53.3724 144.412 31.0526 60.5815 41.9336 38.8779C51.0301 20.7344 88.7389 82.076 83.6359 85.8952C81.463 87.5206 77.0247 82.8454 75.8117 81.629C41.154 46.8965 80.3694 -22.7079 125.333 18.7745" stroke="#F8C455" stroke-miterlimit="1.5" stroke-linecap="round" stroke-linejoin="round" stroke-dasharray="7 7"/>
<path d="M28.1816 127.218C7.36314 114.911 -13.3665 74.7765 6.05972 63.1493C23.743 52.565 89.1562 121.694 75.8958 130.112C53.3724 144.412 31.0526 60.5815 41.9336 38.8779C51.0301 20.7344 88.7389 82.076 83.6359 85.8952C81.463 87.5206 77.0247 82.8454 75.8117 81.629C41.154 46.8965 80.3694 -22.7079 125.333 18.7745" stroke="white" stroke-opacity="0.97" stroke-miterlimit="1.5" stroke-linecap="round" stroke-linejoin="round" stroke-dasharray="7 7"/>
</g>
<defs>
<clipPath id="clip0_3864_22444">
<rect width="165" height="104" fill="white"/>
</clipPath>
</defs>
</svg>
