<svg width="38" height="29" viewBox="0 0 38 29" fill="none" xmlns="http://www.w3.org/2000/svg">
<path opacity="0.5" d="M5.35049 4.89324C3.48802 8.92569 6.9072 10.1582 11.1248 11.6777C15.3425 13.1971 19.7878 12.2059 20.6228 10.3962C21.2302 9.08148 19.0649 5.13137 14.8485 3.6118C10.6308 2.09231 7.21164 0.859837 5.35049 4.89324Z" fill="#9D9D9C"/>
<path d="M2.99807 19.1746C3.65419 24.2596 10.8241 28.0032 19.013 27.536C27.2019 27.0688 33.308 22.5678 32.6519 17.4828C31.9958 12.3977 24.8258 8.65411 16.637 9.12131C8.44807 9.58851 2.34194 14.0896 2.99807 19.1746Z" fill="#F8C455"/>
<path d="M21.3321 27.089C23.3309 26.7843 25.158 26.223 26.7309 25.4666C28.44 19.7267 27.1726 13.7234 26.2789 10.6873C24.9589 10.1209 23.4821 9.69272 21.9048 9.43089C22.7508 13.6649 21.7093 23.7813 21.3331 27.0879L21.3321 27.089Z" fill="#1E1201"/>
<path d="M16.5129 9.30787C14.8511 9.40389 13.2782 9.67258 11.8339 10.0834C9.73375 13.8901 10.2274 22.76 10.5318 26.3622C12.3419 26.9951 14.3866 27.3861 16.5502 27.4743C15.1443 20.4877 16.5513 12.1041 17.1099 9.28146C16.9122 9.28784 16.7124 9.29635 16.5129 9.30787Z" fill="#1E1201"/>
<path d="M6.39781 24.5789C5.26416 19.9476 5.71926 15.5774 6.05908 12.8574C3.81939 14.6257 2.59584 16.9164 2.90224 19.3425C3.15782 21.3663 4.43965 23.1748 6.39793 24.5799L6.39781 24.5789Z" fill="#1E1201"/>
<path d="M28.1957 15.1222C28.2763 15.7467 28.9376 16.2188 29.673 16.1769C30.4084 16.1349 30.939 15.5949 30.8584 14.9704C30.7777 14.3459 30.1165 13.8738 29.3811 13.9157C28.6457 13.9577 28.1151 14.4977 28.1957 15.1222Z" fill="#F6F6F6"/>
<path d="M28.9252 15.0798C28.9616 15.3622 29.2605 15.5756 29.5931 15.5566C29.9256 15.5376 30.1654 15.2935 30.129 15.0111C30.0925 14.7287 29.7936 14.5154 29.4611 14.5343C29.1285 14.5533 28.8887 14.7974 28.9252 15.0798Z" fill="#1E1201"/>
<path opacity="0.3" d="M28.6314 18.1633C28.6748 18.5011 29.2856 18.7425 29.9944 18.7019C30.7032 18.6614 31.2433 18.3541 31.1999 18.0164C31.1564 17.6786 30.5456 17.4372 29.8368 17.4778C29.128 17.5183 28.5879 17.8256 28.6314 18.1633Z" fill="#F186BB"/>
<path d="M33.8755 8.65536C33.9314 9.08855 34.3903 9.41618 34.9004 9.38709C35.4106 9.35801 35.7788 8.98322 35.7229 8.55003C35.6669 8.11683 35.208 7.7892 34.6979 7.81829C34.1878 7.84737 33.8195 8.22216 33.8755 8.65536Z" fill="#1E1201"/>
<path d="M32.5571 7.26278C32.613 7.69597 33.072 8.0236 33.5821 7.99452C34.0922 7.96543 34.4604 7.59064 34.4045 7.15745C34.3486 6.72426 33.8896 6.39663 33.3795 6.42571C32.8694 6.4548 32.5012 6.82959 32.5571 7.26278Z" fill="#1E1201"/>
<path d="M34.121 8.64548C30.9965 8.65592 29.3836 10.0128 29.2832 12.714" stroke="#1D1D1B"/>
<path d="M32.71 7.15234C29.8109 7.47682 28.3239 8.89847 28.2468 11.4195" stroke="#1D1D1B"/>
<path opacity="0.5" d="M3.51618 9.24683C2.84864 13.5898 6.48777 14.1189 10.978 14.7698C15.4671 15.4217 19.4757 13.5551 19.7747 11.6058C19.9928 10.1895 16.8031 6.73367 12.3129 6.0828C7.82378 5.43084 4.18359 4.90282 3.51618 9.24683Z" fill="#9D9D9C"/>
<path d="M30.0455 20.4322C30.5005 20.7484 31.1617 20.9246 32.0305 20.9627C32.2265 20.6019 32.3874 20.2328 32.5122 19.8555C31.9395 20.1696 31.1215 20.4512 30.0455 20.4322Z" fill="#1E1201"/>
</svg>
