<svg width="58" height="58" viewBox="0 0 58 58" fill="none" xmlns="http://www.w3.org/2000/svg">
<circle cx="29" cy="29" r="29" fill="white" fill-opacity="0.1"/>
<path fill-rule="evenodd" clip-rule="evenodd" d="M10.1985 16.9974C17.4183 16.8994 23.9965 14.1448 28.9998 9.6667C34.0031 14.1448 40.5813 16.8994 47.8011 16.9974C48.0633 18.5592 48.1998 20.1637 48.1998 21.8001C48.1998 34.3397 40.1856 45.0076 28.9998 48.9612C17.814 45.0076 9.7998 34.3397 9.7998 21.8001C9.7998 20.1637 9.93628 18.5592 10.1985 16.9974ZM37.8969 25.8971C38.8341 24.9598 38.8341 23.4402 37.8969 22.5029C36.9596 21.5657 35.44 21.5657 34.5027 22.5029L26.5998 30.4059L23.4969 27.3029C22.5596 26.3657 21.04 26.3657 20.1027 27.3029C19.1655 28.2402 19.1655 29.7598 20.1027 30.6971L24.9027 35.4971C25.84 36.4343 27.3596 36.4343 28.2969 35.4971L37.8969 25.8971Z" fill="#F8C455"/>
</svg>
