<svg width="53" height="48" viewBox="0 0 53 48" fill="none" xmlns="http://www.w3.org/2000/svg">
<path d="M18.5172 39.208C34.4177 39.208 43.1124 27.2025 43.1124 16.7921C43.1124 16.4512 43.1048 16.1117 43.088 15.7738C44.7758 14.6617 46.2429 13.2739 47.3999 11.6941C45.8511 12.3216 44.1843 12.744 42.4357 12.9344C44.2205 11.9591 45.5907 10.4161 46.237 8.57677C44.5669 9.47917 42.7172 10.1351 40.7479 10.4891C39.1704 8.9577 36.9246 8 34.4379 8C29.6642 8 25.7929 11.5282 25.7929 15.8774C25.7929 16.4957 25.8687 17.097 26.0171 17.6738C18.8324 17.3443 12.4618 14.2093 8.1987 9.44232C7.4563 10.6066 7.02823 11.9591 7.02823 13.4022C7.02823 16.1355 8.55431 18.5486 10.875 19.9602C9.45681 19.9202 8.12454 19.5654 6.95997 18.9748C6.95869 19.0079 6.9587 19.0401 6.9587 19.0754C6.9587 22.8909 9.93839 26.0766 13.8939 26.7985C13.1675 26.979 12.4032 27.0758 11.6145 27.0758C11.0583 27.0758 10.5165 27.0259 9.98979 26.9337C11.0903 30.0641 14.2815 32.342 18.0652 32.4057C15.1065 34.5193 11.3794 35.7781 7.32863 35.7781C6.63174 35.7781 5.94327 35.7419 5.2666 35.669C9.09235 37.9039 13.6352 39.208 18.5177 39.208" fill="black"/>
</svg>
