<svg width="71" height="71" viewBox="0 0 71 71" fill="none" xmlns="http://www.w3.org/2000/svg">
<circle cx="36" cy="35" r="25" fill="#F8C455"/>
<circle cx="36" cy="35" r="25" fill="white" fill-opacity="0.5"/>
<mask id="path-2-inside-1_3517_22713" fill="white">
<path fill-rule="evenodd" clip-rule="evenodd" d="M49.5 56H58C59.1046 56 60 55.1046 60 54V18C60 16.8954 59.1046 16 58 16H49.5C50.6046 16 51.5 16.8954 51.5 18V54C51.5 55.1046 50.6046 56 49.5 56Z"/>
</mask>
<path d="M58 54.5H49.5V57.5H58V54.5ZM58.5 54C58.5 54.2762 58.2762 54.5 58 54.5V57.5C59.933 57.5 61.5 55.933 61.5 54H58.5ZM58.5 18V54H61.5V18H58.5ZM58 17.5C58.2762 17.5 58.5 17.7239 58.5 18H61.5C61.5 16.067 59.933 14.5 58 14.5V17.5ZM49.5 17.5H58V14.5H49.5V17.5ZM49.5 17.5C49.7761 17.5 50 17.7239 50 18H53C53 16.067 51.433 14.5 49.5 14.5V17.5ZM50 18V54H53V18H50ZM50 54C50 54.2762 49.7761 54.5 49.5 54.5V57.5C51.433 57.5 53 55.933 53 54H50Z" fill="#C5C7C8" mask="url(#path-2-inside-1_3517_22713)"/>
<path d="M58 54.5H49.5V57.5H58V54.5ZM58.5 54C58.5 54.2762 58.2762 54.5 58 54.5V57.5C59.933 57.5 61.5 55.933 61.5 54H58.5ZM58.5 18V54H61.5V18H58.5ZM58 17.5C58.2762 17.5 58.5 17.7239 58.5 18H61.5C61.5 16.067 59.933 14.5 58 14.5V17.5ZM49.5 17.5H58V14.5H49.5V17.5ZM49.5 17.5C49.7761 17.5 50 17.7239 50 18H53C53 16.067 51.433 14.5 49.5 14.5V17.5ZM50 18V54H53V18H50ZM50 54C50 54.2762 49.7761 54.5 49.5 54.5V57.5C51.433 57.5 53 55.933 53 54H50Z" fill="black" fill-opacity="0.8" mask="url(#path-2-inside-1_3517_22713)"/>
<rect x="12.75" y="16.75" width="42.5" height="38.5" rx="1.25" stroke="#C5C7C8" stroke-width="1.5"/>
<rect x="12.75" y="16.75" width="42.5" height="38.5" rx="1.25" stroke="black" stroke-opacity="0.8" stroke-width="1.5"/>
<path d="M25.25 35.5C25.25 37.5711 23.5711 39.25 21.5 39.25C19.4289 39.25 17.75 37.5711 17.75 35.5C17.75 33.4289 19.4289 31.75 21.5 31.75C23.5711 31.75 25.25 33.4289 25.25 35.5Z" stroke="#C5C7C8" stroke-width="1.5"/>
<path d="M25.25 35.5C25.25 37.5711 23.5711 39.25 21.5 39.25C19.4289 39.25 17.75 37.5711 17.75 35.5C17.75 33.4289 19.4289 31.75 21.5 31.75C23.5711 31.75 25.25 33.4289 25.25 35.5Z" stroke="black" stroke-opacity="0.8" stroke-width="1.5"/>
</svg>
