<svg width="80" height="71" viewBox="0 0 80 71" fill="none" xmlns="http://www.w3.org/2000/svg">
<ellipse cx="40.5507" cy="36" rx="27.5346" ry="25" fill="#F8C455"/>
<ellipse cx="40.5507" cy="36" rx="27.5346" ry="25" fill="white" fill-opacity="0.5"/>
<g clip-path="url(#clip0_3517_22724)">
<path d="M26.5038 26.2382C31.183 26.2382 35.8587 25.0584 40.5958 22.7C48.5668 18.7301 58.628 18.7314 66.8507 22.705C67.2568 22.9 67.8011 22.8171 68.0665 22.5177C68.3323 22.2183 68.2188 21.8164 67.813 21.6202C58.9873 17.3566 48.1821 17.3585 39.6128 21.6252C30.7992 26.0141 22.2141 26.0148 13.3686 21.6246C12.9659 21.4246 12.4204 21.5044 12.1494 21.8012C11.8788 22.098 11.986 22.5006 12.3883 22.7006C17.1416 25.059 21.8242 26.2382 26.5038 26.2382Z" fill="black"/>
<path d="M67.8129 35.4346C58.9864 31.171 48.1811 31.173 39.6127 35.4397C30.7982 39.8299 22.2131 39.8292 13.3685 35.4391C12.9658 35.239 12.4203 35.3182 12.1497 35.6157C11.8787 35.9125 11.9859 36.3151 12.3882 36.5151C17.1411 38.8735 21.8233 40.0533 26.5029 40.0533C31.182 40.0527 35.8578 38.8735 40.5957 36.5145C48.5658 32.544 58.627 32.5465 66.8506 36.5195C67.2567 36.7144 67.8014 36.6316 68.0668 36.3321C68.3322 36.0328 68.2187 35.6308 67.8129 35.4346Z" fill="black"/>
<path d="M67.8129 49.2481C58.9864 44.9858 48.1816 44.9877 39.6127 49.2532C30.7999 53.6434 22.2156 53.6447 13.3685 49.2525C12.9658 49.0526 12.4203 49.1323 12.1497 49.4292C11.8787 49.726 11.9859 50.1286 12.3882 50.3286C17.1415 52.6876 21.8245 53.8674 26.5037 53.8668C31.1829 53.8668 35.8586 52.687 40.5952 50.328C48.5667 46.3587 58.627 46.36 66.8506 50.333C67.2567 50.5279 67.8014 50.4451 68.0668 50.1457C68.3322 49.8463 68.2187 49.4443 67.8129 49.2481Z" fill="black"/>
</g>
<defs>
<clipPath id="clip0_3517_22724">
<rect width="56.21" height="41.15" fill="white" transform="translate(12 15.4238)"/>
</clipPath>
</defs>
</svg>
