<svg width="30" height="31" viewBox="0 0 30 31" fill="none" xmlns="http://www.w3.org/2000/svg">
<path d="M28.8307 6.97706C27.7478 5.68977 25.7484 5.16467 21.9301 5.16467H8.06961C4.1639 5.16467 2.13068 5.72364 1.05184 7.09416C0 8.43042 0 10.3993 0 13.1243V18.318C0 23.5972 1.248 26.2775 8.06961 26.2775H21.9302C25.2414 26.2775 27.0763 25.8142 28.2633 24.6781C29.4806 23.5132 30 21.6111 30 18.318V13.1243C30 10.2505 29.9186 8.27006 28.8307 6.97706ZM19.2601 16.4382L12.9661 19.7276C12.8254 19.8012 12.6715 19.8377 12.5178 19.8377C12.3438 19.8377 12.1702 19.7908 12.0165 19.6977C11.7269 19.5223 11.5501 19.2084 11.5501 18.8699V12.3121C11.5501 11.9742 11.7264 11.6606 12.0154 11.4851C12.3045 11.3095 12.664 11.2975 12.9639 11.4534L19.2579 14.7216C19.5781 14.8879 19.7792 15.2184 19.7797 15.5791C19.7801 15.9401 19.5798 16.2712 19.2601 16.4382Z" fill="black"/>
</svg>
