<svg width="134" height="60" viewBox="0 0 134 60" fill="none" xmlns="http://www.w3.org/2000/svg">
<circle r="4.1939" transform="matrix(-1 0 0 1 10.7644 15.7969)" fill="#C5C7C8"/>
<circle r="4.1939" transform="matrix(-1 0 0 1 10.7644 15.7969)" fill="black" fill-opacity="0.8"/>
<path d="M10.0654 15.168L17.894 22.9966" stroke="#C5C7C8" stroke-width="2.09695"/>
<path d="M10.0654 15.168L17.894 22.9966" stroke="black" stroke-opacity="0.8" stroke-width="2.09695"/>
<circle cx="45.0145" cy="15.7969" r="4.1939" fill="#C5C7C8"/>
<circle cx="45.0145" cy="15.7969" r="4.1939" fill="black" fill-opacity="0.8"/>
<path d="M45.7834 15.168L37.9548 22.9966" stroke="#C5C7C8" stroke-width="2.09695"/>
<path d="M45.7834 15.168L37.9548 22.9966" stroke="black" stroke-opacity="0.8" stroke-width="2.09695"/>
<path fill-rule="evenodd" clip-rule="evenodd" d="M11.9548 40.8233C9.6944 39.7472 8.37888 37.3307 8.81954 34.8664C10.7109 24.2893 18.593 16.3562 28.0292 16.3562C37.4884 16.3562 45.3858 24.3278 47.2526 34.9433C47.6867 37.4121 46.3605 39.8274 44.0924 40.8948C39.2391 43.1787 33.8182 44.4554 28.0991 44.4554C22.3206 44.4554 16.8465 43.152 11.9548 40.8233Z" fill="#FFDF6F"/>
<path d="M47.2526 34.9433L46.2199 35.1249L47.2526 34.9433ZM9.85165 35.0509C11.6792 24.8306 19.2335 17.4047 28.0292 17.4047V15.3077C17.9524 15.3077 9.74257 23.748 7.78744 34.6818L9.85165 35.0509ZM28.0292 17.4047C36.8461 17.4047 44.416 24.8669 46.2199 35.1249L48.2852 34.7617C46.3555 23.7887 38.1306 15.3077 28.0292 15.3077V17.4047ZM43.646 39.9461C38.9294 42.1656 33.6607 43.4069 28.0991 43.4069V45.5038C33.9758 45.5038 39.5488 44.1917 44.5388 41.8434L43.646 39.9461ZM28.0991 43.4069C22.4798 43.4069 17.1594 42.1397 12.4054 39.8766L11.5041 41.7699C16.5336 44.1643 22.1614 45.5038 28.0991 45.5038V43.4069ZM46.2199 35.1249C46.568 37.1042 45.5082 39.0697 43.646 39.9461L44.5388 41.8434C47.2128 40.5851 48.8054 37.7199 48.2852 34.7617L46.2199 35.1249ZM7.78744 34.6818C7.2594 37.6348 8.83929 40.5013 11.5041 41.7699L12.4054 39.8766C10.5495 38.9931 9.49836 37.0266 9.85165 35.0509L7.78744 34.6818Z" fill="#C5C7C8"/>
<path d="M47.2526 34.9433L46.2199 35.1249L47.2526 34.9433ZM9.85165 35.0509C11.6792 24.8306 19.2335 17.4047 28.0292 17.4047V15.3077C17.9524 15.3077 9.74257 23.748 7.78744 34.6818L9.85165 35.0509ZM28.0292 17.4047C36.8461 17.4047 44.416 24.8669 46.2199 35.1249L48.2852 34.7617C46.3555 23.7887 38.1306 15.3077 28.0292 15.3077V17.4047ZM43.646 39.9461C38.9294 42.1656 33.6607 43.4069 28.0991 43.4069V45.5038C33.9758 45.5038 39.5488 44.1917 44.5388 41.8434L43.646 39.9461ZM28.0991 43.4069C22.4798 43.4069 17.1594 42.1397 12.4054 39.8766L11.5041 41.7699C16.5336 44.1643 22.1614 45.5038 28.0991 45.5038V43.4069ZM46.2199 35.1249C46.568 37.1042 45.5082 39.0697 43.646 39.9461L44.5388 41.8434C47.2128 40.5851 48.8054 37.7199 48.2852 34.7617L46.2199 35.1249ZM7.78744 34.6818C7.2594 37.6348 8.83929 40.5013 11.5041 41.7699L12.4054 39.8766C10.5495 38.9931 9.49836 37.0266 9.85165 35.0509L7.78744 34.6818Z" fill="black" fill-opacity="0.8"/>
<path fill-rule="evenodd" clip-rule="evenodd" d="M15.9878 38.1936C14.1683 37.4526 13.089 35.5167 13.7195 33.6561C15.6638 27.9179 21.3354 23.7654 28.0292 23.7654C34.723 23.7654 40.3947 27.9179 42.339 33.6561C42.9694 35.5167 41.8901 37.4526 40.0707 38.1936C36.3545 39.7071 32.2893 40.541 28.0292 40.541C23.7692 40.541 19.704 39.7071 15.9878 38.1936Z" fill="#C5C7C8"/>
<path fill-rule="evenodd" clip-rule="evenodd" d="M15.9878 38.1936C14.1683 37.4526 13.089 35.5167 13.7195 33.6561C15.6638 27.9179 21.3354 23.7654 28.0292 23.7654C34.723 23.7654 40.3947 27.9179 42.339 33.6561C42.9694 35.5167 41.8901 37.4526 40.0707 38.1936C36.3545 39.7071 32.2893 40.541 28.0292 40.541C23.7692 40.541 19.704 39.7071 15.9878 38.1936Z" fill="black" fill-opacity="0.8"/>
<ellipse cx="32.8522" cy="32.7124" rx="3.49492" ry="2.79593" fill="#F8C455"/>
<ellipse cx="32.8522" cy="32.7124" rx="3.49492" ry="2.79593" fill="white" fill-opacity="0.97"/>
<ellipse cx="22.8472" cy="32.7141" rx="3.49492" ry="2.79593" fill="#F8C455"/>
<ellipse cx="22.8472" cy="32.7141" rx="3.49492" ry="2.79593" fill="white" fill-opacity="0.97"/>
<path d="M72.0421 29.8637H67.1752L69.5537 23.094L72.0421 29.8637ZM66.3336 15.1168L57.0023 40H63.6257L65.3455 35.0965H73.9449L75.738 40.3659L82.2881 39.7073L72.9935 15.1168H66.3336ZM90.7754 40V14.1653L84.1155 14.5679V40H90.7754ZM97.7924 40L101.086 36.67V14.1653L94.4258 14.5679V40H97.7924ZM98.9268 29.1685C99.6342 28.4366 100.293 27.8511 100.903 27.412C101.513 26.9729 102.11 26.7533 102.696 26.7533C103.403 26.7533 103.989 26.9119 104.452 27.229C104.94 27.5462 105.306 28.0219 105.55 28.6562C105.818 29.2661 105.953 30.0223 105.953 30.9249C105.953 31.8276 105.818 32.6082 105.55 33.2669C105.282 33.9256 104.928 34.4257 104.489 34.7672C104.05 35.1087 103.55 35.2795 102.989 35.2795C102.354 35.2795 101.696 35.1087 101.013 34.7672C100.33 34.4013 99.6342 33.889 98.9268 33.2303L97.0605 37.1457C97.7436 37.9264 98.4267 38.5607 99.1097 39.0486C99.8172 39.5121 100.525 39.8536 101.232 40.0732C101.964 40.2927 102.696 40.4025 103.428 40.4025C105.306 40.4025 106.941 40.0488 108.331 39.3413C109.746 38.6339 110.844 37.5727 111.625 36.1577C112.43 34.7428 112.832 32.9863 112.832 30.8883C112.832 28.7659 112.43 27.0217 111.625 25.6555C110.844 24.2894 109.77 23.277 108.404 22.6183C107.038 21.9596 105.477 21.6303 103.72 21.6303C102.818 21.6303 101.94 21.7889 101.086 22.106C100.232 22.4232 99.4513 22.8379 98.7438 23.3502C98.0607 23.8381 97.4996 24.3504 97.0605 24.8871L98.9268 29.1685ZM119.419 40.0732C119.297 40.4147 118.98 40.7563 118.468 41.0978C117.955 41.4393 117.37 41.7565 116.711 42.0492C116.077 42.342 115.467 42.6103 114.882 42.8543L117.114 48.0139C118.285 47.7455 119.419 47.3308 120.517 46.7697C121.615 46.2086 122.578 45.5255 123.408 44.7205C124.237 43.9155 124.835 43.0372 125.201 42.0858L132.995 22.2524H126.372L122.969 32.2789L119.346 21.5937L113.198 23.3502L119.566 39.6707L119.419 40.0732Z" fill="white"/>
</svg>
