<svg width="30" height="30" viewBox="0 0 30 30" fill="none" xmlns="http://www.w3.org/2000/svg">
<path d="M28.8307 6.25599C27.7478 4.9687 25.7484 4.4436 21.9301 4.4436H8.06961C4.1639 4.4436 2.13068 5.00257 1.05184 6.37309C0 7.70935 0 9.67822 0 12.4032V17.597C0 22.8761 1.248 25.5564 8.06961 25.5564H21.9302C25.2414 25.5564 27.0763 25.0931 28.2633 23.9571C29.4806 22.7921 30 20.89 30 17.597V12.4032C30 9.52948 29.9186 7.54899 28.8307 6.25599ZM19.2601 15.7171L12.9661 19.0066C12.8254 19.0801 12.6715 19.1166 12.5178 19.1166C12.3438 19.1166 12.1702 19.0698 12.0165 18.9767C11.7269 18.8012 11.5501 18.4874 11.5501 18.1489V11.5911C11.5501 11.2531 11.7264 10.9396 12.0154 10.764C12.3045 10.5885 12.664 10.5765 12.9639 10.7323L19.2579 14.0005C19.5781 14.1668 19.7792 14.4974 19.7797 14.8581C19.7801 15.219 19.5798 15.5501 19.2601 15.7171Z" fill="black"/>
</svg>
